<?xml version="1.0" encoding="utf-8" standalone="no"?>
<!DOCTYPE svg PUBLIC "-//W3C//DTD SVG 1.1//EN"
  "http://www.w3.org/Graphics/SVG/1.1/DTD/svg11.dtd">
<!-- Created with matplotlib (http://matplotlib.org/) -->
<svg height="432pt" version="1.1" viewBox="0 0 576 432" width="576pt" xmlns="http://www.w3.org/2000/svg" xmlns:xlink="http://www.w3.org/1999/xlink">
 <defs>
  <style type="text/css">
*{stroke-linecap:butt;stroke-linejoin:round;stroke-miterlimit:100000;}
  </style>
 </defs>
 <g id="figure_1">
  <g id="patch_1">
   <path d="M 0 432 
L 576 432 
L 576 0 
L 0 0 
z
" style="fill:#ffffff;"/>
  </g>
  <g id="axes_1">
   <g id="patch_2">
    <path d="M 72 118.330435 
L 518.4 118.330435 
L 518.4 43.2 
L 72 43.2 
z
" style="fill:#ffffff;"/>
   </g>
   <g id="line2d_1">
    <path clip-path="url(#pa7daf62f8a)" d="M 72 88.36209 
L 73.7856 87.58108 
L 75.5712 85.231915 
L 77.3568 82.67854 
L 79.1424 79.724715 
L 82.7136 75.937612 
L 84.4992 75.640047 
L 86.2848 74.782381 
L 88.0704 74.302942 
L 89.856 74.753912 
L 91.6416 76.055945 
L 93.4272 76.271469 
L 95.2128 75.741882 
L 96.9984 76.438803 
L 98.784 76.232827 
L 100.5696 75.73953 
L 102.3552 75.116478 
L 104.1408 73.490004 
L 105.9264 72.388685 
L 109.4976 70.722419 
L 111.2832 71.060187 
L 113.0688 72.105278 
L 114.8544 74.554935 
L 116.64 76.11637 
L 118.4256 78.02001 
L 120.2112 78.810269 
L 121.9968 80.923858 
L 123.7824 81.825417 
L 125.568 82.996253 
L 127.3536 83.092843 
L 129.1392 81.299096 
L 130.9248 79.93652 
L 134.496 73.92685 
L 136.2816 69.593236 
L 138.0672 66.863831 
L 139.8528 63.860613 
L 141.6384 61.364939 
L 143.424 60.31828 
L 145.2096 60.873101 
L 146.9952 61.855814 
L 148.7808 65.256222 
L 150.5664 69.016816 
L 152.352 75.197884 
L 154.1376 80.436821 
L 155.9232 86.821521 
L 159.4944 96.25715 
L 161.28 99.184403 
L 163.0656 101.24637 
L 164.8512 101.278066 
L 166.6368 99.523167 
L 168.4224 96.499952 
L 170.208 92.070229 
L 171.9936 86.023562 
L 175.5648 74.875601 
L 177.3504 68.409082 
L 179.136 63.569414 
L 180.9216 59.886703 
L 182.7072 57.651463 
L 184.4928 57.018166 
L 186.2784 56.932809 
L 188.064 58.772464 
L 189.8496 59.83283 
L 191.6352 62.342772 
L 193.4208 64.160025 
L 195.2064 67.831037 
L 196.992 70.60518 
L 198.7776 73.60359 
L 200.5632 75.124667 
L 202.3488 76.042614 
L 204.1344 77.190199 
L 205.92 80.15106 
L 207.7056 80.85561 
L 209.4912 82.510988 
L 214.848 88.06896 
L 216.6336 90.594366 
L 218.4192 91.836607 
L 220.2048 93.697809 
L 221.9904 94.157193 
L 223.776 94.019338 
L 225.5616 92.53018 
L 227.3472 90.882568 
L 230.9184 83.226736 
L 232.704 77.580649 
L 234.4896 72.641936 
L 236.2752 68.459651 
L 238.0608 63.671335 
L 239.8464 59.67199 
L 241.632 56.955164 
L 243.4176 55.332131 
L 245.2032 55.822124 
L 246.9888 57.265527 
L 248.7744 60.39432 
L 250.56 63.182021 
L 252.3456 67.248888 
L 254.1312 72.302789 
L 255.9168 76.689016 
L 259.488 82.397976 
L 261.2736 83.996096 
L 263.0592 83.648772 
L 264.8448 85.260518 
L 266.6304 83.816426 
L 270.2016 79.766036 
L 271.9872 77.423717 
L 273.7728 76.548034 
L 275.5584 75.098223 
L 277.344 76.027657 
L 279.1296 76.64495 
L 280.9152 77.54858 
L 282.7008 80.759343 
L 284.4864 82.834781 
L 286.272 85.661198 
L 289.8432 89.454254 
L 291.6288 90.345173 
L 295.2 88.097976 
L 296.9856 85.311464 
L 298.7712 81.633788 
L 300.5568 76.797601 
L 304.128 68.146982 
L 307.6992 61.473735 
L 309.4848 58.39236 
L 314.8416 59.434479 
L 316.6272 62.345302 
L 318.4128 64.801409 
L 320.1984 69.629199 
L 321.984 72.314501 
L 323.7696 76.182085 
L 325.5552 78.617741 
L 327.3408 80.859913 
L 329.1264 81.354115 
L 330.912 83.9773 
L 332.6976 84.534848 
L 334.4832 84.670004 
L 336.2688 84.467645 
L 338.0544 84.424222 
L 339.84 84.755201 
L 341.6256 84.630206 
L 343.4112 84.656893 
L 345.1968 85.443723 
L 346.9824 86.594415 
L 348.768 87.583608 
L 350.5536 86.781689 
L 352.3392 86.584705 
L 354.1248 85.225405 
L 355.9104 84.509985 
L 357.696 81.366178 
L 359.4816 77.422064 
L 361.2672 73.900842 
L 363.0528 69.546583 
L 366.624 61.667725 
L 370.1952 56.318583 
L 371.9808 55.849418 
L 373.7664 57.098926 
L 375.552 59.39215 
L 377.3376 63.142737 
L 380.9088 73.11481 
L 382.6944 79.081837 
L 384.48 84.021785 
L 386.2656 87.979446 
L 388.0512 92.638749 
L 389.8368 93.717517 
L 391.6224 94.300891 
L 393.408 94.299385 
L 395.1936 91.837547 
L 396.9792 88.377847 
L 400.5504 79.167363 
L 402.336 74.927404 
L 404.1216 70.034165 
L 405.9072 67.601853 
L 407.6928 65.813532 
L 409.4784 65.307215 
L 411.264 64.645788 
L 413.0496 66.575082 
L 414.8352 69.105563 
L 416.6208 72.171099 
L 418.4064 74.568024 
L 420.192 78.636595 
L 421.9776 80.603645 
L 423.7632 81.87555 
L 425.5488 83.786166 
L 427.3344 84.042515 
L 429.12 83.314464 
L 430.9056 83.432741 
L 432.6912 82.153503 
L 434.4768 79.863533 
L 436.2624 79.088181 
L 439.8336 76.653031 
L 441.6192 76.673759 
L 443.4048 76.101334 
L 445.1904 76.035044 
L 446.976 76.586208 
L 448.7616 75.546737 
L 450.5472 76.422292 
L 452.3328 75.096006 
L 454.1184 74.598683 
L 455.904 72.349665 
L 457.6896 71.140785 
L 459.4752 69.684806 
L 461.2608 67.110596 
L 463.0464 65.132713 
L 464.832 64.573372 
L 466.6176 64.659433 
L 468.4032 64.604955 
L 470.1888 67.083651 
L 471.9744 69.960128 
L 475.5456 78.699427 
L 477.3312 84.215734 
L 479.1168 88.989752 
L 480.9024 92.423945 
L 482.688 96.917848 
L 484.4736 98.612309 
L 486.2592 99.447329 
L 488.0448 98.612809 
L 489.8304 96.016437 
L 491.616 92.225619 
L 493.4016 86.938008 
L 498.7584 69.701707 
L 500.544 64.531175 
L 502.3296 61.005378 
L 504.1152 56.644406 
L 505.9008 56.113675 
L 507.6864 56.413967 
L 509.472 58.285156 
L 511.2576 61.347851 
L 513.0432 64.717157 
L 514.8288 68.896225 
L 516.6144 72.25019 
L 516.6144 72.25019 
" style="fill:none;stroke:#0000ff;stroke-linecap:square;"/>
   </g>
   <g id="line2d_2">
    <path clip-path="url(#pa7daf62f8a)" d="M 72 92.949733 
L 73.7856 90.381242 
L 75.5712 87.050715 
L 79.1424 79.798478 
L 80.928 76.66316 
L 82.7136 74.252766 
L 84.4992 72.725625 
L 86.2848 72.112696 
L 88.0704 72.32351 
L 89.856 73.167029 
L 95.2128 76.807406 
L 96.9984 77.521 
L 98.784 77.692928 
L 100.5696 77.287915 
L 102.3552 76.375476 
L 107.712 72.534058 
L 109.4976 71.733026 
L 111.2832 71.560591 
L 113.0688 72.149724 
L 114.8544 73.526978 
L 116.64 75.600911 
L 120.2112 80.922999 
L 121.9968 83.510591 
L 123.7824 85.549944 
L 125.568 86.691846 
L 127.3536 86.6638 
L 129.1392 85.310169 
L 130.9248 82.620365 
L 132.7104 78.74115 
L 134.496 73.970965 
L 138.0672 63.551694 
L 139.8528 58.968809 
L 141.6384 55.517647 
L 143.424 53.648658 
L 145.2096 53.680844 
L 146.9952 55.762225 
L 148.7808 59.847299 
L 150.5664 65.694312 
L 152.352 72.883018 
L 157.7088 96.49123 
L 159.4944 102.839852 
L 161.28 107.449249 
L 163.0656 109.925934 
L 164.8512 110.063415 
L 166.6368 107.859549 
L 168.4224 103.513266 
L 170.208 97.401332 
L 171.9936 90.037922 
L 177.3504 66.490738 
L 179.136 60.065986 
L 180.9216 55.073555 
L 182.7072 51.729684 
L 184.4928 50.087557 
L 186.2784 50.047465 
L 188.064 51.382869 
L 189.8496 53.778602 
L 191.6352 56.876068 
L 196.992 67.081481 
L 198.7776 70.031552 
L 200.5632 72.615993 
L 202.3488 74.89326 
L 207.7056 81.293191 
L 209.4912 83.782952 
L 211.2768 86.592555 
L 218.4192 98.886534 
L 220.2048 100.981985 
L 221.9904 102.05351 
L 223.776 101.825761 
L 225.5616 100.113345 
L 227.3472 96.853631 
L 229.1328 92.126925 
L 230.9184 86.16091 
L 234.4896 72.067642 
L 236.2752 64.942382 
L 238.0608 58.488698 
L 239.8464 53.211566 
L 241.632 49.52282 
L 243.4176 47.697917 
L 245.2032 47.846347 
L 246.9888 49.899218 
L 248.7744 53.615708 
L 250.56 58.607873 
L 255.9168 76.078502 
L 257.7024 80.970549 
L 259.488 84.686827 
L 261.2736 86.99833 
L 263.0592 87.843557 
L 264.8448 87.329953 
L 266.6304 85.716299 
L 268.416 83.378136 
L 271.9872 78.322027 
L 273.7728 76.481089 
L 275.5584 75.563221 
L 277.344 75.762838 
L 279.1296 77.119425 
L 280.9152 79.512302 
L 282.7008 82.674324 
L 286.272 89.704405 
L 288.0576 92.647737 
L 289.8432 94.619296 
L 291.6288 95.274582 
L 293.4144 94.39956 
L 295.2 91.937427 
L 296.9856 87.997689 
L 298.7712 82.84663 
L 302.3424 70.583505 
L 304.128 64.478696 
L 305.9136 59.072047 
L 307.6992 54.801418 
L 309.4848 51.992895 
L 311.2704 50.830353 
L 313.056 51.341291 
L 314.8416 53.40013 
L 316.6272 56.748204 
L 318.4128 61.027688 
L 323.7696 75.326896 
L 325.5552 79.343013 
L 327.3408 82.567718 
L 329.1264 84.920029 
L 330.912 86.435476 
L 332.6976 87.248932 
L 334.4832 87.565198 
L 339.84 87.823914 
L 341.6256 88.258699 
L 343.4112 88.961169 
L 346.9824 90.717009 
L 348.768 91.343274 
L 350.5536 91.442595 
L 352.3392 90.749209 
L 354.1248 89.05157 
L 355.9104 86.230882 
L 357.696 82.289919 
L 359.4816 77.368042 
L 363.0528 65.796672 
L 364.8384 60.012966 
L 366.624 54.899946 
L 368.4096 50.952438 
L 370.1952 48.594265 
L 371.9808 48.128634 
L 373.7664 49.699387 
L 375.552 53.267852 
L 377.3376 58.608405 
L 379.1232 65.32378 
L 384.48 87.98519 
L 386.2656 94.265186 
L 388.0512 98.967041 
L 389.8368 101.714041 
L 391.6224 102.312721 
L 393.408 100.770773 
L 395.1936 97.294374 
L 396.9792 92.265184 
L 398.7648 86.199664 
L 402.336 73.36874 
L 404.1216 67.795171 
L 405.9072 63.451082 
L 407.6928 60.67077 
L 409.4784 59.618363 
L 411.264 60.278868 
L 413.0496 62.468507 
L 414.8352 65.862649 
L 416.6208 70.037664 
L 420.192 78.847303 
L 421.9776 82.603056 
L 423.7632 85.473086 
L 425.5488 87.265652 
L 427.3344 87.924774 
L 429.12 87.525325 
L 430.9056 86.252733 
L 432.6912 84.370414 
L 436.2624 79.976061 
L 438.048 78.011782 
L 439.8336 76.462354 
L 441.6192 75.408162 
L 443.4048 74.829103 
L 445.1904 74.614068 
L 448.7616 74.522267 
L 450.5472 74.217048 
L 452.3328 73.495189 
L 454.1184 72.257583 
L 455.904 70.502193 
L 457.6896 68.334334 
L 461.2608 63.675799 
L 463.0464 61.817152 
L 464.832 60.735667 
L 466.6176 60.743478 
L 468.4032 62.07052 
L 470.1888 64.82697 
L 471.9744 68.977749 
L 473.76 74.332742 
L 475.5456 80.554633 
L 479.1168 93.680804 
L 480.9024 99.474139 
L 482.688 104.021548 
L 484.4736 106.864846 
L 486.2592 107.680211 
L 488.0448 106.315432 
L 489.8304 102.810212 
L 491.616 97.39691 
L 493.4016 90.481376 
L 498.7584 66.505096 
L 500.544 59.543901 
L 502.3296 54.028751 
L 504.1152 50.330699 
L 505.9008 48.643814 
L 507.6864 48.971827 
L 509.472 51.134865 
L 511.2576 54.795206 
L 513.0432 59.498923 
L 516.6144 69.960489 
L 516.6144 69.960489 
" style="fill:none;stroke:#008000;stroke-linecap:square;"/>
   </g>
   <g id="patch_3">
    <path d="M 72 43.2 
L 518.4 43.2 
" style="fill:none;stroke:#000000;stroke-linecap:square;stroke-linejoin:miter;"/>
   </g>
   <g id="patch_4">
    <path d="M 518.4 118.330435 
L 518.4 43.2 
" style="fill:none;stroke:#000000;stroke-linecap:square;stroke-linejoin:miter;"/>
   </g>
   <g id="patch_5">
    <path d="M 72 118.330435 
L 518.4 118.330435 
" style="fill:none;stroke:#000000;stroke-linecap:square;stroke-linejoin:miter;"/>
   </g>
   <g id="patch_6">
    <path d="M 72 118.330435 
L 72 43.2 
" style="fill:none;stroke:#000000;stroke-linecap:square;stroke-linejoin:miter;"/>
   </g>
   <g id="matplotlib.axis_1">
    <g id="xtick_1">
     <g id="line2d_3">
      <defs>
       <path d="M 0 0 
L 0 -4 
" id="m948468df07" style="stroke:#000000;stroke-width:0.5;"/>
      </defs>
      <g>
       <use style="stroke:#000000;stroke-width:0.5;" x="72.0" xlink:href="#m948468df07" y="118.330434783"/>
      </g>
     </g>
     <g id="line2d_4">
      <defs>
       <path d="M 0 0 
L 0 4 
" id="mdae13feedc" style="stroke:#000000;stroke-width:0.5;"/>
      </defs>
      <g>
       <use style="stroke:#000000;stroke-width:0.5;" x="72.0" xlink:href="#mdae13feedc" y="43.2"/>
      </g>
     </g>
     <g id="text_1">
      <!-- 0 -->
      <defs>
       <path d="M 31.78125 66.40625 
Q 24.171875 66.40625 20.328125 58.90625 
Q 16.5 51.421875 16.5 36.375 
Q 16.5 21.390625 20.328125 13.890625 
Q 24.171875 6.390625 31.78125 6.390625 
Q 39.453125 6.390625 43.28125 13.890625 
Q 47.125 21.390625 47.125 36.375 
Q 47.125 51.421875 43.28125 58.90625 
Q 39.453125 66.40625 31.78125 66.40625 
M 31.78125 74.21875 
Q 44.046875 74.21875 50.515625 64.515625 
Q 56.984375 54.828125 56.984375 36.375 
Q 56.984375 17.96875 50.515625 8.265625 
Q 44.046875 -1.421875 31.78125 -1.421875 
Q 19.53125 -1.421875 13.0625 8.265625 
Q 6.59375 17.96875 6.59375 36.375 
Q 6.59375 54.828125 13.0625 64.515625 
Q 19.53125 74.21875 31.78125 74.21875 
" id="BitstreamVeraSans-Roman-30"/>
      </defs>
      <g transform="translate(68.1825 131.448559783)scale(0.12 -0.12)">
       <use xlink:href="#BitstreamVeraSans-Roman-30"/>
      </g>
     </g>
    </g>
    <g id="xtick_2">
     <g id="line2d_5">
      <g>
       <use style="stroke:#000000;stroke-width:0.5;" x="161.28" xlink:href="#m948468df07" y="118.330434783"/>
      </g>
     </g>
     <g id="line2d_6">
      <g>
       <use style="stroke:#000000;stroke-width:0.5;" x="161.28" xlink:href="#mdae13feedc" y="43.2"/>
      </g>
     </g>
     <g id="text_2">
      <!-- 50 -->
      <defs>
       <path d="M 10.796875 72.90625 
L 49.515625 72.90625 
L 49.515625 64.59375 
L 19.828125 64.59375 
L 19.828125 46.734375 
Q 21.96875 47.46875 24.109375 47.828125 
Q 26.265625 48.1875 28.421875 48.1875 
Q 40.625 48.1875 47.75 41.5 
Q 54.890625 34.8125 54.890625 23.390625 
Q 54.890625 11.625 47.5625 5.09375 
Q 40.234375 -1.421875 26.90625 -1.421875 
Q 22.3125 -1.421875 17.546875 -0.640625 
Q 12.796875 0.140625 7.71875 1.703125 
L 7.71875 11.625 
Q 12.109375 9.234375 16.796875 8.0625 
Q 21.484375 6.890625 26.703125 6.890625 
Q 35.15625 6.890625 40.078125 11.328125 
Q 45.015625 15.765625 45.015625 23.390625 
Q 45.015625 31 40.078125 35.4375 
Q 35.15625 39.890625 26.703125 39.890625 
Q 22.75 39.890625 18.8125 39.015625 
Q 14.890625 38.140625 10.796875 36.28125 
z
" id="BitstreamVeraSans-Roman-35"/>
      </defs>
      <g transform="translate(153.645 131.448559783)scale(0.12 -0.12)">
       <use xlink:href="#BitstreamVeraSans-Roman-35"/>
       <use x="63.623046875" xlink:href="#BitstreamVeraSans-Roman-30"/>
      </g>
     </g>
    </g>
    <g id="xtick_3">
     <g id="line2d_7">
      <g>
       <use style="stroke:#000000;stroke-width:0.5;" x="250.56" xlink:href="#m948468df07" y="118.330434783"/>
      </g>
     </g>
     <g id="line2d_8">
      <g>
       <use style="stroke:#000000;stroke-width:0.5;" x="250.56" xlink:href="#mdae13feedc" y="43.2"/>
      </g>
     </g>
     <g id="text_3">
      <!-- 100 -->
      <defs>
       <path d="M 12.40625 8.296875 
L 28.515625 8.296875 
L 28.515625 63.921875 
L 10.984375 60.40625 
L 10.984375 69.390625 
L 28.421875 72.90625 
L 38.28125 72.90625 
L 38.28125 8.296875 
L 54.390625 8.296875 
L 54.390625 0 
L 12.40625 0 
z
" id="BitstreamVeraSans-Roman-31"/>
      </defs>
      <g transform="translate(239.1075 131.448559783)scale(0.12 -0.12)">
       <use xlink:href="#BitstreamVeraSans-Roman-31"/>
       <use x="63.623046875" xlink:href="#BitstreamVeraSans-Roman-30"/>
       <use x="127.24609375" xlink:href="#BitstreamVeraSans-Roman-30"/>
      </g>
     </g>
    </g>
    <g id="xtick_4">
     <g id="line2d_9">
      <g>
       <use style="stroke:#000000;stroke-width:0.5;" x="339.84" xlink:href="#m948468df07" y="118.330434783"/>
      </g>
     </g>
     <g id="line2d_10">
      <g>
       <use style="stroke:#000000;stroke-width:0.5;" x="339.84" xlink:href="#mdae13feedc" y="43.2"/>
      </g>
     </g>
     <g id="text_4">
      <!-- 150 -->
      <g transform="translate(328.3875 131.448559783)scale(0.12 -0.12)">
       <use xlink:href="#BitstreamVeraSans-Roman-31"/>
       <use x="63.623046875" xlink:href="#BitstreamVeraSans-Roman-35"/>
       <use x="127.24609375" xlink:href="#BitstreamVeraSans-Roman-30"/>
      </g>
     </g>
    </g>
    <g id="xtick_5">
     <g id="line2d_11">
      <g>
       <use style="stroke:#000000;stroke-width:0.5;" x="429.12" xlink:href="#m948468df07" y="118.330434783"/>
      </g>
     </g>
     <g id="line2d_12">
      <g>
       <use style="stroke:#000000;stroke-width:0.5;" x="429.12" xlink:href="#mdae13feedc" y="43.2"/>
      </g>
     </g>
     <g id="text_5">
      <!-- 200 -->
      <defs>
       <path d="M 19.1875 8.296875 
L 53.609375 8.296875 
L 53.609375 0 
L 7.328125 0 
L 7.328125 8.296875 
Q 12.9375 14.109375 22.625 23.890625 
Q 32.328125 33.6875 34.8125 36.53125 
Q 39.546875 41.84375 41.421875 45.53125 
Q 43.3125 49.21875 43.3125 52.78125 
Q 43.3125 58.59375 39.234375 62.25 
Q 35.15625 65.921875 28.609375 65.921875 
Q 23.96875 65.921875 18.8125 64.3125 
Q 13.671875 62.703125 7.8125 59.421875 
L 7.8125 69.390625 
Q 13.765625 71.78125 18.9375 73 
Q 24.125 74.21875 28.421875 74.21875 
Q 39.75 74.21875 46.484375 68.546875 
Q 53.21875 62.890625 53.21875 53.421875 
Q 53.21875 48.921875 51.53125 44.890625 
Q 49.859375 40.875 45.40625 35.40625 
Q 44.1875 33.984375 37.640625 27.21875 
Q 31.109375 20.453125 19.1875 8.296875 
" id="BitstreamVeraSans-Roman-32"/>
      </defs>
      <g transform="translate(417.6675 131.448559783)scale(0.12 -0.12)">
       <use xlink:href="#BitstreamVeraSans-Roman-32"/>
       <use x="63.623046875" xlink:href="#BitstreamVeraSans-Roman-30"/>
       <use x="127.24609375" xlink:href="#BitstreamVeraSans-Roman-30"/>
      </g>
     </g>
    </g>
    <g id="xtick_6">
     <g id="line2d_13">
      <g>
       <use style="stroke:#000000;stroke-width:0.5;" x="518.4" xlink:href="#m948468df07" y="118.330434783"/>
      </g>
     </g>
     <g id="line2d_14">
      <g>
       <use style="stroke:#000000;stroke-width:0.5;" x="518.4" xlink:href="#mdae13feedc" y="43.2"/>
      </g>
     </g>
     <g id="text_6">
      <!-- 250 -->
      <g transform="translate(506.9475 131.448559783)scale(0.12 -0.12)">
       <use xlink:href="#BitstreamVeraSans-Roman-32"/>
       <use x="63.623046875" xlink:href="#BitstreamVeraSans-Roman-35"/>
       <use x="127.24609375" xlink:href="#BitstreamVeraSans-Roman-30"/>
      </g>
     </g>
    </g>
   </g>
   <g id="matplotlib.axis_2">
    <g id="ytick_1">
     <g id="line2d_15">
      <defs>
       <path d="M 0 0 
L 4 0 
" id="m509b242d09" style="stroke:#000000;stroke-width:0.5;"/>
      </defs>
      <g>
       <use style="stroke:#000000;stroke-width:0.5;" x="72.0" xlink:href="#m509b242d09" y="118.330434783"/>
      </g>
     </g>
     <g id="line2d_16">
      <defs>
       <path d="M 0 0 
L -4 0 
" id="mca8815af1b" style="stroke:#000000;stroke-width:0.5;"/>
      </defs>
      <g>
       <use style="stroke:#000000;stroke-width:0.5;" x="518.4" xlink:href="#mca8815af1b" y="118.330434783"/>
      </g>
     </g>
     <g id="text_7">
      <!-- −1.0 -->
      <defs>
       <path d="M 10.59375 35.5 
L 73.1875 35.5 
L 73.1875 27.203125 
L 10.59375 27.203125 
z
" id="BitstreamVeraSans-Roman-2212"/>
       <path d="M 10.6875 12.40625 
L 21 12.40625 
L 21 0 
L 10.6875 0 
z
" id="BitstreamVeraSans-Roman-2e"/>
      </defs>
      <g transform="translate(38.860625 121.641684783)scale(0.12 -0.12)">
       <use xlink:href="#BitstreamVeraSans-Roman-2212"/>
       <use x="83.7890625" xlink:href="#BitstreamVeraSans-Roman-31"/>
       <use x="147.412109375" xlink:href="#BitstreamVeraSans-Roman-2e"/>
       <use x="179.19921875" xlink:href="#BitstreamVeraSans-Roman-30"/>
      </g>
     </g>
    </g>
    <g id="ytick_2">
     <g id="line2d_17">
      <g>
       <use style="stroke:#000000;stroke-width:0.5;" x="72.0" xlink:href="#m509b242d09" y="109.982608696"/>
      </g>
     </g>
     <g id="line2d_18">
      <g>
       <use style="stroke:#000000;stroke-width:0.5;" x="518.4" xlink:href="#mca8815af1b" y="109.982608696"/>
      </g>
     </g>
     <g id="text_8">
      <!-- −0.8 -->
      <defs>
       <path d="M 31.78125 34.625 
Q 24.75 34.625 20.71875 30.859375 
Q 16.703125 27.09375 16.703125 20.515625 
Q 16.703125 13.921875 20.71875 10.15625 
Q 24.75 6.390625 31.78125 6.390625 
Q 38.8125 6.390625 42.859375 10.171875 
Q 46.921875 13.96875 46.921875 20.515625 
Q 46.921875 27.09375 42.890625 30.859375 
Q 38.875 34.625 31.78125 34.625 
M 21.921875 38.8125 
Q 15.578125 40.375 12.03125 44.71875 
Q 8.5 49.078125 8.5 55.328125 
Q 8.5 64.0625 14.71875 69.140625 
Q 20.953125 74.21875 31.78125 74.21875 
Q 42.671875 74.21875 48.875 69.140625 
Q 55.078125 64.0625 55.078125 55.328125 
Q 55.078125 49.078125 51.53125 44.71875 
Q 48 40.375 41.703125 38.8125 
Q 48.828125 37.15625 52.796875 32.3125 
Q 56.78125 27.484375 56.78125 20.515625 
Q 56.78125 9.90625 50.3125 4.234375 
Q 43.84375 -1.421875 31.78125 -1.421875 
Q 19.734375 -1.421875 13.25 4.234375 
Q 6.78125 9.90625 6.78125 20.515625 
Q 6.78125 27.484375 10.78125 32.3125 
Q 14.796875 37.15625 21.921875 38.8125 
M 18.3125 54.390625 
Q 18.3125 48.734375 21.84375 45.5625 
Q 25.390625 42.390625 31.78125 42.390625 
Q 38.140625 42.390625 41.71875 45.5625 
Q 45.3125 48.734375 45.3125 54.390625 
Q 45.3125 60.0625 41.71875 63.234375 
Q 38.140625 66.40625 31.78125 66.40625 
Q 25.390625 66.40625 21.84375 63.234375 
Q 18.3125 60.0625 18.3125 54.390625 
" id="BitstreamVeraSans-Roman-38"/>
      </defs>
      <g transform="translate(38.860625 113.293858696)scale(0.12 -0.12)">
       <use xlink:href="#BitstreamVeraSans-Roman-2212"/>
       <use x="83.7890625" xlink:href="#BitstreamVeraSans-Roman-30"/>
       <use x="147.412109375" xlink:href="#BitstreamVeraSans-Roman-2e"/>
       <use x="179.19921875" xlink:href="#BitstreamVeraSans-Roman-38"/>
      </g>
     </g>
    </g>
    <g id="ytick_3">
     <g id="line2d_19">
      <g>
       <use style="stroke:#000000;stroke-width:0.5;" x="72.0" xlink:href="#m509b242d09" y="101.634782609"/>
      </g>
     </g>
     <g id="line2d_20">
      <g>
       <use style="stroke:#000000;stroke-width:0.5;" x="518.4" xlink:href="#mca8815af1b" y="101.634782609"/>
      </g>
     </g>
     <g id="text_9">
      <!-- −0.6 -->
      <defs>
       <path d="M 33.015625 40.375 
Q 26.375 40.375 22.484375 35.828125 
Q 18.609375 31.296875 18.609375 23.390625 
Q 18.609375 15.53125 22.484375 10.953125 
Q 26.375 6.390625 33.015625 6.390625 
Q 39.65625 6.390625 43.53125 10.953125 
Q 47.40625 15.53125 47.40625 23.390625 
Q 47.40625 31.296875 43.53125 35.828125 
Q 39.65625 40.375 33.015625 40.375 
M 52.59375 71.296875 
L 52.59375 62.3125 
Q 48.875 64.0625 45.09375 64.984375 
Q 41.3125 65.921875 37.59375 65.921875 
Q 27.828125 65.921875 22.671875 59.328125 
Q 17.53125 52.734375 16.796875 39.40625 
Q 19.671875 43.65625 24.015625 45.921875 
Q 28.375 48.1875 33.59375 48.1875 
Q 44.578125 48.1875 50.953125 41.515625 
Q 57.328125 34.859375 57.328125 23.390625 
Q 57.328125 12.15625 50.6875 5.359375 
Q 44.046875 -1.421875 33.015625 -1.421875 
Q 20.359375 -1.421875 13.671875 8.265625 
Q 6.984375 17.96875 6.984375 36.375 
Q 6.984375 53.65625 15.1875 63.9375 
Q 23.390625 74.21875 37.203125 74.21875 
Q 40.921875 74.21875 44.703125 73.484375 
Q 48.484375 72.75 52.59375 71.296875 
" id="BitstreamVeraSans-Roman-36"/>
      </defs>
      <g transform="translate(38.860625 104.946032609)scale(0.12 -0.12)">
       <use xlink:href="#BitstreamVeraSans-Roman-2212"/>
       <use x="83.7890625" xlink:href="#BitstreamVeraSans-Roman-30"/>
       <use x="147.412109375" xlink:href="#BitstreamVeraSans-Roman-2e"/>
       <use x="179.19921875" xlink:href="#BitstreamVeraSans-Roman-36"/>
      </g>
     </g>
    </g>
    <g id="ytick_4">
     <g id="line2d_21">
      <g>
       <use style="stroke:#000000;stroke-width:0.5;" x="72.0" xlink:href="#m509b242d09" y="93.2869565217"/>
      </g>
     </g>
     <g id="line2d_22">
      <g>
       <use style="stroke:#000000;stroke-width:0.5;" x="518.4" xlink:href="#mca8815af1b" y="93.2869565217"/>
      </g>
     </g>
     <g id="text_10">
      <!-- −0.4 -->
      <defs>
       <path d="M 37.796875 64.3125 
L 12.890625 25.390625 
L 37.796875 25.390625 
z
M 35.203125 72.90625 
L 47.609375 72.90625 
L 47.609375 25.390625 
L 58.015625 25.390625 
L 58.015625 17.1875 
L 47.609375 17.1875 
L 47.609375 0 
L 37.796875 0 
L 37.796875 17.1875 
L 4.890625 17.1875 
L 4.890625 26.703125 
z
" id="BitstreamVeraSans-Roman-34"/>
      </defs>
      <g transform="translate(38.860625 96.5982065217)scale(0.12 -0.12)">
       <use xlink:href="#BitstreamVeraSans-Roman-2212"/>
       <use x="83.7890625" xlink:href="#BitstreamVeraSans-Roman-30"/>
       <use x="147.412109375" xlink:href="#BitstreamVeraSans-Roman-2e"/>
       <use x="179.19921875" xlink:href="#BitstreamVeraSans-Roman-34"/>
      </g>
     </g>
    </g>
    <g id="ytick_5">
     <g id="line2d_23">
      <g>
       <use style="stroke:#000000;stroke-width:0.5;" x="72.0" xlink:href="#m509b242d09" y="84.9391304348"/>
      </g>
     </g>
     <g id="line2d_24">
      <g>
       <use style="stroke:#000000;stroke-width:0.5;" x="518.4" xlink:href="#mca8815af1b" y="84.9391304348"/>
      </g>
     </g>
     <g id="text_11">
      <!-- −0.2 -->
      <g transform="translate(38.860625 88.2503804348)scale(0.12 -0.12)">
       <use xlink:href="#BitstreamVeraSans-Roman-2212"/>
       <use x="83.7890625" xlink:href="#BitstreamVeraSans-Roman-30"/>
       <use x="147.412109375" xlink:href="#BitstreamVeraSans-Roman-2e"/>
       <use x="179.19921875" xlink:href="#BitstreamVeraSans-Roman-32"/>
      </g>
     </g>
    </g>
    <g id="ytick_6">
     <g id="line2d_25">
      <g>
       <use style="stroke:#000000;stroke-width:0.5;" x="72.0" xlink:href="#m509b242d09" y="76.5913043478"/>
      </g>
     </g>
     <g id="line2d_26">
      <g>
       <use style="stroke:#000000;stroke-width:0.5;" x="518.4" xlink:href="#mca8815af1b" y="76.5913043478"/>
      </g>
     </g>
     <g id="text_12">
      <!-- 0.0 -->
      <g transform="translate(48.91625 79.9025543478)scale(0.12 -0.12)">
       <use xlink:href="#BitstreamVeraSans-Roman-30"/>
       <use x="63.623046875" xlink:href="#BitstreamVeraSans-Roman-2e"/>
       <use x="95.41015625" xlink:href="#BitstreamVeraSans-Roman-30"/>
      </g>
     </g>
    </g>
    <g id="ytick_7">
     <g id="line2d_27">
      <g>
       <use style="stroke:#000000;stroke-width:0.5;" x="72.0" xlink:href="#m509b242d09" y="68.2434782609"/>
      </g>
     </g>
     <g id="line2d_28">
      <g>
       <use style="stroke:#000000;stroke-width:0.5;" x="518.4" xlink:href="#mca8815af1b" y="68.2434782609"/>
      </g>
     </g>
     <g id="text_13">
      <!-- 0.2 -->
      <g transform="translate(48.91625 71.5547282609)scale(0.12 -0.12)">
       <use xlink:href="#BitstreamVeraSans-Roman-30"/>
       <use x="63.623046875" xlink:href="#BitstreamVeraSans-Roman-2e"/>
       <use x="95.41015625" xlink:href="#BitstreamVeraSans-Roman-32"/>
      </g>
     </g>
    </g>
    <g id="ytick_8">
     <g id="line2d_29">
      <g>
       <use style="stroke:#000000;stroke-width:0.5;" x="72.0" xlink:href="#m509b242d09" y="59.8956521739"/>
      </g>
     </g>
     <g id="line2d_30">
      <g>
       <use style="stroke:#000000;stroke-width:0.5;" x="518.4" xlink:href="#mca8815af1b" y="59.8956521739"/>
      </g>
     </g>
     <g id="text_14">
      <!-- 0.4 -->
      <g transform="translate(48.91625 63.2069021739)scale(0.12 -0.12)">
       <use xlink:href="#BitstreamVeraSans-Roman-30"/>
       <use x="63.623046875" xlink:href="#BitstreamVeraSans-Roman-2e"/>
       <use x="95.41015625" xlink:href="#BitstreamVeraSans-Roman-34"/>
      </g>
     </g>
    </g>
    <g id="ytick_9">
     <g id="line2d_31">
      <g>
       <use style="stroke:#000000;stroke-width:0.5;" x="72.0" xlink:href="#m509b242d09" y="51.547826087"/>
      </g>
     </g>
     <g id="line2d_32">
      <g>
       <use style="stroke:#000000;stroke-width:0.5;" x="518.4" xlink:href="#mca8815af1b" y="51.547826087"/>
      </g>
     </g>
     <g id="text_15">
      <!-- 0.6 -->
      <g transform="translate(48.91625 54.859076087)scale(0.12 -0.12)">
       <use xlink:href="#BitstreamVeraSans-Roman-30"/>
       <use x="63.623046875" xlink:href="#BitstreamVeraSans-Roman-2e"/>
       <use x="95.41015625" xlink:href="#BitstreamVeraSans-Roman-36"/>
      </g>
     </g>
    </g>
    <g id="ytick_10">
     <g id="line2d_33">
      <g>
       <use style="stroke:#000000;stroke-width:0.5;" x="72.0" xlink:href="#m509b242d09" y="43.2"/>
      </g>
     </g>
     <g id="line2d_34">
      <g>
       <use style="stroke:#000000;stroke-width:0.5;" x="518.4" xlink:href="#mca8815af1b" y="43.2"/>
      </g>
     </g>
     <g id="text_16">
      <!-- 0.8 -->
      <g transform="translate(48.91625 46.51125)scale(0.12 -0.12)">
       <use xlink:href="#BitstreamVeraSans-Roman-30"/>
       <use x="63.623046875" xlink:href="#BitstreamVeraSans-Roman-2e"/>
       <use x="95.41015625" xlink:href="#BitstreamVeraSans-Roman-38"/>
      </g>
     </g>
    </g>
   </g>
  </g>
  <g id="axes_2">
   <g id="patch_7">
    <path d="M 72 208.486957 
L 518.4 208.486957 
L 518.4 133.356522 
L 72 133.356522 
z
" style="fill:#ffffff;"/>
   </g>
   <g id="line2d_35">
    <path clip-path="url(#p14122b8474)" d="M 72 159.687608 
L 80.928 160.207991 
L 89.856 159.855397 
L 98.784 160.961822 
L 107.712 161.429398 
L 116.64 162.621666 
L 125.568 163.230926 
L 134.496 163.808337 
L 143.424 163.766548 
L 152.352 164.477633 
L 161.28 165.61125 
L 170.208 166.026637 
L 179.136 168.253892 
L 188.064 167.026995 
L 196.992 167.712301 
L 205.92 169.463758 
L 214.848 168.165444 
L 223.776 170.37155 
L 232.704 170.331511 
L 241.632 170.284363 
L 250.56 172.021612 
L 259.488 171.815051 
L 268.416 172.799024 
L 277.344 174.105602 
L 286.272 174.363583 
L 295.2 175.900016 
L 304.128 175.473781 
L 313.056 175.573329 
L 321.984 177.53732 
L 330.912 176.900791 
L 339.84 177.384367 
L 348.768 180.166781 
L 357.696 181.512642 
L 366.624 180.695832 
L 375.552 182.300408 
L 384.48 182.002826 
L 393.408 182.787825 
L 402.336 184.01479 
L 411.264 183.62959 
L 420.192 185.42988 
L 429.12 185.271392 
L 438.048 187.834614 
L 446.976 186.643912 
L 455.904 187.197236 
L 464.832 186.898414 
L 473.76 189.999639 
L 482.688 190.561519 
L 491.616 191.467529 
L 500.544 190.41883 
L 509.472 190.692873 
" style="fill:none;stroke:#0000ff;stroke-linecap:square;"/>
   </g>
   <g id="patch_8">
    <path d="M 72 133.356522 
L 518.4 133.356522 
" style="fill:none;stroke:#000000;stroke-linecap:square;stroke-linejoin:miter;"/>
   </g>
   <g id="patch_9">
    <path d="M 518.4 208.486957 
L 518.4 133.356522 
" style="fill:none;stroke:#000000;stroke-linecap:square;stroke-linejoin:miter;"/>
   </g>
   <g id="patch_10">
    <path d="M 72 208.486957 
L 518.4 208.486957 
" style="fill:none;stroke:#000000;stroke-linecap:square;stroke-linejoin:miter;"/>
   </g>
   <g id="patch_11">
    <path d="M 72 208.486957 
L 72 133.356522 
" style="fill:none;stroke:#000000;stroke-linecap:square;stroke-linejoin:miter;"/>
   </g>
   <g id="matplotlib.axis_3">
    <g id="xtick_7">
     <g id="line2d_36">
      <g>
       <use style="stroke:#000000;stroke-width:0.5;" x="72.0" xlink:href="#m948468df07" y="208.486956522"/>
      </g>
     </g>
     <g id="line2d_37">
      <g>
       <use style="stroke:#000000;stroke-width:0.5;" x="72.0" xlink:href="#mdae13feedc" y="133.356521739"/>
      </g>
     </g>
     <g id="text_17">
      <!-- 0 -->
      <g transform="translate(68.1825 221.605081522)scale(0.12 -0.12)">
       <use xlink:href="#BitstreamVeraSans-Roman-30"/>
      </g>
     </g>
    </g>
    <g id="xtick_8">
     <g id="line2d_38">
      <g>
       <use style="stroke:#000000;stroke-width:0.5;" x="161.28" xlink:href="#m948468df07" y="208.486956522"/>
      </g>
     </g>
     <g id="line2d_39">
      <g>
       <use style="stroke:#000000;stroke-width:0.5;" x="161.28" xlink:href="#mdae13feedc" y="133.356521739"/>
      </g>
     </g>
     <g id="text_18">
      <!-- 10 -->
      <g transform="translate(153.645 221.605081522)scale(0.12 -0.12)">
       <use xlink:href="#BitstreamVeraSans-Roman-31"/>
       <use x="63.623046875" xlink:href="#BitstreamVeraSans-Roman-30"/>
      </g>
     </g>
    </g>
    <g id="xtick_9">
     <g id="line2d_40">
      <g>
       <use style="stroke:#000000;stroke-width:0.5;" x="250.56" xlink:href="#m948468df07" y="208.486956522"/>
      </g>
     </g>
     <g id="line2d_41">
      <g>
       <use style="stroke:#000000;stroke-width:0.5;" x="250.56" xlink:href="#mdae13feedc" y="133.356521739"/>
      </g>
     </g>
     <g id="text_19">
      <!-- 20 -->
      <g transform="translate(242.925 221.605081522)scale(0.12 -0.12)">
       <use xlink:href="#BitstreamVeraSans-Roman-32"/>
       <use x="63.623046875" xlink:href="#BitstreamVeraSans-Roman-30"/>
      </g>
     </g>
    </g>
    <g id="xtick_10">
     <g id="line2d_42">
      <g>
       <use style="stroke:#000000;stroke-width:0.5;" x="339.84" xlink:href="#m948468df07" y="208.486956522"/>
      </g>
     </g>
     <g id="line2d_43">
      <g>
       <use style="stroke:#000000;stroke-width:0.5;" x="339.84" xlink:href="#mdae13feedc" y="133.356521739"/>
      </g>
     </g>
     <g id="text_20">
      <!-- 30 -->
      <defs>
       <path d="M 40.578125 39.3125 
Q 47.65625 37.796875 51.625 33 
Q 55.609375 28.21875 55.609375 21.1875 
Q 55.609375 10.40625 48.1875 4.484375 
Q 40.765625 -1.421875 27.09375 -1.421875 
Q 22.515625 -1.421875 17.65625 -0.515625 
Q 12.796875 0.390625 7.625 2.203125 
L 7.625 11.71875 
Q 11.71875 9.328125 16.59375 8.109375 
Q 21.484375 6.890625 26.8125 6.890625 
Q 36.078125 6.890625 40.9375 10.546875 
Q 45.796875 14.203125 45.796875 21.1875 
Q 45.796875 27.640625 41.28125 31.265625 
Q 36.765625 34.90625 28.71875 34.90625 
L 20.21875 34.90625 
L 20.21875 43.015625 
L 29.109375 43.015625 
Q 36.375 43.015625 40.234375 45.921875 
Q 44.09375 48.828125 44.09375 54.296875 
Q 44.09375 59.90625 40.109375 62.90625 
Q 36.140625 65.921875 28.71875 65.921875 
Q 24.65625 65.921875 20.015625 65.03125 
Q 15.375 64.15625 9.8125 62.3125 
L 9.8125 71.09375 
Q 15.4375 72.65625 20.34375 73.4375 
Q 25.25 74.21875 29.59375 74.21875 
Q 40.828125 74.21875 47.359375 69.109375 
Q 53.90625 64.015625 53.90625 55.328125 
Q 53.90625 49.265625 50.4375 45.09375 
Q 46.96875 40.921875 40.578125 39.3125 
" id="BitstreamVeraSans-Roman-33"/>
      </defs>
      <g transform="translate(332.205 221.605081522)scale(0.12 -0.12)">
       <use xlink:href="#BitstreamVeraSans-Roman-33"/>
       <use x="63.623046875" xlink:href="#BitstreamVeraSans-Roman-30"/>
      </g>
     </g>
    </g>
    <g id="xtick_11">
     <g id="line2d_44">
      <g>
       <use style="stroke:#000000;stroke-width:0.5;" x="429.12" xlink:href="#m948468df07" y="208.486956522"/>
      </g>
     </g>
     <g id="line2d_45">
      <g>
       <use style="stroke:#000000;stroke-width:0.5;" x="429.12" xlink:href="#mdae13feedc" y="133.356521739"/>
      </g>
     </g>
     <g id="text_21">
      <!-- 40 -->
      <g transform="translate(421.485 221.605081522)scale(0.12 -0.12)">
       <use xlink:href="#BitstreamVeraSans-Roman-34"/>
       <use x="63.623046875" xlink:href="#BitstreamVeraSans-Roman-30"/>
      </g>
     </g>
    </g>
    <g id="xtick_12">
     <g id="line2d_46">
      <g>
       <use style="stroke:#000000;stroke-width:0.5;" x="518.4" xlink:href="#m948468df07" y="208.486956522"/>
      </g>
     </g>
     <g id="line2d_47">
      <g>
       <use style="stroke:#000000;stroke-width:0.5;" x="518.4" xlink:href="#mdae13feedc" y="133.356521739"/>
      </g>
     </g>
     <g id="text_22">
      <!-- 50 -->
      <g transform="translate(510.765 221.605081522)scale(0.12 -0.12)">
       <use xlink:href="#BitstreamVeraSans-Roman-35"/>
       <use x="63.623046875" xlink:href="#BitstreamVeraSans-Roman-30"/>
      </g>
     </g>
    </g>
   </g>
   <g id="matplotlib.axis_4">
    <g id="ytick_11">
     <g id="line2d_48">
      <g>
       <use style="stroke:#000000;stroke-width:0.5;" x="72.0" xlink:href="#m509b242d09" y="208.486956522"/>
      </g>
     </g>
     <g id="line2d_49">
      <g>
       <use style="stroke:#000000;stroke-width:0.5;" x="518.4" xlink:href="#mca8815af1b" y="208.486956522"/>
      </g>
     </g>
     <g id="text_23">
      <!-- $\mathdefault{10^{1}}$ -->
      <g transform="translate(45.68 212.051331522)scale(0.12 -0.12)">
       <use transform="translate(0.0 0.715625)" xlink:href="#BitstreamVeraSans-Roman-31"/>
       <use transform="translate(63.623046875 0.715625)" xlink:href="#BitstreamVeraSans-Roman-30"/>
       <use transform="translate(132.75859375 47.965625)scale(0.7)" xlink:href="#BitstreamVeraSans-Roman-31"/>
      </g>
     </g>
    </g>
    <g id="ytick_12">
     <g id="line2d_50">
      <g>
       <use style="stroke:#000000;stroke-width:0.5;" x="72.0" xlink:href="#m509b242d09" y="170.92173913"/>
      </g>
     </g>
     <g id="line2d_51">
      <g>
       <use style="stroke:#000000;stroke-width:0.5;" x="518.4" xlink:href="#mca8815af1b" y="170.92173913"/>
      </g>
     </g>
     <g id="text_24">
      <!-- $\mathdefault{10^{2}}$ -->
      <g transform="translate(45.68 174.54611413)scale(0.12 -0.12)">
       <use transform="translate(0.0 0.796875)" xlink:href="#BitstreamVeraSans-Roman-31"/>
       <use transform="translate(63.623046875 0.796875)" xlink:href="#BitstreamVeraSans-Roman-30"/>
       <use transform="translate(132.75859375 48.046875)scale(0.7)" xlink:href="#BitstreamVeraSans-Roman-32"/>
      </g>
     </g>
    </g>
    <g id="ytick_13">
     <g id="line2d_52">
      <g>
       <use style="stroke:#000000;stroke-width:0.5;" x="72.0" xlink:href="#m509b242d09" y="133.356521739"/>
      </g>
     </g>
     <g id="line2d_53">
      <g>
       <use style="stroke:#000000;stroke-width:0.5;" x="518.4" xlink:href="#mca8815af1b" y="133.356521739"/>
      </g>
     </g>
     <g id="text_25">
      <!-- $\mathdefault{10^{3}}$ -->
      <g transform="translate(45.68 136.980896739)scale(0.12 -0.12)">
       <use transform="translate(0.0 0.796875)" xlink:href="#BitstreamVeraSans-Roman-31"/>
       <use transform="translate(63.623046875 0.796875)" xlink:href="#BitstreamVeraSans-Roman-30"/>
       <use transform="translate(132.75859375 48.046875)scale(0.7)" xlink:href="#BitstreamVeraSans-Roman-33"/>
      </g>
     </g>
    </g>
    <g id="ytick_14">
     <g id="line2d_54">
      <defs>
       <path d="M 0 0 
L 2 0 
" id="m2afad99457" style="stroke:#000000;stroke-width:0.5;"/>
      </defs>
      <g>
       <use style="stroke:#000000;stroke-width:0.5;" x="72.0" xlink:href="#m2afad99457" y="197.178699293"/>
      </g>
     </g>
     <g id="line2d_55">
      <defs>
       <path d="M 0 0 
L -2 0 
" id="ma804744f3d" style="stroke:#000000;stroke-width:0.5;"/>
      </defs>
      <g>
       <use style="stroke:#000000;stroke-width:0.5;" x="518.4" xlink:href="#ma804744f3d" y="197.178699293"/>
      </g>
     </g>
    </g>
    <g id="ytick_15">
     <g id="line2d_56">
      <g>
       <use style="stroke:#000000;stroke-width:0.5;" x="72.0" xlink:href="#m2afad99457" y="190.563792866"/>
      </g>
     </g>
     <g id="line2d_57">
      <g>
       <use style="stroke:#000000;stroke-width:0.5;" x="518.4" xlink:href="#ma804744f3d" y="190.563792866"/>
      </g>
     </g>
    </g>
    <g id="ytick_16">
     <g id="line2d_58">
      <g>
       <use style="stroke:#000000;stroke-width:0.5;" x="72.0" xlink:href="#m2afad99457" y="185.870442065"/>
      </g>
     </g>
     <g id="line2d_59">
      <g>
       <use style="stroke:#000000;stroke-width:0.5;" x="518.4" xlink:href="#ma804744f3d" y="185.870442065"/>
      </g>
     </g>
    </g>
    <g id="ytick_17">
     <g id="line2d_60">
      <g>
       <use style="stroke:#000000;stroke-width:0.5;" x="72.0" xlink:href="#m2afad99457" y="182.229996359"/>
      </g>
     </g>
     <g id="line2d_61">
      <g>
       <use style="stroke:#000000;stroke-width:0.5;" x="518.4" xlink:href="#ma804744f3d" y="182.229996359"/>
      </g>
     </g>
    </g>
    <g id="ytick_18">
     <g id="line2d_62">
      <g>
       <use style="stroke:#000000;stroke-width:0.5;" x="72.0" xlink:href="#m2afad99457" y="179.255535638"/>
      </g>
     </g>
     <g id="line2d_63">
      <g>
       <use style="stroke:#000000;stroke-width:0.5;" x="518.4" xlink:href="#ma804744f3d" y="179.255535638"/>
      </g>
     </g>
    </g>
    <g id="ytick_19">
     <g id="line2d_64">
      <g>
       <use style="stroke:#000000;stroke-width:0.5;" x="72.0" xlink:href="#m2afad99457" y="176.740664932"/>
      </g>
     </g>
     <g id="line2d_65">
      <g>
       <use style="stroke:#000000;stroke-width:0.5;" x="518.4" xlink:href="#ma804744f3d" y="176.740664932"/>
      </g>
     </g>
    </g>
    <g id="ytick_20">
     <g id="line2d_66">
      <g>
       <use style="stroke:#000000;stroke-width:0.5;" x="72.0" xlink:href="#m2afad99457" y="174.562184836"/>
      </g>
     </g>
     <g id="line2d_67">
      <g>
       <use style="stroke:#000000;stroke-width:0.5;" x="518.4" xlink:href="#ma804744f3d" y="174.562184836"/>
      </g>
     </g>
    </g>
    <g id="ytick_21">
     <g id="line2d_68">
      <g>
       <use style="stroke:#000000;stroke-width:0.5;" x="72.0" xlink:href="#m2afad99457" y="172.640629211"/>
      </g>
     </g>
     <g id="line2d_69">
      <g>
       <use style="stroke:#000000;stroke-width:0.5;" x="518.4" xlink:href="#ma804744f3d" y="172.640629211"/>
      </g>
     </g>
    </g>
    <g id="ytick_22">
     <g id="line2d_70">
      <g>
       <use style="stroke:#000000;stroke-width:0.5;" x="72.0" xlink:href="#m2afad99457" y="159.613481902"/>
      </g>
     </g>
     <g id="line2d_71">
      <g>
       <use style="stroke:#000000;stroke-width:0.5;" x="518.4" xlink:href="#ma804744f3d" y="159.613481902"/>
      </g>
     </g>
    </g>
    <g id="ytick_23">
     <g id="line2d_72">
      <g>
       <use style="stroke:#000000;stroke-width:0.5;" x="72.0" xlink:href="#m2afad99457" y="152.998575475"/>
      </g>
     </g>
     <g id="line2d_73">
      <g>
       <use style="stroke:#000000;stroke-width:0.5;" x="518.4" xlink:href="#ma804744f3d" y="152.998575475"/>
      </g>
     </g>
    </g>
    <g id="ytick_24">
     <g id="line2d_74">
      <g>
       <use style="stroke:#000000;stroke-width:0.5;" x="72.0" xlink:href="#m2afad99457" y="148.305224674"/>
      </g>
     </g>
     <g id="line2d_75">
      <g>
       <use style="stroke:#000000;stroke-width:0.5;" x="518.4" xlink:href="#ma804744f3d" y="148.305224674"/>
      </g>
     </g>
    </g>
    <g id="ytick_25">
     <g id="line2d_76">
      <g>
       <use style="stroke:#000000;stroke-width:0.5;" x="72.0" xlink:href="#m2afad99457" y="144.664778968"/>
      </g>
     </g>
     <g id="line2d_77">
      <g>
       <use style="stroke:#000000;stroke-width:0.5;" x="518.4" xlink:href="#ma804744f3d" y="144.664778968"/>
      </g>
     </g>
    </g>
    <g id="ytick_26">
     <g id="line2d_78">
      <g>
       <use style="stroke:#000000;stroke-width:0.5;" x="72.0" xlink:href="#m2afad99457" y="141.690318246"/>
      </g>
     </g>
     <g id="line2d_79">
      <g>
       <use style="stroke:#000000;stroke-width:0.5;" x="518.4" xlink:href="#ma804744f3d" y="141.690318246"/>
      </g>
     </g>
    </g>
    <g id="ytick_27">
     <g id="line2d_80">
      <g>
       <use style="stroke:#000000;stroke-width:0.5;" x="72.0" xlink:href="#m2afad99457" y="139.17544754"/>
      </g>
     </g>
     <g id="line2d_81">
      <g>
       <use style="stroke:#000000;stroke-width:0.5;" x="518.4" xlink:href="#ma804744f3d" y="139.17544754"/>
      </g>
     </g>
    </g>
    <g id="ytick_28">
     <g id="line2d_82">
      <g>
       <use style="stroke:#000000;stroke-width:0.5;" x="72.0" xlink:href="#m2afad99457" y="136.996967445"/>
      </g>
     </g>
     <g id="line2d_83">
      <g>
       <use style="stroke:#000000;stroke-width:0.5;" x="518.4" xlink:href="#ma804744f3d" y="136.996967445"/>
      </g>
     </g>
    </g>
    <g id="ytick_29">
     <g id="line2d_84">
      <g>
       <use style="stroke:#000000;stroke-width:0.5;" x="72.0" xlink:href="#m2afad99457" y="135.075411819"/>
      </g>
     </g>
     <g id="line2d_85">
      <g>
       <use style="stroke:#000000;stroke-width:0.5;" x="518.4" xlink:href="#ma804744f3d" y="135.075411819"/>
      </g>
     </g>
    </g>
   </g>
  </g>
  <g id="axes_3">
   <g id="patch_12">
    <path d="M 72 298.643478 
L 518.4 298.643478 
L 518.4 223.513043 
L 72 223.513043 
z
" style="fill:#ffffff;"/>
   </g>
   <g id="line2d_86">
    <path clip-path="url(#p2e28413be1)" d="M 72 298.641685 
L 80.556 298.535178 
L 80.928 298.434555 
L 81.3 298.151394 
L 81.672 296.936501 
L 82.044 273.857223 
L 82.416 227.743831 
L 82.788 249.773511 
L 83.16 294.59996 
L 83.532 297.413792 
L 83.904 294.927956 
L 84.276 250.67577 
L 84.648 227.356071 
L 85.02 273.1609 
L 85.392 297.196446 
L 85.764 298.457303 
L 86.136 297.534386 
L 86.508 291.561574 
L 86.88 243.529985 
L 87.252 230.864177 
L 87.624 279.587039 
L 87.996 296.678977 
L 88.368 298.032985 
L 88.74 298.375894 
L 89.484 298.563573 
L 90.6 298.572579 
L 91.344 298.394076 
L 91.716 298.05991 
L 92.088 296.714977 
L 92.46 278.505964 
L 92.832 230.118354 
L 93.204 244.781285 
L 93.576 292.166656 
L 93.948 297.44369 
L 94.32 298.210996 
L 94.692 298.438331 
L 95.436 298.573656 
L 98.04 298.63491 
L 126.312 298.643431 
L 429.492 298.573656 
L 430.236 298.438331 
L 430.608 298.210996 
L 430.98 297.44369 
L 431.352 292.166656 
L 431.724 244.781285 
L 432.096 230.118354 
L 432.468 278.505964 
L 432.84 296.714977 
L 433.212 298.05991 
L 433.584 298.394076 
L 434.328 298.572579 
L 435.444 298.563573 
L 436.188 298.375894 
L 436.56 298.032985 
L 436.932 296.678977 
L 437.304 279.587039 
L 437.676 230.864177 
L 438.048 243.529985 
L 438.42 291.561574 
L 438.792 297.534386 
L 439.164 298.457303 
L 439.536 297.196446 
L 439.908 273.1609 
L 440.28 227.356071 
L 440.652 250.67577 
L 441.024 294.927956 
L 441.396 297.413792 
L 441.768 294.59996 
L 442.14 249.773511 
L 442.512 227.743831 
L 442.884 273.857223 
L 443.256 296.936501 
L 443.628 298.151394 
L 444 298.434555 
L 444.744 298.579853 
L 447.348 298.636049 
L 452.556 298.641674 
L 452.556 298.641674 
" style="fill:none;stroke:#0000ff;stroke-linecap:square;"/>
   </g>
   <g id="patch_13">
    <path d="M 72 223.513043 
L 518.4 223.513043 
" style="fill:none;stroke:#000000;stroke-linecap:square;stroke-linejoin:miter;"/>
   </g>
   <g id="patch_14">
    <path d="M 518.4 298.643478 
L 518.4 223.513043 
" style="fill:none;stroke:#000000;stroke-linecap:square;stroke-linejoin:miter;"/>
   </g>
   <g id="patch_15">
    <path d="M 72 298.643478 
L 518.4 298.643478 
" style="fill:none;stroke:#000000;stroke-linecap:square;stroke-linejoin:miter;"/>
   </g>
   <g id="patch_16">
    <path d="M 72 298.643478 
L 72 223.513043 
" style="fill:none;stroke:#000000;stroke-linecap:square;stroke-linejoin:miter;"/>
   </g>
   <g id="matplotlib.axis_5">
    <g id="xtick_13">
     <g id="line2d_87">
      <g>
       <use style="stroke:#000000;stroke-width:0.5;" x="72.0" xlink:href="#m948468df07" y="298.643478261"/>
      </g>
     </g>
     <g id="line2d_88">
      <g>
       <use style="stroke:#000000;stroke-width:0.5;" x="72.0" xlink:href="#mdae13feedc" y="223.513043478"/>
      </g>
     </g>
     <g id="text_26">
      <!-- 0 -->
      <g transform="translate(68.1825 311.761603261)scale(0.12 -0.12)">
       <use xlink:href="#BitstreamVeraSans-Roman-30"/>
      </g>
     </g>
    </g>
    <g id="xtick_14">
     <g id="line2d_89">
      <g>
       <use style="stroke:#000000;stroke-width:0.5;" x="146.4" xlink:href="#m948468df07" y="298.643478261"/>
      </g>
     </g>
     <g id="line2d_90">
      <g>
       <use style="stroke:#000000;stroke-width:0.5;" x="146.4" xlink:href="#mdae13feedc" y="223.513043478"/>
      </g>
     </g>
     <g id="text_27">
      <!-- 200 -->
      <g transform="translate(134.9475 311.761603261)scale(0.12 -0.12)">
       <use xlink:href="#BitstreamVeraSans-Roman-32"/>
       <use x="63.623046875" xlink:href="#BitstreamVeraSans-Roman-30"/>
       <use x="127.24609375" xlink:href="#BitstreamVeraSans-Roman-30"/>
      </g>
     </g>
    </g>
    <g id="xtick_15">
     <g id="line2d_91">
      <g>
       <use style="stroke:#000000;stroke-width:0.5;" x="220.8" xlink:href="#m948468df07" y="298.643478261"/>
      </g>
     </g>
     <g id="line2d_92">
      <g>
       <use style="stroke:#000000;stroke-width:0.5;" x="220.8" xlink:href="#mdae13feedc" y="223.513043478"/>
      </g>
     </g>
     <g id="text_28">
      <!-- 400 -->
      <g transform="translate(209.3475 311.761603261)scale(0.12 -0.12)">
       <use xlink:href="#BitstreamVeraSans-Roman-34"/>
       <use x="63.623046875" xlink:href="#BitstreamVeraSans-Roman-30"/>
       <use x="127.24609375" xlink:href="#BitstreamVeraSans-Roman-30"/>
      </g>
     </g>
    </g>
    <g id="xtick_16">
     <g id="line2d_93">
      <g>
       <use style="stroke:#000000;stroke-width:0.5;" x="295.2" xlink:href="#m948468df07" y="298.643478261"/>
      </g>
     </g>
     <g id="line2d_94">
      <g>
       <use style="stroke:#000000;stroke-width:0.5;" x="295.2" xlink:href="#mdae13feedc" y="223.513043478"/>
      </g>
     </g>
     <g id="text_29">
      <!-- 600 -->
      <g transform="translate(283.7475 311.761603261)scale(0.12 -0.12)">
       <use xlink:href="#BitstreamVeraSans-Roman-36"/>
       <use x="63.623046875" xlink:href="#BitstreamVeraSans-Roman-30"/>
       <use x="127.24609375" xlink:href="#BitstreamVeraSans-Roman-30"/>
      </g>
     </g>
    </g>
    <g id="xtick_17">
     <g id="line2d_95">
      <g>
       <use style="stroke:#000000;stroke-width:0.5;" x="369.6" xlink:href="#m948468df07" y="298.643478261"/>
      </g>
     </g>
     <g id="line2d_96">
      <g>
       <use style="stroke:#000000;stroke-width:0.5;" x="369.6" xlink:href="#mdae13feedc" y="223.513043478"/>
      </g>
     </g>
     <g id="text_30">
      <!-- 800 -->
      <g transform="translate(358.1475 311.761603261)scale(0.12 -0.12)">
       <use xlink:href="#BitstreamVeraSans-Roman-38"/>
       <use x="63.623046875" xlink:href="#BitstreamVeraSans-Roman-30"/>
       <use x="127.24609375" xlink:href="#BitstreamVeraSans-Roman-30"/>
      </g>
     </g>
    </g>
    <g id="xtick_18">
     <g id="line2d_97">
      <g>
       <use style="stroke:#000000;stroke-width:0.5;" x="444.0" xlink:href="#m948468df07" y="298.643478261"/>
      </g>
     </g>
     <g id="line2d_98">
      <g>
       <use style="stroke:#000000;stroke-width:0.5;" x="444.0" xlink:href="#mdae13feedc" y="223.513043478"/>
      </g>
     </g>
     <g id="text_31">
      <!-- 1000 -->
      <g transform="translate(428.73 311.761603261)scale(0.12 -0.12)">
       <use xlink:href="#BitstreamVeraSans-Roman-31"/>
       <use x="63.623046875" xlink:href="#BitstreamVeraSans-Roman-30"/>
       <use x="127.24609375" xlink:href="#BitstreamVeraSans-Roman-30"/>
       <use x="190.869140625" xlink:href="#BitstreamVeraSans-Roman-30"/>
      </g>
     </g>
    </g>
    <g id="xtick_19">
     <g id="line2d_99">
      <g>
       <use style="stroke:#000000;stroke-width:0.5;" x="518.4" xlink:href="#m948468df07" y="298.643478261"/>
      </g>
     </g>
     <g id="line2d_100">
      <g>
       <use style="stroke:#000000;stroke-width:0.5;" x="518.4" xlink:href="#mdae13feedc" y="223.513043478"/>
      </g>
     </g>
     <g id="text_32">
      <!-- 1200 -->
      <g transform="translate(503.13 311.761603261)scale(0.12 -0.12)">
       <use xlink:href="#BitstreamVeraSans-Roman-31"/>
       <use x="63.623046875" xlink:href="#BitstreamVeraSans-Roman-32"/>
       <use x="127.24609375" xlink:href="#BitstreamVeraSans-Roman-30"/>
       <use x="190.869140625" xlink:href="#BitstreamVeraSans-Roman-30"/>
      </g>
     </g>
    </g>
   </g>
   <g id="matplotlib.axis_6">
    <g id="ytick_30">
     <g id="line2d_101">
      <g>
       <use style="stroke:#000000;stroke-width:0.5;" x="72.0" xlink:href="#m509b242d09" y="298.643478261"/>
      </g>
     </g>
     <g id="line2d_102">
      <g>
       <use style="stroke:#000000;stroke-width:0.5;" x="518.4" xlink:href="#mca8815af1b" y="298.643478261"/>
      </g>
     </g>
     <g id="text_33">
      <!-- 0 -->
      <g transform="translate(60.365 301.954728261)scale(0.12 -0.12)">
       <use xlink:href="#BitstreamVeraSans-Roman-30"/>
      </g>
     </g>
    </g>
    <g id="ytick_31">
     <g id="line2d_103">
      <g>
       <use style="stroke:#000000;stroke-width:0.5;" x="72.0" xlink:href="#m509b242d09" y="286.12173913"/>
      </g>
     </g>
     <g id="line2d_104">
      <g>
       <use style="stroke:#000000;stroke-width:0.5;" x="518.4" xlink:href="#mca8815af1b" y="286.12173913"/>
      </g>
     </g>
     <g id="text_34">
      <!-- 20 -->
      <g transform="translate(52.73 289.43298913)scale(0.12 -0.12)">
       <use xlink:href="#BitstreamVeraSans-Roman-32"/>
       <use x="63.623046875" xlink:href="#BitstreamVeraSans-Roman-30"/>
      </g>
     </g>
    </g>
    <g id="ytick_32">
     <g id="line2d_105">
      <g>
       <use style="stroke:#000000;stroke-width:0.5;" x="72.0" xlink:href="#m509b242d09" y="273.6"/>
      </g>
     </g>
     <g id="line2d_106">
      <g>
       <use style="stroke:#000000;stroke-width:0.5;" x="518.4" xlink:href="#mca8815af1b" y="273.6"/>
      </g>
     </g>
     <g id="text_35">
      <!-- 40 -->
      <g transform="translate(52.73 276.91125)scale(0.12 -0.12)">
       <use xlink:href="#BitstreamVeraSans-Roman-34"/>
       <use x="63.623046875" xlink:href="#BitstreamVeraSans-Roman-30"/>
      </g>
     </g>
    </g>
    <g id="ytick_33">
     <g id="line2d_107">
      <g>
       <use style="stroke:#000000;stroke-width:0.5;" x="72.0" xlink:href="#m509b242d09" y="261.07826087"/>
      </g>
     </g>
     <g id="line2d_108">
      <g>
       <use style="stroke:#000000;stroke-width:0.5;" x="518.4" xlink:href="#mca8815af1b" y="261.07826087"/>
      </g>
     </g>
     <g id="text_36">
      <!-- 60 -->
      <g transform="translate(52.73 264.38951087)scale(0.12 -0.12)">
       <use xlink:href="#BitstreamVeraSans-Roman-36"/>
       <use x="63.623046875" xlink:href="#BitstreamVeraSans-Roman-30"/>
      </g>
     </g>
    </g>
    <g id="ytick_34">
     <g id="line2d_109">
      <g>
       <use style="stroke:#000000;stroke-width:0.5;" x="72.0" xlink:href="#m509b242d09" y="248.556521739"/>
      </g>
     </g>
     <g id="line2d_110">
      <g>
       <use style="stroke:#000000;stroke-width:0.5;" x="518.4" xlink:href="#mca8815af1b" y="248.556521739"/>
      </g>
     </g>
     <g id="text_37">
      <!-- 80 -->
      <g transform="translate(52.73 251.867771739)scale(0.12 -0.12)">
       <use xlink:href="#BitstreamVeraSans-Roman-38"/>
       <use x="63.623046875" xlink:href="#BitstreamVeraSans-Roman-30"/>
      </g>
     </g>
    </g>
    <g id="ytick_35">
     <g id="line2d_111">
      <g>
       <use style="stroke:#000000;stroke-width:0.5;" x="72.0" xlink:href="#m509b242d09" y="236.034782609"/>
      </g>
     </g>
     <g id="line2d_112">
      <g>
       <use style="stroke:#000000;stroke-width:0.5;" x="518.4" xlink:href="#mca8815af1b" y="236.034782609"/>
      </g>
     </g>
     <g id="text_38">
      <!-- 100 -->
      <g transform="translate(45.095 239.346032609)scale(0.12 -0.12)">
       <use xlink:href="#BitstreamVeraSans-Roman-31"/>
       <use x="63.623046875" xlink:href="#BitstreamVeraSans-Roman-30"/>
       <use x="127.24609375" xlink:href="#BitstreamVeraSans-Roman-30"/>
      </g>
     </g>
    </g>
    <g id="ytick_36">
     <g id="line2d_113">
      <g>
       <use style="stroke:#000000;stroke-width:0.5;" x="72.0" xlink:href="#m509b242d09" y="223.513043478"/>
      </g>
     </g>
     <g id="line2d_114">
      <g>
       <use style="stroke:#000000;stroke-width:0.5;" x="518.4" xlink:href="#mca8815af1b" y="223.513043478"/>
      </g>
     </g>
     <g id="text_39">
      <!-- 120 -->
      <g transform="translate(45.095 226.824293478)scale(0.12 -0.12)">
       <use xlink:href="#BitstreamVeraSans-Roman-31"/>
       <use x="63.623046875" xlink:href="#BitstreamVeraSans-Roman-32"/>
       <use x="127.24609375" xlink:href="#BitstreamVeraSans-Roman-30"/>
      </g>
     </g>
    </g>
   </g>
  </g>
  <g id="axes_4">
   <g id="patch_17">
    <path d="M 72 388.8 
L 518.4 388.8 
L 518.4 313.669565 
L 72 313.669565 
z
" style="fill:#ffffff;"/>
   </g>
   <g id="line2d_115">
    <path clip-path="url(#p40c6433c32)" d="M 72 325.120123 
L 75.72 325.965451 
L 82.044 327.172475 
L 82.416 321.927998 
L 82.788 327.160877 
L 83.16 322.038145 
L 83.904 324.071741 
L 84.276 318.953942 
L 85.02 329.429379 
L 85.392 329.351934 
L 86.136 325.026823 
L 86.508 324.920845 
L 87.624 340.631483 
L 88.74 340.536826 
L 89.112 340.416031 
L 89.484 340.146122 
L 89.856 339.546498 
L 90.6 337.795493 
L 90.972 337.432743 
L 91.716 337.205644 
L 92.46 337.163938 
L 93.576 352.882184 
L 97.668 352.677125 
L 104.736 352.354068 
L 115.152 352.189531 
L 130.776 352.148772 
L 134.496 352.157274 
L 138.96 352.151405 
L 159.048 352.231569 
L 159.42 352.126419 
L 160.164 352.179099 
L 161.652 352.228014 
L 162.396 352.161553 
L 162.768 352.241395 
L 163.512 352.140683 
L 163.884 352.251774 
L 164.256 352.100645 
L 164.628 352.220444 
L 168.348 352.089143 
L 168.72 352.361203 
L 169.092 352.079711 
L 169.464 352.272677 
L 170.208 352.108802 
L 170.58 352.277944 
L 170.952 352.083658 
L 171.324 352.307819 
L 171.696 352.146501 
L 172.068 352.24335 
L 172.812 352.143895 
L 173.184 352.303717 
L 173.556 352.077222 
L 173.928 352.242047 
L 174.3 352.234763 
L 174.672 352.113679 
L 175.044 352.32109 
L 175.416 352.1097 
L 175.788 352.212166 
L 176.532 352.095818 
L 176.904 352.369199 
L 177.276 352.04623 
L 177.648 352.346459 
L 178.02 352.089255 
L 178.764 352.265216 
L 179.136 352.080305 
L 179.508 352.267918 
L 179.88 352.169046 
L 180.252 352.230682 
L 180.624 352.168745 
L 180.996 352.283657 
L 181.368 352.084878 
L 182.112 352.341365 
L 182.484 352.07153 
L 183.228 352.293126 
L 183.6 352.052501 
L 184.344 352.252919 
L 184.716 352.159615 
L 185.088 352.329497 
L 185.46 352.062881 
L 186.576 352.225947 
L 186.948 352.106379 
L 187.32 352.306227 
L 188.064 352.143086 
L 188.436 352.1526 
L 188.808 352.320143 
L 189.18 352.088586 
L 189.924 352.274279 
L 190.296 352.125877 
L 191.04 352.287872 
L 191.784 352.108751 
L 192.528 352.247611 
L 192.9 352.047323 
L 193.272 352.400733 
L 193.644 352.061829 
L 194.016 352.294565 
L 194.388 352.048037 
L 194.76 352.364876 
L 195.132 352.062927 
L 195.504 352.371447 
L 195.876 352.072336 
L 196.248 352.039173 
L 196.62 352.334864 
L 196.992 352.36031 
L 197.364 351.987018 
L 197.736 352.356894 
L 198.108 352.070818 
L 198.48 352.228773 
L 198.852 352.09399 
L 199.224 352.394995 
L 199.596 351.822666 
L 199.968 352.62935 
L 200.34 352.116424 
L 200.712 351.805898 
L 201.084 352.536006 
L 201.456 352.196653 
L 201.828 352.009658 
L 202.2 352.398437 
L 202.572 351.870418 
L 202.944 352.513287 
L 203.316 351.849724 
L 203.688 352.600041 
L 204.06 352.132902 
L 204.432 352.164358 
L 204.804 351.982361 
L 205.176 352.059197 
L 205.548 352.425045 
L 205.92 352.395186 
L 206.292 351.671736 
L 206.664 352.497972 
L 207.036 351.942066 
L 207.408 352.184546 
L 207.78 352.061474 
L 208.152 352.199373 
L 208.524 352.194045 
L 208.896 352.308833 
L 209.268 351.736305 
L 209.64 352.69986 
L 210.012 352.033033 
L 210.384 352.234578 
L 210.756 351.780829 
L 211.128 352.215209 
L 211.5 352.413288 
L 211.872 351.681007 
L 212.244 352.544469 
L 212.616 352.065648 
L 212.988 352.127014 
L 213.36 352.045004 
L 213.732 352.308244 
L 214.104 352.199621 
L 214.476 351.925335 
L 214.848 352.270988 
L 215.22 352.058122 
L 215.592 352.100604 
L 215.964 352.330933 
L 216.336 352.083129 
L 217.08 351.96987 
L 217.452 352.535392 
L 217.824 351.926893 
L 218.196 352.563316 
L 218.568 351.630698 
L 218.94 352.863904 
L 219.312 351.757561 
L 219.684 351.471337 
L 220.056 352.682043 
L 220.428 352.073808 
L 220.8 351.990771 
L 221.172 351.706895 
L 221.544 353.140121 
L 221.916 351.963644 
L 222.288 351.642049 
L 222.66 352.380845 
L 223.032 351.64708 
L 223.776 352.621073 
L 224.148 351.86693 
L 224.52 351.744985 
L 224.892 352.306023 
L 225.264 352.32148 
L 225.636 351.979851 
L 226.008 351.893252 
L 226.38 352.559129 
L 226.752 351.77375 
L 227.124 352.248074 
L 227.496 350.920926 
L 227.868 352.817456 
L 228.24 351.981971 
L 228.612 352.142209 
L 228.984 351.129542 
L 229.356 352.811448 
L 229.728 351.078431 
L 230.1 352.447785 
L 230.472 351.530697 
L 230.844 352.696897 
L 231.216 351.232151 
L 231.96 352.653114 
L 232.332 352.369818 
L 232.704 351.491557 
L 233.076 351.396134 
L 233.448 352.72471 
L 233.82 351.84761 
L 234.192 352.489924 
L 234.564 351.827159 
L 234.936 352.717233 
L 235.308 351.534797 
L 235.68 351.943192 
L 236.052 352.041921 
L 236.424 352.542028 
L 237.168 351.217236 
L 237.912 352.406363 
L 238.284 351.623137 
L 238.656 353.013028 
L 239.028 352.322711 
L 239.4 350.948703 
L 239.772 352.357846 
L 240.144 351.173067 
L 240.516 352.488444 
L 240.888 351.106117 
L 241.26 351.912059 
L 241.632 352.013562 
L 242.004 351.470984 
L 242.376 353.145386 
L 243.12 350.834191 
L 243.492 352.555793 
L 243.864 351.498661 
L 244.236 352.509668 
L 244.98 351.028061 
L 245.352 352.619439 
L 245.724 350.19713 
L 246.096 353.359761 
L 246.468 351.012134 
L 246.84 351.918347 
L 247.212 351.727863 
L 247.584 351.256002 
L 247.956 351.846404 
L 248.328 351.422071 
L 248.7 352.050925 
L 249.444 351.728209 
L 249.816 351.806857 
L 250.188 351.484239 
L 250.56 351.736815 
L 250.932 351.613749 
L 251.304 351.129336 
L 251.676 352.286254 
L 252.048 350.723035 
L 252.42 352.256377 
L 252.792 351.469565 
L 253.164 353.005481 
L 253.536 351.296865 
L 253.908 352.366965 
L 254.28 351.184742 
L 255.024 351.849406 
L 255.396 351.347515 
L 255.768 351.780224 
L 256.14 347.638956 
L 256.512 351.220637 
L 256.884 353.338465 
L 257.256 351.298885 
L 257.628 350.028216 
L 258 351.762623 
L 258.372 349.331468 
L 258.744 352.339628 
L 259.116 349.771701 
L 259.488 352.477308 
L 259.86 350.166617 
L 260.232 352.256748 
L 260.976 350.685422 
L 261.348 352.756356 
L 261.72 349.889406 
L 262.092 352.020652 
L 262.836 350.670538 
L 263.208 352.801783 
L 263.58 349.934834 
L 263.952 352.005768 
L 264.696 350.434441 
L 265.068 352.524573 
L 265.44 350.213882 
L 265.812 352.919488 
L 266.184 350.351561 
L 266.556 353.359722 
L 266.928 350.928567 
L 267.3 352.662973 
L 267.672 351.392304 
L 268.044 349.352724 
L 268.416 351.470552 
L 268.788 355.052234 
L 269.16 350.910966 
L 269.532 351.343675 
L 269.904 350.841784 
L 270.648 351.506447 
L 271.02 350.324225 
L 271.392 351.394325 
L 271.764 349.685709 
L 272.136 351.221624 
L 272.508 350.434812 
L 272.88 351.968155 
L 273.252 350.404936 
L 273.624 351.561854 
L 273.996 351.077441 
L 274.368 350.954375 
L 274.74 351.206951 
L 275.112 350.884333 
L 275.484 350.962981 
L 276.228 350.640265 
L 276.6 351.269119 
L 276.972 350.844785 
L 277.344 351.435188 
L 277.716 350.963326 
L 278.088 350.772843 
L 278.46 351.679055 
L 278.832 349.331428 
L 279.204 352.494059 
L 279.576 350.071751 
L 279.948 351.663128 
L 280.692 350.181522 
L 281.064 351.192528 
L 281.436 350.135397 
L 281.808 351.856999 
L 282.552 349.545803 
L 282.924 351.220206 
L 283.296 350.677628 
L 283.668 350.77913 
L 284.04 351.585073 
L 284.412 350.202746 
L 284.784 351.518123 
L 285.156 350.333343 
L 285.528 351.742486 
L 285.9 350.368479 
L 286.272 349.678162 
L 286.644 351.068053 
L 287.016 350.284827 
L 287.76 351.473953 
L 288.504 350.149161 
L 288.876 350.649269 
L 289.248 350.747998 
L 289.62 351.156393 
L 289.992 349.973957 
L 290.364 350.864031 
L 290.736 350.201265 
L 291.108 350.84358 
L 291.48 349.966479 
L 291.852 351.295056 
L 292.224 351.199633 
L 292.596 350.321371 
L 292.968 350.038075 
L 293.712 351.459039 
L 294.084 349.994292 
L 294.456 351.160493 
L 294.828 350.243405 
L 295.2 351.612758 
L 295.572 349.879742 
L 295.944 351.561648 
L 296.316 350.548981 
L 296.688 350.709219 
L 297.06 349.873734 
L 297.432 351.770264 
L 297.804 350.443116 
L 298.176 350.91744 
L 298.548 350.132061 
L 298.92 350.797938 
L 299.292 350.711338 
L 299.664 350.36971 
L 300.036 350.385167 
L 300.408 350.946205 
L 300.78 350.82426 
L 301.152 350.070117 
L 301.896 351.044109 
L 302.268 350.310345 
L 302.64 351.049141 
L 303.012 350.727545 
L 303.384 349.551069 
L 303.756 350.984294 
L 304.128 350.700419 
L 304.5 350.617381 
L 304.872 350.009146 
L 305.244 351.219852 
L 305.616 350.933628 
L 305.988 349.827286 
L 306.36 351.060492 
L 306.732 350.127873 
L 307.104 350.764297 
L 307.476 350.155798 
L 307.848 350.72132 
L 308.592 350.60806 
L 308.964 350.360257 
L 309.336 350.590586 
L 309.708 350.633068 
L 310.08 350.420202 
L 310.452 350.765854 
L 310.824 350.491569 
L 311.196 350.382946 
L 311.568 350.646186 
L 311.94 350.564176 
L 312.312 350.625541 
L 312.684 350.146721 
L 313.056 351.010182 
L 313.428 350.277902 
L 313.8 350.475981 
L 314.172 350.910361 
L 314.544 350.456611 
L 314.916 350.658156 
L 315.288 349.991329 
L 315.66 350.954884 
L 316.032 350.382357 
L 316.404 350.497145 
L 316.776 350.491817 
L 317.148 350.629716 
L 317.52 350.506644 
L 317.892 350.749123 
L 318.264 350.193218 
L 318.636 351.019454 
L 319.008 350.296004 
L 319.38 350.266145 
L 319.752 350.631993 
L 320.124 350.708829 
L 320.496 350.526832 
L 320.868 350.558288 
L 321.24 350.091149 
L 321.612 350.841466 
L 321.984 350.177903 
L 322.356 350.820772 
L 322.728 350.292753 
L 323.1 350.681532 
L 323.472 350.494537 
L 323.844 350.155183 
L 324.216 350.885292 
L 324.588 350.574765 
L 324.96 350.061839 
L 325.332 350.868524 
L 325.704 350.296195 
L 326.076 350.5972 
L 326.448 350.462417 
L 326.82 350.620371 
L 327.192 350.334295 
L 327.564 350.704172 
L 327.936 350.33088 
L 328.308 350.356325 
L 328.68 350.652017 
L 329.052 350.618854 
L 329.424 350.319742 
L 329.796 350.628262 
L 330.168 350.326314 
L 330.54 350.643153 
L 330.912 350.396624 
L 331.284 350.629361 
L 331.656 350.290457 
L 332.028 350.643866 
L 332.4 350.443579 
L 333.516 350.547836 
L 333.888 350.403318 
L 334.632 350.565312 
L 335.004 350.416911 
L 335.748 350.602604 
L 336.12 350.371047 
L 336.492 350.53859 
L 337.236 350.499762 
L 337.608 350.384963 
L 337.98 350.584811 
L 338.724 350.422817 
L 339.468 350.628309 
L 339.84 350.361693 
L 340.212 350.531575 
L 340.584 350.438271 
L 340.956 350.480355 
L 341.328 350.638688 
L 341.7 350.398064 
L 342.444 350.61966 
L 342.816 350.349824 
L 343.56 350.606312 
L 343.932 350.407533 
L 344.304 350.522445 
L 344.676 350.460508 
L 345.048 350.522144 
L 345.42 350.423272 
L 345.792 350.610885 
L 346.164 350.425974 
L 346.908 350.601935 
L 347.28 350.344731 
L 347.652 350.64496 
L 348.024 350.321991 
L 348.396 350.595372 
L 349.14 350.479024 
L 349.512 350.581489 
L 349.884 350.3701 
L 350.256 350.57751 
L 351 350.449142 
L 351.372 350.613967 
L 351.744 350.387472 
L 352.116 350.547295 
L 352.488 350.554267 
L 352.86 350.44784 
L 353.232 350.544688 
L 353.604 350.383371 
L 353.976 350.607532 
L 354.348 350.413246 
L 354.72 350.582387 
L 355.464 350.418513 
L 355.836 350.611479 
L 356.208 350.329987 
L 356.58 350.602047 
L 356.952 350.47386 
L 357.324 350.587957 
L 357.696 350.446988 
L 358.44 350.543602 
L 358.812 350.441697 
L 359.184 350.579525 
L 359.928 350.474621 
L 360.3 350.470746 
L 360.672 350.590544 
L 361.044 350.439415 
L 361.416 350.550506 
L 365.136 350.498874 
L 365.508 350.564771 
L 365.88 350.459621 
L 366.624 350.520186 
L 367.74 350.488059 
L 368.484 350.50638 
L 371.832 350.518068 
L 372.948 350.537331 
L 373.32 350.492255 
L 373.692 350.561618 
L 374.064 350.482754 
L 374.436 350.563158 
L 375.18 350.521353 
L 381.876 350.532849 
L 417.96 350.393184 
L 425.4 350.122813 
L 431.352 349.809006 
L 432.468 365.527254 
L 433.584 365.416521 
L 433.956 365.258448 
L 434.328 364.895696 
L 435.444 362.545067 
L 435.816 362.275157 
L 436.56 362.098752 
L 437.304 362.059707 
L 438.42 377.770344 
L 438.792 377.664369 
L 439.536 373.339256 
L 439.908 373.26181 
L 440.652 383.737245 
L 441.024 378.619447 
L 441.768 380.653042 
L 442.14 375.530312 
L 442.512 380.763189 
L 442.884 375.518711 
L 444.372 375.737864 
L 452.556 377.476736 
L 452.556 377.476736 
" style="fill:none;stroke:#0000ff;stroke-linecap:square;"/>
   </g>
   <g id="patch_18">
    <path d="M 72 313.669565 
L 518.4 313.669565 
" style="fill:none;stroke:#000000;stroke-linecap:square;stroke-linejoin:miter;"/>
   </g>
   <g id="patch_19">
    <path d="M 518.4 388.8 
L 518.4 313.669565 
" style="fill:none;stroke:#000000;stroke-linecap:square;stroke-linejoin:miter;"/>
   </g>
   <g id="patch_20">
    <path d="M 72 388.8 
L 518.4 388.8 
" style="fill:none;stroke:#000000;stroke-linecap:square;stroke-linejoin:miter;"/>
   </g>
   <g id="patch_21">
    <path d="M 72 388.8 
L 72 313.669565 
" style="fill:none;stroke:#000000;stroke-linecap:square;stroke-linejoin:miter;"/>
   </g>
   <g id="matplotlib.axis_7">
    <g id="xtick_20">
     <g id="line2d_116">
      <g>
       <use style="stroke:#000000;stroke-width:0.5;" x="72.0" xlink:href="#m948468df07" y="388.8"/>
      </g>
     </g>
     <g id="line2d_117">
      <g>
       <use style="stroke:#000000;stroke-width:0.5;" x="72.0" xlink:href="#mdae13feedc" y="313.669565217"/>
      </g>
     </g>
     <g id="text_40">
      <!-- 0 -->
      <g transform="translate(68.1825 401.918125)scale(0.12 -0.12)">
       <use xlink:href="#BitstreamVeraSans-Roman-30"/>
      </g>
     </g>
    </g>
    <g id="xtick_21">
     <g id="line2d_118">
      <g>
       <use style="stroke:#000000;stroke-width:0.5;" x="146.4" xlink:href="#m948468df07" y="388.8"/>
      </g>
     </g>
     <g id="line2d_119">
      <g>
       <use style="stroke:#000000;stroke-width:0.5;" x="146.4" xlink:href="#mdae13feedc" y="313.669565217"/>
      </g>
     </g>
     <g id="text_41">
      <!-- 200 -->
      <g transform="translate(134.9475 401.918125)scale(0.12 -0.12)">
       <use xlink:href="#BitstreamVeraSans-Roman-32"/>
       <use x="63.623046875" xlink:href="#BitstreamVeraSans-Roman-30"/>
       <use x="127.24609375" xlink:href="#BitstreamVeraSans-Roman-30"/>
      </g>
     </g>
    </g>
    <g id="xtick_22">
     <g id="line2d_120">
      <g>
       <use style="stroke:#000000;stroke-width:0.5;" x="220.8" xlink:href="#m948468df07" y="388.8"/>
      </g>
     </g>
     <g id="line2d_121">
      <g>
       <use style="stroke:#000000;stroke-width:0.5;" x="220.8" xlink:href="#mdae13feedc" y="313.669565217"/>
      </g>
     </g>
     <g id="text_42">
      <!-- 400 -->
      <g transform="translate(209.3475 401.918125)scale(0.12 -0.12)">
       <use xlink:href="#BitstreamVeraSans-Roman-34"/>
       <use x="63.623046875" xlink:href="#BitstreamVeraSans-Roman-30"/>
       <use x="127.24609375" xlink:href="#BitstreamVeraSans-Roman-30"/>
      </g>
     </g>
    </g>
    <g id="xtick_23">
     <g id="line2d_122">
      <g>
       <use style="stroke:#000000;stroke-width:0.5;" x="295.2" xlink:href="#m948468df07" y="388.8"/>
      </g>
     </g>
     <g id="line2d_123">
      <g>
       <use style="stroke:#000000;stroke-width:0.5;" x="295.2" xlink:href="#mdae13feedc" y="313.669565217"/>
      </g>
     </g>
     <g id="text_43">
      <!-- 600 -->
      <g transform="translate(283.7475 401.918125)scale(0.12 -0.12)">
       <use xlink:href="#BitstreamVeraSans-Roman-36"/>
       <use x="63.623046875" xlink:href="#BitstreamVeraSans-Roman-30"/>
       <use x="127.24609375" xlink:href="#BitstreamVeraSans-Roman-30"/>
      </g>
     </g>
    </g>
    <g id="xtick_24">
     <g id="line2d_124">
      <g>
       <use style="stroke:#000000;stroke-width:0.5;" x="369.6" xlink:href="#m948468df07" y="388.8"/>
      </g>
     </g>
     <g id="line2d_125">
      <g>
       <use style="stroke:#000000;stroke-width:0.5;" x="369.6" xlink:href="#mdae13feedc" y="313.669565217"/>
      </g>
     </g>
     <g id="text_44">
      <!-- 800 -->
      <g transform="translate(358.1475 401.918125)scale(0.12 -0.12)">
       <use xlink:href="#BitstreamVeraSans-Roman-38"/>
       <use x="63.623046875" xlink:href="#BitstreamVeraSans-Roman-30"/>
       <use x="127.24609375" xlink:href="#BitstreamVeraSans-Roman-30"/>
      </g>
     </g>
    </g>
    <g id="xtick_25">
     <g id="line2d_126">
      <g>
       <use style="stroke:#000000;stroke-width:0.5;" x="444.0" xlink:href="#m948468df07" y="388.8"/>
      </g>
     </g>
     <g id="line2d_127">
      <g>
       <use style="stroke:#000000;stroke-width:0.5;" x="444.0" xlink:href="#mdae13feedc" y="313.669565217"/>
      </g>
     </g>
     <g id="text_45">
      <!-- 1000 -->
      <g transform="translate(428.73 401.918125)scale(0.12 -0.12)">
       <use xlink:href="#BitstreamVeraSans-Roman-31"/>
       <use x="63.623046875" xlink:href="#BitstreamVeraSans-Roman-30"/>
       <use x="127.24609375" xlink:href="#BitstreamVeraSans-Roman-30"/>
       <use x="190.869140625" xlink:href="#BitstreamVeraSans-Roman-30"/>
      </g>
     </g>
    </g>
    <g id="xtick_26">
     <g id="line2d_128">
      <g>
       <use style="stroke:#000000;stroke-width:0.5;" x="518.4" xlink:href="#m948468df07" y="388.8"/>
      </g>
     </g>
     <g id="line2d_129">
      <g>
       <use style="stroke:#000000;stroke-width:0.5;" x="518.4" xlink:href="#mdae13feedc" y="313.669565217"/>
      </g>
     </g>
     <g id="text_46">
      <!-- 1200 -->
      <g transform="translate(503.13 401.918125)scale(0.12 -0.12)">
       <use xlink:href="#BitstreamVeraSans-Roman-31"/>
       <use x="63.623046875" xlink:href="#BitstreamVeraSans-Roman-32"/>
       <use x="127.24609375" xlink:href="#BitstreamVeraSans-Roman-30"/>
       <use x="190.869140625" xlink:href="#BitstreamVeraSans-Roman-30"/>
      </g>
     </g>
    </g>
   </g>
   <g id="matplotlib.axis_8">
    <g id="ytick_37">
     <g id="line2d_130">
      <g>
       <use style="stroke:#000000;stroke-width:0.5;" x="72.0" xlink:href="#m509b242d09" y="388.8"/>
      </g>
     </g>
     <g id="line2d_131">
      <g>
       <use style="stroke:#000000;stroke-width:0.5;" x="518.4" xlink:href="#mca8815af1b" y="388.8"/>
      </g>
     </g>
     <g id="text_47">
      <!-- −35 -->
      <g transform="translate(42.674375 392.11125)scale(0.12 -0.12)">
       <use xlink:href="#BitstreamVeraSans-Roman-2212"/>
       <use x="83.7890625" xlink:href="#BitstreamVeraSans-Roman-33"/>
       <use x="147.412109375" xlink:href="#BitstreamVeraSans-Roman-35"/>
      </g>
     </g>
    </g>
    <g id="ytick_38">
     <g id="line2d_132">
      <g>
       <use style="stroke:#000000;stroke-width:0.5;" x="72.0" xlink:href="#m509b242d09" y="380.452173913"/>
      </g>
     </g>
     <g id="line2d_133">
      <g>
       <use style="stroke:#000000;stroke-width:0.5;" x="518.4" xlink:href="#mca8815af1b" y="380.452173913"/>
      </g>
     </g>
     <g id="text_48">
      <!-- −30 -->
      <g transform="translate(42.674375 383.763423913)scale(0.12 -0.12)">
       <use xlink:href="#BitstreamVeraSans-Roman-2212"/>
       <use x="83.7890625" xlink:href="#BitstreamVeraSans-Roman-33"/>
       <use x="147.412109375" xlink:href="#BitstreamVeraSans-Roman-30"/>
      </g>
     </g>
    </g>
    <g id="ytick_39">
     <g id="line2d_134">
      <g>
       <use style="stroke:#000000;stroke-width:0.5;" x="72.0" xlink:href="#m509b242d09" y="372.104347826"/>
      </g>
     </g>
     <g id="line2d_135">
      <g>
       <use style="stroke:#000000;stroke-width:0.5;" x="518.4" xlink:href="#mca8815af1b" y="372.104347826"/>
      </g>
     </g>
     <g id="text_49">
      <!-- −25 -->
      <g transform="translate(42.674375 375.415597826)scale(0.12 -0.12)">
       <use xlink:href="#BitstreamVeraSans-Roman-2212"/>
       <use x="83.7890625" xlink:href="#BitstreamVeraSans-Roman-32"/>
       <use x="147.412109375" xlink:href="#BitstreamVeraSans-Roman-35"/>
      </g>
     </g>
    </g>
    <g id="ytick_40">
     <g id="line2d_136">
      <g>
       <use style="stroke:#000000;stroke-width:0.5;" x="72.0" xlink:href="#m509b242d09" y="363.756521739"/>
      </g>
     </g>
     <g id="line2d_137">
      <g>
       <use style="stroke:#000000;stroke-width:0.5;" x="518.4" xlink:href="#mca8815af1b" y="363.756521739"/>
      </g>
     </g>
     <g id="text_50">
      <!-- −20 -->
      <g transform="translate(42.674375 367.067771739)scale(0.12 -0.12)">
       <use xlink:href="#BitstreamVeraSans-Roman-2212"/>
       <use x="83.7890625" xlink:href="#BitstreamVeraSans-Roman-32"/>
       <use x="147.412109375" xlink:href="#BitstreamVeraSans-Roman-30"/>
      </g>
     </g>
    </g>
    <g id="ytick_41">
     <g id="line2d_138">
      <g>
       <use style="stroke:#000000;stroke-width:0.5;" x="72.0" xlink:href="#m509b242d09" y="355.408695652"/>
      </g>
     </g>
     <g id="line2d_139">
      <g>
       <use style="stroke:#000000;stroke-width:0.5;" x="518.4" xlink:href="#mca8815af1b" y="355.408695652"/>
      </g>
     </g>
     <g id="text_51">
      <!-- −15 -->
      <g transform="translate(42.674375 358.719945652)scale(0.12 -0.12)">
       <use xlink:href="#BitstreamVeraSans-Roman-2212"/>
       <use x="83.7890625" xlink:href="#BitstreamVeraSans-Roman-31"/>
       <use x="147.412109375" xlink:href="#BitstreamVeraSans-Roman-35"/>
      </g>
     </g>
    </g>
    <g id="ytick_42">
     <g id="line2d_140">
      <g>
       <use style="stroke:#000000;stroke-width:0.5;" x="72.0" xlink:href="#m509b242d09" y="347.060869565"/>
      </g>
     </g>
     <g id="line2d_141">
      <g>
       <use style="stroke:#000000;stroke-width:0.5;" x="518.4" xlink:href="#mca8815af1b" y="347.060869565"/>
      </g>
     </g>
     <g id="text_52">
      <!-- −10 -->
      <g transform="translate(42.674375 350.372119565)scale(0.12 -0.12)">
       <use xlink:href="#BitstreamVeraSans-Roman-2212"/>
       <use x="83.7890625" xlink:href="#BitstreamVeraSans-Roman-31"/>
       <use x="147.412109375" xlink:href="#BitstreamVeraSans-Roman-30"/>
      </g>
     </g>
    </g>
    <g id="ytick_43">
     <g id="line2d_142">
      <g>
       <use style="stroke:#000000;stroke-width:0.5;" x="72.0" xlink:href="#m509b242d09" y="338.713043478"/>
      </g>
     </g>
     <g id="line2d_143">
      <g>
       <use style="stroke:#000000;stroke-width:0.5;" x="518.4" xlink:href="#mca8815af1b" y="338.713043478"/>
      </g>
     </g>
     <g id="text_53">
      <!-- −5 -->
      <g transform="translate(50.309375 342.024293478)scale(0.12 -0.12)">
       <use xlink:href="#BitstreamVeraSans-Roman-2212"/>
       <use x="83.7890625" xlink:href="#BitstreamVeraSans-Roman-35"/>
      </g>
     </g>
    </g>
    <g id="ytick_44">
     <g id="line2d_144">
      <g>
       <use style="stroke:#000000;stroke-width:0.5;" x="72.0" xlink:href="#m509b242d09" y="330.365217391"/>
      </g>
     </g>
     <g id="line2d_145">
      <g>
       <use style="stroke:#000000;stroke-width:0.5;" x="518.4" xlink:href="#mca8815af1b" y="330.365217391"/>
      </g>
     </g>
     <g id="text_54">
      <!-- 0 -->
      <g transform="translate(60.365 333.676467391)scale(0.12 -0.12)">
       <use xlink:href="#BitstreamVeraSans-Roman-30"/>
      </g>
     </g>
    </g>
    <g id="ytick_45">
     <g id="line2d_146">
      <g>
       <use style="stroke:#000000;stroke-width:0.5;" x="72.0" xlink:href="#m509b242d09" y="322.017391304"/>
      </g>
     </g>
     <g id="line2d_147">
      <g>
       <use style="stroke:#000000;stroke-width:0.5;" x="518.4" xlink:href="#mca8815af1b" y="322.017391304"/>
      </g>
     </g>
     <g id="text_55">
      <!-- 5 -->
      <g transform="translate(60.365 325.328641304)scale(0.12 -0.12)">
       <use xlink:href="#BitstreamVeraSans-Roman-35"/>
      </g>
     </g>
    </g>
    <g id="ytick_46">
     <g id="line2d_148">
      <g>
       <use style="stroke:#000000;stroke-width:0.5;" x="72.0" xlink:href="#m509b242d09" y="313.669565217"/>
      </g>
     </g>
     <g id="line2d_149">
      <g>
       <use style="stroke:#000000;stroke-width:0.5;" x="518.4" xlink:href="#mca8815af1b" y="313.669565217"/>
      </g>
     </g>
     <g id="text_56">
      <!-- 10 -->
      <g transform="translate(52.73 316.980815217)scale(0.12 -0.12)">
       <use xlink:href="#BitstreamVeraSans-Roman-31"/>
       <use x="63.623046875" xlink:href="#BitstreamVeraSans-Roman-30"/>
      </g>
     </g>
    </g>
   </g>
  </g>
 </g>
 <defs>
  <clipPath id="p2e28413be1">
   <rect height="75.1304347826" width="446.4" x="72.0" y="223.513043478"/>
  </clipPath>
  <clipPath id="pa7daf62f8a">
   <rect height="75.1304347826" width="446.4" x="72.0" y="43.2"/>
  </clipPath>
  <clipPath id="p40c6433c32">
   <rect height="75.1304347826" width="446.4" x="72.0" y="313.669565217"/>
  </clipPath>
  <clipPath id="p14122b8474">
   <rect height="75.1304347826" width="446.4" x="72.0" y="133.356521739"/>
  </clipPath>
 </defs>
</svg>
