<?xml version="1.0" encoding="utf-8" standalone="no"?>
<!DOCTYPE svg PUBLIC "-//W3C//DTD SVG 1.1//EN"
  "http://www.w3.org/Graphics/SVG/1.1/DTD/svg11.dtd">
<!-- Created with matplotlib (http://matplotlib.org/) -->
<svg height="432pt" version="1.1" viewBox="0 0 576 432" width="576pt" xmlns="http://www.w3.org/2000/svg" xmlns:xlink="http://www.w3.org/1999/xlink">
 <defs>
  <style type="text/css">
*{stroke-linecap:butt;stroke-linejoin:round;stroke-miterlimit:100000;}
  </style>
 </defs>
 <g id="figure_1">
  <g id="patch_1">
   <path d="M 0 432 
L 576 432 
L 576 0 
L 0 0 
z
" style="fill:#ffffff;"/>
  </g>
  <g id="axes_1">
   <g id="patch_2">
    <path d="M 72 388.8 
L 518.4 388.8 
L 518.4 43.2 
L 72 43.2 
z
" style="fill:#ffffff;"/>
   </g>
   <g id="line2d_1">
    <path clip-path="url(#pe43fb7d5a4)" d="M 72 84.00172 
L 72.4464 101.592879 
L 72.8928 174.833292 
L 74.232 283.558074 
L 74.6784 262.671425 
L 75.5712 265.019542 
L 76.0176 281.29772 
L 76.464 279.486914 
L 76.9104 280.901593 
L 77.3568 291.76142 
L 77.8032 281.697598 
L 78.2496 290.78497 
L 78.696 279.061321 
L 79.1424 293.469275 
L 79.5888 301.168389 
L 80.0352 302.269772 
L 80.4816 302.414172 
L 80.928 306.525647 
L 81.3744 304.526698 
L 81.8208 310.795214 
L 82.2672 304.761511 
L 82.7136 311.110664 
L 83.16 301.725323 
L 83.6064 305.250781 
L 84.0528 315.186471 
L 84.4992 303.539023 
L 84.9456 309.3055 
L 85.392 298.672214 
L 85.8384 310.297546 
L 86.2848 315.513378 
L 86.7312 311.955225 
L 87.1776 310.970008 
L 88.0704 304.078529 
L 88.5168 312.952056 
L 88.9632 305.70282 
L 89.4096 313.317439 
L 89.856 311.577706 
L 90.3024 306.986243 
L 90.7488 313.890095 
L 91.1952 311.256158 
L 91.6416 311.593309 
L 92.088 313.514996 
L 92.5344 316.397325 
L 92.9808 318.171342 
L 93.4272 307.616939 
L 93.8736 305.525817 
L 94.32 306.906284 
L 94.7664 307.610249 
L 95.2128 301.946201 
L 95.6592 310.832477 
L 96.552 307.202981 
L 96.9984 311.505031 
L 97.4448 313.902541 
L 97.8912 308.830997 
L 98.3376 305.710354 
L 98.784 315.721738 
L 99.2304 303.517738 
L 99.6768 314.538102 
L 100.1232 314.031647 
L 100.5696 314.637302 
L 101.016 317.216052 
L 101.4624 301.062597 
L 101.9088 307.855608 
L 102.3552 301.440023 
L 102.8016 312.771085 
L 103.248 301.959404 
L 103.6944 304.086261 
L 104.1408 315.303779 
L 104.5872 311.60611 
L 105.0336 313.274059 
L 105.48 313.104142 
L 105.9264 313.839694 
L 106.3728 318.636795 
L 106.8192 317.696713 
L 107.2656 305.302665 
L 107.712 303.185993 
L 108.1584 317.630834 
L 108.6048 312.567181 
L 109.0512 309.90484 
L 109.4976 309.438918 
L 109.944 305.974811 
L 110.3904 309.644095 
L 110.8368 317.512723 
L 111.2832 308.573191 
L 111.7296 311.19908 
L 112.176 310.734813 
L 112.6224 306.562021 
L 113.0688 311.178955 
L 113.5152 305.392096 
L 113.9616 320.495854 
L 114.408 305.021848 
L 114.8544 318.271162 
L 115.3008 308.252725 
L 115.7472 311.068582 
L 116.1936 312.580437 
L 116.64 303.977898 
L 117.0864 300.429686 
L 117.5328 303.565443 
L 117.9792 308.614502 
L 118.4256 307.200806 
L 119.3184 310.39198 
L 119.7648 306.731819 
L 120.2112 317.201906 
L 120.6576 293.337545 
L 121.104 315.234782 
L 121.5504 319.160758 
L 121.9968 311.978731 
L 122.4432 317.207529 
L 122.8896 312.550932 
L 123.336 309.836377 
L 123.7824 314.262281 
L 124.2288 309.329455 
L 124.6752 312.512746 
L 125.1216 305.604174 
L 125.568 311.834252 
L 126.0144 312.407231 
L 126.4608 310.914558 
L 126.9072 301.623335 
L 127.8 303.289207 
L 128.2464 308.148554 
L 128.6928 305.439972 
L 129.1392 311.67218 
L 129.5856 308.544471 
L 130.032 307.983292 
L 130.4784 309.412709 
L 130.9248 303.186784 
L 131.3712 306.328395 
L 131.8176 311.125324 
L 132.264 306.744706 
L 132.7104 308.020845 
L 133.1568 308.227511 
L 133.6032 323.599931 
L 134.0496 314.852076 
L 134.496 312.8073 
L 135.3888 305.761658 
L 135.8352 309.474237 
L 136.2816 302.398873 
L 137.1744 316.720059 
L 137.6208 317.62361 
L 138.0672 316.187165 
L 138.5136 306.706263 
L 138.96 317.254819 
L 139.8528 307.182573 
L 140.2992 307.174346 
L 140.7456 308.919419 
L 141.192 303.145862 
L 141.6384 311.327692 
L 142.0848 311.25896 
L 142.5312 312.926724 
L 142.9776 316.295706 
L 143.424 294.469178 
L 143.8704 302.755997 
L 144.3168 305.436518 
L 144.7632 310.991748 
L 145.2096 311.973748 
L 145.656 311.315643 
L 146.1024 317.801068 
L 146.5488 309.204237 
L 146.9952 312.611339 
L 147.4416 311.282321 
L 147.888 314.270086 
L 148.3344 301.467538 
L 148.7808 307.572174 
L 149.2272 308.39168 
L 149.6736 312.957626 
L 150.12 308.21701 
L 150.5664 312.91 
L 151.0128 306.075177 
L 151.4592 315.706887 
L 151.9056 307.900571 
L 152.352 317.117254 
L 152.7984 310.571877 
L 153.2448 312.556726 
L 153.6912 312.224612 
L 154.1376 302.955939 
L 154.584 317.763442 
L 155.0304 315.21328 
L 155.4768 309.376237 
L 155.9232 314.224036 
L 156.3696 308.812348 
L 156.816 300.242096 
L 157.2624 302.673777 
L 157.7088 314.171921 
L 158.1552 305.765851 
L 158.6016 306.805805 
L 159.048 313.027414 
L 159.4944 303.953726 
L 159.9408 300.661077 
L 160.3872 310.364789 
L 160.8336 302.509997 
L 161.28 313.86916 
L 161.7264 307.595819 
L 162.1728 309.507671 
L 162.6192 312.844906 
L 163.0656 313.874196 
L 163.512 312.06803 
L 163.9584 315.836271 
L 164.4048 310.515174 
L 164.8512 321.491307 
L 165.2976 314.813145 
L 165.744 311.482896 
L 166.1904 320.103971 
L 166.6368 315.499192 
L 167.0832 309.613931 
L 167.5296 321.12272 
L 167.976 300.695889 
L 168.4224 315.075518 
L 168.8688 302.155675 
L 169.3152 311.359821 
L 169.7616 309.604893 
L 170.6544 312.470631 
L 171.1008 308.609644 
L 171.5472 309.188575 
L 171.9936 309.014169 
L 172.44 306.529444 
L 172.8864 305.256212 
L 173.7792 318.466595 
L 174.2256 306.798179 
L 174.672 316.022186 
L 175.1184 310.740759 
L 175.5648 308.790866 
L 176.0112 303.769881 
L 176.4576 304.788234 
L 176.904 312.917687 
L 177.3504 313.11579 
L 177.7968 317.377973 
L 178.2432 311.045643 
L 178.6896 312.003622 
L 179.136 314.621165 
L 179.5824 310.15165 
L 180.0288 309.976176 
L 180.4752 310.796262 
L 180.9216 313.694859 
L 181.368 312.847662 
L 181.8144 316.956441 
L 182.2608 305.861392 
L 182.7072 309.93068 
L 183.1536 304.682245 
L 183.6 303.368414 
L 184.0464 307.190391 
L 184.4928 308.270905 
L 184.9392 306.702123 
L 185.3856 312.24705 
L 185.832 313.481259 
L 186.2784 311.659695 
L 186.7248 304.188836 
L 187.1712 318.555828 
L 187.6176 314.052702 
L 188.064 313.592337 
L 188.5104 315.844253 
L 188.9568 309.858209 
L 189.4032 312.6776 
L 189.8496 313.086997 
L 190.296 306.566681 
L 190.7424 307.153622 
L 191.1888 307.51474 
L 191.6352 312.821051 
L 192.0816 315.721165 
L 192.528 315.383223 
L 192.9744 310.152771 
L 193.4208 314.637506 
L 193.8672 308.993563 
L 194.76 315.691185 
L 195.2064 311.338826 
L 195.6528 313.467996 
L 196.0992 304.772539 
L 196.5456 306.283663 
L 196.992 304.190306 
L 197.4384 317.286314 
L 197.8848 316.770203 
L 198.7776 309.47959 
L 199.224 307.923517 
L 199.6704 312.674278 
L 200.1168 320.147279 
L 200.5632 303.936877 
L 201.456 317.324481 
L 201.9024 312.281433 
L 202.3488 310.525708 
L 202.7952 304.641316 
L 203.2416 311.413228 
L 203.688 308.095972 
L 204.5808 316.057913 
L 205.0272 310.184029 
L 205.4736 314.396932 
L 205.92 313.542866 
L 206.3664 314.720411 
L 206.8128 301.579361 
L 207.2592 308.661917 
L 207.7056 313.967424 
L 208.152 308.492508 
L 208.5984 311.601964 
L 209.0448 304.246639 
L 209.4912 308.883177 
L 209.9376 305.702642 
L 210.384 303.902363 
L 210.8304 315.405464 
L 211.2768 305.74829 
L 211.7232 310.190396 
L 212.1696 306.238575 
L 212.616 307.533685 
L 213.0624 307.157234 
L 213.5088 305.693644 
L 213.9552 313.906087 
L 214.4016 315.114798 
L 214.848 304.342603 
L 215.2944 312.737117 
L 215.7408 302.370706 
L 216.1872 313.901637 
L 216.6336 310.699593 
L 217.08 311.282644 
L 217.5264 313.936646 
L 217.9728 315.660177 
L 218.8656 310.326425 
L 219.312 310.760231 
L 219.7584 301.644119 
L 220.2048 310.101354 
L 220.6512 313.02303 
L 221.0976 317.09475 
L 221.544 311.564443 
L 221.9904 309.857596 
L 222.4368 313.940522 
L 222.8832 313.515088 
L 223.3296 305.627476 
L 223.776 312.718166 
L 224.2224 310.242762 
L 224.6688 309.096989 
L 225.1152 311.85056 
L 225.5616 309.117779 
L 226.008 312.407989 
L 226.4544 303.130734 
L 226.9008 319.030095 
L 227.3472 312.547471 
L 227.7936 311.267391 
L 228.24 311.721275 
L 228.6864 321.524227 
L 229.1328 301.751275 
L 229.5792 297.494411 
L 230.0256 312.420368 
L 230.472 309.981977 
L 230.9184 310.714616 
L 231.3648 309.637529 
L 231.8112 320.00812 
L 232.2576 315.533312 
L 233.1504 310.048449 
L 233.5968 314.34688 
L 234.0432 306.716889 
L 234.4896 313.565133 
L 234.936 308.990979 
L 235.3824 307.517449 
L 235.8288 309.516491 
L 236.2752 318.984961 
L 236.7216 310.11761 
L 237.168 305.661331 
L 237.6144 312.45603 
L 238.0608 315.22997 
L 238.5072 310.338738 
L 238.9536 314.061871 
L 239.4 311.695231 
L 239.8464 307.032754 
L 240.2928 310.443897 
L 240.7392 302.607773 
L 241.1856 318.41038 
L 241.632 306.945281 
L 242.0784 312.078089 
L 242.5248 304.608924 
L 243.4176 319.766755 
L 243.864 312.015718 
L 244.3104 315.720136 
L 244.7568 314.884547 
L 245.2032 306.685861 
L 245.6496 310.021277 
L 246.096 316.151741 
L 246.5424 310.618521 
L 246.9888 309.953764 
L 247.4352 315.747031 
L 247.8816 313.731562 
L 248.328 304.377513 
L 248.7744 303.28659 
L 249.2208 310.234766 
L 249.6672 314.59845 
L 250.1136 302.789575 
L 250.56 313.353444 
L 251.0064 307.173674 
L 251.4528 318.347501 
L 251.8992 311.140419 
L 252.3456 314.370914 
L 253.2384 305.547886 
L 253.6848 304.578543 
L 254.5776 315.32863 
L 255.024 312.168107 
L 255.4704 312.808474 
L 255.9168 313.973191 
L 256.8096 305.025157 
L 257.256 308.138106 
L 257.7024 306.724838 
L 258.1488 320.345765 
L 258.5952 310.925698 
L 259.0416 305.896764 
L 259.488 309.256286 
L 259.9344 300.655745 
L 260.3808 308.79374 
L 260.8272 309.147508 
L 261.2736 320.003024 
L 261.72 313.235721 
L 262.1664 304.692647 
L 262.6128 301.316407 
L 263.0592 313.902198 
L 263.5056 317.989474 
L 263.952 311.276026 
L 264.3984 322.168766 
L 264.8448 312.786088 
L 265.2912 315.613059 
L 266.184 313.658466 
L 266.6304 313.04736 
L 267.0768 307.554515 
L 267.5232 306.868263 
L 267.9696 308.283785 
L 268.416 304.691203 
L 268.8624 306.573636 
L 269.3088 308.972219 
L 269.7552 317.047922 
L 270.2016 307.625383 
L 270.648 312.62244 
L 271.0944 323.936389 
L 271.5408 310.02518 
L 271.9872 324.467879 
L 272.88 305.750637 
L 273.3264 308.086598 
L 273.7728 313.469242 
L 274.2192 308.610778 
L 274.6656 310.17948 
L 275.112 303.659244 
L 275.5584 309.695194 
L 276.0048 306.472972 
L 276.4512 310.508451 
L 276.8976 299.231132 
L 277.344 310.627248 
L 277.7904 307.556295 
L 278.2368 305.400771 
L 279.1296 318.752752 
L 279.576 309.294934 
L 280.0224 309.431892 
L 280.4688 313.619555 
L 281.3616 305.063073 
L 281.808 312.712813 
L 282.2544 310.748188 
L 282.7008 310.320301 
L 283.1472 305.37613 
L 283.5936 310.287045 
L 284.04 300.881197 
L 284.4864 316.608823 
L 284.9328 313.471437 
L 285.3792 314.193397 
L 285.8256 315.613428 
L 286.7184 312.274683 
L 287.1648 311.209073 
L 287.6112 301.646076 
L 288.0576 319.633607 
L 288.504 315.166755 
L 288.9504 298.601998 
L 289.3968 315.602842 
L 289.8432 311.007318 
L 290.736 311.771254 
L 291.1824 302.437428 
L 291.6288 305.713769 
L 292.0752 304.700854 
L 292.968 306.705313 
L 293.4144 313.177641 
L 293.8608 313.611051 
L 294.3072 311.36779 
L 294.7536 319.488198 
L 295.2 323.207007 
L 295.6464 305.672326 
L 296.0928 307.84404 
L 296.9856 304.419456 
L 297.432 304.736548 
L 297.8784 311.403689 
L 298.3248 315.359249 
L 298.7712 314.005603 
L 299.2176 314.901962 
L 299.664 311.492355 
L 300.1104 311.180418 
L 300.5568 312.838486 
L 301.0032 309.281065 
L 301.4496 318.311563 
L 301.896 304.132502 
L 302.3424 313.201042 
L 302.7888 309.168859 
L 303.2352 316.601433 
L 303.6816 317.486072 
L 304.128 306.005265 
L 304.5744 311.151349 
L 305.0208 312.517327 
L 305.4672 315.309125 
L 305.9136 315.143743 
L 306.36 312.95872 
L 306.8064 319.065869 
L 307.2528 316.268191 
L 307.6992 311.019724 
L 308.1456 303.38554 
L 308.592 310.010229 
L 309.0384 306.19557 
L 309.4848 310.557487 
L 309.9312 307.756956 
L 310.3776 312.163203 
L 310.824 313.541824 
L 311.2704 307.508939 
L 311.7168 306.252549 
L 312.1632 296.688531 
L 312.6096 311.520588 
L 313.056 311.241498 
L 313.9488 301.10901 
L 314.3952 312.217928 
L 314.8416 315.603415 
L 315.288 308.248038 
L 315.7344 312.439959 
L 316.1808 309.445945 
L 316.6272 308.811841 
L 317.0736 306.436797 
L 317.52 314.05025 
L 317.9664 309.96849 
L 318.4128 309.382842 
L 318.8592 318.612821 
L 319.752 301.039888 
L 320.1984 319.650706 
L 320.6448 310.252702 
L 321.0912 311.612867 
L 321.5376 307.456752 
L 321.984 315.284959 
L 322.4304 307.663748 
L 322.8768 305.213491 
L 323.3232 313.929679 
L 323.7696 305.806397 
L 324.216 304.044231 
L 324.6624 315.394436 
L 325.1088 317.586103 
L 325.5552 322.963453 
L 326.0016 316.711371 
L 326.448 308.861985 
L 326.8944 311.788973 
L 327.3408 312.005092 
L 327.7872 311.88992 
L 328.2336 311.934942 
L 328.68 305.049065 
L 329.1264 312.87867 
L 329.5728 308.707532 
L 330.0192 311.672951 
L 330.4656 312.66325 
L 330.912 309.831572 
L 331.3584 314.392449 
L 331.8048 310.700588 
L 332.2512 310.485604 
L 332.6976 306.468582 
L 333.144 307.817297 
L 333.5904 301.336809 
L 334.0368 303.768523 
L 334.4832 313.14041 
L 334.9296 310.873636 
L 335.376 312.452174 
L 335.8224 309.619 
L 336.2688 304.385574 
L 336.7152 305.676281 
L 337.1616 311.311938 
L 337.608 311.119978 
L 338.0544 315.493603 
L 338.5008 307.03578 
L 338.9472 314.87895 
L 339.3936 299.394108 
L 340.2864 312.91447 
L 340.7328 309.822429 
L 341.1792 317.681328 
L 341.6256 309.159993 
L 342.072 314.157149 
L 342.5184 310.821205 
L 342.9648 303.586444 
L 343.4112 305.057457 
L 343.8576 315.67992 
L 344.304 304.190147 
L 344.7504 307.649681 
L 345.1968 305.851135 
L 345.6432 311.19206 
L 346.0896 314.828029 
L 346.9824 306.435524 
L 347.4288 309.871077 
L 347.8752 308.742917 
L 348.3216 306.272694 
L 348.768 313.003499 
L 349.2144 310.912805 
L 349.6608 315.208652 
L 350.1072 317.418552 
L 350.5536 324.110452 
L 351 305.838624 
L 351.4464 315.191052 
L 351.8928 308.895596 
L 352.3392 314.471782 
L 352.7856 313.28601 
L 353.232 313.70861 
L 353.6784 324.624494 
L 354.1248 306.732432 
L 354.5712 300.246987 
L 355.0176 307.528662 
L 355.464 301.597488 
L 356.3568 312.565289 
L 356.8032 313.960693 
L 357.2496 308.788519 
L 357.696 314.189238 
L 358.1424 303.015384 
L 358.5888 314.15993 
L 359.0352 305.383408 
L 359.4816 313.614472 
L 360.3744 310.042252 
L 360.8208 299.877603 
L 361.2672 313.787448 
L 361.7136 309.165194 
L 362.16 313.185182 
L 362.6064 308.230741 
L 363.0528 305.40814 
L 363.4992 316.467119 
L 363.9456 309.142103 
L 364.392 313.981418 
L 364.8384 307.740529 
L 365.2848 319.259351 
L 365.7312 313.535938 
L 366.1776 319.353073 
L 366.624 296.335468 
L 367.0704 308.760188 
L 367.5168 316.63455 
L 367.9632 310.074223 
L 368.4096 311.849413 
L 368.856 311.189818 
L 369.3024 312.652354 
L 369.7488 310.283881 
L 370.1952 308.931653 
L 370.6416 304.397328 
L 371.088 317.735789 
L 371.5344 303.185136 
L 371.9808 311.927104 
L 372.4272 308.104225 
L 372.8736 318.972463 
L 373.32 304.651745 
L 373.7664 304.150583 
L 374.2128 303.183079 
L 374.6592 305.254644 
L 375.1056 306.762174 
L 375.552 312.995035 
L 375.9984 307.449923 
L 376.4448 307.972468 
L 376.8912 314.62545 
L 377.3376 312.118299 
L 377.784 318.002019 
L 378.2304 304.406332 
L 378.6768 321.022591 
L 379.5696 300.534937 
L 380.016 308.560258 
L 380.4624 314.161209 
L 380.9088 307.108837 
L 381.3552 312.9417 
L 381.8016 309.360166 
L 382.248 314.576308 
L 382.6944 314.230364 
L 383.1408 315.462529 
L 383.5872 311.992185 
L 384.0336 315.710196 
L 384.48 308.581471 
L 384.9264 308.14131 
L 385.3728 322.589382 
L 385.8192 307.300869 
L 386.2656 303.298159 
L 387.1584 313.71619 
L 387.6048 312.182912 
L 388.0512 311.273752 
L 388.4976 318.60381 
L 388.944 308.805783 
L 389.3904 312.327345 
L 389.8368 311.390895 
L 390.2832 307.63299 
L 390.7296 305.735924 
L 391.176 314.013797 
L 391.6224 307.366748 
L 392.0688 313.538027 
L 392.5152 317.71776 
L 392.9616 309.270089 
L 393.408 306.681504 
L 393.8544 312.951661 
L 394.3008 305.954376 
L 394.7472 305.959102 
L 395.64 315.91468 
L 396.0864 307.432283 
L 396.5328 311.938132 
L 396.9792 302.31045 
L 397.4256 308.040007 
L 397.872 310.938902 
L 398.3184 310.878989 
L 398.7648 315.186385 
L 399.2112 311.396115 
L 399.6576 309.004308 
L 400.104 315.568604 
L 400.5504 310.60711 
L 400.9968 309.876706 
L 401.4432 306.265074 
L 401.8896 312.609125 
L 402.336 313.56947 
L 402.7824 310.025522 
L 403.2288 303.422203 
L 403.6752 304.206205 
L 404.1216 309.620391 
L 404.568 305.177203 
L 405.0144 315.701013 
L 405.4608 304.377836 
L 405.9072 315.71278 
L 406.3536 315.6505 
L 406.8 314.947433 
L 407.2464 319.09366 
L 407.6928 309.386224 
L 408.1392 317.168947 
L 408.5856 306.669006 
L 409.032 303.896173 
L 409.4784 318.152094 
L 409.9248 309.776827 
L 410.3712 307.355977 
L 410.8176 307.662113 
L 411.264 308.957309 
L 411.7104 308.371278 
L 412.1568 314.310639 
L 412.6032 304.880783 
L 413.0496 304.808959 
L 413.496 314.629945 
L 413.9424 309.541401 
L 414.8352 305.499766 
L 415.2816 314.926431 
L 415.728 316.761086 
L 416.1744 319.952024 
L 416.6208 310.587513 
L 417.0672 305.096348 
L 417.5136 314.233198 
L 417.96 308.897811 
L 418.4064 311.403749 
L 418.8528 316.282271 
L 419.2992 311.29795 
L 419.7456 313.929369 
L 420.192 314.169891 
L 420.6384 316.744469 
L 421.0848 311.64899 
L 421.5312 313.03481 
L 421.9776 311.778571 
L 422.424 313.738128 
L 422.8704 307.027639 
L 423.3168 312.386078 
L 423.7632 304.502506 
L 424.2096 310.457147 
L 424.656 310.813381 
L 425.1024 311.790186 
L 425.5488 314.626491 
L 425.9952 319.812521 
L 426.4416 316.165109 
L 426.888 303.598731 
L 427.3344 310.629753 
L 427.7808 303.991167 
L 428.2272 314.429416 
L 428.6736 305.592381 
L 429.12 308.087574 
L 429.5664 303.710001 
L 430.0128 314.225842 
L 430.4592 309.785515 
L 430.9056 303.672738 
L 431.352 306.598632 
L 431.7984 312.909605 
L 432.6912 307.038483 
L 433.1376 315.223919 
L 433.584 312.001493 
L 434.0304 305.599144 
L 434.4768 303.382494 
L 434.9232 316.597775 
L 435.3696 307.119647 
L 435.816 313.326958 
L 436.2624 311.460464 
L 436.7088 310.41486 
L 437.1552 312.842461 
L 437.6016 316.87552 
L 438.048 311.587686 
L 438.4944 308.27366 
L 438.9408 311.234273 
L 439.3872 319.23365 
L 439.8336 306.322818 
L 440.28 309.536121 
L 440.7264 313.914498 
L 441.1728 312.002798 
L 441.6192 318.233562 
L 442.0656 305.878142 
L 442.512 314.624599 
L 442.9584 314.232618 
L 443.4048 312.322493 
L 443.8512 311.337659 
L 444.2976 314.843302 
L 444.744 304.052432 
L 445.1904 314.504721 
L 445.6368 313.516327 
L 446.0832 316.878902 
L 446.5296 315.920276 
L 446.976 311.754432 
L 447.4224 310.803124 
L 447.8688 309.2562 
L 448.3152 313.532899 
L 448.7616 309.68209 
L 449.208 314.902457 
L 449.6544 311.258465 
L 450.1008 309.748562 
L 450.5472 309.228739 
L 450.9936 304.620104 
L 451.44 306.865903 
L 451.8864 299.2304 
L 452.3328 313.738326 
L 452.7792 307.018734 
L 453.2256 315.65232 
L 453.672 317.471999 
L 454.1184 317.65504 
L 454.5648 313.850716 
L 455.0112 306.134833 
L 455.4576 312.716716 
L 455.904 313.377583 
L 456.3504 312.955517 
L 456.7968 317.61599 
L 457.2432 310.468122 
L 457.6896 308.222679 
L 458.136 305.072169 
L 458.5824 305.592968 
L 459.0288 317.989837 
L 459.4752 317.253401 
L 459.9216 309.232826 
L 460.368 313.51725 
L 460.8144 309.09161 
L 461.2608 318.855643 
L 461.7072 310.893108 
L 462.1536 310.205914 
L 462.6 307.28435 
L 463.0464 307.04663 
L 463.4928 307.429851 
L 463.9392 306.031803 
L 464.3856 312.764941 
L 464.832 310.294303 
L 465.2784 308.775316 
L 466.1712 311.052518 
L 466.6176 303.607433 
L 467.5104 311.833521 
L 467.9568 312.716017 
L 468.4032 315.996095 
L 468.8496 314.663227 
L 469.296 310.696225 
L 469.7424 313.561989 
L 470.1888 311.705442 
L 471.0816 315.477459 
L 471.528 315.4334 
L 471.9744 304.494794 
L 472.4208 308.839586 
L 472.8672 297.829841 
L 473.3136 309.21489 
L 473.76 309.290643 
L 474.2064 315.140262 
L 474.6528 308.619242 
L 475.0992 309.878407 
L 475.5456 311.539553 
L 475.992 308.179905 
L 476.4384 313.762597 
L 476.8848 311.315049 
L 477.3312 301.941653 
L 477.7776 311.693372 
L 478.224 315.063989 
L 478.6704 313.588956 
L 479.1168 319.08068 
L 479.5632 314.567745 
L 480.0096 311.359794 
L 480.456 310.972487 
L 480.9024 311.437367 
L 481.3488 297.325483 
L 481.7952 303.973712 
L 482.2416 307.387182 
L 482.688 309.876166 
L 483.1344 303.127365 
L 483.5808 309.200322 
L 484.0272 307.742282 
L 484.4736 302.844781 
L 484.92 305.195944 
L 485.3664 306.29185 
L 485.8128 309.140462 
L 486.2592 316.199439 
L 486.7056 300.892232 
L 487.152 308.284991 
L 487.5984 303.01951 
L 488.0448 309.844057 
L 488.4912 313.933766 
L 488.9376 312.682702 
L 489.384 308.701527 
L 489.8304 312.706683 
L 490.2768 310.28396 
L 490.7232 309.890562 
L 491.1696 314.458097 
L 491.616 306.840004 
L 492.0624 307.300104 
L 492.5088 312.223109 
L 492.9552 308.177314 
L 493.4016 317.871165 
L 493.848 310.279854 
L 494.2944 308.965548 
L 494.7408 304.37603 
L 495.1872 307.474932 
L 495.6336 313.313939 
L 496.08 302.224335 
L 496.5264 307.02816 
L 496.9728 310.244865 
L 497.4192 311.707564 
L 497.8656 312.388128 
L 498.312 309.01442 
L 498.7584 313.138499 
L 499.2048 311.427466 
L 499.6512 316.534592 
L 500.0976 313.447337 
L 500.544 305.968707 
L 500.9904 316.608335 
L 501.4368 303.773487 
L 501.8832 303.441939 
L 502.3296 304.503139 
L 502.776 308.390941 
L 503.2224 304.966872 
L 503.6688 310.549122 
L 504.1152 312.105182 
L 504.5616 306.558672 
L 505.008 307.209151 
L 505.4544 308.937757 
L 505.9008 307.931019 
L 506.3472 309.128854 
L 506.7936 311.921468 
L 507.24 309.812041 
L 507.6864 320.071612 
L 508.1328 310.758359 
L 508.5792 312.656698 
L 509.0256 298.083955 
L 509.472 315.083856 
L 509.9184 312.96257 
L 510.3648 313.578211 
L 510.8112 311.35344 
L 511.2576 311.320824 
L 511.704 316.73377 
L 512.1504 307.880954 
L 512.5968 309.768864 
L 513.0432 314.147426 
L 513.4896 300.827263 
L 513.936 316.314828 
L 514.3824 310.735887 
L 514.8288 311.445929 
L 515.2752 303.874941 
L 515.7216 318.387204 
L 516.168 312.621853 
L 516.6144 315.655958 
L 517.0608 308.422081 
L 517.5072 308.678581 
L 517.9536 308.130743 
L 517.9536 308.130743 
" style="fill:none;stroke:#0000ff;stroke-linecap:square;"/>
   </g>
   <g id="line2d_2">
    <path clip-path="url(#pe43fb7d5a4)" d="M 72 69.427441 
L 72.4464 81.676978 
L 72.8928 145.119463 
L 73.3392 163.98123 
L 74.232 215.151319 
L 74.6784 189.976944 
L 75.1248 199.596946 
L 75.5712 199.925178 
L 76.0176 218.229979 
L 76.9104 193.349821 
L 77.3568 204.468073 
L 77.8032 183.209687 
L 78.2496 201.907042 
L 78.696 179.683655 
L 79.1424 205.065844 
L 79.5888 215.912382 
L 80.0352 213.2325 
L 80.4816 209.023137 
L 80.928 214.730446 
L 81.3744 209.210634 
L 81.8208 222.366094 
L 82.2672 209.504562 
L 82.7136 222.804712 
L 83.16 202.072522 
L 83.6064 209.065588 
L 84.0528 230.263515 
L 84.4992 205.318178 
L 84.9456 217.9411 
L 85.392 195.090557 
L 85.8384 219.823084 
L 86.2848 230.608925 
L 86.7312 222.503071 
L 87.1776 220.144961 
L 88.0704 205.189756 
L 88.5168 224.258968 
L 88.9632 208.253373 
L 89.4096 224.354127 
L 89.856 220.085991 
L 90.3024 209.700141 
L 90.7488 224.684402 
L 91.1952 219.001061 
L 91.6416 219.900445 
L 92.088 224.195106 
L 92.5344 230.5072 
L 92.9808 234.328386 
L 93.4272 211.159762 
L 93.8736 206.535274 
L 94.32 209.610479 
L 94.7664 211.288737 
L 95.2128 199.042682 
L 95.6592 218.507968 
L 96.552 210.469509 
L 96.9984 219.734886 
L 97.4448 224.890198 
L 97.8912 213.786237 
L 98.3376 206.994762 
L 98.784 228.923231 
L 99.2304 202.221879 
L 99.6768 226.263454 
L 100.1232 225.086331 
L 100.5696 226.363834 
L 101.016 231.999082 
L 101.4624 196.658508 
L 101.9088 211.550656 
L 102.3552 197.50819 
L 102.8016 222.289154 
L 103.248 198.58471 
L 103.6944 203.207563 
L 104.1408 227.770418 
L 104.5872 219.704194 
L 105.0336 223.396194 
L 105.48 223.058338 
L 105.9264 224.685114 
L 106.3728 235.187613 
L 106.8192 233.135732 
L 107.2656 206.031437 
L 107.712 201.422347 
L 108.1584 233.057171 
L 108.6048 222.025113 
L 109.0512 216.223027 
L 109.4976 215.186546 
L 109.944 207.554498 
L 110.3904 215.519273 
L 110.8368 232.697707 
L 111.2832 213.114375 
L 111.7296 218.853958 
L 112.176 217.833891 
L 112.6224 208.686836 
L 113.0688 218.781396 
L 113.5152 206.109193 
L 113.9616 239.186909 
L 114.408 205.342646 
L 114.8544 234.369993 
L 115.3008 212.470356 
L 115.7472 218.634557 
L 116.1936 221.937469 
L 116.64 203.104138 
L 117.0864 195.327835 
L 117.5328 202.191082 
L 117.9792 213.256758 
L 118.4256 210.182041 
L 119.3184 217.116123 
L 119.7648 209.085113 
L 120.2112 232.009352 
L 120.6576 179.821266 
L 121.104 227.766937 
L 121.5504 236.376272 
L 121.9968 220.658291 
L 122.4432 232.066569 
L 122.8896 221.84202 
L 123.336 215.87966 
L 123.7824 225.572581 
L 124.2288 214.804354 
L 124.6752 221.79858 
L 125.1216 206.69204 
L 125.568 220.31147 
L 126.0144 221.548408 
L 126.4608 218.26887 
L 126.9072 197.927785 
L 127.8 201.590556 
L 128.2464 212.238628 
L 128.6928 206.32017 
L 129.1392 219.952679 
L 129.5856 213.09841 
L 130.032 211.859323 
L 130.4784 214.984626 
L 130.9248 201.363284 
L 131.3712 208.243538 
L 131.8176 218.749412 
L 132.264 209.170463 
L 132.7104 211.958213 
L 133.1568 212.402909 
L 133.6032 246.044052 
L 134.0496 226.913933 
L 134.496 222.443495 
L 135.3888 207.000035 
L 135.8352 215.113799 
L 136.2816 199.629562 
L 137.1744 230.999581 
L 137.6208 232.993903 
L 138.0672 229.852872 
L 138.5136 209.084994 
L 138.96 232.142875 
L 139.8528 210.101766 
L 140.2992 210.098944 
L 140.7456 213.930756 
L 141.192 201.29705 
L 141.6384 219.190126 
L 142.0848 219.035364 
L 142.5312 222.683317 
L 142.9776 230.06315 
L 143.424 182.29841 
L 143.8704 200.416412 
L 144.3168 206.28 
L 144.7632 218.448167 
L 145.2096 220.612729 
L 145.656 219.119739 
L 146.1024 233.341436 
L 146.5488 214.511427 
L 146.9952 221.970718 
L 147.4416 219.086174 
L 147.888 225.737824 
L 148.3344 197.62008 
L 148.7808 210.951633 
L 149.2272 212.735821 
L 149.6736 222.738583 
L 150.12 212.385678 
L 150.5664 222.671479 
L 151.0128 207.714876 
L 151.4592 228.777697 
L 151.9056 211.685458 
L 152.352 231.852428 
L 152.7984 217.539158 
L 153.2448 221.890562 
L 153.6912 221.167428 
L 154.1376 200.874067 
L 154.584 233.266039 
L 155.0304 227.690077 
L 155.4768 214.922624 
L 155.9232 225.5363 
L 156.3696 213.696747 
L 156.816 194.92998 
L 157.2624 200.234426 
L 157.7088 225.399981 
L 158.1552 207.019573 
L 158.6016 209.307441 
L 159.048 222.841362 
L 159.4944 203.030626 
L 159.9408 195.799069 
L 160.3872 217.052974 
L 160.8336 199.905007 
L 161.28 224.792706 
L 161.7264 211.074029 
L 162.1728 215.330695 
L 162.6192 222.476757 
L 163.0656 224.711086 
L 163.512 220.77929 
L 163.9584 229.066932 
L 164.4048 217.457604 
L 164.8512 241.472733 
L 165.2976 226.844099 
L 165.744 219.517554 
L 166.1904 238.364622 
L 166.6368 228.299027 
L 167.0832 215.446685 
L 167.5296 240.653347 
L 167.976 195.95925 
L 168.4224 227.394659 
L 168.8688 199.094388 
L 169.3152 219.229374 
L 169.7616 215.407542 
L 170.6544 221.722576 
L 171.1008 213.267595 
L 171.5472 214.507604 
L 171.9936 214.103303 
L 172.44 208.661722 
L 172.8864 205.890873 
L 173.7792 234.840212 
L 174.2256 209.308034 
L 174.672 229.468966 
L 175.1184 217.893045 
L 175.5648 213.616419 
L 176.0112 202.63326 
L 176.4576 204.875644 
L 176.904 222.680878 
L 177.3504 223.125653 
L 177.7968 232.451477 
L 178.2432 218.582798 
L 178.6896 220.659478 
L 179.136 226.381447 
L 179.5824 216.609319 
L 180.0288 216.236303 
L 180.4752 218.039291 
L 180.9216 224.384278 
L 181.368 222.525062 
L 181.8144 231.509839 
L 182.2608 207.22351 
L 182.7072 216.1215 
L 183.1536 204.637878 
L 183.6 201.765674 
L 184.0464 210.135753 
L 184.4928 212.507521 
L 184.9392 209.073749 
L 185.3856 221.205951 
L 185.832 223.906794 
L 186.2784 219.920788 
L 186.7248 203.564681 
L 187.1712 235.004005 
L 187.6176 225.159236 
L 188.064 224.157138 
L 188.5104 229.084822 
L 188.9568 215.979223 
L 189.4032 222.138835 
L 189.8496 223.032841 
L 190.296 208.765898 
L 190.7424 210.053052 
L 191.1888 210.848418 
L 191.6352 222.464918 
L 192.0816 228.815679 
L 192.528 228.077253 
L 192.9744 216.625179 
L 193.4208 226.429805 
L 193.8672 214.074352 
L 194.76 228.744185 
L 195.2064 219.229374 
L 195.6528 223.886492 
L 196.0992 204.844583 
L 196.5456 208.133046 
L 196.992 203.547595 
L 197.4384 232.224139 
L 197.8848 231.12091 
L 198.7776 215.162604 
L 199.224 211.726222 
L 199.6704 222.107616 
L 200.1168 238.476604 
L 200.5632 203.027792 
L 201.456 232.286036 
L 201.9024 221.261388 
L 202.3488 217.397355 
L 202.7952 204.526187 
L 203.2416 219.377452 
L 203.688 212.149745 
L 204.5808 229.465433 
L 205.0272 216.653366 
L 205.4736 225.851414 
L 205.92 224.008084 
L 206.3664 226.635152 
L 206.8128 197.911081 
L 207.2592 213.387671 
L 207.7056 224.965424 
L 208.152 212.957016 
L 208.5984 219.760594 
L 209.0448 203.684665 
L 209.4912 213.851443 
L 209.9376 206.899682 
L 210.384 202.944577 
L 210.8304 228.10627 
L 211.2768 206.971255 
L 211.7232 216.697913 
L 212.1696 208.057847 
L 212.616 210.892003 
L 213.0624 210.063665 
L 213.5088 206.851917 
L 213.9552 224.82552 
L 214.4016 227.483741 
L 214.848 203.917184 
L 215.2944 222.278647 
L 215.7408 199.581047 
L 216.1872 224.810332 
L 216.6336 217.81227 
L 217.08 219.091671 
L 217.5264 224.883686 
L 217.9728 228.650423 
L 218.8656 217.015295 
L 219.312 217.895985 
L 219.7584 197.95932 
L 220.2048 216.444709 
L 220.6512 222.870564 
L 221.0976 231.836133 
L 221.544 219.772762 
L 221.9904 216.020725 
L 222.4368 224.905412 
L 222.8832 223.937631 
L 223.3296 206.670999 
L 223.776 222.220876 
L 224.2224 216.8423 
L 224.6688 214.346487 
L 225.1152 220.351746 
L 225.5616 214.340977 
L 226.008 221.527683 
L 226.4544 201.232134 
L 226.9008 236.05189 
L 227.3472 221.891722 
L 227.7936 219.085646 
L 228.24 220.054113 
L 228.6864 241.490742 
L 229.1328 198.213987 
L 229.5792 188.897959 
L 230.0256 221.577662 
L 230.472 216.263804 
L 230.9184 217.870805 
L 231.3648 215.500421 
L 231.8112 238.18286 
L 232.2576 228.390047 
L 233.1504 216.396075 
L 233.5968 225.803109 
L 234.0432 209.101025 
L 234.4896 224.082716 
L 234.936 214.073798 
L 235.3824 210.848801 
L 235.8288 215.227151 
L 236.2752 235.957113 
L 236.7216 216.559129 
L 237.168 206.791866 
L 237.6144 221.646955 
L 238.0608 227.721533 
L 238.5072 217.030298 
L 238.9536 225.134464 
L 239.4 219.887473 
L 239.8464 209.73306 
L 240.2928 217.20825 
L 240.7392 200.115694 
L 241.1856 234.74388 
L 241.632 209.668315 
L 242.0784 220.851958 
L 242.5248 204.445028 
L 243.4176 237.635147 
L 243.864 220.72409 
L 244.3104 228.852422 
L 244.7568 227.010015 
L 245.2032 209.020948 
L 245.6496 216.28524 
L 246.096 229.717121 
L 246.5424 217.653987 
L 246.9888 216.228379 
L 247.4352 228.897167 
L 247.8816 224.458383 
L 248.328 203.949813 
L 248.7744 201.549582 
L 249.2208 216.787245 
L 249.6672 226.378494 
L 250.1136 200.550634 
L 250.56 223.637335 
L 251.0064 210.079881 
L 251.4528 234.526614 
L 251.8992 218.776452 
L 252.3456 225.872086 
L 253.2384 206.550158 
L 253.6848 204.393098 
L 254.5776 227.945654 
L 255.024 221.061274 
L 255.4704 222.468662 
L 255.9168 224.996405 
L 256.8096 205.364808 
L 257.256 212.19068 
L 257.7024 209.128526 
L 258.1488 238.95849 
L 258.5952 218.348486 
L 259.0416 207.305104 
L 259.488 214.622209 
L 259.9344 195.799887 
L 260.3808 213.644883 
L 260.8272 214.452905 
L 261.2736 238.216043 
L 261.72 223.393557 
L 262.1664 204.650679 
L 262.6128 197.228039 
L 263.0592 224.795764 
L 263.5056 233.790719 
L 263.952 219.134689 
L 264.3984 242.865646 
L 264.8448 222.361005 
L 265.2912 228.509306 
L 266.184 224.318966 
L 266.6304 223.023322 
L 267.0768 210.982838 
L 267.5232 209.411855 
L 267.9696 212.467219 
L 268.416 204.623152 
L 268.8624 208.800993 
L 269.3088 214.086401 
L 269.7552 231.754553 
L 270.2016 211.095598 
L 270.648 221.990757 
L 271.0944 246.757957 
L 271.5408 216.349919 
L 271.9872 247.982238 
L 272.88 206.985625 
L 273.3264 212.050354 
L 273.7728 223.838147 
L 274.2192 213.253317 
L 274.6656 216.723568 
L 275.112 202.444378 
L 275.5584 215.608632 
L 276.0048 208.530545 
L 276.4512 217.375932 
L 276.8976 192.727925 
L 277.344 217.686023 
L 277.7904 210.962575 
L 278.2368 206.215559 
L 279.1296 235.432947 
L 279.576 214.760254 
L 280.0224 215.064809 
L 280.4688 224.218191 
L 281.3616 205.462696 
L 281.808 222.212993 
L 282.2544 217.934125 
L 282.7008 217.010575 
L 283.1472 206.176733 
L 283.5936 216.903208 
L 284.04 196.307917 
L 284.4864 230.742461 
L 284.9328 223.903828 
L 285.3792 225.493559 
L 285.8256 228.588671 
L 286.7184 221.246345 
L 287.1648 218.921326 
L 287.6112 198.005449 
L 288.0576 237.383459 
L 288.504 227.570792 
L 288.9504 191.296477 
L 289.3968 228.485483 
L 289.8432 218.477751 
L 290.736 220.230404 
L 291.1824 199.750931 
L 291.6288 206.848767 
L 292.0752 204.626448 
L 292.968 209.124083 
L 293.4144 223.292149 
L 293.8608 224.208158 
L 294.3072 219.255319 
L 294.7536 237.020106 
L 295.2 245.188938 
L 295.6464 206.84936 
L 296.0928 211.590075 
L 296.9856 204.040595 
L 297.432 204.749688 
L 297.8784 219.374473 
L 298.3248 228.054814 
L 298.7712 225.08521 
L 299.2176 227.014642 
L 299.664 219.527692 
L 300.1104 218.847485 
L 300.5568 222.503955 
L 301.0032 214.741573 
L 301.4496 234.50237 
L 301.896 203.324317 
L 302.3424 223.252334 
L 302.7888 214.435134 
L 303.2352 230.7461 
L 303.6816 232.721912 
L 304.128 207.588419 
L 304.5744 218.795449 
L 305.0208 221.757658 
L 305.4672 227.885234 
L 305.9136 227.561458 
L 306.36 222.799083 
L 306.8064 236.151875 
L 307.2528 230.006856 
L 307.6992 218.497685 
L 308.1456 201.7874 
L 308.592 216.308997 
L 309.0384 207.984718 
L 309.4848 217.529376 
L 309.9312 211.379665 
L 310.3776 221.007683 
L 310.824 224.033344 
L 311.2704 210.845663 
L 311.7168 208.097161 
L 312.1632 187.144831 
L 312.6096 219.596405 
L 313.056 219.004857 
L 313.9488 196.837963 
L 314.3952 221.133902 
L 314.8416 228.547512 
L 315.288 212.460587 
L 315.7344 221.534987 
L 316.1808 215.029305 
L 316.6272 213.641719 
L 317.0736 208.496268 
L 317.52 225.204007 
L 317.9664 216.273744 
L 318.4128 214.833252 
L 318.8592 235.067774 
L 319.752 196.683478 
L 320.1984 237.453741 
L 320.6448 216.868377 
L 321.0912 219.770033 
L 321.5376 210.633592 
L 321.984 227.804234 
L 322.4304 211.182688 
L 322.8768 205.827697 
L 323.3232 224.867812 
L 323.7696 207.049104 
L 324.216 203.188289 
L 324.6624 228.069501 
L 325.1088 232.902791 
L 325.5552 244.675213 
L 326.0016 230.958264 
L 326.448 213.725355 
L 326.8944 220.128983 
L 327.3408 220.649471 
L 327.7872 220.439681 
L 328.2336 220.532928 
L 328.68 205.406771 
L 329.1264 222.513697 
L 329.5728 213.410663 
L 330.0192 219.949739 
L 330.4656 222.136462 
L 330.912 215.90906 
L 331.3584 225.853919 
L 331.8048 217.766878 
L 332.2512 217.322947 
L 332.6976 208.559522 
L 333.144 211.508481 
L 333.5904 197.290252 
L 334.0368 202.592641 
L 334.4832 223.130281 
L 334.9296 218.206617 
L 335.376 221.667891 
L 335.8224 215.438511 
L 336.2688 203.945344 
L 336.7152 206.771405 
L 337.1616 219.145144 
L 337.608 218.757995 
L 338.0544 228.326159 
L 338.5008 209.775551 
L 338.9472 226.915462 
L 339.3936 193.034021 
L 340.2864 222.682843 
L 340.7328 215.908427 
L 341.1792 233.082562 
L 341.6256 214.414989 
L 342.072 225.358163 
L 342.5184 218.080292 
L 342.9648 202.251542 
L 343.4112 205.451886 
L 343.8576 228.696658 
L 344.304 203.557522 
L 344.7504 211.133817 
L 345.1968 207.198132 
L 345.6432 218.885533 
L 346.0896 226.848331 
L 346.9824 208.470006 
L 347.4288 215.983178 
L 347.8752 213.521511 
L 348.3216 208.123225 
L 348.768 222.858461 
L 349.2144 218.280894 
L 349.6608 227.678238 
L 350.1072 232.516551 
L 350.5536 247.169615 
L 351 207.028169 
L 351.4464 227.602301 
L 351.8928 213.831088 
L 352.3392 226.079332 
L 352.7856 223.516916 
L 353.232 224.4346 
L 353.6784 248.280583 
L 354.1248 209.091388 
L 354.5712 194.890746 
L 355.0176 210.863566 
L 355.464 197.913204 
L 356.3568 221.89333 
L 356.8032 224.939953 
L 357.2496 213.621416 
L 357.696 225.449604 
L 358.1424 200.99297 
L 358.5888 225.37923 
L 359.0352 206.171275 
L 359.4816 224.190532 
L 360.3744 216.37709 
L 360.8208 194.108761 
L 361.2672 224.550141 
L 361.7136 214.45603 
L 362.16 223.269381 
L 362.6064 212.42341 
L 363.0528 206.202494 
L 363.4992 230.407084 
L 363.9456 214.406947 
L 364.392 225.012516 
L 364.8384 211.328525 
L 365.2848 236.522281 
L 365.7312 224.007082 
L 366.1776 236.758069 
L 366.624 186.357625 
L 367.0704 213.527602 
L 367.5168 230.785585 
L 367.9632 216.457233 
L 368.4096 220.337218 
L 368.856 218.8661 
L 369.3024 222.054447 
L 369.7488 216.887084 
L 370.1952 213.94713 
L 370.6416 204.012633 
L 371.088 233.195678 
L 371.5344 201.34488 
L 371.9808 220.48345 
L 372.4272 212.128044 
L 372.8736 235.922968 
L 373.32 204.462312 
L 373.7664 203.367507 
L 374.2128 201.294954 
L 374.6592 205.949672 
L 375.1056 209.296208 
L 375.552 222.845159 
L 375.9984 210.625998 
L 376.4448 211.779866 
L 376.8912 226.419864 
L 377.3376 220.982528 
L 377.784 233.834238 
L 378.2304 204.000979 
L 378.6768 240.348647 
L 379.5696 195.62465 
L 380.016 213.170748 
L 380.4624 225.38722 
L 380.9088 209.925751 
L 381.3552 222.711517 
L 381.8016 214.913145 
L 382.248 226.339075 
L 382.6944 225.559846 
L 383.1408 228.226399 
L 383.5872 220.626044 
L 384.0336 228.787374 
L 384.48 213.209455 
L 384.9264 212.233091 
L 385.3728 243.840929 
L 385.8192 210.377566 
L 386.2656 201.605071 
L 387.1584 224.437777 
L 387.6048 221.090832 
L 388.0512 219.082047 
L 388.4976 235.110885 
L 388.944 213.667348 
L 389.3904 221.383099 
L 389.8368 219.344915 
L 390.2832 211.115373 
L 390.7296 206.945679 
L 391.176 225.066081 
L 391.6224 210.53482 
L 392.0688 224.046923 
L 392.5152 233.198525 
L 392.9616 214.676341 
L 393.408 208.992841 
L 393.8544 222.742854 
L 394.3008 207.462292 
L 394.7472 207.463491 
L 395.64 229.222591 
L 396.0864 210.671271 
L 396.5328 220.541155 
L 396.9792 199.460522 
L 397.4256 211.986875 
L 397.872 218.341103 
L 398.3184 218.226221 
L 398.7648 227.657263 
L 399.2112 219.35065 
L 399.6576 214.095867 
L 400.104 228.466037 
L 400.5504 217.62642 
L 400.9968 216.033974 
L 401.4432 208.114128 
L 401.8896 221.989333 
L 402.336 224.102505 
L 402.7824 216.357368 
L 403.2288 201.894688 
L 403.6752 203.577996 
L 404.1216 215.441002 
L 404.568 205.741767 
L 405.0144 228.774533 
L 405.4608 203.957815 
L 405.9072 228.758476 
L 406.3536 228.651398 
L 406.8 227.127955 
L 407.2464 236.186877 
L 407.6928 214.906421 
L 408.1392 231.942814 
L 408.5856 208.990679 
L 409.032 202.923338 
L 409.4784 234.116459 
L 409.9248 215.77634 
L 410.3712 210.470563 
L 410.8176 211.151021 
L 411.264 213.997228 
L 411.7104 212.708795 
L 412.1568 225.701292 
L 412.6032 205.054137 
L 413.0496 204.895841 
L 413.496 226.410161 
L 413.9424 215.280149 
L 414.8352 206.396306 
L 415.2816 227.049381 
L 415.728 231.09184 
L 416.1744 238.074187 
L 416.6208 217.452595 
L 417.0672 205.431478 
L 417.5136 225.500414 
L 417.96 213.945917 
L 418.4064 219.440272 
L 418.8528 230.03006 
L 419.2992 219.044408 
L 419.7456 224.829448 
L 420.192 225.437515 
L 420.6384 231.106118 
L 421.0848 219.901434 
L 421.5312 222.869417 
L 421.9776 220.134797 
L 422.424 224.492212 
L 422.8704 209.833427 
L 423.3168 221.512575 
L 423.7632 204.201883 
L 424.2096 217.25049 
L 424.656 218.093041 
L 425.1024 220.254965 
L 425.5488 226.426456 
L 425.9952 237.738639 
L 426.4416 229.756935 
L 426.888 202.279663 
L 427.3344 217.684323 
L 427.7808 203.143069 
L 428.2272 225.972624 
L 428.6736 206.63158 
L 429.12 212.103681 
L 429.5664 202.528991 
L 430.0128 225.544276 
L 430.4592 215.824197 
L 430.9056 202.428703 
L 431.352 208.830604 
L 431.7984 222.664069 
L 432.6912 209.808668 
L 433.1376 227.710063 
L 433.584 220.66719 
L 434.0304 206.662878 
L 434.4768 201.802377 
L 434.9232 230.728896 
L 435.3696 209.992803 
L 435.816 223.575056 
L 436.2624 219.487377 
L 436.7088 217.195277 
L 437.1552 222.51027 
L 437.6016 231.346573 
L 438.048 219.773896 
L 438.4944 212.502722 
L 438.9408 218.977831 
L 439.3872 236.505867 
L 439.8336 208.258884 
L 440.28 215.269286 
L 440.7264 224.846837 
L 441.1728 220.676511 
L 441.6192 234.45566 
L 442.0656 207.217288 
L 442.512 226.359286 
L 442.9584 225.567888 
L 443.4048 221.424653 
L 443.8512 219.22737 
L 444.2976 226.851205 
L 444.744 203.239204 
L 445.1904 226.16666 
L 445.6368 224.033845 
L 446.0832 231.363264 
L 446.5296 229.22238 
L 446.976 220.095391 
L 447.4224 218.049231 
L 447.8688 214.691014 
L 448.3152 224.037681 
L 448.7616 215.575937 
L 449.208 226.996053 
L 449.6544 219.047585 
L 450.1008 215.760744 
L 450.5472 214.607997 
L 450.9936 204.490274 
L 451.44 209.407821 
L 451.8864 192.724748 
L 452.3328 224.493794 
L 452.7792 209.775234 
L 453.2256 228.648353 
L 453.672 232.635889 
L 454.1184 233.054336 
L 454.5648 224.73011 
L 455.0112 207.81428 
L 455.4576 222.213375 
L 455.904 223.687828 
L 456.3504 222.782432 
L 456.7968 232.973323 
L 457.2432 217.300772 
L 457.6896 212.371269 
L 458.136 205.498279 
L 458.5824 206.662509 
L 459.0288 233.797311 
L 459.4752 232.108453 
L 459.9216 214.518335 
L 460.368 223.917539 
L 460.8144 214.272659 
L 461.2608 235.636277 
L 461.7072 218.157904 
L 462.1536 216.644229 
L 462.6 210.280838 
L 463.0464 209.755973 
L 463.4928 210.560555 
L 463.9392 207.505837 
L 464.3856 222.281481 
L 464.832 216.874481 
L 465.2784 213.507141 
L 466.1712 218.519042 
L 466.6176 202.237277 
L 467.5104 220.200952 
L 467.9568 222.150067 
L 468.4032 229.357775 
L 468.8496 226.437029 
L 469.296 217.717466 
L 469.7424 223.983589 
L 470.1888 219.946944 
L 471.0816 228.216604 
L 471.528 228.095473 
L 471.9744 204.131153 
L 472.4208 213.666346 
L 472.8672 189.578562 
L 473.3136 214.498969 
L 473.76 214.656223 
L 474.2064 227.466958 
L 474.6528 213.191552 
L 475.0992 215.944866 
L 475.5456 219.582971 
L 475.992 212.226869 
L 476.4384 224.453531 
L 476.8848 219.097512 
L 477.3312 198.559266 
L 477.7776 219.913154 
L 478.224 227.314582 
L 478.6704 224.088464 
L 479.1168 236.099443 
L 479.5632 226.207582 
L 480.0096 219.181017 
L 480.456 218.345704 
L 480.9024 219.372627 
L 481.3488 188.449163 
L 481.7952 202.998182 
L 482.2416 210.503021 
L 482.688 215.970917 
L 483.1344 201.163025 
L 483.5808 214.437494 
L 484.0272 211.268672 
L 484.4736 200.568485 
L 484.92 205.70393 
L 485.3664 208.083687 
L 485.8128 214.327503 
L 486.2592 229.805938 
L 486.7056 196.284661 
L 487.152 212.431214 
L 487.5984 200.923084 
L 488.0448 215.900042 
L 488.4912 224.843739 
L 488.9376 222.067037 
L 489.384 213.348674 
L 489.8304 222.155578 
L 490.2768 216.853506 
L 490.7232 215.955281 
L 491.1696 225.957792 
L 491.616 209.303433 
L 492.0624 210.30942 
L 492.5088 221.076119 
L 492.9552 212.212143 
L 493.4016 233.45231 
L 493.848 216.832913 
L 494.2944 213.934289 
L 494.7408 203.882036 
L 495.1872 210.691573 
L 495.6336 223.4896 
L 496.08 199.062984 
L 496.5264 209.645798 
L 496.9728 216.717504 
L 497.4192 219.915804 
L 497.8656 221.372657 
L 498.312 213.95707 
L 498.7584 222.99772 
L 499.2048 219.270322 
L 499.6512 230.455336 
L 500.0976 223.67061 
L 500.544 207.269969 
L 500.9904 230.59089 
L 501.4368 202.490864 
L 501.8832 201.749616 
L 502.3296 204.063535 
L 502.776 212.592015 
L 503.2224 205.096298 
L 503.6688 217.318992 
L 504.1152 220.728401 
L 504.5616 208.577584 
L 505.008 209.997457 
L 505.4544 213.786026 
L 505.9008 211.586581 
L 506.3472 214.21448 
L 506.7936 220.331035 
L 507.24 215.701062 
L 507.6864 238.182056 
L 508.1328 217.787577 
L 508.5792 221.939104 
L 509.0256 189.992013 
L 509.472 227.25196 
L 509.9184 222.63583 
L 510.3648 223.974387 
L 510.8112 219.068284 
L 511.2576 218.99725 
L 511.704 230.88901 
L 512.1504 211.502549 
L 512.5968 215.606602 
L 513.0432 225.195965 
L 513.4896 196.033355 
L 513.936 229.976574 
L 514.3824 217.756081 
L 514.8288 219.261226 
L 515.2752 202.691426 
L 515.7216 234.529066 
L 516.168 221.881399 
L 516.6144 228.486393 
L 517.0608 212.653556 
L 517.5072 213.254227 
L 517.9536 212.039991 
L 517.9536 212.039991 
" style="fill:none;stroke:#008000;stroke-linecap:square;"/>
   </g>
   <g id="patch_3">
    <path d="M 72 43.2 
L 518.4 43.2 
" style="fill:none;stroke:#000000;stroke-linecap:square;stroke-linejoin:miter;"/>
   </g>
   <g id="patch_4">
    <path d="M 518.4 388.8 
L 518.4 43.2 
" style="fill:none;stroke:#000000;stroke-linecap:square;stroke-linejoin:miter;"/>
   </g>
   <g id="patch_5">
    <path d="M 72 388.8 
L 518.4 388.8 
" style="fill:none;stroke:#000000;stroke-linecap:square;stroke-linejoin:miter;"/>
   </g>
   <g id="patch_6">
    <path d="M 72 388.8 
L 72 43.2 
" style="fill:none;stroke:#000000;stroke-linecap:square;stroke-linejoin:miter;"/>
   </g>
   <g id="matplotlib.axis_1">
    <g id="xtick_1">
     <g id="line2d_3">
      <defs>
       <path d="M 0 0 
L 0 -4 
" id="m4f53fca816" style="stroke:#000000;stroke-width:0.5;"/>
      </defs>
      <g>
       <use style="stroke:#000000;stroke-width:0.5;" x="72.0" xlink:href="#m4f53fca816" y="388.8"/>
      </g>
     </g>
     <g id="line2d_4">
      <defs>
       <path d="M 0 0 
L 0 4 
" id="m8f00361166" style="stroke:#000000;stroke-width:0.5;"/>
      </defs>
      <g>
       <use style="stroke:#000000;stroke-width:0.5;" x="72.0" xlink:href="#m8f00361166" y="43.2"/>
      </g>
     </g>
     <g id="text_1">
      <!-- 0 -->
      <defs>
       <path d="M 31.78125 66.40625 
Q 24.171875 66.40625 20.328125 58.90625 
Q 16.5 51.421875 16.5 36.375 
Q 16.5 21.390625 20.328125 13.890625 
Q 24.171875 6.390625 31.78125 6.390625 
Q 39.453125 6.390625 43.28125 13.890625 
Q 47.125 21.390625 47.125 36.375 
Q 47.125 51.421875 43.28125 58.90625 
Q 39.453125 66.40625 31.78125 66.40625 
M 31.78125 74.21875 
Q 44.046875 74.21875 50.515625 64.515625 
Q 56.984375 54.828125 56.984375 36.375 
Q 56.984375 17.96875 50.515625 8.265625 
Q 44.046875 -1.421875 31.78125 -1.421875 
Q 19.53125 -1.421875 13.0625 8.265625 
Q 6.59375 17.96875 6.59375 36.375 
Q 6.59375 54.828125 13.0625 64.515625 
Q 19.53125 74.21875 31.78125 74.21875 
" id="BitstreamVeraSans-Roman-30"/>
      </defs>
      <g transform="translate(68.1825 401.918125)scale(0.12 -0.12)">
       <use xlink:href="#BitstreamVeraSans-Roman-30"/>
      </g>
     </g>
    </g>
    <g id="xtick_2">
     <g id="line2d_5">
      <g>
       <use style="stroke:#000000;stroke-width:0.5;" x="161.28" xlink:href="#m4f53fca816" y="388.8"/>
      </g>
     </g>
     <g id="line2d_6">
      <g>
       <use style="stroke:#000000;stroke-width:0.5;" x="161.28" xlink:href="#m8f00361166" y="43.2"/>
      </g>
     </g>
     <g id="text_2">
      <!-- 200 -->
      <defs>
       <path d="M 19.1875 8.296875 
L 53.609375 8.296875 
L 53.609375 0 
L 7.328125 0 
L 7.328125 8.296875 
Q 12.9375 14.109375 22.625 23.890625 
Q 32.328125 33.6875 34.8125 36.53125 
Q 39.546875 41.84375 41.421875 45.53125 
Q 43.3125 49.21875 43.3125 52.78125 
Q 43.3125 58.59375 39.234375 62.25 
Q 35.15625 65.921875 28.609375 65.921875 
Q 23.96875 65.921875 18.8125 64.3125 
Q 13.671875 62.703125 7.8125 59.421875 
L 7.8125 69.390625 
Q 13.765625 71.78125 18.9375 73 
Q 24.125 74.21875 28.421875 74.21875 
Q 39.75 74.21875 46.484375 68.546875 
Q 53.21875 62.890625 53.21875 53.421875 
Q 53.21875 48.921875 51.53125 44.890625 
Q 49.859375 40.875 45.40625 35.40625 
Q 44.1875 33.984375 37.640625 27.21875 
Q 31.109375 20.453125 19.1875 8.296875 
" id="BitstreamVeraSans-Roman-32"/>
      </defs>
      <g transform="translate(149.8275 401.918125)scale(0.12 -0.12)">
       <use xlink:href="#BitstreamVeraSans-Roman-32"/>
       <use x="63.623046875" xlink:href="#BitstreamVeraSans-Roman-30"/>
       <use x="127.24609375" xlink:href="#BitstreamVeraSans-Roman-30"/>
      </g>
     </g>
    </g>
    <g id="xtick_3">
     <g id="line2d_7">
      <g>
       <use style="stroke:#000000;stroke-width:0.5;" x="250.56" xlink:href="#m4f53fca816" y="388.8"/>
      </g>
     </g>
     <g id="line2d_8">
      <g>
       <use style="stroke:#000000;stroke-width:0.5;" x="250.56" xlink:href="#m8f00361166" y="43.2"/>
      </g>
     </g>
     <g id="text_3">
      <!-- 400 -->
      <defs>
       <path d="M 37.796875 64.3125 
L 12.890625 25.390625 
L 37.796875 25.390625 
z
M 35.203125 72.90625 
L 47.609375 72.90625 
L 47.609375 25.390625 
L 58.015625 25.390625 
L 58.015625 17.1875 
L 47.609375 17.1875 
L 47.609375 0 
L 37.796875 0 
L 37.796875 17.1875 
L 4.890625 17.1875 
L 4.890625 26.703125 
z
" id="BitstreamVeraSans-Roman-34"/>
      </defs>
      <g transform="translate(239.1075 401.918125)scale(0.12 -0.12)">
       <use xlink:href="#BitstreamVeraSans-Roman-34"/>
       <use x="63.623046875" xlink:href="#BitstreamVeraSans-Roman-30"/>
       <use x="127.24609375" xlink:href="#BitstreamVeraSans-Roman-30"/>
      </g>
     </g>
    </g>
    <g id="xtick_4">
     <g id="line2d_9">
      <g>
       <use style="stroke:#000000;stroke-width:0.5;" x="339.84" xlink:href="#m4f53fca816" y="388.8"/>
      </g>
     </g>
     <g id="line2d_10">
      <g>
       <use style="stroke:#000000;stroke-width:0.5;" x="339.84" xlink:href="#m8f00361166" y="43.2"/>
      </g>
     </g>
     <g id="text_4">
      <!-- 600 -->
      <defs>
       <path d="M 33.015625 40.375 
Q 26.375 40.375 22.484375 35.828125 
Q 18.609375 31.296875 18.609375 23.390625 
Q 18.609375 15.53125 22.484375 10.953125 
Q 26.375 6.390625 33.015625 6.390625 
Q 39.65625 6.390625 43.53125 10.953125 
Q 47.40625 15.53125 47.40625 23.390625 
Q 47.40625 31.296875 43.53125 35.828125 
Q 39.65625 40.375 33.015625 40.375 
M 52.59375 71.296875 
L 52.59375 62.3125 
Q 48.875 64.0625 45.09375 64.984375 
Q 41.3125 65.921875 37.59375 65.921875 
Q 27.828125 65.921875 22.671875 59.328125 
Q 17.53125 52.734375 16.796875 39.40625 
Q 19.671875 43.65625 24.015625 45.921875 
Q 28.375 48.1875 33.59375 48.1875 
Q 44.578125 48.1875 50.953125 41.515625 
Q 57.328125 34.859375 57.328125 23.390625 
Q 57.328125 12.15625 50.6875 5.359375 
Q 44.046875 -1.421875 33.015625 -1.421875 
Q 20.359375 -1.421875 13.671875 8.265625 
Q 6.984375 17.96875 6.984375 36.375 
Q 6.984375 53.65625 15.1875 63.9375 
Q 23.390625 74.21875 37.203125 74.21875 
Q 40.921875 74.21875 44.703125 73.484375 
Q 48.484375 72.75 52.59375 71.296875 
" id="BitstreamVeraSans-Roman-36"/>
      </defs>
      <g transform="translate(328.3875 401.918125)scale(0.12 -0.12)">
       <use xlink:href="#BitstreamVeraSans-Roman-36"/>
       <use x="63.623046875" xlink:href="#BitstreamVeraSans-Roman-30"/>
       <use x="127.24609375" xlink:href="#BitstreamVeraSans-Roman-30"/>
      </g>
     </g>
    </g>
    <g id="xtick_5">
     <g id="line2d_11">
      <g>
       <use style="stroke:#000000;stroke-width:0.5;" x="429.12" xlink:href="#m4f53fca816" y="388.8"/>
      </g>
     </g>
     <g id="line2d_12">
      <g>
       <use style="stroke:#000000;stroke-width:0.5;" x="429.12" xlink:href="#m8f00361166" y="43.2"/>
      </g>
     </g>
     <g id="text_5">
      <!-- 800 -->
      <defs>
       <path d="M 31.78125 34.625 
Q 24.75 34.625 20.71875 30.859375 
Q 16.703125 27.09375 16.703125 20.515625 
Q 16.703125 13.921875 20.71875 10.15625 
Q 24.75 6.390625 31.78125 6.390625 
Q 38.8125 6.390625 42.859375 10.171875 
Q 46.921875 13.96875 46.921875 20.515625 
Q 46.921875 27.09375 42.890625 30.859375 
Q 38.875 34.625 31.78125 34.625 
M 21.921875 38.8125 
Q 15.578125 40.375 12.03125 44.71875 
Q 8.5 49.078125 8.5 55.328125 
Q 8.5 64.0625 14.71875 69.140625 
Q 20.953125 74.21875 31.78125 74.21875 
Q 42.671875 74.21875 48.875 69.140625 
Q 55.078125 64.0625 55.078125 55.328125 
Q 55.078125 49.078125 51.53125 44.71875 
Q 48 40.375 41.703125 38.8125 
Q 48.828125 37.15625 52.796875 32.3125 
Q 56.78125 27.484375 56.78125 20.515625 
Q 56.78125 9.90625 50.3125 4.234375 
Q 43.84375 -1.421875 31.78125 -1.421875 
Q 19.734375 -1.421875 13.25 4.234375 
Q 6.78125 9.90625 6.78125 20.515625 
Q 6.78125 27.484375 10.78125 32.3125 
Q 14.796875 37.15625 21.921875 38.8125 
M 18.3125 54.390625 
Q 18.3125 48.734375 21.84375 45.5625 
Q 25.390625 42.390625 31.78125 42.390625 
Q 38.140625 42.390625 41.71875 45.5625 
Q 45.3125 48.734375 45.3125 54.390625 
Q 45.3125 60.0625 41.71875 63.234375 
Q 38.140625 66.40625 31.78125 66.40625 
Q 25.390625 66.40625 21.84375 63.234375 
Q 18.3125 60.0625 18.3125 54.390625 
" id="BitstreamVeraSans-Roman-38"/>
      </defs>
      <g transform="translate(417.6675 401.918125)scale(0.12 -0.12)">
       <use xlink:href="#BitstreamVeraSans-Roman-38"/>
       <use x="63.623046875" xlink:href="#BitstreamVeraSans-Roman-30"/>
       <use x="127.24609375" xlink:href="#BitstreamVeraSans-Roman-30"/>
      </g>
     </g>
    </g>
    <g id="xtick_6">
     <g id="line2d_13">
      <g>
       <use style="stroke:#000000;stroke-width:0.5;" x="518.4" xlink:href="#m4f53fca816" y="388.8"/>
      </g>
     </g>
     <g id="line2d_14">
      <g>
       <use style="stroke:#000000;stroke-width:0.5;" x="518.4" xlink:href="#m8f00361166" y="43.2"/>
      </g>
     </g>
     <g id="text_6">
      <!-- 1000 -->
      <defs>
       <path d="M 12.40625 8.296875 
L 28.515625 8.296875 
L 28.515625 63.921875 
L 10.984375 60.40625 
L 10.984375 69.390625 
L 28.421875 72.90625 
L 38.28125 72.90625 
L 38.28125 8.296875 
L 54.390625 8.296875 
L 54.390625 0 
L 12.40625 0 
z
" id="BitstreamVeraSans-Roman-31"/>
      </defs>
      <g transform="translate(503.13 401.918125)scale(0.12 -0.12)">
       <use xlink:href="#BitstreamVeraSans-Roman-31"/>
       <use x="63.623046875" xlink:href="#BitstreamVeraSans-Roman-30"/>
       <use x="127.24609375" xlink:href="#BitstreamVeraSans-Roman-30"/>
       <use x="190.869140625" xlink:href="#BitstreamVeraSans-Roman-30"/>
      </g>
     </g>
    </g>
   </g>
   <g id="matplotlib.axis_2">
    <g id="ytick_1">
     <g id="line2d_15">
      <defs>
       <path d="M 0 0 
L 4 0 
" id="m54419ab7fa" style="stroke:#000000;stroke-width:0.5;"/>
      </defs>
      <g>
       <use style="stroke:#000000;stroke-width:0.5;" x="72.0" xlink:href="#m54419ab7fa" y="388.8"/>
      </g>
     </g>
     <g id="line2d_16">
      <defs>
       <path d="M 0 0 
L -4 0 
" id="m1019a82e3b" style="stroke:#000000;stroke-width:0.5;"/>
      </defs>
      <g>
       <use style="stroke:#000000;stroke-width:0.5;" x="518.4" xlink:href="#m1019a82e3b" y="388.8"/>
      </g>
     </g>
     <g id="text_7">
      <!-- 0 -->
      <g transform="translate(60.365 392.11125)scale(0.12 -0.12)">
       <use xlink:href="#BitstreamVeraSans-Roman-30"/>
      </g>
     </g>
    </g>
    <g id="ytick_2">
     <g id="line2d_17">
      <g>
       <use style="stroke:#000000;stroke-width:0.5;" x="72.0" xlink:href="#m54419ab7fa" y="319.68"/>
      </g>
     </g>
     <g id="line2d_18">
      <g>
       <use style="stroke:#000000;stroke-width:0.5;" x="518.4" xlink:href="#m1019a82e3b" y="319.68"/>
      </g>
     </g>
     <g id="text_8">
      <!-- 5 -->
      <defs>
       <path d="M 10.796875 72.90625 
L 49.515625 72.90625 
L 49.515625 64.59375 
L 19.828125 64.59375 
L 19.828125 46.734375 
Q 21.96875 47.46875 24.109375 47.828125 
Q 26.265625 48.1875 28.421875 48.1875 
Q 40.625 48.1875 47.75 41.5 
Q 54.890625 34.8125 54.890625 23.390625 
Q 54.890625 11.625 47.5625 5.09375 
Q 40.234375 -1.421875 26.90625 -1.421875 
Q 22.3125 -1.421875 17.546875 -0.640625 
Q 12.796875 0.140625 7.71875 1.703125 
L 7.71875 11.625 
Q 12.109375 9.234375 16.796875 8.0625 
Q 21.484375 6.890625 26.703125 6.890625 
Q 35.15625 6.890625 40.078125 11.328125 
Q 45.015625 15.765625 45.015625 23.390625 
Q 45.015625 31 40.078125 35.4375 
Q 35.15625 39.890625 26.703125 39.890625 
Q 22.75 39.890625 18.8125 39.015625 
Q 14.890625 38.140625 10.796875 36.28125 
z
" id="BitstreamVeraSans-Roman-35"/>
      </defs>
      <g transform="translate(60.365 322.99125)scale(0.12 -0.12)">
       <use xlink:href="#BitstreamVeraSans-Roman-35"/>
      </g>
     </g>
    </g>
    <g id="ytick_3">
     <g id="line2d_19">
      <g>
       <use style="stroke:#000000;stroke-width:0.5;" x="72.0" xlink:href="#m54419ab7fa" y="250.56"/>
      </g>
     </g>
     <g id="line2d_20">
      <g>
       <use style="stroke:#000000;stroke-width:0.5;" x="518.4" xlink:href="#m1019a82e3b" y="250.56"/>
      </g>
     </g>
     <g id="text_9">
      <!-- 10 -->
      <g transform="translate(52.73 253.87125)scale(0.12 -0.12)">
       <use xlink:href="#BitstreamVeraSans-Roman-31"/>
       <use x="63.623046875" xlink:href="#BitstreamVeraSans-Roman-30"/>
      </g>
     </g>
    </g>
    <g id="ytick_4">
     <g id="line2d_21">
      <g>
       <use style="stroke:#000000;stroke-width:0.5;" x="72.0" xlink:href="#m54419ab7fa" y="181.44"/>
      </g>
     </g>
     <g id="line2d_22">
      <g>
       <use style="stroke:#000000;stroke-width:0.5;" x="518.4" xlink:href="#m1019a82e3b" y="181.44"/>
      </g>
     </g>
     <g id="text_10">
      <!-- 15 -->
      <g transform="translate(52.73 184.75125)scale(0.12 -0.12)">
       <use xlink:href="#BitstreamVeraSans-Roman-31"/>
       <use x="63.623046875" xlink:href="#BitstreamVeraSans-Roman-35"/>
      </g>
     </g>
    </g>
    <g id="ytick_5">
     <g id="line2d_23">
      <g>
       <use style="stroke:#000000;stroke-width:0.5;" x="72.0" xlink:href="#m54419ab7fa" y="112.32"/>
      </g>
     </g>
     <g id="line2d_24">
      <g>
       <use style="stroke:#000000;stroke-width:0.5;" x="518.4" xlink:href="#m1019a82e3b" y="112.32"/>
      </g>
     </g>
     <g id="text_11">
      <!-- 20 -->
      <g transform="translate(52.73 115.63125)scale(0.12 -0.12)">
       <use xlink:href="#BitstreamVeraSans-Roman-32"/>
       <use x="63.623046875" xlink:href="#BitstreamVeraSans-Roman-30"/>
      </g>
     </g>
    </g>
    <g id="ytick_6">
     <g id="line2d_25">
      <g>
       <use style="stroke:#000000;stroke-width:0.5;" x="72.0" xlink:href="#m54419ab7fa" y="43.2"/>
      </g>
     </g>
     <g id="line2d_26">
      <g>
       <use style="stroke:#000000;stroke-width:0.5;" x="518.4" xlink:href="#m1019a82e3b" y="43.2"/>
      </g>
     </g>
     <g id="text_12">
      <!-- 25 -->
      <g transform="translate(52.73 46.51125)scale(0.12 -0.12)">
       <use xlink:href="#BitstreamVeraSans-Roman-32"/>
       <use x="63.623046875" xlink:href="#BitstreamVeraSans-Roman-35"/>
      </g>
     </g>
    </g>
   </g>
   <g id="legend_1">
    <g id="patch_7">
     <path d="M 437.4225 96.993 
L 511.2 96.993 
L 511.2 50.4 
L 437.4225 50.4 
z
" style="fill:#ffffff;stroke:#000000;stroke-linejoin:miter;"/>
    </g>
    <g id="line2d_27">
     <path d="M 447.5025 62.06175 
L 467.6625 62.06175 
" style="fill:none;stroke:#0000ff;stroke-linecap:square;"/>
    </g>
    <g id="line2d_28"/>
    <g id="text_13">
     <!-- sig -->
     <defs>
      <path d="M 45.40625 27.984375 
Q 45.40625 37.75 41.375 43.109375 
Q 37.359375 48.484375 30.078125 48.484375 
Q 22.859375 48.484375 18.828125 43.109375 
Q 14.796875 37.75 14.796875 27.984375 
Q 14.796875 18.265625 18.828125 12.890625 
Q 22.859375 7.515625 30.078125 7.515625 
Q 37.359375 7.515625 41.375 12.890625 
Q 45.40625 18.265625 45.40625 27.984375 
M 54.390625 6.78125 
Q 54.390625 -7.171875 48.1875 -13.984375 
Q 42 -20.796875 29.203125 -20.796875 
Q 24.46875 -20.796875 20.265625 -20.09375 
Q 16.0625 -19.390625 12.109375 -17.921875 
L 12.109375 -9.1875 
Q 16.0625 -11.328125 19.921875 -12.34375 
Q 23.78125 -13.375 27.78125 -13.375 
Q 36.625 -13.375 41.015625 -8.765625 
Q 45.40625 -4.15625 45.40625 5.171875 
L 45.40625 9.625 
Q 42.625 4.78125 38.28125 2.390625 
Q 33.9375 0 27.875 0 
Q 17.828125 0 11.671875 7.65625 
Q 5.515625 15.328125 5.515625 27.984375 
Q 5.515625 40.671875 11.671875 48.328125 
Q 17.828125 56 27.875 56 
Q 33.9375 56 38.28125 53.609375 
Q 42.625 51.21875 45.40625 46.390625 
L 45.40625 54.6875 
L 54.390625 54.6875 
z
" id="BitstreamVeraSans-Roman-67"/>
      <path d="M 9.421875 54.6875 
L 18.40625 54.6875 
L 18.40625 0 
L 9.421875 0 
z
M 9.421875 75.984375 
L 18.40625 75.984375 
L 18.40625 64.59375 
L 9.421875 64.59375 
z
" id="BitstreamVeraSans-Roman-69"/>
      <path d="M 44.28125 53.078125 
L 44.28125 44.578125 
Q 40.484375 46.53125 36.375 47.5 
Q 32.28125 48.484375 27.875 48.484375 
Q 21.1875 48.484375 17.84375 46.4375 
Q 14.5 44.390625 14.5 40.28125 
Q 14.5 37.15625 16.890625 35.375 
Q 19.28125 33.59375 26.515625 31.984375 
L 29.59375 31.296875 
Q 39.15625 29.25 43.1875 25.515625 
Q 47.21875 21.78125 47.21875 15.09375 
Q 47.21875 7.46875 41.1875 3.015625 
Q 35.15625 -1.421875 24.609375 -1.421875 
Q 20.21875 -1.421875 15.453125 -0.5625 
Q 10.6875 0.296875 5.421875 2 
L 5.421875 11.28125 
Q 10.40625 8.6875 15.234375 7.390625 
Q 20.0625 6.109375 24.8125 6.109375 
Q 31.15625 6.109375 34.5625 8.28125 
Q 37.984375 10.453125 37.984375 14.40625 
Q 37.984375 18.0625 35.515625 20.015625 
Q 33.0625 21.96875 24.703125 23.78125 
L 21.578125 24.515625 
Q 13.234375 26.265625 9.515625 29.90625 
Q 5.8125 33.546875 5.8125 39.890625 
Q 5.8125 47.609375 11.28125 51.796875 
Q 16.75 56 26.8125 56 
Q 31.78125 56 36.171875 55.265625 
Q 40.578125 54.546875 44.28125 53.078125 
" id="BitstreamVeraSans-Roman-73"/>
     </defs>
     <g transform="translate(483.5025 67.10175)scale(0.144 -0.144)">
      <use xlink:href="#BitstreamVeraSans-Roman-73"/>
      <use x="52.099609375" xlink:href="#BitstreamVeraSans-Roman-69"/>
      <use x="79.8828125" xlink:href="#BitstreamVeraSans-Roman-67"/>
     </g>
    </g>
    <g id="line2d_29">
     <path d="M 447.5025 83.19825 
L 467.6625 83.19825 
" style="fill:none;stroke:#008000;stroke-linecap:square;"/>
    </g>
    <g id="line2d_30"/>
    <g id="text_14">
     <!-- noi -->
     <defs>
      <path d="M 54.890625 33.015625 
L 54.890625 0 
L 45.90625 0 
L 45.90625 32.71875 
Q 45.90625 40.484375 42.875 44.328125 
Q 39.84375 48.1875 33.796875 48.1875 
Q 26.515625 48.1875 22.3125 43.546875 
Q 18.109375 38.921875 18.109375 30.90625 
L 18.109375 0 
L 9.078125 0 
L 9.078125 54.6875 
L 18.109375 54.6875 
L 18.109375 46.1875 
Q 21.34375 51.125 25.703125 53.5625 
Q 30.078125 56 35.796875 56 
Q 45.21875 56 50.046875 50.171875 
Q 54.890625 44.34375 54.890625 33.015625 
" id="BitstreamVeraSans-Roman-6e"/>
      <path d="M 30.609375 48.390625 
Q 23.390625 48.390625 19.1875 42.75 
Q 14.984375 37.109375 14.984375 27.296875 
Q 14.984375 17.484375 19.15625 11.84375 
Q 23.34375 6.203125 30.609375 6.203125 
Q 37.796875 6.203125 41.984375 11.859375 
Q 46.1875 17.53125 46.1875 27.296875 
Q 46.1875 37.015625 41.984375 42.703125 
Q 37.796875 48.390625 30.609375 48.390625 
M 30.609375 56 
Q 42.328125 56 49.015625 48.375 
Q 55.71875 40.765625 55.71875 27.296875 
Q 55.71875 13.875 49.015625 6.21875 
Q 42.328125 -1.421875 30.609375 -1.421875 
Q 18.84375 -1.421875 12.171875 6.21875 
Q 5.515625 13.875 5.515625 27.296875 
Q 5.515625 40.765625 12.171875 48.375 
Q 18.84375 56 30.609375 56 
" id="BitstreamVeraSans-Roman-6f"/>
     </defs>
     <g transform="translate(483.5025 88.23825)scale(0.144 -0.144)">
      <use xlink:href="#BitstreamVeraSans-Roman-6e"/>
      <use x="63.37890625" xlink:href="#BitstreamVeraSans-Roman-6f"/>
      <use x="124.560546875" xlink:href="#BitstreamVeraSans-Roman-69"/>
     </g>
    </g>
   </g>
  </g>
 </g>
 <defs>
  <clipPath id="pe43fb7d5a4">
   <rect height="345.6" width="446.4" x="72.0" y="43.2"/>
  </clipPath>
 </defs>
</svg>
