<?xml version="1.0" encoding="utf-8" standalone="no"?>
<!DOCTYPE svg PUBLIC "-//W3C//DTD SVG 1.1//EN"
  "http://www.w3.org/Graphics/SVG/1.1/DTD/svg11.dtd">
<!-- Created with matplotlib (http://matplotlib.org/) -->
<svg height="432pt" version="1.1" viewBox="0 0 576 432" width="576pt" xmlns="http://www.w3.org/2000/svg" xmlns:xlink="http://www.w3.org/1999/xlink">
 <defs>
  <style type="text/css">
*{stroke-linecap:butt;stroke-linejoin:round;stroke-miterlimit:100000;}
  </style>
 </defs>
 <g id="figure_1">
  <g id="patch_1">
   <path d="M 0 432 
L 576 432 
L 576 0 
L 0 0 
z
" style="fill:#ffffff;"/>
  </g>
  <g id="axes_1">
   <g id="patch_2">
    <path d="M 72 388.8 
L 518.4 388.8 
L 518.4 43.2 
L 72 43.2 
z
" style="fill:#ffffff;"/>
   </g>
   <g id="line2d_1">
    <path clip-path="url(#p5da6cc8cf4)" d="M 72 115.072515 
L 72.4464 300.300732 
L 72.8928 289.714406 
L 73.3392 286.69422 
L 74.6784 306.802293 
L 75.1248 316.06959 
L 75.5712 320.606746 
L 76.0176 323.897717 
L 76.464 328.098505 
L 77.8032 352.17053 
L 78.2496 352.062447 
L 78.696 351.218213 
L 79.1424 349.238578 
L 79.5888 345.592156 
L 80.0352 343.331068 
L 80.4816 345.778212 
L 80.928 350.817822 
L 81.3744 351.91999 
L 81.8208 352.138607 
L 82.2672 351.243677 
L 83.16 351.141031 
L 83.6064 350.758592 
L 84.0528 350.85926 
L 84.4992 351.82181 
L 84.9456 352.423691 
L 85.392 354.042092 
L 85.8384 352.274991 
L 86.2848 353.23914 
L 86.7312 352.015159 
L 87.1776 350.224236 
L 87.624 354.184516 
L 88.0704 352.703177 
L 88.5168 353.182527 
L 88.9632 354.488736 
L 89.4096 353.978476 
L 90.3024 353.298219 
L 91.1952 353.960645 
L 91.6416 353.770675 
L 92.088 354.395786 
L 92.5344 354.392477 
L 92.9808 353.212394 
L 93.4272 353.968654 
L 93.8736 354.127687 
L 94.32 352.563563 
L 94.7664 354.448098 
L 95.2128 355.505699 
L 95.6592 353.744462 
L 96.1056 355.118535 
L 96.552 352.232095 
L 96.9984 354.084554 
L 97.4448 354.253563 
L 97.8912 353.716996 
L 98.3376 355.253104 
L 98.784 353.517468 
L 99.2304 353.649784 
L 99.6768 356.024265 
L 100.1232 353.762996 
L 100.5696 354.512266 
L 101.016 354.887084 
L 101.4624 352.380605 
L 101.9088 353.883252 
L 102.3552 352.79577 
L 102.8016 353.276252 
L 103.248 352.510645 
L 103.6944 355.427029 
L 104.1408 355.097395 
L 104.5872 353.44387 
L 105.0336 353.174788 
L 105.48 354.564668 
L 105.9264 353.540624 
L 106.3728 354.594699 
L 106.8192 352.856039 
L 107.712 354.338649 
L 108.1584 354.274772 
L 108.6048 352.926134 
L 109.0512 352.631376 
L 109.944 353.642338 
L 110.3904 355.13549 
L 110.8368 355.071665 
L 111.2832 352.953693 
L 111.7296 353.431027 
L 112.176 353.306684 
L 112.6224 353.456197 
L 113.0688 353.819864 
L 113.5152 353.251763 
L 113.9616 353.50209 
L 114.8544 354.414927 
L 115.3008 355.055988 
L 115.7472 355.402062 
L 116.1936 353.993423 
L 116.64 353.651968 
L 117.0864 354.925072 
L 117.5328 353.805672 
L 117.9792 353.819125 
L 118.4256 353.074205 
L 118.872 354.652528 
L 119.3184 352.88811 
L 119.7648 354.282849 
L 120.2112 353.6034 
L 120.6576 352.305832 
L 121.5504 354.089498 
L 121.9968 355.780042 
L 122.4432 355.294374 
L 122.8896 354.639309 
L 123.336 352.477296 
L 123.7824 353.856127 
L 124.2288 352.904584 
L 124.6752 354.578989 
L 125.1216 354.351613 
L 125.568 354.300408 
L 126.0144 353.745096 
L 126.4608 355.39296 
L 126.9072 355.538804 
L 127.3536 354.604889 
L 127.8 354.430717 
L 128.6928 353.735263 
L 129.1392 355.41891 
L 129.5856 355.380186 
L 130.032 354.107986 
L 130.9248 353.865163 
L 131.3712 354.220285 
L 131.8176 354.7614 
L 132.264 354.070135 
L 132.7104 354.615117 
L 133.1568 353.386527 
L 133.6032 353.52454 
L 134.0496 353.529294 
L 134.496 353.868734 
L 134.9424 355.513208 
L 135.3888 353.950486 
L 135.8352 353.412724 
L 136.2816 353.575223 
L 136.728 354.467571 
L 137.1744 354.589596 
L 137.6208 354.952326 
L 138.0672 353.113116 
L 138.5136 352.237585 
L 138.96 355.324265 
L 139.4064 354.19553 
L 139.8528 353.687173 
L 140.2992 354.219972 
L 140.7456 354.522057 
L 141.192 353.773334 
L 141.6384 353.846629 
L 142.0848 355.372559 
L 142.5312 354.181967 
L 142.9776 353.817697 
L 143.424 354.595328 
L 144.7632 354.708215 
L 145.2096 353.478447 
L 145.656 355.757412 
L 146.1024 353.142894 
L 146.5488 354.257757 
L 146.9952 353.712343 
L 147.4416 354.930667 
L 147.888 353.02631 
L 148.3344 353.784276 
L 148.7808 354.254656 
L 149.2272 354.210903 
L 149.6736 352.986306 
L 150.12 354.994181 
L 150.5664 354.186826 
L 151.0128 352.904414 
L 151.4592 353.378087 
L 151.9056 354.611637 
L 152.352 353.921237 
L 152.7984 354.436164 
L 153.2448 354.183799 
L 153.6912 354.985181 
L 154.1376 354.118005 
L 154.584 353.824574 
L 155.0304 354.269262 
L 155.4768 353.171684 
L 155.9232 352.780247 
L 156.3696 354.832531 
L 156.816 354.882233 
L 157.2624 353.519272 
L 157.7088 353.867393 
L 158.1552 354.019622 
L 159.048 353.300598 
L 159.4944 353.731492 
L 159.9408 353.67995 
L 160.8336 355.404337 
L 161.28 353.622574 
L 161.7264 355.650348 
L 162.1728 354.166155 
L 162.6192 354.573163 
L 163.0656 352.734758 
L 163.512 355.758865 
L 163.9584 354.715612 
L 164.4048 354.32816 
L 164.8512 352.381124 
L 165.2976 356.366382 
L 165.744 352.403729 
L 166.1904 354.353588 
L 166.6368 354.126176 
L 167.0832 356.043079 
L 167.5296 355.654402 
L 167.976 353.812107 
L 168.4224 354.861101 
L 168.8688 353.802783 
L 169.3152 354.878685 
L 169.7616 354.887861 
L 170.208 354.230008 
L 170.6544 354.133032 
L 171.1008 355.020266 
L 171.5472 355.263008 
L 171.9936 353.149135 
L 172.44 353.668906 
L 172.8864 354.580038 
L 173.3328 353.163972 
L 173.7792 353.664481 
L 174.2256 354.45152 
L 174.672 353.227978 
L 175.1184 354.591041 
L 175.5648 353.871785 
L 176.0112 351.853673 
L 176.4576 354.414323 
L 176.904 353.759205 
L 177.3504 354.150434 
L 177.7968 354.902542 
L 178.2432 352.958956 
L 178.6896 354.446043 
L 179.136 352.848109 
L 179.5824 355.057726 
L 180.0288 353.986227 
L 180.9216 353.84592 
L 181.368 353.344845 
L 181.8144 354.171879 
L 182.2608 353.355106 
L 182.7072 354.208898 
L 183.1536 353.231917 
L 184.0464 354.720558 
L 184.4928 353.384355 
L 184.9392 355.435181 
L 185.3856 352.802395 
L 185.832 354.359619 
L 186.2784 353.690769 
L 186.7248 353.264414 
L 187.1712 354.417665 
L 187.6176 353.491133 
L 188.064 354.430355 
L 188.5104 354.312757 
L 188.9568 352.81298 
L 189.4032 352.611628 
L 189.8496 354.481578 
L 190.7424 354.551484 
L 191.1888 355.210041 
L 191.6352 353.877968 
L 192.0816 353.535562 
L 193.4208 354.128145 
L 193.8672 354.502658 
L 194.3136 353.095639 
L 194.76 353.769219 
L 195.2064 355.471724 
L 196.0992 353.016519 
L 196.5456 354.538784 
L 196.992 353.159464 
L 197.4384 355.521352 
L 197.8848 352.618401 
L 198.3312 353.772004 
L 199.224 354.659722 
L 199.6704 353.316599 
L 200.1168 353.728603 
L 200.5632 353.332941 
L 201.0096 354.668439 
L 201.456 354.610201 
L 201.9024 353.961576 
L 202.3488 355.23863 
L 202.7952 354.193132 
L 203.2416 354.126011 
L 203.688 354.617166 
L 204.5808 354.8177 
L 205.0272 355.730435 
L 205.4736 354.844863 
L 205.92 354.556541 
L 206.3664 353.414822 
L 206.8128 353.755201 
L 207.2592 353.922473 
L 207.7056 355.683669 
L 208.152 354.818875 
L 208.5984 353.633236 
L 209.0448 351.808753 
L 209.4912 353.580765 
L 209.9376 353.136802 
L 210.384 355.110595 
L 210.8304 353.653209 
L 211.2768 352.866544 
L 211.7232 353.348328 
L 212.616 355.047836 
L 213.0624 355.276835 
L 213.5088 352.465944 
L 213.9552 356.027956 
L 214.4016 354.962889 
L 214.848 354.438973 
L 215.2944 354.242208 
L 215.7408 355.493622 
L 216.1872 353.486085 
L 216.6336 352.90164 
L 217.08 354.459326 
L 217.5264 353.965649 
L 217.9728 353.895667 
L 218.4192 354.903072 
L 218.8656 354.212781 
L 219.312 354.38408 
L 219.7584 353.034047 
L 220.2048 355.099318 
L 220.6512 353.619432 
L 221.0976 354.280273 
L 221.544 354.561861 
L 221.9904 353.961112 
L 222.4368 355.209044 
L 222.8832 353.526866 
L 223.3296 355.899941 
L 223.776 353.651119 
L 224.6688 354.616562 
L 225.1152 353.141741 
L 225.5616 354.198524 
L 226.008 354.371803 
L 226.4544 353.445301 
L 226.9008 353.547856 
L 227.3472 352.734695 
L 227.7936 353.884826 
L 228.24 354.370133 
L 229.1328 354.831658 
L 229.5792 353.261409 
L 230.0256 353.412889 
L 230.472 354.178125 
L 230.9184 352.637251 
L 231.3648 354.088183 
L 231.8112 353.410785 
L 232.2576 354.039088 
L 232.704 354.30126 
L 233.1504 353.767816 
L 233.5968 354.755533 
L 234.0432 353.804496 
L 234.4896 354.365766 
L 234.936 354.219543 
L 235.3824 354.592172 
L 235.8288 353.626485 
L 236.2752 354.126574 
L 236.7216 353.913291 
L 237.168 354.361278 
L 237.6144 352.723563 
L 238.0608 354.814036 
L 238.5072 353.430005 
L 238.9536 355.733352 
L 239.4 354.645527 
L 239.8464 353.072532 
L 240.2928 354.119161 
L 240.7392 354.411433 
L 241.1856 353.203017 
L 241.632 354.870593 
L 242.0784 355.847388 
L 242.5248 355.473152 
L 242.9712 353.294247 
L 243.4176 353.010778 
L 243.864 353.715812 
L 244.3104 354.071898 
L 244.7568 352.871266 
L 245.2032 352.98819 
L 245.6496 354.452195 
L 246.096 353.537688 
L 246.5424 354.411458 
L 246.9888 353.456027 
L 247.4352 353.55428 
L 247.8816 354.641226 
L 248.328 353.63879 
L 248.7744 354.451778 
L 249.2208 353.900187 
L 249.6672 353.80715 
L 250.1136 356.220417 
L 251.0064 354.39519 
L 251.4528 354.975702 
L 251.8992 353.647384 
L 252.792 354.463116 
L 253.2384 354.478651 
L 253.6848 356.309931 
L 254.1312 354.237531 
L 254.5776 353.364977 
L 255.4704 354.564844 
L 255.9168 354.281457 
L 256.3632 353.864476 
L 256.8096 353.858351 
L 257.256 355.109908 
L 257.7024 353.383369 
L 258.5952 354.188955 
L 259.0416 353.441135 
L 259.488 354.015725 
L 259.9344 355.256147 
L 260.3808 353.600173 
L 260.8272 353.981234 
L 261.2736 355.184132 
L 261.72 354.291614 
L 262.1664 352.992881 
L 262.6128 354.983269 
L 263.0592 355.042441 
L 263.5056 354.299095 
L 263.952 351.58556 
L 264.3984 354.350479 
L 265.2912 355.437521 
L 265.7376 355.765984 
L 266.184 353.519448 
L 266.6304 354.46856 
L 267.0768 351.813343 
L 267.5232 353.886328 
L 267.9696 353.7203 
L 268.416 352.963301 
L 269.3088 354.97381 
L 269.7552 354.060099 
L 270.2016 353.792195 
L 270.648 354.446719 
L 271.5408 354.387969 
L 271.9872 353.395822 
L 272.88 352.910929 
L 273.3264 355.14309 
L 273.7728 355.519276 
L 274.2192 354.444615 
L 274.6656 355.356639 
L 275.112 352.831152 
L 275.5584 353.793505 
L 276.0048 354.17303 
L 276.4512 355.593856 
L 276.8976 354.704483 
L 277.344 354.099109 
L 277.7904 355.573471 
L 278.2368 355.361517 
L 278.6832 353.46559 
L 279.1296 353.506718 
L 279.576 354.603738 
L 280.0224 354.571523 
L 280.4688 355.29795 
L 280.9152 353.812467 
L 281.3616 353.689176 
L 281.808 353.173497 
L 282.2544 354.276189 
L 282.7008 354.745692 
L 283.1472 353.86658 
L 283.5936 353.91138 
L 284.04 354.169001 
L 284.4864 354.148728 
L 284.9328 353.609791 
L 285.3792 353.980036 
L 285.8256 353.663053 
L 286.7184 353.897537 
L 287.6112 353.656442 
L 288.504 353.974005 
L 288.9504 356.020829 
L 289.3968 354.155249 
L 289.8432 354.870011 
L 290.2896 354.760211 
L 290.736 355.023885 
L 291.1824 355.966188 
L 291.6288 355.13894 
L 292.0752 353.05507 
L 292.5216 352.978868 
L 293.4144 353.301248 
L 293.8608 353.844712 
L 294.3072 355.123897 
L 294.7536 354.208151 
L 295.2 351.581457 
L 295.6464 353.684916 
L 296.5392 354.496586 
L 296.9856 353.367529 
L 297.8784 354.67713 
L 298.3248 351.472396 
L 298.7712 354.265746 
L 299.2176 353.940892 
L 299.664 354.355181 
L 300.5568 353.304391 
L 301.0032 353.217777 
L 301.4496 353.605111 
L 301.896 353.066531 
L 302.3424 354.309236 
L 303.2352 354.666036 
L 303.6816 355.156199 
L 304.128 353.649922 
L 304.5744 354.474921 
L 305.0208 353.262437 
L 305.4672 355.774936 
L 305.9136 353.987897 
L 306.36 355.296118 
L 306.8064 353.279529 
L 307.2528 353.436411 
L 307.6992 353.713887 
L 308.1456 354.83157 
L 309.0384 355.057979 
L 309.4848 352.993502 
L 309.9312 352.910858 
L 310.3776 356.031403 
L 310.824 353.143867 
L 311.2704 353.195618 
L 311.7168 355.50426 
L 312.1632 353.845739 
L 312.6096 355.281586 
L 313.056 354.694741 
L 313.5024 353.84101 
L 313.9488 353.346251 
L 314.3952 356.093448 
L 314.8416 355.602057 
L 315.288 354.325468 
L 315.7344 353.796803 
L 316.1808 353.490851 
L 316.6272 354.90614 
L 317.0736 354.419382 
L 317.52 355.663729 
L 317.9664 353.949796 
L 318.4128 353.718452 
L 318.8592 354.517372 
L 319.3056 354.110084 
L 319.752 354.381677 
L 320.1984 353.982535 
L 320.6448 354.134097 
L 321.0912 351.945217 
L 321.5376 353.166227 
L 321.984 353.114291 
L 322.4304 354.519682 
L 322.8768 354.177658 
L 323.3232 353.996568 
L 323.7696 354.812563 
L 324.216 352.725568 
L 324.6624 354.22569 
L 325.1088 353.987946 
L 325.5552 353.455436 
L 326.0016 353.530904 
L 326.448 354.37194 
L 327.3408 353.677931 
L 327.7872 353.790341 
L 328.2336 353.290886 
L 328.68 354.761988 
L 329.1264 354.692697 
L 329.5728 354.356213 
L 330.0192 354.291531 
L 330.4656 353.960475 
L 330.912 355.762733 
L 331.3584 354.128184 
L 331.8048 355.266277 
L 332.2512 353.855808 
L 332.6976 355.69206 
L 333.144 354.190309 
L 333.5904 354.009556 
L 334.0368 354.951107 
L 334.4832 355.327693 
L 334.9296 352.602208 
L 335.376 354.52287 
L 335.8224 352.901212 
L 336.2688 352.339904 
L 336.7152 354.515219 
L 337.1616 354.38477 
L 337.608 353.502872 
L 338.0544 353.321334 
L 338.5008 354.558527 
L 338.9472 351.877939 
L 339.3936 355.376228 
L 339.84 354.026519 
L 340.2864 354.151291 
L 340.7328 355.467066 
L 341.1792 353.728526 
L 341.6256 354.513167 
L 342.072 354.720429 
L 342.5184 352.561399 
L 342.9648 355.048143 
L 343.4112 353.632986 
L 343.8576 354.374206 
L 344.304 353.527273 
L 344.7504 353.795394 
L 345.1968 354.215825 
L 345.6432 352.946475 
L 346.0896 354.297409 
L 346.536 354.464934 
L 346.9824 354.416583 
L 347.4288 355.086414 
L 347.8752 354.114929 
L 348.3216 355.241231 
L 348.768 353.860488 
L 349.2144 353.53417 
L 349.6608 354.486138 
L 350.1072 353.5699 
L 351 355.589247 
L 351.4464 352.934242 
L 351.8928 355.343818 
L 352.3392 355.092124 
L 352.7856 353.921825 
L 353.232 353.765132 
L 353.6784 353.803914 
L 354.1248 354.094228 
L 354.5712 354.794694 
L 355.0176 354.278834 
L 355.464 354.328684 
L 355.9104 351.706023 
L 356.3568 352.880365 
L 356.8032 352.293228 
L 357.2496 354.259215 
L 357.696 353.240519 
L 358.1424 354.782131 
L 358.5888 354.391793 
L 359.0352 354.587206 
L 359.928 352.248725 
L 360.3744 353.841512 
L 360.8208 353.936709 
L 361.2672 354.273536 
L 361.7136 354.876941 
L 362.16 354.001157 
L 362.6064 351.939084 
L 363.0528 353.775558 
L 363.9456 353.985815 
L 364.392 353.261338 
L 364.8384 356.161459 
L 365.2848 354.666561 
L 365.7312 354.453723 
L 366.1776 354.038409 
L 366.624 354.60301 
L 367.0704 353.377208 
L 367.5168 353.275145 
L 367.9632 354.296374 
L 368.4096 355.664141 
L 368.856 354.187694 
L 369.3024 353.250228 
L 369.7488 353.272549 
L 370.1952 355.123427 
L 370.6416 353.89167 
L 371.088 353.320219 
L 371.5344 353.651462 
L 371.9808 354.149396 
L 372.4272 354.42769 
L 372.8736 355.05295 
L 373.32 354.566135 
L 373.7664 354.371655 
L 374.2128 353.778376 
L 374.6592 354.190553 
L 375.1056 353.290397 
L 375.552 353.554371 
L 375.9984 354.453893 
L 376.4448 353.954518 
L 376.8912 354.492614 
L 377.3376 353.970393 
L 377.784 352.706896 
L 378.2304 353.827216 
L 378.6768 354.233661 
L 379.1232 353.902896 
L 379.5696 353.800179 
L 380.016 354.509357 
L 380.4624 354.369361 
L 380.9088 353.489288 
L 381.3552 355.209815 
L 381.8016 353.840026 
L 382.248 354.027772 
L 382.6944 354.926354 
L 383.1408 352.939438 
L 383.5872 354.416671 
L 384.0336 353.267803 
L 384.48 354.042933 
L 384.9264 353.788896 
L 385.3728 354.27459 
L 385.8192 353.365804 
L 386.2656 353.876539 
L 386.712 353.06006 
L 387.1584 353.797657 
L 387.6048 354.114822 
L 388.0512 352.464469 
L 388.4976 354.629691 
L 388.944 353.492141 
L 389.3904 352.990355 
L 389.8368 354.676734 
L 390.2832 353.848414 
L 390.7296 355.466519 
L 391.176 355.133831 
L 391.6224 354.152472 
L 392.0688 354.89214 
L 392.5152 353.156163 
L 392.9616 353.307997 
L 393.408 352.817303 
L 393.8544 353.279853 
L 394.3008 354.51468 
L 394.7472 354.915363 
L 395.1936 354.880352 
L 395.64 353.845811 
L 396.0864 355.055076 
L 396.5328 354.224204 
L 397.872 354.45676 
L 398.3184 354.153576 
L 398.7648 354.315396 
L 399.2112 353.198164 
L 399.6576 354.203119 
L 400.104 354.72175 
L 400.5504 354.459279 
L 400.9968 354.746288 
L 401.4432 353.47673 
L 401.8896 355.834781 
L 402.336 353.237888 
L 402.7824 354.459729 
L 403.2288 354.645923 
L 403.6752 354.462756 
L 404.1216 353.645991 
L 404.568 353.099279 
L 405.0144 354.11405 
L 405.4608 355.675954 
L 405.9072 353.734637 
L 406.3536 353.820135 
L 406.8 354.310321 
L 407.2464 354.367744 
L 407.6928 354.686902 
L 408.1392 353.865789 
L 408.5856 354.574273 
L 409.032 354.811179 
L 409.4784 355.230651 
L 409.9248 354.634621 
L 410.3712 354.897438 
L 410.8176 353.349064 
L 411.7104 355.283196 
L 412.1568 354.550567 
L 412.6032 354.042441 
L 413.0496 354.774875 
L 413.496 354.534285 
L 413.9424 353.852993 
L 414.3888 354.148846 
L 415.2816 353.127145 
L 415.728 354.258995 
L 416.1744 354.445222 
L 416.6208 353.281668 
L 417.0672 354.208546 
L 417.96 354.652127 
L 418.4064 354.552671 
L 418.8528 353.787231 
L 419.2992 354.356323 
L 419.7456 354.64511 
L 420.192 353.41296 
L 420.6384 353.966509 
L 421.0848 353.457924 
L 421.5312 353.325495 
L 421.9776 355.898419 
L 422.424 354.878921 
L 422.8704 354.378914 
L 423.3168 353.419107 
L 424.2096 354.411156 
L 424.656 353.82286 
L 425.1024 354.136819 
L 425.5488 355.133683 
L 425.9952 353.161508 
L 426.4416 355.050434 
L 426.888 353.477318 
L 427.3344 354.938302 
L 427.7808 353.417503 
L 428.6736 355.219884 
L 429.12 354.274577 
L 429.5664 355.605304 
L 430.0128 355.016206 
L 430.4592 353.205599 
L 430.9056 355.019104 
L 431.352 353.909619 
L 431.7984 355.114311 
L 432.2448 353.616784 
L 432.6912 352.948983 
L 433.1376 355.089738 
L 433.584 354.812632 
L 434.4768 354.864595 
L 435.3696 353.056168 
L 435.816 354.697971 
L 436.2624 353.355732 
L 436.7088 353.381276 
L 437.1552 353.278334 
L 437.6016 354.352945 
L 438.048 352.868069 
L 438.4944 353.949868 
L 438.9408 353.082335 
L 439.3872 356.338696 
L 439.8336 352.509813 
L 440.7264 353.960673 
L 441.1728 353.64559 
L 441.6192 353.89604 
L 442.0656 353.238552 
L 442.512 354.356241 
L 442.9584 354.463948 
L 443.4048 354.29767 
L 443.8512 355.090781 
L 444.2976 354.247723 
L 444.744 353.156688 
L 445.6368 353.933619 
L 446.0832 351.895614 
L 446.5296 355.552561 
L 446.976 354.489277 
L 447.4224 353.955493 
L 447.8688 354.188318 
L 448.3152 353.027609 
L 448.7616 354.384967 
L 449.208 354.671859 
L 449.6544 353.454057 
L 450.1008 356.047652 
L 450.9936 353.965658 
L 451.44 353.775547 
L 451.8864 354.537191 
L 452.3328 353.209389 
L 452.7792 354.640776 
L 453.2256 353.749532 
L 453.672 354.331609 
L 454.1184 356.046855 
L 454.5648 356.017159 
L 455.0112 354.104094 
L 455.4576 354.710995 
L 455.904 355.118033 
L 456.3504 352.775402 
L 456.7968 354.79905 
L 457.2432 353.0773 
L 457.6896 353.716103 
L 458.136 354.068619 
L 458.5824 353.725626 
L 459.0288 352.973633 
L 459.4752 353.866289 
L 459.9216 355.295198 
L 460.368 354.413068 
L 460.8144 353.087468 
L 461.2608 353.73492 
L 461.7072 354.582131 
L 462.1536 353.352115 
L 463.0464 355.055768 
L 463.4928 355.099746 
L 464.3856 353.22717 
L 464.832 353.812731 
L 465.2784 353.905203 
L 465.7248 353.200721 
L 466.1712 355.848275 
L 466.6176 353.965251 
L 467.064 354.120996 
L 467.5104 353.214075 
L 467.9568 355.892734 
L 468.4032 355.235356 
L 468.8496 353.700959 
L 469.296 355.640578 
L 469.7424 354.570631 
L 470.1888 353.847513 
L 470.6352 354.89637 
L 471.0816 352.994208 
L 471.528 352.751265 
L 471.9744 353.166669 
L 472.4208 353.418387 
L 472.8672 354.572935 
L 473.3136 354.473902 
L 473.76 352.65564 
L 474.2064 354.929513 
L 474.6528 354.9419 
L 475.0992 355.257974 
L 475.5456 353.47781 
L 475.992 353.574772 
L 476.4384 354.176268 
L 476.8848 354.194475 
L 477.3312 355.25473 
L 477.7776 354.27731 
L 478.224 355.13499 
L 479.1168 353.59769 
L 479.5632 354.092091 
L 480.0096 353.220274 
L 480.456 353.192489 
L 480.9024 354.62119 
L 481.3488 354.569024 
L 481.7952 354.156416 
L 482.2416 354.705353 
L 482.688 352.804779 
L 483.1344 354.838019 
L 483.5808 354.62732 
L 484.0272 354.118162 
L 484.4736 354.779212 
L 484.92 354.471757 
L 485.3664 354.519193 
L 485.8128 353.59446 
L 486.2592 354.205646 
L 486.7056 354.600511 
L 487.152 355.579816 
L 487.5984 354.10272 
L 488.0448 351.99209 
L 488.4912 354.034781 
L 488.9376 353.40998 
L 489.384 353.408898 
L 489.8304 353.126964 
L 490.2768 354.318673 
L 490.7232 354.241198 
L 491.616 355.078922 
L 492.0624 353.06415 
L 492.5088 352.917504 
L 492.9552 353.318829 
L 493.4016 354.585245 
L 493.848 354.41432 
L 494.2944 353.623208 
L 494.7408 355.9099 
L 495.6336 352.131784 
L 496.08 354.301444 
L 496.5264 354.532797 
L 496.9728 353.363747 
L 497.4192 353.064622 
L 497.8656 353.891728 
L 498.312 354.113058 
L 498.7584 354.854018 
L 499.2048 353.051884 
L 500.0976 354.041131 
L 500.544 353.423298 
L 500.9904 354.03591 
L 501.4368 354.414251 
L 501.8832 354.406495 
L 502.3296 355.327182 
L 502.776 354.993613 
L 503.2224 353.606413 
L 503.6688 354.564684 
L 504.1152 353.177076 
L 504.5616 354.607114 
L 505.008 354.470098 
L 505.4544 353.598069 
L 505.9008 353.929438 
L 506.3472 352.501155 
L 506.7936 354.220612 
L 507.24 354.88927 
L 507.6864 354.040829 
L 508.1328 352.837617 
L 508.5792 353.325696 
L 509.0256 354.554171 
L 509.472 353.92856 
L 509.9184 354.456705 
L 510.3648 353.699821 
L 510.8112 355.167823 
L 511.2576 353.196238 
L 511.704 353.572721 
L 512.1504 355.127124 
L 512.5968 353.789769 
L 513.0432 354.858113 
L 513.4896 355.558217 
L 513.936 354.82848 
L 514.8288 353.889926 
L 515.2752 352.668263 
L 515.7216 353.065559 
L 516.168 354.634876 
L 516.6144 352.570693 
L 517.0608 353.897792 
L 517.5072 353.809402 
L 517.9536 354.106211 
L 517.9536 354.106211 
" style="fill:none;stroke:#0000ff;stroke-linecap:square;"/>
   </g>
   <g id="line2d_2">
    <path clip-path="url(#p5da6cc8cf4)" d="M 72 89.597681 
L 72.4464 300.245175 
L 72.8928 289.839221 
L 73.3392 286.734133 
L 74.6784 307.139024 
L 75.1248 317.191564 
L 75.5712 322.584115 
L 76.464 330.807612 
L 77.3568 347.743636 
L 77.8032 356.70481 
L 78.2496 357.298583 
L 78.696 356.437452 
L 79.1424 354.465417 
L 79.5888 351.054465 
L 80.0352 348.961932 
L 80.4816 351.267701 
L 80.928 355.931543 
L 81.3744 357.144027 
L 81.8208 357.376163 
L 82.2672 356.496097 
L 83.6064 355.863477 
L 84.0528 356.15874 
L 84.4992 357.212076 
L 84.9456 357.877804 
L 85.392 359.307408 
L 85.8384 357.805646 
L 86.2848 358.577018 
L 86.7312 357.489819 
L 87.1776 355.943172 
L 87.624 359.322512 
L 88.0704 358.058834 
L 88.5168 358.435256 
L 88.9632 359.510576 
L 89.4096 359.067354 
L 90.3024 358.61424 
L 91.1952 359.459879 
L 91.6416 359.435141 
L 92.088 360.052487 
L 92.5344 360.096721 
L 92.9808 359.116177 
L 93.4272 359.725243 
L 93.8736 359.829264 
L 94.32 358.496765 
L 94.7664 360.055204 
L 95.2128 360.924101 
L 95.6592 359.422622 
L 96.1056 360.53621 
L 96.552 358.058897 
L 96.9984 359.564908 
L 97.4448 359.67122 
L 97.8912 359.20637 
L 98.3376 360.51048 
L 98.784 359.066135 
L 99.2304 359.194422 
L 99.6768 361.200913 
L 100.1232 359.295276 
L 100.5696 359.927941 
L 101.016 360.257544 
L 101.4624 358.180961 
L 101.9088 359.485422 
L 102.3552 358.609559 
L 102.8016 359.033398 
L 103.248 358.392876 
L 103.6944 360.826334 
L 104.1408 360.537325 
L 104.5872 359.143846 
L 105.0336 358.920016 
L 105.48 360.090997 
L 105.9264 359.233786 
L 106.3728 360.112044 
L 106.8192 358.640362 
L 107.712 359.85996 
L 108.1584 359.802471 
L 108.6048 358.671643 
L 109.0512 358.428268 
L 109.944 359.277564 
L 110.3904 360.527138 
L 110.8368 360.468762 
L 111.2832 358.686785 
L 111.7296 359.088791 
L 112.176 358.988173 
L 112.6224 359.119133 
L 113.0688 359.429963 
L 113.5152 358.957527 
L 113.9616 359.170958 
L 114.8544 359.939685 
L 115.3008 360.477771 
L 115.7472 360.768038 
L 116.1936 359.58545 
L 116.64 359.298781 
L 117.0864 360.366974 
L 117.5328 359.425975 
L 117.9792 359.435808 
L 118.4256 358.809395 
L 118.872 360.134604 
L 119.3184 358.654427 
L 119.7648 359.826781 
L 120.2112 359.25683 
L 120.6576 358.166305 
L 121.5504 359.658204 
L 121.9968 361.075718 
L 122.8896 360.119001 
L 123.336 358.306232 
L 123.7824 359.465878 
L 124.2288 358.667254 
L 124.6752 360.072046 
L 125.1216 359.879875 
L 125.568 359.836523 
L 126.0144 359.371217 
L 126.4608 360.756244 
L 126.9072 360.879727 
L 127.3536 360.095878 
L 128.2464 359.686156 
L 128.6928 359.363589 
L 129.1392 360.776959 
L 129.5856 360.744469 
L 130.032 359.676565 
L 130.9248 359.473057 
L 131.3712 359.771023 
L 131.8176 360.224931 
L 132.264 359.644183 
L 132.7104 360.101591 
L 133.1568 359.070134 
L 134.496 359.475147 
L 134.9424 360.855527 
L 135.3888 359.54315 
L 135.8352 359.091758 
L 136.2816 359.228672 
L 136.728 359.978313 
L 137.1744 360.080975 
L 137.6208 360.385587 
L 138.0672 358.84147 
L 138.5136 358.106616 
L 138.96 360.698099 
L 139.4064 359.750056 
L 139.8528 359.322965 
L 140.2992 359.770331 
L 140.7456 360.024109 
L 141.192 359.395757 
L 141.6384 359.457448 
L 142.0848 360.738452 
L 142.5312 359.738487 
L 142.9776 359.432446 
L 143.424 360.085408 
L 144.7632 360.180536 
L 145.2096 359.14801 
L 145.656 361.061318 
L 146.1024 358.86609 
L 146.5488 359.802175 
L 146.9952 359.344317 
L 147.4416 360.367226 
L 147.888 358.768271 
L 148.3344 359.404656 
L 148.7808 359.799505 
L 149.2272 359.762657 
L 149.6736 358.734512 
L 150.12 360.420436 
L 150.5664 359.742546 
L 151.0128 358.665947 
L 151.4592 359.063742 
L 151.9056 360.099352 
L 152.352 359.519447 
L 152.7984 359.951635 
L 153.2448 359.739756 
L 153.6912 360.412751 
L 154.1376 359.684797 
L 154.584 359.438604 
L 155.0304 359.812018 
L 155.4768 358.890433 
L 155.9232 358.561736 
L 156.3696 360.284691 
L 156.816 360.326228 
L 157.2624 359.181884 
L 157.7088 359.474447 
L 158.1552 359.602487 
L 159.048 358.998701 
L 159.4944 359.360266 
L 159.9408 359.316815 
L 160.8336 360.764544 
L 161.28 359.268739 
L 161.7264 360.971472 
L 162.1728 359.725399 
L 162.6192 360.067102 
L 163.0656 358.52358 
L 163.512 361.062521 
L 163.9584 360.186328 
L 164.4048 359.860946 
L 164.8512 358.226516 
L 165.2976 361.572745 
L 165.744 358.245681 
L 166.1904 359.882748 
L 166.6368 359.691617 
L 167.0832 361.30082 
L 167.5296 360.974328 
L 167.976 359.427744 
L 168.4224 360.308881 
L 168.8688 359.420576 
L 169.3152 360.323773 
L 169.7616 360.331117 
L 170.208 359.778507 
L 170.6544 359.697134 
L 171.1008 360.442274 
L 171.5472 360.646161 
L 171.9936 358.871495 
L 172.44 359.30801 
L 172.8864 360.072853 
L 173.3328 358.883756 
L 173.7792 359.303945 
L 174.2256 359.964679 
L 174.672 358.937402 
L 175.1184 360.081914 
L 175.5648 359.478048 
L 176.0112 357.783893 
L 176.4576 359.933871 
L 176.904 359.383585 
L 177.3504 359.711798 
L 177.7968 360.34312 
L 178.2432 358.711441 
L 178.6896 359.960339 
L 179.136 358.618953 
L 179.5824 360.474077 
L 180.0288 359.574093 
L 180.9216 359.456133 
L 181.368 359.035653 
L 181.8144 359.73022 
L 182.2608 359.044412 
L 182.7072 359.761108 
L 183.1536 358.940671 
L 184.0464 360.190624 
L 184.4928 359.068782 
L 184.9392 360.79067 
L 185.3856 358.580198 
L 185.832 359.887791 
L 186.2784 359.326167 
L 186.7248 358.968186 
L 187.1712 359.936359 
L 187.6176 359.15831 
L 188.064 359.946876 
L 188.5104 359.848163 
L 188.9568 358.589171 
L 189.4032 358.420394 
L 189.8496 359.99031 
L 190.7424 360.048312 
L 191.1888 360.60121 
L 191.6352 359.48311 
L 192.0816 359.196125 
L 193.4208 359.693089 
L 193.8672 360.007251 
L 194.3136 358.826056 
L 194.76 359.39205 
L 195.2064 360.821596 
L 196.0992 358.759979 
L 196.5456 360.038068 
L 196.992 358.879982 
L 197.4384 360.862998 
L 197.8848 358.425621 
L 198.3312 359.394302 
L 199.224 360.139535 
L 199.6704 359.011846 
L 200.1168 359.357893 
L 200.5632 359.02579 
L 201.0096 360.146948 
L 201.456 360.097809 
L 201.9024 359.553164 
L 202.3488 360.625531 
L 202.7952 359.74791 
L 203.2416 359.691715 
L 203.688 360.104019 
L 204.5808 360.271956 
L 205.0272 361.038257 
L 205.4736 360.294887 
L 205.92 360.053091 
L 206.3664 359.094716 
L 206.8128 359.380462 
L 207.2592 359.520636 
L 207.7056 360.998981 
L 208.152 360.2727 
L 208.5984 359.277572 
L 209.0448 357.746394 
L 209.4912 359.234407 
L 209.9376 358.861201 
L 210.384 360.517755 
L 210.8304 359.293815 
L 211.2768 358.633803 
L 211.7232 359.038954 
L 212.616 360.465488 
L 213.0624 360.657219 
L 213.5088 358.297306 
L 213.9552 361.288438 
L 214.4016 360.394299 
L 214.848 359.954333 
L 215.2944 359.788964 
L 215.7408 360.839485 
L 216.1872 359.154075 
L 216.6336 358.663796 
L 217.08 359.971702 
L 217.5264 359.556872 
L 217.9728 359.497749 
L 218.4192 360.343474 
L 218.8656 359.76414 
L 219.312 359.908363 
L 219.7584 358.775123 
L 220.2048 360.50892 
L 220.6512 359.265938 
L 221.0976 359.820612 
L 221.544 360.05714 
L 221.9904 359.55306 
L 222.4368 360.601007 
L 222.8832 359.188566 
L 223.3296 361.180756 
L 223.776 359.292478 
L 224.6688 360.103477 
L 225.1152 358.865283 
L 225.5616 359.752418 
L 226.008 359.897638 
L 226.4544 359.119685 
L 226.9008 359.206026 
L 227.3472 358.523591 
L 227.7936 359.489254 
L 228.24 359.896369 
L 229.1328 360.283497 
L 229.5792 358.965571 
L 230.0256 359.093221 
L 230.472 359.735647 
L 230.9184 358.441518 
L 231.3648 359.659399 
L 231.8112 359.090593 
L 232.2576 359.61836 
L 232.704 359.83866 
L 233.1504 359.390852 
L 233.5968 360.220034 
L 234.0432 359.421383 
L 234.4896 359.892669 
L 234.936 359.769977 
L 235.3824 360.082851 
L 235.8288 359.272046 
L 236.2752 359.69191 
L 236.7216 359.512833 
L 237.168 359.888945 
L 237.6144 358.51403 
L 238.0608 360.269182 
L 238.5072 359.106996 
L 238.9536 361.040735 
L 239.4 360.127337 
L 239.8464 358.807028 
L 240.2928 359.686129 
L 240.7392 359.931371 
L 241.1856 358.916429 
L 241.632 360.316252 
L 242.0784 361.136236 
L 242.5248 360.822173 
L 242.9712 358.993279 
L 243.4176 358.75576 
L 243.864 359.347544 
L 244.3104 359.645894 
L 244.7568 358.637448 
L 245.2032 358.735869 
L 245.6496 359.965355 
L 246.096 359.197668 
L 246.5424 359.931212 
L 246.9888 359.128864 
L 247.4352 359.211355 
L 247.8816 360.123975 
L 248.328 359.282307 
L 248.7744 359.964863 
L 249.2208 359.501737 
L 249.6672 359.423726 
L 250.1136 361.449877 
L 251.0064 359.917317 
L 251.4528 360.404882 
L 251.8992 359.289742 
L 252.792 359.974457 
L 253.2384 359.987292 
L 253.6848 361.524683 
L 254.1312 359.784797 
L 254.5776 359.052709 
L 255.4704 360.060101 
L 256.8096 359.46652 
L 257.256 360.517569 
L 257.7024 359.068041 
L 258.5952 359.744293 
L 259.0416 359.116372 
L 259.488 359.598777 
L 259.9344 360.640099 
L 260.3808 359.249733 
L 260.8272 359.569877 
L 261.2736 360.579922 
L 261.72 359.830508 
L 262.1664 358.74014 
L 262.6128 360.41118 
L 263.0592 360.460585 
L 263.5056 359.836449 
L 263.952 357.558646 
L 264.3984 359.880392 
L 265.2912 360.792101 
L 265.7376 361.067643 
L 266.184 359.181958 
L 266.6304 359.979582 
L 267.0768 357.75056 
L 267.5232 359.490531 
L 267.9696 359.350318 
L 268.416 358.714484 
L 269.3088 360.403336 
L 269.7552 359.636328 
L 270.2016 359.411331 
L 270.648 359.960691 
L 271.5408 359.911181 
L 271.9872 359.078299 
L 272.88 358.671388 
L 273.3264 360.54532 
L 273.7728 360.86085 
L 274.2192 359.958562 
L 274.6656 360.724548 
L 275.112 358.604522 
L 275.5584 359.412682 
L 276.0048 359.731022 
L 276.4512 360.923459 
L 276.8976 360.176542 
L 277.344 359.668614 
L 277.7904 360.906872 
L 278.2368 360.728926 
L 278.6832 359.137013 
L 279.1296 359.171557 
L 279.576 360.092532 
L 280.0224 360.022492 
L 280.4688 360.679098 
L 280.9152 359.432726 
L 281.3616 359.326645 
L 281.808 358.890842 
L 282.2544 359.785756 
L 282.7008 360.215049 
L 283.1472 359.479155 
L 283.5936 359.514619 
L 284.04 359.726767 
L 284.4864 359.707286 
L 284.9328 359.255638 
L 285.3792 359.569122 
L 285.8256 359.304604 
L 286.7184 359.499293 
L 287.6112 359.296249 
L 288.504 359.56495 
L 288.9504 361.283395 
L 289.3968 359.716558 
L 289.8432 360.316099 
L 290.2896 360.223542 
L 290.736 360.444897 
L 291.1824 361.236346 
L 291.6288 360.542439 
L 292.0752 358.793597 
L 292.5216 358.729634 
L 293.4144 358.998179 
L 293.8608 359.454496 
L 294.3072 360.529448 
L 294.7536 359.761558 
L 295.2 357.556558 
L 295.6464 359.321685 
L 296.5392 360.001708 
L 296.9856 359.054764 
L 297.8784 360.155341 
L 298.3248 357.463894 
L 298.7712 359.808464 
L 299.2176 359.53558 
L 299.664 359.884009 
L 300.5568 359.002428 
L 301.0032 358.929388 
L 301.4496 359.254199 
L 301.896 358.801985 
L 302.3424 359.845505 
L 303.2352 360.145033 
L 303.6816 360.556567 
L 304.128 359.292134 
L 304.5744 359.984965 
L 305.0208 358.966884 
L 305.4672 361.075995 
L 305.9136 359.575384 
L 306.36 360.674017 
L 306.8064 358.981383 
L 307.6992 359.345896 
L 308.1456 360.283683 
L 309.0384 360.47395 
L 309.4848 358.741398 
L 309.9312 358.672316 
L 310.3776 361.291599 
L 310.824 358.866552 
L 311.2704 358.910228 
L 311.7168 360.848947 
L 312.1632 359.456641 
L 312.6096 360.662017 
L 313.056 360.16906 
L 313.5024 359.452419 
L 313.9488 359.03737 
L 314.3952 361.343677 
L 314.8416 360.930567 
L 315.288 359.858746 
L 315.7344 359.415519 
L 316.1808 359.159139 
L 316.6272 360.347064 
L 317.0736 359.937636 
L 317.52 360.982046 
L 317.9664 359.543499 
L 318.4128 359.350137 
L 318.8592 360.021017 
L 319.3056 359.678405 
L 319.752 359.905855 
L 320.1984 359.57083 
L 320.6448 359.698629 
L 321.0912 357.861357 
L 321.5376 358.886341 
L 321.984 358.842145 
L 322.4304 360.021703 
L 322.8768 359.734691 
L 323.3232 359.583157 
L 323.7696 360.268465 
L 324.216 358.516189 
L 324.6624 359.775464 
L 325.1088 359.575617 
L 325.5552 359.128548 
L 326.0016 359.192087 
L 326.448 359.898181 
L 327.3408 359.315563 
L 327.7872 359.41007 
L 328.2336 358.990719 
L 328.68 360.225544 
L 329.1264 360.167119 
L 329.5728 359.884789 
L 330.0192 359.830931 
L 330.4656 359.553139 
L 330.912 361.065883 
L 331.3584 359.693124 
L 331.8048 360.648745 
L 332.2512 359.46501 
L 332.6976 361.006894 
L 333.144 359.745782 
L 333.5904 359.59383 
L 334.0368 360.384263 
L 334.4832 360.700444 
L 334.9296 358.41255 
L 335.376 360.025266 
L 335.8224 358.663497 
L 336.2688 358.192057 
L 336.7152 360.018265 
L 337.1616 359.908676 
L 337.608 359.168505 
L 338.0544 359.016416 
L 338.5008 360.055085 
L 338.9472 357.804316 
L 339.3936 360.741165 
L 339.84 359.607791 
L 340.2864 359.71282 
L 340.7328 360.817707 
L 341.1792 359.358148 
L 341.6256 360.0169 
L 342.072 360.190692 
L 342.5184 358.378055 
L 342.9648 360.465897 
L 343.4112 359.27761 
L 343.8576 359.899978 
L 344.304 359.18911 
L 344.7504 359.414349 
L 345.1968 359.767164 
L 345.6432 358.701268 
L 346.0896 359.83548 
L 346.536 359.976135 
L 346.9824 359.935617 
L 347.4288 360.498016 
L 347.8752 359.68241 
L 348.3216 360.628011 
L 348.768 359.46877 
L 349.2144 359.194916 
L 349.6608 359.994078 
L 350.1072 359.224637 
L 351 360.919995 
L 351.4464 358.691251 
L 351.8928 360.714441 
L 352.3392 360.502765 
L 352.7856 359.520002 
L 353.232 359.388666 
L 353.6784 359.42146 
L 354.1248 359.66515 
L 354.5712 360.252911 
L 355.0176 359.819692 
L 355.464 359.86183 
L 355.9104 357.660401 
L 356.3568 358.64632 
L 356.8032 358.152792 
L 357.2496 359.802949 
L 357.696 358.947839 
L 358.1424 360.242647 
L 358.5888 359.915045 
L 359.0352 360.07897 
L 359.928 358.115685 
L 360.3744 359.452903 
L 360.8208 359.532449 
L 361.2672 359.815122 
L 361.7136 360.321985 
L 362.16 359.587172 
L 362.6064 357.856213 
L 363.0528 359.397642 
L 363.9456 359.573302 
L 364.392 358.965733 
L 364.8384 361.400944 
L 365.2848 360.145585 
L 365.7312 359.966654 
L 366.1776 359.618071 
L 366.624 360.092269 
L 367.0704 359.063119 
L 367.5168 358.977299 
L 367.9632 359.834496 
L 368.4096 360.982733 
L 368.856 359.74339 
L 369.3024 358.926825 
L 369.7488 358.980222 
L 370.1952 360.533257 
L 370.6416 359.495239 
L 371.088 359.013307 
L 371.5344 359.292632 
L 371.9808 359.712334 
L 372.4272 359.945626 
L 372.8736 360.468833 
L 373.32 360.059258 
L 373.7664 359.896951 
L 374.2128 359.400449 
L 374.6592 359.747166 
L 375.1056 358.991076 
L 375.552 359.212091 
L 375.9984 359.966662 
L 376.4448 359.546976 
L 376.8912 359.998852 
L 377.3376 359.561091 
L 377.784 358.501196 
L 378.2304 359.441628 
L 378.6768 359.781674 
L 379.1232 359.50327 
L 379.5696 359.417807 
L 380.016 360.014381 
L 380.4624 359.896989 
L 380.9088 359.15714 
L 381.3552 360.600694 
L 381.8016 359.45081 
L 382.248 359.609631 
L 382.6944 360.364573 
L 383.1408 358.695945 
L 383.5872 359.935323 
L 384.0336 358.970559 
L 384.48 359.621922 
L 384.9264 359.409078 
L 385.3728 359.816721 
L 385.8192 359.053358 
L 386.2656 359.482066 
L 386.712 358.796799 
L 387.1584 359.416222 
L 387.6048 359.682341 
L 388.0512 358.296746 
L 388.4976 360.114587 
L 388.944 359.159403 
L 389.3904 358.738242 
L 389.8368 360.154122 
L 390.2832 359.458657 
L 390.7296 360.817138 
L 391.176 360.537671 
L 391.6224 359.713905 
L 392.0688 360.335067 
L 392.5152 358.877659 
L 392.9616 359.005095 
L 393.408 358.592929 
L 393.8544 358.981133 
L 394.3008 360.017776 
L 394.7472 360.354268 
L 395.1936 360.325151 
L 395.64 359.456819 
L 396.0864 360.471852 
L 396.5328 359.773863 
L 397.872 359.969628 
L 398.3184 359.714949 
L 398.7648 359.850586 
L 399.2112 358.912653 
L 399.6576 359.756543 
L 400.104 360.191791 
L 400.5504 359.971326 
L 400.9968 360.212434 
L 401.4432 359.146821 
L 401.8896 361.126434 
L 402.336 358.945878 
L 402.7824 359.971751 
L 403.2288 360.128177 
L 403.6752 359.974462 
L 404.1216 359.288789 
L 404.568 358.829885 
L 405.0144 359.681688 
L 405.4608 360.992659 
L 405.9072 359.362848 
L 406.3536 359.435163 
L 406.8 359.846749 
L 407.2464 359.894545 
L 407.6928 360.162235 
L 408.1392 359.473118 
L 408.5856 360.068283 
L 409.032 360.267053 
L 409.4784 360.618926 
L 409.9248 360.118548 
L 410.3712 360.339486 
L 410.8176 359.039682 
L 411.7104 360.662893 
L 412.6032 359.621724 
L 413.0496 360.236766 
L 413.496 360.034404 
L 413.9424 359.462252 
L 414.3888 359.710876 
L 415.2816 358.853148 
L 415.728 359.803141 
L 416.1744 359.959411 
L 416.6208 358.982941 
L 417.0672 359.761267 
L 417.96 360.132968 
L 418.4064 360.049768 
L 418.8528 359.407625 
L 419.2992 359.885327 
L 419.7456 360.127222 
L 420.192 359.092711 
L 420.6384 359.557902 
L 421.0848 359.131108 
L 421.5312 359.019619 
L 421.9776 361.179303 
L 422.424 360.323418 
L 422.8704 359.904317 
L 423.3168 359.098811 
L 424.2096 359.930547 
L 424.656 359.436824 
L 425.1024 359.700993 
L 425.5488 360.537918 
L 425.9952 358.881897 
L 426.4416 360.467688 
L 426.888 359.147087 
L 427.3344 360.373711 
L 427.7808 359.096726 
L 428.6736 360.609986 
L 429.12 359.816443 
L 429.5664 360.933643 
L 430.0128 360.438909 
L 430.4592 358.91908 
L 430.9056 360.441766 
L 431.352 359.50998 
L 431.7984 360.521095 
L 432.2448 359.263963 
L 432.6912 358.70386 
L 433.1376 360.501053 
L 433.584 360.267764 
L 434.4768 360.311784 
L 435.3696 358.793849 
L 435.816 360.171661 
L 436.2624 359.044527 
L 437.1552 358.980257 
L 437.6016 359.882224 
L 438.048 358.635427 
L 438.4944 359.543793 
L 438.9408 358.815465 
L 439.3872 361.54905 
L 439.8336 358.334632 
L 440.7264 359.55312 
L 441.1728 359.287855 
L 441.6192 359.49804 
L 442.0656 358.946746 
L 442.512 359.885424 
L 442.9584 359.975336 
L 443.4048 359.835337 
L 443.8512 360.501378 
L 444.2976 359.794067 
L 444.744 358.878274 
L 445.6368 359.529681 
L 446.0832 357.819011 
L 446.5296 360.889431 
L 446.976 359.996429 
L 447.4224 359.548448 
L 447.8688 359.744227 
L 448.3152 358.769718 
L 448.7616 359.90883 
L 449.208 360.149343 
L 449.6544 359.127438 
L 450.1008 361.305266 
L 450.9936 359.556886 
L 451.44 359.397488 
L 451.8864 360.036931 
L 452.3328 358.922027 
L 452.7792 360.123635 
L 453.2256 359.375466 
L 453.672 359.864344 
L 454.1184 361.266059 
L 454.5648 361.286222 
L 455.0112 359.678881 
L 455.904 360.52101 
L 456.3504 358.558066 
L 456.7968 360.259917 
L 457.2432 358.81173 
L 457.6896 359.344045 
L 458.136 359.640027 
L 458.5824 359.355633 
L 459.0288 358.726987 
L 459.4752 359.47548 
L 459.9216 360.672446 
L 460.368 359.930495 
L 460.8144 358.818772 
L 461.7072 360.075696 
L 462.1536 359.042058 
L 463.0464 360.470973 
L 463.4928 360.509156 
L 464.3856 358.937957 
L 464.832 359.427316 
L 465.2784 359.504151 
L 465.7248 358.914781 
L 466.1712 361.139093 
L 466.6176 359.557254 
L 467.064 359.686302 
L 467.5104 358.924933 
L 467.9568 361.17504 
L 468.4032 360.623666 
L 468.8496 359.335042 
L 469.296 360.96252 
L 469.7424 360.063995 
L 470.1888 359.457863 
L 470.6352 360.338939 
L 471.0816 358.741527 
L 471.528 358.537055 
L 472.4208 359.09733 
L 472.8672 360.066838 
L 473.3136 359.983622 
L 473.76 358.457135 
L 474.2064 360.365955 
L 474.6528 360.376043 
L 475.0992 360.641695 
L 475.5456 359.147884 
L 475.992 359.229235 
L 476.4384 359.73329 
L 476.8848 359.748306 
L 477.3312 360.639044 
L 477.7776 359.818987 
L 478.224 360.53877 
L 479.1168 359.247898 
L 479.5632 359.663275 
L 480.0096 358.931126 
L 480.456 358.907558 
L 480.9024 360.107023 
L 481.3488 360.063372 
L 481.7952 359.717132 
L 482.2416 360.177913 
L 482.688 358.582357 
L 483.1344 360.289265 
L 483.5808 360.112006 
L 484.0272 359.684706 
L 484.4736 360.24004 
L 484.92 359.98196 
L 485.3664 360.021591 
L 485.8128 359.245096 
L 486.2592 359.758235 
L 486.7056 360.089756 
L 487.152 360.911981 
L 487.5984 359.67211 
L 488.0448 357.900397 
L 488.4912 359.614803 
L 488.9376 359.089678 
L 489.384 359.089228 
L 489.8304 358.853145 
L 490.2768 359.853387 
L 490.7232 359.78778 
L 491.616 360.491611 
L 492.0624 358.800252 
L 492.5088 358.676955 
L 492.9552 359.013604 
L 493.4016 360.076696 
L 493.848 359.933335 
L 494.2944 359.269547 
L 494.7408 361.189259 
L 495.6336 358.017457 
L 496.08 359.838666 
L 496.5264 360.032399 
L 496.9728 359.051457 
L 497.4192 358.800996 
L 497.8656 359.494838 
L 498.312 359.67993 
L 498.7584 360.302341 
L 499.2048 358.790262 
L 500.0976 359.619681 
L 500.544 359.100978 
L 500.9904 359.616017 
L 501.4368 359.933615 
L 501.8832 359.926677 
L 502.3296 360.699697 
L 502.776 360.420084 
L 503.2224 359.255588 
L 503.6688 360.059617 
L 504.1152 358.894446 
L 504.5616 360.09535 
L 505.008 359.980323 
L 505.4544 359.248118 
L 505.9008 359.52644 
L 506.3472 358.32759 
L 506.7936 359.77085 
L 507.24 360.331628 
L 507.6864 359.619686 
L 508.1328 358.610416 
L 508.5792 359.019918 
L 509.0256 360.050238 
L 509.472 359.525031 
L 509.9184 359.96937 
L 510.3648 359.334185 
L 510.8112 360.56595 
L 511.2576 358.91045 
L 511.704 359.22704 
L 512.1504 360.531892 
L 512.5968 359.408886 
L 513.0432 360.306101 
L 513.4896 360.893985 
L 513.936 360.28114 
L 514.8288 359.49339 
L 515.2752 358.467852 
L 515.7216 358.800908 
L 516.168 360.117999 
L 516.6144 358.38571 
L 517.0608 359.500427 
L 517.5072 359.425547 
L 517.9536 359.674211 
L 517.9536 359.674211 
" style="fill:none;stroke:#008000;stroke-linecap:square;"/>
   </g>
   <g id="patch_3">
    <path d="M 72 43.2 
L 518.4 43.2 
" style="fill:none;stroke:#000000;stroke-linecap:square;stroke-linejoin:miter;"/>
   </g>
   <g id="patch_4">
    <path d="M 518.4 388.8 
L 518.4 43.2 
" style="fill:none;stroke:#000000;stroke-linecap:square;stroke-linejoin:miter;"/>
   </g>
   <g id="patch_5">
    <path d="M 72 388.8 
L 518.4 388.8 
" style="fill:none;stroke:#000000;stroke-linecap:square;stroke-linejoin:miter;"/>
   </g>
   <g id="patch_6">
    <path d="M 72 388.8 
L 72 43.2 
" style="fill:none;stroke:#000000;stroke-linecap:square;stroke-linejoin:miter;"/>
   </g>
   <g id="matplotlib.axis_1">
    <g id="xtick_1">
     <g id="line2d_3">
      <defs>
       <path d="M 0 0 
L 0 -4 
" id="m28d5b37c76" style="stroke:#000000;stroke-width:0.5;"/>
      </defs>
      <g>
       <use style="stroke:#000000;stroke-width:0.5;" x="72.0" xlink:href="#m28d5b37c76" y="388.8"/>
      </g>
     </g>
     <g id="line2d_4">
      <defs>
       <path d="M 0 0 
L 0 4 
" id="ma63f60c6d5" style="stroke:#000000;stroke-width:0.5;"/>
      </defs>
      <g>
       <use style="stroke:#000000;stroke-width:0.5;" x="72.0" xlink:href="#ma63f60c6d5" y="43.2"/>
      </g>
     </g>
     <g id="text_1">
      <!-- 0 -->
      <defs>
       <path d="M 31.78125 66.40625 
Q 24.171875 66.40625 20.328125 58.90625 
Q 16.5 51.421875 16.5 36.375 
Q 16.5 21.390625 20.328125 13.890625 
Q 24.171875 6.390625 31.78125 6.390625 
Q 39.453125 6.390625 43.28125 13.890625 
Q 47.125 21.390625 47.125 36.375 
Q 47.125 51.421875 43.28125 58.90625 
Q 39.453125 66.40625 31.78125 66.40625 
M 31.78125 74.21875 
Q 44.046875 74.21875 50.515625 64.515625 
Q 56.984375 54.828125 56.984375 36.375 
Q 56.984375 17.96875 50.515625 8.265625 
Q 44.046875 -1.421875 31.78125 -1.421875 
Q 19.53125 -1.421875 13.0625 8.265625 
Q 6.59375 17.96875 6.59375 36.375 
Q 6.59375 54.828125 13.0625 64.515625 
Q 19.53125 74.21875 31.78125 74.21875 
" id="BitstreamVeraSans-Roman-30"/>
      </defs>
      <g transform="translate(68.1825 401.918125)scale(0.12 -0.12)">
       <use xlink:href="#BitstreamVeraSans-Roman-30"/>
      </g>
     </g>
    </g>
    <g id="xtick_2">
     <g id="line2d_5">
      <g>
       <use style="stroke:#000000;stroke-width:0.5;" x="161.28" xlink:href="#m28d5b37c76" y="388.8"/>
      </g>
     </g>
     <g id="line2d_6">
      <g>
       <use style="stroke:#000000;stroke-width:0.5;" x="161.28" xlink:href="#ma63f60c6d5" y="43.2"/>
      </g>
     </g>
     <g id="text_2">
      <!-- 200 -->
      <defs>
       <path d="M 19.1875 8.296875 
L 53.609375 8.296875 
L 53.609375 0 
L 7.328125 0 
L 7.328125 8.296875 
Q 12.9375 14.109375 22.625 23.890625 
Q 32.328125 33.6875 34.8125 36.53125 
Q 39.546875 41.84375 41.421875 45.53125 
Q 43.3125 49.21875 43.3125 52.78125 
Q 43.3125 58.59375 39.234375 62.25 
Q 35.15625 65.921875 28.609375 65.921875 
Q 23.96875 65.921875 18.8125 64.3125 
Q 13.671875 62.703125 7.8125 59.421875 
L 7.8125 69.390625 
Q 13.765625 71.78125 18.9375 73 
Q 24.125 74.21875 28.421875 74.21875 
Q 39.75 74.21875 46.484375 68.546875 
Q 53.21875 62.890625 53.21875 53.421875 
Q 53.21875 48.921875 51.53125 44.890625 
Q 49.859375 40.875 45.40625 35.40625 
Q 44.1875 33.984375 37.640625 27.21875 
Q 31.109375 20.453125 19.1875 8.296875 
" id="BitstreamVeraSans-Roman-32"/>
      </defs>
      <g transform="translate(149.8275 401.918125)scale(0.12 -0.12)">
       <use xlink:href="#BitstreamVeraSans-Roman-32"/>
       <use x="63.623046875" xlink:href="#BitstreamVeraSans-Roman-30"/>
       <use x="127.24609375" xlink:href="#BitstreamVeraSans-Roman-30"/>
      </g>
     </g>
    </g>
    <g id="xtick_3">
     <g id="line2d_7">
      <g>
       <use style="stroke:#000000;stroke-width:0.5;" x="250.56" xlink:href="#m28d5b37c76" y="388.8"/>
      </g>
     </g>
     <g id="line2d_8">
      <g>
       <use style="stroke:#000000;stroke-width:0.5;" x="250.56" xlink:href="#ma63f60c6d5" y="43.2"/>
      </g>
     </g>
     <g id="text_3">
      <!-- 400 -->
      <defs>
       <path d="M 37.796875 64.3125 
L 12.890625 25.390625 
L 37.796875 25.390625 
z
M 35.203125 72.90625 
L 47.609375 72.90625 
L 47.609375 25.390625 
L 58.015625 25.390625 
L 58.015625 17.1875 
L 47.609375 17.1875 
L 47.609375 0 
L 37.796875 0 
L 37.796875 17.1875 
L 4.890625 17.1875 
L 4.890625 26.703125 
z
" id="BitstreamVeraSans-Roman-34"/>
      </defs>
      <g transform="translate(239.1075 401.918125)scale(0.12 -0.12)">
       <use xlink:href="#BitstreamVeraSans-Roman-34"/>
       <use x="63.623046875" xlink:href="#BitstreamVeraSans-Roman-30"/>
       <use x="127.24609375" xlink:href="#BitstreamVeraSans-Roman-30"/>
      </g>
     </g>
    </g>
    <g id="xtick_4">
     <g id="line2d_9">
      <g>
       <use style="stroke:#000000;stroke-width:0.5;" x="339.84" xlink:href="#m28d5b37c76" y="388.8"/>
      </g>
     </g>
     <g id="line2d_10">
      <g>
       <use style="stroke:#000000;stroke-width:0.5;" x="339.84" xlink:href="#ma63f60c6d5" y="43.2"/>
      </g>
     </g>
     <g id="text_4">
      <!-- 600 -->
      <defs>
       <path d="M 33.015625 40.375 
Q 26.375 40.375 22.484375 35.828125 
Q 18.609375 31.296875 18.609375 23.390625 
Q 18.609375 15.53125 22.484375 10.953125 
Q 26.375 6.390625 33.015625 6.390625 
Q 39.65625 6.390625 43.53125 10.953125 
Q 47.40625 15.53125 47.40625 23.390625 
Q 47.40625 31.296875 43.53125 35.828125 
Q 39.65625 40.375 33.015625 40.375 
M 52.59375 71.296875 
L 52.59375 62.3125 
Q 48.875 64.0625 45.09375 64.984375 
Q 41.3125 65.921875 37.59375 65.921875 
Q 27.828125 65.921875 22.671875 59.328125 
Q 17.53125 52.734375 16.796875 39.40625 
Q 19.671875 43.65625 24.015625 45.921875 
Q 28.375 48.1875 33.59375 48.1875 
Q 44.578125 48.1875 50.953125 41.515625 
Q 57.328125 34.859375 57.328125 23.390625 
Q 57.328125 12.15625 50.6875 5.359375 
Q 44.046875 -1.421875 33.015625 -1.421875 
Q 20.359375 -1.421875 13.671875 8.265625 
Q 6.984375 17.96875 6.984375 36.375 
Q 6.984375 53.65625 15.1875 63.9375 
Q 23.390625 74.21875 37.203125 74.21875 
Q 40.921875 74.21875 44.703125 73.484375 
Q 48.484375 72.75 52.59375 71.296875 
" id="BitstreamVeraSans-Roman-36"/>
      </defs>
      <g transform="translate(328.3875 401.918125)scale(0.12 -0.12)">
       <use xlink:href="#BitstreamVeraSans-Roman-36"/>
       <use x="63.623046875" xlink:href="#BitstreamVeraSans-Roman-30"/>
       <use x="127.24609375" xlink:href="#BitstreamVeraSans-Roman-30"/>
      </g>
     </g>
    </g>
    <g id="xtick_5">
     <g id="line2d_11">
      <g>
       <use style="stroke:#000000;stroke-width:0.5;" x="429.12" xlink:href="#m28d5b37c76" y="388.8"/>
      </g>
     </g>
     <g id="line2d_12">
      <g>
       <use style="stroke:#000000;stroke-width:0.5;" x="429.12" xlink:href="#ma63f60c6d5" y="43.2"/>
      </g>
     </g>
     <g id="text_5">
      <!-- 800 -->
      <defs>
       <path d="M 31.78125 34.625 
Q 24.75 34.625 20.71875 30.859375 
Q 16.703125 27.09375 16.703125 20.515625 
Q 16.703125 13.921875 20.71875 10.15625 
Q 24.75 6.390625 31.78125 6.390625 
Q 38.8125 6.390625 42.859375 10.171875 
Q 46.921875 13.96875 46.921875 20.515625 
Q 46.921875 27.09375 42.890625 30.859375 
Q 38.875 34.625 31.78125 34.625 
M 21.921875 38.8125 
Q 15.578125 40.375 12.03125 44.71875 
Q 8.5 49.078125 8.5 55.328125 
Q 8.5 64.0625 14.71875 69.140625 
Q 20.953125 74.21875 31.78125 74.21875 
Q 42.671875 74.21875 48.875 69.140625 
Q 55.078125 64.0625 55.078125 55.328125 
Q 55.078125 49.078125 51.53125 44.71875 
Q 48 40.375 41.703125 38.8125 
Q 48.828125 37.15625 52.796875 32.3125 
Q 56.78125 27.484375 56.78125 20.515625 
Q 56.78125 9.90625 50.3125 4.234375 
Q 43.84375 -1.421875 31.78125 -1.421875 
Q 19.734375 -1.421875 13.25 4.234375 
Q 6.78125 9.90625 6.78125 20.515625 
Q 6.78125 27.484375 10.78125 32.3125 
Q 14.796875 37.15625 21.921875 38.8125 
M 18.3125 54.390625 
Q 18.3125 48.734375 21.84375 45.5625 
Q 25.390625 42.390625 31.78125 42.390625 
Q 38.140625 42.390625 41.71875 45.5625 
Q 45.3125 48.734375 45.3125 54.390625 
Q 45.3125 60.0625 41.71875 63.234375 
Q 38.140625 66.40625 31.78125 66.40625 
Q 25.390625 66.40625 21.84375 63.234375 
Q 18.3125 60.0625 18.3125 54.390625 
" id="BitstreamVeraSans-Roman-38"/>
      </defs>
      <g transform="translate(417.6675 401.918125)scale(0.12 -0.12)">
       <use xlink:href="#BitstreamVeraSans-Roman-38"/>
       <use x="63.623046875" xlink:href="#BitstreamVeraSans-Roman-30"/>
       <use x="127.24609375" xlink:href="#BitstreamVeraSans-Roman-30"/>
      </g>
     </g>
    </g>
    <g id="xtick_6">
     <g id="line2d_13">
      <g>
       <use style="stroke:#000000;stroke-width:0.5;" x="518.4" xlink:href="#m28d5b37c76" y="388.8"/>
      </g>
     </g>
     <g id="line2d_14">
      <g>
       <use style="stroke:#000000;stroke-width:0.5;" x="518.4" xlink:href="#ma63f60c6d5" y="43.2"/>
      </g>
     </g>
     <g id="text_6">
      <!-- 1000 -->
      <defs>
       <path d="M 12.40625 8.296875 
L 28.515625 8.296875 
L 28.515625 63.921875 
L 10.984375 60.40625 
L 10.984375 69.390625 
L 28.421875 72.90625 
L 38.28125 72.90625 
L 38.28125 8.296875 
L 54.390625 8.296875 
L 54.390625 0 
L 12.40625 0 
z
" id="BitstreamVeraSans-Roman-31"/>
      </defs>
      <g transform="translate(503.13 401.918125)scale(0.12 -0.12)">
       <use xlink:href="#BitstreamVeraSans-Roman-31"/>
       <use x="63.623046875" xlink:href="#BitstreamVeraSans-Roman-30"/>
       <use x="127.24609375" xlink:href="#BitstreamVeraSans-Roman-30"/>
       <use x="190.869140625" xlink:href="#BitstreamVeraSans-Roman-30"/>
      </g>
     </g>
    </g>
   </g>
   <g id="matplotlib.axis_2">
    <g id="ytick_1">
     <g id="line2d_15">
      <defs>
       <path d="M 0 0 
L 4 0 
" id="mdab6e05b8d" style="stroke:#000000;stroke-width:0.5;"/>
      </defs>
      <g>
       <use style="stroke:#000000;stroke-width:0.5;" x="72.0" xlink:href="#mdab6e05b8d" y="388.8"/>
      </g>
     </g>
     <g id="line2d_16">
      <defs>
       <path d="M 0 0 
L -4 0 
" id="mde777e6a44" style="stroke:#000000;stroke-width:0.5;"/>
      </defs>
      <g>
       <use style="stroke:#000000;stroke-width:0.5;" x="518.4" xlink:href="#mde777e6a44" y="388.8"/>
      </g>
     </g>
     <g id="text_7">
      <!-- 0 -->
      <g transform="translate(60.365 392.11125)scale(0.12 -0.12)">
       <use xlink:href="#BitstreamVeraSans-Roman-30"/>
      </g>
     </g>
    </g>
    <g id="ytick_2">
     <g id="line2d_17">
      <g>
       <use style="stroke:#000000;stroke-width:0.5;" x="72.0" xlink:href="#mdab6e05b8d" y="331.2"/>
      </g>
     </g>
     <g id="line2d_18">
      <g>
       <use style="stroke:#000000;stroke-width:0.5;" x="518.4" xlink:href="#mde777e6a44" y="331.2"/>
      </g>
     </g>
     <g id="text_8">
      <!-- 20 -->
      <g transform="translate(52.73 334.51125)scale(0.12 -0.12)">
       <use xlink:href="#BitstreamVeraSans-Roman-32"/>
       <use x="63.623046875" xlink:href="#BitstreamVeraSans-Roman-30"/>
      </g>
     </g>
    </g>
    <g id="ytick_3">
     <g id="line2d_19">
      <g>
       <use style="stroke:#000000;stroke-width:0.5;" x="72.0" xlink:href="#mdab6e05b8d" y="273.6"/>
      </g>
     </g>
     <g id="line2d_20">
      <g>
       <use style="stroke:#000000;stroke-width:0.5;" x="518.4" xlink:href="#mde777e6a44" y="273.6"/>
      </g>
     </g>
     <g id="text_9">
      <!-- 40 -->
      <g transform="translate(52.73 276.91125)scale(0.12 -0.12)">
       <use xlink:href="#BitstreamVeraSans-Roman-34"/>
       <use x="63.623046875" xlink:href="#BitstreamVeraSans-Roman-30"/>
      </g>
     </g>
    </g>
    <g id="ytick_4">
     <g id="line2d_21">
      <g>
       <use style="stroke:#000000;stroke-width:0.5;" x="72.0" xlink:href="#mdab6e05b8d" y="216.0"/>
      </g>
     </g>
     <g id="line2d_22">
      <g>
       <use style="stroke:#000000;stroke-width:0.5;" x="518.4" xlink:href="#mde777e6a44" y="216.0"/>
      </g>
     </g>
     <g id="text_10">
      <!-- 60 -->
      <g transform="translate(52.73 219.31125)scale(0.12 -0.12)">
       <use xlink:href="#BitstreamVeraSans-Roman-36"/>
       <use x="63.623046875" xlink:href="#BitstreamVeraSans-Roman-30"/>
      </g>
     </g>
    </g>
    <g id="ytick_5">
     <g id="line2d_23">
      <g>
       <use style="stroke:#000000;stroke-width:0.5;" x="72.0" xlink:href="#mdab6e05b8d" y="158.4"/>
      </g>
     </g>
     <g id="line2d_24">
      <g>
       <use style="stroke:#000000;stroke-width:0.5;" x="518.4" xlink:href="#mde777e6a44" y="158.4"/>
      </g>
     </g>
     <g id="text_11">
      <!-- 80 -->
      <g transform="translate(52.73 161.71125)scale(0.12 -0.12)">
       <use xlink:href="#BitstreamVeraSans-Roman-38"/>
       <use x="63.623046875" xlink:href="#BitstreamVeraSans-Roman-30"/>
      </g>
     </g>
    </g>
    <g id="ytick_6">
     <g id="line2d_25">
      <g>
       <use style="stroke:#000000;stroke-width:0.5;" x="72.0" xlink:href="#mdab6e05b8d" y="100.8"/>
      </g>
     </g>
     <g id="line2d_26">
      <g>
       <use style="stroke:#000000;stroke-width:0.5;" x="518.4" xlink:href="#mde777e6a44" y="100.8"/>
      </g>
     </g>
     <g id="text_12">
      <!-- 100 -->
      <g transform="translate(45.095 104.11125)scale(0.12 -0.12)">
       <use xlink:href="#BitstreamVeraSans-Roman-31"/>
       <use x="63.623046875" xlink:href="#BitstreamVeraSans-Roman-30"/>
       <use x="127.24609375" xlink:href="#BitstreamVeraSans-Roman-30"/>
      </g>
     </g>
    </g>
    <g id="ytick_7">
     <g id="line2d_27">
      <g>
       <use style="stroke:#000000;stroke-width:0.5;" x="72.0" xlink:href="#mdab6e05b8d" y="43.2"/>
      </g>
     </g>
     <g id="line2d_28">
      <g>
       <use style="stroke:#000000;stroke-width:0.5;" x="518.4" xlink:href="#mde777e6a44" y="43.2"/>
      </g>
     </g>
     <g id="text_13">
      <!-- 120 -->
      <g transform="translate(45.095 46.51125)scale(0.12 -0.12)">
       <use xlink:href="#BitstreamVeraSans-Roman-31"/>
       <use x="63.623046875" xlink:href="#BitstreamVeraSans-Roman-32"/>
       <use x="127.24609375" xlink:href="#BitstreamVeraSans-Roman-30"/>
      </g>
     </g>
    </g>
   </g>
   <g id="legend_1">
    <g id="patch_7">
     <path d="M 437.4225 96.993 
L 511.2 96.993 
L 511.2 50.4 
L 437.4225 50.4 
z
" style="fill:#ffffff;stroke:#000000;stroke-linejoin:miter;"/>
    </g>
    <g id="line2d_29">
     <path d="M 447.5025 62.06175 
L 467.6625 62.06175 
" style="fill:none;stroke:#0000ff;stroke-linecap:square;"/>
    </g>
    <g id="line2d_30"/>
    <g id="text_14">
     <!-- sig -->
     <defs>
      <path d="M 45.40625 27.984375 
Q 45.40625 37.75 41.375 43.109375 
Q 37.359375 48.484375 30.078125 48.484375 
Q 22.859375 48.484375 18.828125 43.109375 
Q 14.796875 37.75 14.796875 27.984375 
Q 14.796875 18.265625 18.828125 12.890625 
Q 22.859375 7.515625 30.078125 7.515625 
Q 37.359375 7.515625 41.375 12.890625 
Q 45.40625 18.265625 45.40625 27.984375 
M 54.390625 6.78125 
Q 54.390625 -7.171875 48.1875 -13.984375 
Q 42 -20.796875 29.203125 -20.796875 
Q 24.46875 -20.796875 20.265625 -20.09375 
Q 16.0625 -19.390625 12.109375 -17.921875 
L 12.109375 -9.1875 
Q 16.0625 -11.328125 19.921875 -12.34375 
Q 23.78125 -13.375 27.78125 -13.375 
Q 36.625 -13.375 41.015625 -8.765625 
Q 45.40625 -4.15625 45.40625 5.171875 
L 45.40625 9.625 
Q 42.625 4.78125 38.28125 2.390625 
Q 33.9375 0 27.875 0 
Q 17.828125 0 11.671875 7.65625 
Q 5.515625 15.328125 5.515625 27.984375 
Q 5.515625 40.671875 11.671875 48.328125 
Q 17.828125 56 27.875 56 
Q 33.9375 56 38.28125 53.609375 
Q 42.625 51.21875 45.40625 46.390625 
L 45.40625 54.6875 
L 54.390625 54.6875 
z
" id="BitstreamVeraSans-Roman-67"/>
      <path d="M 9.421875 54.6875 
L 18.40625 54.6875 
L 18.40625 0 
L 9.421875 0 
z
M 9.421875 75.984375 
L 18.40625 75.984375 
L 18.40625 64.59375 
L 9.421875 64.59375 
z
" id="BitstreamVeraSans-Roman-69"/>
      <path d="M 44.28125 53.078125 
L 44.28125 44.578125 
Q 40.484375 46.53125 36.375 47.5 
Q 32.28125 48.484375 27.875 48.484375 
Q 21.1875 48.484375 17.84375 46.4375 
Q 14.5 44.390625 14.5 40.28125 
Q 14.5 37.15625 16.890625 35.375 
Q 19.28125 33.59375 26.515625 31.984375 
L 29.59375 31.296875 
Q 39.15625 29.25 43.1875 25.515625 
Q 47.21875 21.78125 47.21875 15.09375 
Q 47.21875 7.46875 41.1875 3.015625 
Q 35.15625 -1.421875 24.609375 -1.421875 
Q 20.21875 -1.421875 15.453125 -0.5625 
Q 10.6875 0.296875 5.421875 2 
L 5.421875 11.28125 
Q 10.40625 8.6875 15.234375 7.390625 
Q 20.0625 6.109375 24.8125 6.109375 
Q 31.15625 6.109375 34.5625 8.28125 
Q 37.984375 10.453125 37.984375 14.40625 
Q 37.984375 18.0625 35.515625 20.015625 
Q 33.0625 21.96875 24.703125 23.78125 
L 21.578125 24.515625 
Q 13.234375 26.265625 9.515625 29.90625 
Q 5.8125 33.546875 5.8125 39.890625 
Q 5.8125 47.609375 11.28125 51.796875 
Q 16.75 56 26.8125 56 
Q 31.78125 56 36.171875 55.265625 
Q 40.578125 54.546875 44.28125 53.078125 
" id="BitstreamVeraSans-Roman-73"/>
     </defs>
     <g transform="translate(483.5025 67.10175)scale(0.144 -0.144)">
      <use xlink:href="#BitstreamVeraSans-Roman-73"/>
      <use x="52.099609375" xlink:href="#BitstreamVeraSans-Roman-69"/>
      <use x="79.8828125" xlink:href="#BitstreamVeraSans-Roman-67"/>
     </g>
    </g>
    <g id="line2d_31">
     <path d="M 447.5025 83.19825 
L 467.6625 83.19825 
" style="fill:none;stroke:#008000;stroke-linecap:square;"/>
    </g>
    <g id="line2d_32"/>
    <g id="text_15">
     <!-- noi -->
     <defs>
      <path d="M 54.890625 33.015625 
L 54.890625 0 
L 45.90625 0 
L 45.90625 32.71875 
Q 45.90625 40.484375 42.875 44.328125 
Q 39.84375 48.1875 33.796875 48.1875 
Q 26.515625 48.1875 22.3125 43.546875 
Q 18.109375 38.921875 18.109375 30.90625 
L 18.109375 0 
L 9.078125 0 
L 9.078125 54.6875 
L 18.109375 54.6875 
L 18.109375 46.1875 
Q 21.34375 51.125 25.703125 53.5625 
Q 30.078125 56 35.796875 56 
Q 45.21875 56 50.046875 50.171875 
Q 54.890625 44.34375 54.890625 33.015625 
" id="BitstreamVeraSans-Roman-6e"/>
      <path d="M 30.609375 48.390625 
Q 23.390625 48.390625 19.1875 42.75 
Q 14.984375 37.109375 14.984375 27.296875 
Q 14.984375 17.484375 19.15625 11.84375 
Q 23.34375 6.203125 30.609375 6.203125 
Q 37.796875 6.203125 41.984375 11.859375 
Q 46.1875 17.53125 46.1875 27.296875 
Q 46.1875 37.015625 41.984375 42.703125 
Q 37.796875 48.390625 30.609375 48.390625 
M 30.609375 56 
Q 42.328125 56 49.015625 48.375 
Q 55.71875 40.765625 55.71875 27.296875 
Q 55.71875 13.875 49.015625 6.21875 
Q 42.328125 -1.421875 30.609375 -1.421875 
Q 18.84375 -1.421875 12.171875 6.21875 
Q 5.515625 13.875 5.515625 27.296875 
Q 5.515625 40.765625 12.171875 48.375 
Q 18.84375 56 30.609375 56 
" id="BitstreamVeraSans-Roman-6f"/>
     </defs>
     <g transform="translate(483.5025 88.23825)scale(0.144 -0.144)">
      <use xlink:href="#BitstreamVeraSans-Roman-6e"/>
      <use x="63.37890625" xlink:href="#BitstreamVeraSans-Roman-6f"/>
      <use x="124.560546875" xlink:href="#BitstreamVeraSans-Roman-69"/>
     </g>
    </g>
   </g>
  </g>
 </g>
 <defs>
  <clipPath id="p5da6cc8cf4">
   <rect height="345.6" width="446.4" x="72.0" y="43.2"/>
  </clipPath>
 </defs>
</svg>
