<?xml version="1.0" encoding="utf-8" standalone="no"?>
<!DOCTYPE svg PUBLIC "-//W3C//DTD SVG 1.1//EN"
  "http://www.w3.org/Graphics/SVG/1.1/DTD/svg11.dtd">
<!-- Created with matplotlib (http://matplotlib.org/) -->
<svg height="432pt" version="1.1" viewBox="0 0 576 432" width="576pt" xmlns="http://www.w3.org/2000/svg" xmlns:xlink="http://www.w3.org/1999/xlink">
 <defs>
  <style type="text/css">
*{stroke-linecap:butt;stroke-linejoin:round;stroke-miterlimit:100000;}
  </style>
 </defs>
 <g id="figure_1">
  <g id="patch_1">
   <path d="M 0 432 
L 576 432 
L 576 0 
L 0 0 
z
" style="fill:#ffffff;"/>
  </g>
  <g id="axes_1">
   <g id="patch_2">
    <path d="M 72 388.8 
L 518.4 388.8 
L 518.4 43.2 
L 72 43.2 
z
" style="fill:#ffffff;"/>
   </g>
   <g id="line2d_1">
    <path clip-path="url(#p57334c7ab0)" d="M 72 61.294515 
L 72.8928 201.0634 
L 73.7856 182.781793 
L 74.6784 175.025127 
L 75.5712 187.600743 
L 76.464 165.465703 
L 77.3568 170.725215 
L 78.2496 186.201519 
L 79.1424 186.773324 
L 80.0352 183.055551 
L 81.8208 240.07344 
L 82.7136 219.470911 
L 83.6064 229.756635 
L 84.4992 251.704534 
L 85.392 254.680565 
L 86.2848 245.948148 
L 87.1776 231.74861 
L 88.0704 209.440272 
L 88.9632 172.812557 
L 89.856 180.779815 
L 90.7488 213.851437 
L 91.6416 230.713748 
L 92.5344 250.484095 
L 93.4272 253.389051 
L 95.2128 225.251982 
L 96.1056 215.402305 
L 96.9984 198.336588 
L 97.8912 193.462548 
L 98.784 210.79726 
L 99.6768 242.111887 
L 100.5696 253.448921 
L 101.4624 251.8689 
L 102.3552 261.376249 
L 103.248 256.108035 
L 104.1408 244.069503 
L 105.0336 214.873297 
L 105.9264 210.422153 
L 106.8192 220.025017 
L 107.712 252.654848 
L 108.6048 272.776028 
L 109.4976 281.65166 
L 110.3904 286.065972 
L 111.2832 283.461207 
L 112.176 265.191375 
L 113.0688 260.534147 
L 113.9616 256.50033 
L 115.7472 281.418648 
L 116.64 283.417751 
L 117.5328 294.092202 
L 118.4256 301.515463 
L 119.3184 292.934913 
L 120.2112 280.816595 
L 121.104 274.272003 
L 121.9968 278.40019 
L 122.8896 294.666998 
L 123.7824 314.343446 
L 124.6752 310.847973 
L 125.568 313.95804 
L 126.4608 303.013136 
L 128.2464 277.565801 
L 129.1392 274.121636 
L 130.032 282.040963 
L 130.9248 287.591182 
L 131.8176 304.620331 
L 132.7104 313.566685 
L 133.6032 313.515549 
L 134.496 318.220181 
L 135.3888 306.357525 
L 137.1744 300.285038 
L 138.0672 296.081581 
L 138.96 293.902506 
L 139.8528 301.7558 
L 140.7456 298.866253 
L 141.6384 310.110573 
L 142.5312 310.173063 
L 143.424 309.22335 
L 144.3168 313.241149 
L 145.2096 310.776592 
L 146.1024 317.81687 
L 146.9952 317.410617 
L 147.888 323.119451 
L 148.7808 327.530154 
L 149.6736 322.179115 
L 150.5664 317.737183 
L 151.4592 315.054355 
L 152.352 309.186205 
L 153.2448 314.290909 
L 154.1376 316.575025 
L 155.0304 322.552565 
L 155.9232 320.255921 
L 156.816 319.072039 
L 157.7088 322.398383 
L 158.6016 320.295645 
L 159.4944 325.548306 
L 160.3872 322.735335 
L 162.1728 323.463481 
L 163.0656 328.948697 
L 163.9584 330.655634 
L 164.8512 328.586531 
L 165.744 334.697905 
L 166.6368 329.490868 
L 167.5296 332.385911 
L 168.4224 325.079786 
L 169.3152 329.694357 
L 170.208 332.164488 
L 171.1008 327.801127 
L 171.9936 328.931331 
L 172.8864 323.595556 
L 173.7792 319.867042 
L 174.672 324.426959 
L 175.5648 337.895813 
L 176.4576 337.818182 
L 177.3504 343.612956 
L 178.2432 343.822576 
L 179.136 346.16785 
L 180.0288 341.948598 
L 180.9216 331.406535 
L 181.8144 330.278884 
L 182.7072 325.682869 
L 183.6 323.726288 
L 184.4928 332.829424 
L 185.3856 336.859137 
L 186.2784 342.894471 
L 187.1712 346.051538 
L 188.064 339.622056 
L 188.9568 337.923927 
L 189.8496 331.204261 
L 190.7424 327.367642 
L 192.528 332.160401 
L 193.4208 343.378618 
L 194.3136 344.914342 
L 195.2064 339.106075 
L 196.0992 343.612297 
L 196.992 341.129266 
L 197.8848 339.424846 
L 198.7776 333.564376 
L 199.6704 331.191226 
L 200.5632 331.757894 
L 201.456 329.939094 
L 202.3488 338.07843 
L 203.2416 339.144538 
L 204.1344 341.300064 
L 205.0272 340.431034 
L 205.92 342.873658 
L 206.8128 341.797695 
L 207.7056 341.331358 
L 208.5984 341.025907 
L 209.4912 341.532062 
L 210.384 343.425403 
L 211.2768 342.019616 
L 212.1696 346.011575 
L 213.0624 345.038255 
L 213.9552 343.286679 
L 214.848 337.686873 
L 215.7408 338.631503 
L 216.6336 342.610356 
L 217.5264 344.263225 
L 218.4192 349.235652 
L 219.312 348.944361 
L 220.2048 346.48312 
L 221.0976 341.257786 
L 221.9904 340.984943 
L 222.8832 335.707118 
L 223.776 337.069086 
L 224.6688 340.817182 
L 225.5616 345.260143 
L 226.4544 347.813229 
L 227.3472 347.32738 
L 228.24 344.334062 
L 229.1328 343.984738 
L 230.9184 338.577314 
L 231.8112 345.294165 
L 232.704 343.089267 
L 233.5968 346.843233 
L 234.4896 345.281155 
L 235.3824 349.232949 
L 236.2752 346.85729 
L 237.168 347.557278 
L 238.0608 345.699977 
L 238.9536 345.117946 
L 239.8464 343.129448 
L 240.7392 346.955282 
L 242.5248 347.571771 
L 243.4176 345.356516 
L 244.3104 350.70339 
L 245.2032 346.65786 
L 246.096 349.952889 
L 246.9888 348.36661 
L 247.8816 347.880531 
L 248.7744 347.140853 
L 249.6672 350.481872 
L 250.56 348.239063 
L 251.4528 349.116007 
L 252.3456 349.306419 
L 253.2384 348.478613 
L 254.1312 348.255823 
L 255.024 346.255443 
L 255.9168 348.118553 
L 256.8096 349.139795 
L 257.7024 348.458829 
L 258.5952 346.371471 
L 259.488 344.917395 
L 260.3808 345.802137 
L 261.2736 345.200801 
L 262.1664 345.869951 
L 263.0592 349.681978 
L 263.952 346.930311 
L 264.8448 348.622537 
L 265.7376 346.465198 
L 266.6304 347.317019 
L 267.5232 344.52983 
L 268.416 346.51275 
L 269.3088 344.470368 
L 270.2016 348.954252 
L 271.0944 347.82069 
L 271.9872 347.510105 
L 272.88 347.729694 
L 273.7728 347.590611 
L 274.6656 344.440004 
L 275.5584 346.237732 
L 276.4512 345.971312 
L 277.344 346.076051 
L 278.2368 349.236991 
L 279.1296 349.698936 
L 280.0224 352.816493 
L 280.9152 352.241812 
L 281.808 348.082125 
L 282.7008 349.438115 
L 283.5936 344.376604 
L 284.4864 348.977554 
L 285.3792 352.301118 
L 286.272 351.574088 
L 287.1648 355.428744 
L 288.0576 354.515308 
L 288.9504 353.243139 
L 289.8432 352.767846 
L 290.736 350.39636 
L 291.6288 346.44663 
L 292.5216 346.245061 
L 293.4144 348.14918 
L 294.3072 348.539641 
L 295.2 349.768941 
L 296.0928 349.722584 
L 296.9856 348.273921 
L 298.7712 351.907896 
L 299.664 349.973888 
L 300.5568 352.296536 
L 301.4496 351.907431 
L 302.3424 349.200118 
L 303.2352 347.026704 
L 304.128 344.144943 
L 305.0208 344.255933 
L 305.9136 348.397715 
L 306.8064 351.363628 
L 307.6992 355.888238 
L 309.4848 345.149245 
L 310.3776 346.035405 
L 311.2704 341.028881 
L 313.056 347.205341 
L 313.9488 351.374492 
L 314.8416 352.58157 
L 315.7344 352.942232 
L 316.6272 353.722684 
L 317.52 348.662862 
L 318.4128 345.41302 
L 319.3056 342.847558 
L 320.1984 345.725541 
L 321.0912 347.519816 
L 321.984 351.921789 
L 322.8768 350.594576 
L 324.6624 352.653907 
L 325.5552 351.839688 
L 326.448 348.303741 
L 327.3408 348.536209 
L 328.2336 351.009645 
L 329.1264 350.913054 
L 330.0192 351.962196 
L 330.912 348.360986 
L 331.8048 349.234577 
L 332.6976 343.399568 
L 333.5904 344.96954 
L 334.4832 348.885512 
L 335.376 350.000317 
L 336.2688 354.049621 
L 337.1616 352.356979 
L 338.0544 352.106174 
L 338.9472 348.330363 
L 339.84 345.929586 
L 340.7328 341.168722 
L 341.6256 344.476486 
L 342.5184 351.410826 
L 343.4112 352.014296 
L 344.304 355.361718 
L 345.1968 359.20777 
L 346.0896 358.090196 
L 346.9824 350.742182 
L 347.8752 347.43575 
L 348.768 341.759673 
L 349.6608 339.532181 
L 350.5536 342.751083 
L 351.4464 349.945292 
L 352.3392 354.816508 
L 353.232 356.530262 
L 354.1248 352.01629 
L 355.0176 351.866174 
L 355.9104 350.388809 
L 357.696 340.384834 
L 358.5888 344.165312 
L 359.4816 349.083921 
L 360.3744 355.220276 
L 361.2672 353.536466 
L 362.16 351.39358 
L 363.0528 352.622188 
L 363.9456 350.781305 
L 364.8384 346.897851 
L 365.7312 345.073806 
L 366.624 345.135954 
L 367.5168 346.070411 
L 368.4096 351.414278 
L 369.3024 351.040342 
L 370.1952 351.92412 
L 371.088 351.452605 
L 371.9808 352.364176 
L 372.8736 351.687524 
L 373.7664 347.711208 
L 374.6592 350.560764 
L 375.552 350.269209 
L 376.4448 352.855088 
L 377.3376 352.508693 
L 378.2304 354.624316 
L 379.1232 353.031275 
L 380.016 357.006542 
L 380.9088 352.312699 
L 381.8016 352.094399 
L 382.6944 352.040643 
L 383.5872 351.766667 
L 384.48 348.85566 
L 385.3728 351.808175 
L 386.2656 352.351215 
L 387.1584 352.301826 
L 388.0512 351.742558 
L 388.944 349.353719 
L 389.8368 345.476643 
L 390.7296 346.503332 
L 391.6224 350.482478 
L 392.5152 350.827237 
L 393.408 352.814042 
L 394.3008 356.842748 
L 395.1936 355.411686 
L 396.9792 351.611101 
L 398.7648 346.738107 
L 399.6576 348.660349 
L 400.5504 350.093385 
L 401.4432 352.753022 
L 402.336 350.580564 
L 403.2288 350.825948 
L 404.1216 353.081714 
L 405.0144 352.329388 
L 405.9072 351.035134 
L 406.8 350.069098 
L 407.6928 350.245054 
L 408.5856 348.399075 
L 409.4784 345.952694 
L 410.3712 344.259146 
L 412.1568 351.560262 
L 413.0496 351.725856 
L 413.9424 351.29858 
L 414.8352 355.033794 
L 415.728 354.058993 
L 416.6208 354.138519 
L 417.5136 351.288659 
L 418.4064 352.045681 
L 419.2992 351.448815 
L 420.192 354.209826 
L 421.0848 352.773387 
L 421.9776 354.682071 
L 422.8704 351.263907 
L 423.7632 349.022527 
L 424.656 349.536209 
L 425.5488 348.664221 
L 426.4416 350.782792 
L 427.3344 349.719119 
L 428.2272 350.899792 
L 429.12 350.380742 
L 430.0128 347.950367 
L 430.9056 347.663175 
L 431.7984 347.506751 
L 432.6912 351.401997 
L 433.584 352.768975 
L 434.4768 354.934225 
L 435.3696 353.501801 
L 436.2624 354.015714 
L 437.1552 347.248019 
L 438.048 345.450597 
L 438.9408 348.028533 
L 439.8336 352.907575 
L 440.7264 354.237784 
L 441.6192 355.272897 
L 442.512 356.693862 
L 443.4048 352.27878 
L 444.2976 350.1126 
L 445.1904 346.72536 
L 446.0832 346.149793 
L 446.976 349.500951 
L 447.8688 351.08875 
L 449.6544 356.77641 
L 450.5472 352.84717 
L 451.44 354.31473 
L 452.3328 352.944246 
L 453.2256 352.119901 
L 454.1184 349.154725 
L 455.0112 349.41815 
L 455.904 350.116267 
L 457.6896 353.562475 
L 458.5824 350.692851 
L 459.4752 350.427634 
L 460.368 351.32278 
L 461.2608 356.111677 
L 462.1536 355.517954 
L 463.0464 355.905634 
L 463.9392 356.055863 
L 464.832 351.773692 
L 465.7248 348.706425 
L 466.6176 345.182352 
L 467.5104 345.89357 
L 468.4032 351.214802 
L 469.296 355.171485 
L 470.1888 351.788494 
L 471.0816 354.868417 
L 471.9744 352.917859 
L 472.8672 355.507819 
L 473.76 354.388206 
L 474.6528 351.093373 
L 475.5456 351.563702 
L 476.4384 348.778795 
L 477.3312 349.901283 
L 478.224 355.095236 
L 480.0096 357.561454 
L 480.9024 358.23674 
L 481.7952 356.547846 
L 482.688 356.06702 
L 484.4736 347.066634 
L 485.3664 344.781711 
L 487.152 354.811216 
L 488.0448 355.098252 
L 488.9376 357.625681 
L 490.7232 355.610451 
L 491.616 350.520879 
L 492.5088 346.434015 
L 493.4016 345.280323 
L 494.2944 348.522696 
L 495.1872 353.686281 
L 496.08 354.699871 
L 496.9728 358.060933 
L 497.8656 357.782512 
L 498.7584 358.564839 
L 499.6512 356.101202 
L 500.544 350.954484 
L 501.4368 349.022506 
L 502.3296 348.292605 
L 503.2224 348.438716 
L 504.1152 353.218877 
L 505.008 354.369609 
L 505.9008 353.932522 
L 506.7936 356.62533 
L 507.6864 353.301007 
L 508.5792 353.10102 
L 509.472 347.695194 
L 510.3648 344.704776 
L 511.2576 347.614816 
L 513.0432 355.430223 
L 513.936 357.696403 
L 514.8288 356.233557 
L 515.7216 357.449216 
L 516.6144 355.690871 
L 517.5072 353.055664 
L 517.5072 353.055664 
" style="fill:none;stroke:#0000ff;stroke-linecap:square;"/>
   </g>
   <g id="line2d_2">
    <path clip-path="url(#p57334c7ab0)" d="M 72 97.344492 
L 72.8928 198.962891 
L 73.7856 181.472498 
L 74.6784 174.412386 
L 75.5712 187.245626 
L 76.464 165.155757 
L 77.3568 170.205897 
L 78.2496 185.474147 
L 79.1424 185.566349 
L 80.0352 181.475859 
L 81.8208 239.701135 
L 82.7136 222.351493 
L 83.6064 240.823405 
L 84.4992 261.647732 
L 87.1776 214.785791 
L 88.0704 239.713363 
L 88.9632 209.484042 
L 89.856 223.442336 
L 90.7488 218.834308 
L 91.6416 196.830544 
L 92.5344 197.768079 
L 93.4272 196.074778 
L 94.32 197.187473 
L 95.2128 176.91951 
L 96.1056 208.339871 
L 96.9984 176.543778 
L 97.8912 184.414252 
L 98.784 200.612752 
L 99.6768 190.060258 
L 100.5696 187.453663 
L 101.4624 175.450034 
L 103.248 181.51541 
L 104.1408 163.262527 
L 105.0336 164.564802 
L 105.9264 172.58575 
L 106.8192 166.476324 
L 107.712 184.109117 
L 108.6048 183.103802 
L 109.4976 176.115542 
L 110.3904 188.883094 
L 111.2832 195.494996 
L 112.176 170.494898 
L 113.0688 191.880945 
L 113.9616 170.785778 
L 114.8544 180.855044 
L 115.7472 173.821745 
L 116.64 192.710374 
L 117.5328 191.082448 
L 118.4256 192.738884 
L 119.3184 174.599643 
L 120.2112 170.76175 
L 121.9968 215.496453 
L 122.8896 192.237512 
L 123.7824 210.202548 
L 124.6752 180.367399 
L 125.568 198.920259 
L 126.4608 160.06567 
L 127.3536 171.820887 
L 128.2464 192.270817 
L 129.1392 195.176547 
L 130.032 176.156971 
L 130.9248 179.951012 
L 131.8176 179.097968 
L 132.7104 202.424557 
L 133.6032 170.537794 
L 134.496 177.254769 
L 135.3888 180.494703 
L 136.2816 203.916231 
L 137.1744 181.819226 
L 138.0672 184.902374 
L 138.96 169.627484 
L 139.8528 189.661388 
L 140.7456 150.533817 
L 141.6384 177.244074 
L 142.5312 170.114733 
L 143.424 170.950292 
L 144.3168 172.117683 
L 145.2096 180.787577 
L 146.1024 203.145568 
L 146.9952 192.969712 
L 147.888 189.896748 
L 148.7808 197.682946 
L 149.6736 193.645371 
L 150.5664 176.60556 
L 151.4592 205.845189 
L 152.352 181.269586 
L 153.2448 198.532002 
L 154.1376 181.561388 
L 155.0304 190.872795 
L 155.9232 179.4678 
L 156.816 156.233216 
L 157.7088 207.950229 
L 158.6016 173.851194 
L 159.4944 199.522947 
L 160.3872 171.083661 
L 161.28 181.240466 
L 162.1728 187.949515 
L 163.0656 199.394637 
L 163.9584 184.832567 
L 164.8512 186.984196 
L 165.744 196.452274 
L 166.6368 176.8735 
L 167.5296 206.144225 
L 168.4224 161.304598 
L 169.3152 186.529411 
L 170.208 192.616622 
L 171.1008 171.201885 
L 171.9936 170.764733 
L 173.7792 161.014905 
L 174.672 200.852117 
L 175.5648 209.007784 
L 176.4576 178.96712 
L 177.3504 192.999985 
L 178.2432 198.639086 
L 179.136 217.824379 
L 180.0288 187.979557 
L 180.9216 188.535081 
L 181.8144 180.858109 
L 182.7072 176.950937 
L 183.6 166.923875 
L 184.4928 200.214921 
L 185.3856 174.843474 
L 186.2784 191.431879 
L 187.1712 197.148054 
L 188.064 176.189535 
L 188.9568 178.744021 
L 189.8496 172.788135 
L 190.7424 196.22606 
L 191.6352 178.906179 
L 192.528 163.969052 
L 193.4208 197.370181 
L 194.3136 195.740129 
L 195.2064 177.637094 
L 196.0992 182.582507 
L 196.992 201.052755 
L 197.8848 196.42678 
L 198.7776 178.814026 
L 199.6704 183.326276 
L 200.5632 182.010125 
L 201.456 167.304781 
L 202.3488 190.632442 
L 203.2416 168.732482 
L 204.1344 172.82378 
L 205.0272 180.927422 
L 205.92 178.944066 
L 206.8128 193.310986 
L 207.7056 184.611528 
L 208.5984 179.557927 
L 209.4912 183.970953 
L 210.384 199.016235 
L 211.2768 183.465363 
L 212.1696 194.24005 
L 213.0624 177.627338 
L 213.9552 184.082882 
L 214.848 167.690731 
L 215.7408 181.928123 
L 216.6336 206.631129 
L 217.5264 180.550585 
L 218.4192 199.256309 
L 219.312 180.914799 
L 220.2048 184.708163 
L 221.0976 172.049804 
L 221.9904 192.347166 
L 222.8832 172.76063 
L 224.6688 180.600831 
L 225.5616 178.836833 
L 226.4544 174.666896 
L 227.3472 173.429105 
L 228.24 171.777316 
L 229.1328 179.43728 
L 230.0256 196.903647 
L 230.9184 171.807193 
L 231.8112 184.999653 
L 232.704 167.393837 
L 233.5968 190.891335 
L 234.4896 166.502263 
L 235.3824 191.41474 
L 236.2752 183.748892 
L 237.168 184.867701 
L 238.0608 179.389259 
L 238.9536 186.043876 
L 239.8464 177.4076 
L 240.7392 193.293007 
L 241.632 194.626115 
L 242.5248 183.792777 
L 243.4176 177.817181 
L 244.3104 186.354053 
L 245.2032 175.329042 
L 246.096 194.05894 
L 246.9888 180.921555 
L 247.8816 191.073054 
L 248.7744 174.313658 
L 249.6672 204.419976 
L 250.56 189.281799 
L 251.4528 192.994645 
L 252.3456 190.365095 
L 253.2384 181.122605 
L 254.1312 183.971695 
L 255.024 174.483907 
L 255.9168 200.313369 
L 256.8096 179.057675 
L 257.7024 173.139955 
L 258.5952 169.742889 
L 259.488 173.061958 
L 260.3808 190.558152 
L 261.2736 161.439318 
L 262.1664 178.864486 
L 263.0592 193.43796 
L 263.952 161.72443 
L 264.8448 187.549525 
L 265.7376 173.777596 
L 266.6304 185.595996 
L 267.5232 170.276561 
L 268.416 175.1155 
L 269.3088 159.269134 
L 270.2016 189.130139 
L 271.0944 177.715734 
L 271.9872 172.064158 
L 272.88 180.108622 
L 273.7728 177.768666 
L 274.6656 169.337873 
L 275.5584 177.794506 
L 276.4512 170.225228 
L 277.344 165.168726 
L 278.2368 190.061147 
L 279.1296 172.661276 
L 280.0224 185.018522 
L 280.9152 175.976587 
L 281.808 156.798446 
L 282.7008 190.493866 
L 283.5936 166.072214 
L 284.4864 208.222355 
L 285.3792 188.142111 
L 286.272 182.855786 
L 287.1648 198.477438 
L 288.0576 198.780809 
L 288.9504 185.042335 
L 289.8432 204.545072 
L 290.736 193.694941 
L 291.6288 154.917197 
L 292.5216 180.794235 
L 293.4144 186.858523 
L 294.3072 167.295092 
L 295.2 167.338993 
L 296.0928 166.099785 
L 296.9856 181.0409 
L 297.8784 191.0455 
L 298.7712 190.852872 
L 299.664 168.529224 
L 300.5568 185.944323 
L 301.4496 182.59274 
L 302.3424 157.283619 
L 303.2352 176.648769 
L 304.128 157.592659 
L 305.0208 169.957551 
L 306.8064 184.377898 
L 307.6992 201.278952 
L 308.592 164.824948 
L 309.4848 143.604371 
L 310.3776 186.059811 
L 311.2704 173.547806 
L 312.1632 191.960013 
L 313.056 171.621568 
L 313.9488 181.318579 
L 314.8416 170.253391 
L 316.6272 178.30944 
L 317.52 163.711395 
L 318.4128 184.479313 
L 319.3056 185.33506 
L 320.1984 175.584276 
L 321.0912 181.342343 
L 321.984 184.882764 
L 322.8768 182.378276 
L 323.7696 187.365135 
L 324.6624 194.099661 
L 325.5552 181.42385 
L 326.448 178.547487 
L 327.3408 183.909386 
L 328.2336 193.20644 
L 329.1264 183.226064 
L 330.0192 168.610913 
L 330.912 167.046828 
L 331.8048 170.853854 
L 332.6976 139.934636 
L 333.5904 190.595808 
L 335.376 165.659156 
L 336.2688 195.783124 
L 337.1616 177.808217 
L 338.0544 167.574683 
L 338.9472 155.65121 
L 339.84 160.42077 
L 340.7328 172.916444 
L 341.6256 183.79014 
L 342.5184 190.265592 
L 343.4112 179.684506 
L 344.304 183.321991 
L 345.1968 195.760844 
L 346.0896 188.842489 
L 346.9824 159.273105 
L 347.8752 179.047804 
L 348.768 182.628715 
L 349.6608 150.28552 
L 350.5536 182.516375 
L 351.4464 182.732108 
L 352.3392 183.678821 
L 353.232 189.955201 
L 354.1248 168.377415 
L 355.0176 169.775288 
L 355.9104 191.3346 
L 356.8032 171.829523 
L 357.696 168.227897 
L 358.5888 188.591704 
L 359.4816 184.335348 
L 360.3744 193.362913 
L 361.2672 185.118684 
L 362.16 158.231239 
L 363.9456 191.815587 
L 364.8384 181.629976 
L 365.7312 186.302736 
L 366.624 173.049829 
L 367.5168 170.422784 
L 368.4096 195.832826 
L 369.3024 166.43824 
L 370.1952 179.371165 
L 371.088 174.550073 
L 371.9808 203.131362 
L 372.8736 185.965895 
L 373.7664 174.025778 
L 374.6592 197.409238 
L 375.552 184.374371 
L 376.4448 189.772592 
L 377.3376 184.068776 
L 379.1232 200.284349 
L 380.016 213.574993 
L 380.9088 175.085607 
L 381.8016 188.070491 
L 382.6944 193.473638 
L 383.5872 185.975535 
L 384.48 166.104778 
L 385.3728 182.99952 
L 386.2656 197.226266 
L 387.1584 164.635829 
L 388.0512 172.985032 
L 388.944 153.23553 
L 389.8368 161.863748 
L 390.7296 197.098978 
L 391.6224 192.261868 
L 392.5152 164.70796 
L 393.408 183.047278 
L 394.3008 205.737462 
L 395.1936 181.912615 
L 396.0864 175.570071 
L 396.9792 177.447448 
L 397.872 190.054061 
L 398.7648 181.892049 
L 399.6576 187.705635 
L 400.5504 174.233188 
L 401.4432 192.64032 
L 402.336 165.255161 
L 403.2288 171.998503 
L 404.1216 202.592219 
L 405.0144 190.740333 
L 405.9072 174.453338 
L 406.8 168.361035 
L 407.6928 172.478617 
L 408.5856 169.071779 
L 409.4784 148.398322 
L 410.3712 160.911035 
L 411.264 184.807914 
L 412.1568 176.025004 
L 413.0496 171.647424 
L 413.9424 177.111332 
L 414.8352 192.417649 
L 415.728 199.812805 
L 416.6208 174.575665 
L 417.5136 173.67338 
L 418.4064 198.154687 
L 419.2992 186.309031 
L 420.192 187.452312 
L 421.0848 176.634448 
L 421.9776 186.465652 
L 422.8704 175.309579 
L 423.7632 176.288379 
L 424.656 187.884701 
L 425.5488 176.236007 
L 426.4416 173.700637 
L 427.3344 173.263865 
L 428.2272 172.249387 
L 429.12 169.008843 
L 430.0128 152.328268 
L 430.9056 176.513621 
L 431.7984 167.007953 
L 432.6912 182.628369 
L 433.584 186.601641 
L 434.4768 181.333971 
L 435.3696 166.185989 
L 436.2624 184.585737 
L 437.1552 150.730499 
L 438.048 193.052241 
L 438.9408 187.046455 
L 439.8336 197.198201 
L 440.7264 176.323233 
L 441.6192 185.872028 
L 442.512 189.006542 
L 443.4048 159.605068 
L 444.2976 181.191769 
L 445.1904 188.898223 
L 446.0832 165.776226 
L 446.976 193.994885 
L 447.8688 173.414207 
L 448.7616 179.068387 
L 449.6544 187.630356 
L 450.5472 170.050133 
L 451.44 198.389883 
L 452.3328 189.577837 
L 454.1184 165.591936 
L 455.0112 196.326552 
L 455.904 174.490367 
L 456.7968 176.513077 
L 457.6896 177.392933 
L 458.5824 168.470722 
L 459.4752 174.212688 
L 460.368 183.854312 
L 461.2608 205.652692 
L 462.1536 178.027789 
L 463.0464 195.055719 
L 463.9392 188.805015 
L 464.832 159.895767 
L 465.7248 174.162047 
L 466.6176 172.288625 
L 467.5104 191.293187 
L 468.4032 178.331473 
L 469.296 180.832549 
L 470.1888 156.29798 
L 471.0816 186.057175 
L 472.8672 202.512195 
L 473.76 185.153357 
L 474.6528 172.204827 
L 475.5456 174.387997 
L 476.4384 165.254502 
L 478.224 190.414204 
L 479.1168 187.097838 
L 480.0096 181.17763 
L 480.9024 195.744825 
L 481.7952 189.025609 
L 482.688 195.874717 
L 483.5808 173.200204 
L 484.4736 178.244725 
L 485.3664 177.440625 
L 486.2592 190.092393 
L 487.152 178.206147 
L 488.0448 174.89952 
L 488.9376 184.983865 
L 489.8304 176.757056 
L 490.7232 191.688514 
L 491.616 153.46593 
L 492.5088 167.779341 
L 493.4016 174.259094 
L 494.2944 177.12 
L 495.1872 176.45525 
L 496.08 175.593323 
L 496.9728 187.553826 
L 497.8656 187.599853 
L 498.7584 196.635229 
L 499.6512 185.762521 
L 500.544 163.050601 
L 501.4368 203.022548 
L 502.3296 167.3604 
L 503.2224 162.473802 
L 504.1152 182.503553 
L 505.008 164.700923 
L 505.9008 164.179281 
L 506.7936 183.151609 
L 507.6864 165.220258 
L 508.5792 169.706437 
L 509.472 157.079125 
L 510.3648 158.869918 
L 511.2576 172.585453 
L 512.1504 164.519929 
L 513.0432 181.583965 
L 513.936 189.409268 
L 514.8288 171.26421 
L 515.7216 187.795036 
L 516.6144 181.874762 
L 517.5072 187.867595 
L 517.5072 187.867595 
" style="fill:none;stroke:#008000;stroke-linecap:square;"/>
   </g>
   <g id="patch_3">
    <path d="M 72 43.2 
L 518.4 43.2 
" style="fill:none;stroke:#000000;stroke-linecap:square;stroke-linejoin:miter;"/>
   </g>
   <g id="patch_4">
    <path d="M 518.4 388.8 
L 518.4 43.2 
" style="fill:none;stroke:#000000;stroke-linecap:square;stroke-linejoin:miter;"/>
   </g>
   <g id="patch_5">
    <path d="M 72 388.8 
L 518.4 388.8 
" style="fill:none;stroke:#000000;stroke-linecap:square;stroke-linejoin:miter;"/>
   </g>
   <g id="patch_6">
    <path d="M 72 388.8 
L 72 43.2 
" style="fill:none;stroke:#000000;stroke-linecap:square;stroke-linejoin:miter;"/>
   </g>
   <g id="matplotlib.axis_1">
    <g id="xtick_1">
     <g id="line2d_3">
      <defs>
       <path d="M 0 0 
L 0 -4 
" id="m09810b6e22" style="stroke:#000000;stroke-width:0.5;"/>
      </defs>
      <g>
       <use style="stroke:#000000;stroke-width:0.5;" x="72.0" xlink:href="#m09810b6e22" y="388.8"/>
      </g>
     </g>
     <g id="line2d_4">
      <defs>
       <path d="M 0 0 
L 0 4 
" id="m9b896afb7a" style="stroke:#000000;stroke-width:0.5;"/>
      </defs>
      <g>
       <use style="stroke:#000000;stroke-width:0.5;" x="72.0" xlink:href="#m9b896afb7a" y="43.2"/>
      </g>
     </g>
     <g id="text_1">
      <!-- 0 -->
      <defs>
       <path d="M 31.78125 66.40625 
Q 24.171875 66.40625 20.328125 58.90625 
Q 16.5 51.421875 16.5 36.375 
Q 16.5 21.390625 20.328125 13.890625 
Q 24.171875 6.390625 31.78125 6.390625 
Q 39.453125 6.390625 43.28125 13.890625 
Q 47.125 21.390625 47.125 36.375 
Q 47.125 51.421875 43.28125 58.90625 
Q 39.453125 66.40625 31.78125 66.40625 
M 31.78125 74.21875 
Q 44.046875 74.21875 50.515625 64.515625 
Q 56.984375 54.828125 56.984375 36.375 
Q 56.984375 17.96875 50.515625 8.265625 
Q 44.046875 -1.421875 31.78125 -1.421875 
Q 19.53125 -1.421875 13.0625 8.265625 
Q 6.59375 17.96875 6.59375 36.375 
Q 6.59375 54.828125 13.0625 64.515625 
Q 19.53125 74.21875 31.78125 74.21875 
" id="BitstreamVeraSans-Roman-30"/>
      </defs>
      <g transform="translate(68.1825 401.918125)scale(0.12 -0.12)">
       <use xlink:href="#BitstreamVeraSans-Roman-30"/>
      </g>
     </g>
    </g>
    <g id="xtick_2">
     <g id="line2d_5">
      <g>
       <use style="stroke:#000000;stroke-width:0.5;" x="161.28" xlink:href="#m09810b6e22" y="388.8"/>
      </g>
     </g>
     <g id="line2d_6">
      <g>
       <use style="stroke:#000000;stroke-width:0.5;" x="161.28" xlink:href="#m9b896afb7a" y="43.2"/>
      </g>
     </g>
     <g id="text_2">
      <!-- 100 -->
      <defs>
       <path d="M 12.40625 8.296875 
L 28.515625 8.296875 
L 28.515625 63.921875 
L 10.984375 60.40625 
L 10.984375 69.390625 
L 28.421875 72.90625 
L 38.28125 72.90625 
L 38.28125 8.296875 
L 54.390625 8.296875 
L 54.390625 0 
L 12.40625 0 
z
" id="BitstreamVeraSans-Roman-31"/>
      </defs>
      <g transform="translate(149.8275 401.918125)scale(0.12 -0.12)">
       <use xlink:href="#BitstreamVeraSans-Roman-31"/>
       <use x="63.623046875" xlink:href="#BitstreamVeraSans-Roman-30"/>
       <use x="127.24609375" xlink:href="#BitstreamVeraSans-Roman-30"/>
      </g>
     </g>
    </g>
    <g id="xtick_3">
     <g id="line2d_7">
      <g>
       <use style="stroke:#000000;stroke-width:0.5;" x="250.56" xlink:href="#m09810b6e22" y="388.8"/>
      </g>
     </g>
     <g id="line2d_8">
      <g>
       <use style="stroke:#000000;stroke-width:0.5;" x="250.56" xlink:href="#m9b896afb7a" y="43.2"/>
      </g>
     </g>
     <g id="text_3">
      <!-- 200 -->
      <defs>
       <path d="M 19.1875 8.296875 
L 53.609375 8.296875 
L 53.609375 0 
L 7.328125 0 
L 7.328125 8.296875 
Q 12.9375 14.109375 22.625 23.890625 
Q 32.328125 33.6875 34.8125 36.53125 
Q 39.546875 41.84375 41.421875 45.53125 
Q 43.3125 49.21875 43.3125 52.78125 
Q 43.3125 58.59375 39.234375 62.25 
Q 35.15625 65.921875 28.609375 65.921875 
Q 23.96875 65.921875 18.8125 64.3125 
Q 13.671875 62.703125 7.8125 59.421875 
L 7.8125 69.390625 
Q 13.765625 71.78125 18.9375 73 
Q 24.125 74.21875 28.421875 74.21875 
Q 39.75 74.21875 46.484375 68.546875 
Q 53.21875 62.890625 53.21875 53.421875 
Q 53.21875 48.921875 51.53125 44.890625 
Q 49.859375 40.875 45.40625 35.40625 
Q 44.1875 33.984375 37.640625 27.21875 
Q 31.109375 20.453125 19.1875 8.296875 
" id="BitstreamVeraSans-Roman-32"/>
      </defs>
      <g transform="translate(239.1075 401.918125)scale(0.12 -0.12)">
       <use xlink:href="#BitstreamVeraSans-Roman-32"/>
       <use x="63.623046875" xlink:href="#BitstreamVeraSans-Roman-30"/>
       <use x="127.24609375" xlink:href="#BitstreamVeraSans-Roman-30"/>
      </g>
     </g>
    </g>
    <g id="xtick_4">
     <g id="line2d_9">
      <g>
       <use style="stroke:#000000;stroke-width:0.5;" x="339.84" xlink:href="#m09810b6e22" y="388.8"/>
      </g>
     </g>
     <g id="line2d_10">
      <g>
       <use style="stroke:#000000;stroke-width:0.5;" x="339.84" xlink:href="#m9b896afb7a" y="43.2"/>
      </g>
     </g>
     <g id="text_4">
      <!-- 300 -->
      <defs>
       <path d="M 40.578125 39.3125 
Q 47.65625 37.796875 51.625 33 
Q 55.609375 28.21875 55.609375 21.1875 
Q 55.609375 10.40625 48.1875 4.484375 
Q 40.765625 -1.421875 27.09375 -1.421875 
Q 22.515625 -1.421875 17.65625 -0.515625 
Q 12.796875 0.390625 7.625 2.203125 
L 7.625 11.71875 
Q 11.71875 9.328125 16.59375 8.109375 
Q 21.484375 6.890625 26.8125 6.890625 
Q 36.078125 6.890625 40.9375 10.546875 
Q 45.796875 14.203125 45.796875 21.1875 
Q 45.796875 27.640625 41.28125 31.265625 
Q 36.765625 34.90625 28.71875 34.90625 
L 20.21875 34.90625 
L 20.21875 43.015625 
L 29.109375 43.015625 
Q 36.375 43.015625 40.234375 45.921875 
Q 44.09375 48.828125 44.09375 54.296875 
Q 44.09375 59.90625 40.109375 62.90625 
Q 36.140625 65.921875 28.71875 65.921875 
Q 24.65625 65.921875 20.015625 65.03125 
Q 15.375 64.15625 9.8125 62.3125 
L 9.8125 71.09375 
Q 15.4375 72.65625 20.34375 73.4375 
Q 25.25 74.21875 29.59375 74.21875 
Q 40.828125 74.21875 47.359375 69.109375 
Q 53.90625 64.015625 53.90625 55.328125 
Q 53.90625 49.265625 50.4375 45.09375 
Q 46.96875 40.921875 40.578125 39.3125 
" id="BitstreamVeraSans-Roman-33"/>
      </defs>
      <g transform="translate(328.3875 401.918125)scale(0.12 -0.12)">
       <use xlink:href="#BitstreamVeraSans-Roman-33"/>
       <use x="63.623046875" xlink:href="#BitstreamVeraSans-Roman-30"/>
       <use x="127.24609375" xlink:href="#BitstreamVeraSans-Roman-30"/>
      </g>
     </g>
    </g>
    <g id="xtick_5">
     <g id="line2d_11">
      <g>
       <use style="stroke:#000000;stroke-width:0.5;" x="429.12" xlink:href="#m09810b6e22" y="388.8"/>
      </g>
     </g>
     <g id="line2d_12">
      <g>
       <use style="stroke:#000000;stroke-width:0.5;" x="429.12" xlink:href="#m9b896afb7a" y="43.2"/>
      </g>
     </g>
     <g id="text_5">
      <!-- 400 -->
      <defs>
       <path d="M 37.796875 64.3125 
L 12.890625 25.390625 
L 37.796875 25.390625 
z
M 35.203125 72.90625 
L 47.609375 72.90625 
L 47.609375 25.390625 
L 58.015625 25.390625 
L 58.015625 17.1875 
L 47.609375 17.1875 
L 47.609375 0 
L 37.796875 0 
L 37.796875 17.1875 
L 4.890625 17.1875 
L 4.890625 26.703125 
z
" id="BitstreamVeraSans-Roman-34"/>
      </defs>
      <g transform="translate(417.6675 401.918125)scale(0.12 -0.12)">
       <use xlink:href="#BitstreamVeraSans-Roman-34"/>
       <use x="63.623046875" xlink:href="#BitstreamVeraSans-Roman-30"/>
       <use x="127.24609375" xlink:href="#BitstreamVeraSans-Roman-30"/>
      </g>
     </g>
    </g>
    <g id="xtick_6">
     <g id="line2d_13">
      <g>
       <use style="stroke:#000000;stroke-width:0.5;" x="518.4" xlink:href="#m09810b6e22" y="388.8"/>
      </g>
     </g>
     <g id="line2d_14">
      <g>
       <use style="stroke:#000000;stroke-width:0.5;" x="518.4" xlink:href="#m9b896afb7a" y="43.2"/>
      </g>
     </g>
     <g id="text_6">
      <!-- 500 -->
      <defs>
       <path d="M 10.796875 72.90625 
L 49.515625 72.90625 
L 49.515625 64.59375 
L 19.828125 64.59375 
L 19.828125 46.734375 
Q 21.96875 47.46875 24.109375 47.828125 
Q 26.265625 48.1875 28.421875 48.1875 
Q 40.625 48.1875 47.75 41.5 
Q 54.890625 34.8125 54.890625 23.390625 
Q 54.890625 11.625 47.5625 5.09375 
Q 40.234375 -1.421875 26.90625 -1.421875 
Q 22.3125 -1.421875 17.546875 -0.640625 
Q 12.796875 0.140625 7.71875 1.703125 
L 7.71875 11.625 
Q 12.109375 9.234375 16.796875 8.0625 
Q 21.484375 6.890625 26.703125 6.890625 
Q 35.15625 6.890625 40.078125 11.328125 
Q 45.015625 15.765625 45.015625 23.390625 
Q 45.015625 31 40.078125 35.4375 
Q 35.15625 39.890625 26.703125 39.890625 
Q 22.75 39.890625 18.8125 39.015625 
Q 14.890625 38.140625 10.796875 36.28125 
z
" id="BitstreamVeraSans-Roman-35"/>
      </defs>
      <g transform="translate(506.9475 401.918125)scale(0.12 -0.12)">
       <use xlink:href="#BitstreamVeraSans-Roman-35"/>
       <use x="63.623046875" xlink:href="#BitstreamVeraSans-Roman-30"/>
       <use x="127.24609375" xlink:href="#BitstreamVeraSans-Roman-30"/>
      </g>
     </g>
    </g>
   </g>
   <g id="matplotlib.axis_2">
    <g id="ytick_1">
     <g id="line2d_15">
      <defs>
       <path d="M 0 0 
L 4 0 
" id="mc746d53d32" style="stroke:#000000;stroke-width:0.5;"/>
      </defs>
      <g>
       <use style="stroke:#000000;stroke-width:0.5;" x="72.0" xlink:href="#mc746d53d32" y="388.8"/>
      </g>
     </g>
     <g id="line2d_16">
      <defs>
       <path d="M 0 0 
L -4 0 
" id="m0acd7f5260" style="stroke:#000000;stroke-width:0.5;"/>
      </defs>
      <g>
       <use style="stroke:#000000;stroke-width:0.5;" x="518.4" xlink:href="#m0acd7f5260" y="388.8"/>
      </g>
     </g>
     <g id="text_7">
      <!-- 0 -->
      <g transform="translate(60.365 392.11125)scale(0.12 -0.12)">
       <use xlink:href="#BitstreamVeraSans-Roman-30"/>
      </g>
     </g>
    </g>
    <g id="ytick_2">
     <g id="line2d_17">
      <g>
       <use style="stroke:#000000;stroke-width:0.5;" x="72.0" xlink:href="#mc746d53d32" y="345.6"/>
      </g>
     </g>
     <g id="line2d_18">
      <g>
       <use style="stroke:#000000;stroke-width:0.5;" x="518.4" xlink:href="#m0acd7f5260" y="345.6"/>
      </g>
     </g>
     <g id="text_8">
      <!-- 5 -->
      <g transform="translate(60.365 348.91125)scale(0.12 -0.12)">
       <use xlink:href="#BitstreamVeraSans-Roman-35"/>
      </g>
     </g>
    </g>
    <g id="ytick_3">
     <g id="line2d_19">
      <g>
       <use style="stroke:#000000;stroke-width:0.5;" x="72.0" xlink:href="#mc746d53d32" y="302.4"/>
      </g>
     </g>
     <g id="line2d_20">
      <g>
       <use style="stroke:#000000;stroke-width:0.5;" x="518.4" xlink:href="#m0acd7f5260" y="302.4"/>
      </g>
     </g>
     <g id="text_9">
      <!-- 10 -->
      <g transform="translate(52.73 305.71125)scale(0.12 -0.12)">
       <use xlink:href="#BitstreamVeraSans-Roman-31"/>
       <use x="63.623046875" xlink:href="#BitstreamVeraSans-Roman-30"/>
      </g>
     </g>
    </g>
    <g id="ytick_4">
     <g id="line2d_21">
      <g>
       <use style="stroke:#000000;stroke-width:0.5;" x="72.0" xlink:href="#mc746d53d32" y="259.2"/>
      </g>
     </g>
     <g id="line2d_22">
      <g>
       <use style="stroke:#000000;stroke-width:0.5;" x="518.4" xlink:href="#m0acd7f5260" y="259.2"/>
      </g>
     </g>
     <g id="text_10">
      <!-- 15 -->
      <g transform="translate(52.73 262.51125)scale(0.12 -0.12)">
       <use xlink:href="#BitstreamVeraSans-Roman-31"/>
       <use x="63.623046875" xlink:href="#BitstreamVeraSans-Roman-35"/>
      </g>
     </g>
    </g>
    <g id="ytick_5">
     <g id="line2d_23">
      <g>
       <use style="stroke:#000000;stroke-width:0.5;" x="72.0" xlink:href="#mc746d53d32" y="216.0"/>
      </g>
     </g>
     <g id="line2d_24">
      <g>
       <use style="stroke:#000000;stroke-width:0.5;" x="518.4" xlink:href="#m0acd7f5260" y="216.0"/>
      </g>
     </g>
     <g id="text_11">
      <!-- 20 -->
      <g transform="translate(52.73 219.31125)scale(0.12 -0.12)">
       <use xlink:href="#BitstreamVeraSans-Roman-32"/>
       <use x="63.623046875" xlink:href="#BitstreamVeraSans-Roman-30"/>
      </g>
     </g>
    </g>
    <g id="ytick_6">
     <g id="line2d_25">
      <g>
       <use style="stroke:#000000;stroke-width:0.5;" x="72.0" xlink:href="#mc746d53d32" y="172.8"/>
      </g>
     </g>
     <g id="line2d_26">
      <g>
       <use style="stroke:#000000;stroke-width:0.5;" x="518.4" xlink:href="#m0acd7f5260" y="172.8"/>
      </g>
     </g>
     <g id="text_12">
      <!-- 25 -->
      <g transform="translate(52.73 176.11125)scale(0.12 -0.12)">
       <use xlink:href="#BitstreamVeraSans-Roman-32"/>
       <use x="63.623046875" xlink:href="#BitstreamVeraSans-Roman-35"/>
      </g>
     </g>
    </g>
    <g id="ytick_7">
     <g id="line2d_27">
      <g>
       <use style="stroke:#000000;stroke-width:0.5;" x="72.0" xlink:href="#mc746d53d32" y="129.6"/>
      </g>
     </g>
     <g id="line2d_28">
      <g>
       <use style="stroke:#000000;stroke-width:0.5;" x="518.4" xlink:href="#m0acd7f5260" y="129.6"/>
      </g>
     </g>
     <g id="text_13">
      <!-- 30 -->
      <g transform="translate(52.73 132.91125)scale(0.12 -0.12)">
       <use xlink:href="#BitstreamVeraSans-Roman-33"/>
       <use x="63.623046875" xlink:href="#BitstreamVeraSans-Roman-30"/>
      </g>
     </g>
    </g>
    <g id="ytick_8">
     <g id="line2d_29">
      <g>
       <use style="stroke:#000000;stroke-width:0.5;" x="72.0" xlink:href="#mc746d53d32" y="86.4"/>
      </g>
     </g>
     <g id="line2d_30">
      <g>
       <use style="stroke:#000000;stroke-width:0.5;" x="518.4" xlink:href="#m0acd7f5260" y="86.4"/>
      </g>
     </g>
     <g id="text_14">
      <!-- 35 -->
      <g transform="translate(52.73 89.71125)scale(0.12 -0.12)">
       <use xlink:href="#BitstreamVeraSans-Roman-33"/>
       <use x="63.623046875" xlink:href="#BitstreamVeraSans-Roman-35"/>
      </g>
     </g>
    </g>
    <g id="ytick_9">
     <g id="line2d_31">
      <g>
       <use style="stroke:#000000;stroke-width:0.5;" x="72.0" xlink:href="#mc746d53d32" y="43.2"/>
      </g>
     </g>
     <g id="line2d_32">
      <g>
       <use style="stroke:#000000;stroke-width:0.5;" x="518.4" xlink:href="#m0acd7f5260" y="43.2"/>
      </g>
     </g>
     <g id="text_15">
      <!-- 40 -->
      <g transform="translate(52.73 46.51125)scale(0.12 -0.12)">
       <use xlink:href="#BitstreamVeraSans-Roman-34"/>
       <use x="63.623046875" xlink:href="#BitstreamVeraSans-Roman-30"/>
      </g>
     </g>
    </g>
   </g>
   <g id="legend_1">
    <g id="patch_7">
     <path d="M 437.4225 96.993 
L 511.2 96.993 
L 511.2 50.4 
L 437.4225 50.4 
z
" style="fill:#ffffff;stroke:#000000;stroke-linejoin:miter;"/>
    </g>
    <g id="line2d_33">
     <path d="M 447.5025 62.06175 
L 467.6625 62.06175 
" style="fill:none;stroke:#0000ff;stroke-linecap:square;"/>
    </g>
    <g id="line2d_34"/>
    <g id="text_16">
     <!-- sig -->
     <defs>
      <path d="M 45.40625 27.984375 
Q 45.40625 37.75 41.375 43.109375 
Q 37.359375 48.484375 30.078125 48.484375 
Q 22.859375 48.484375 18.828125 43.109375 
Q 14.796875 37.75 14.796875 27.984375 
Q 14.796875 18.265625 18.828125 12.890625 
Q 22.859375 7.515625 30.078125 7.515625 
Q 37.359375 7.515625 41.375 12.890625 
Q 45.40625 18.265625 45.40625 27.984375 
M 54.390625 6.78125 
Q 54.390625 -7.171875 48.1875 -13.984375 
Q 42 -20.796875 29.203125 -20.796875 
Q 24.46875 -20.796875 20.265625 -20.09375 
Q 16.0625 -19.390625 12.109375 -17.921875 
L 12.109375 -9.1875 
Q 16.0625 -11.328125 19.921875 -12.34375 
Q 23.78125 -13.375 27.78125 -13.375 
Q 36.625 -13.375 41.015625 -8.765625 
Q 45.40625 -4.15625 45.40625 5.171875 
L 45.40625 9.625 
Q 42.625 4.78125 38.28125 2.390625 
Q 33.9375 0 27.875 0 
Q 17.828125 0 11.671875 7.65625 
Q 5.515625 15.328125 5.515625 27.984375 
Q 5.515625 40.671875 11.671875 48.328125 
Q 17.828125 56 27.875 56 
Q 33.9375 56 38.28125 53.609375 
Q 42.625 51.21875 45.40625 46.390625 
L 45.40625 54.6875 
L 54.390625 54.6875 
z
" id="BitstreamVeraSans-Roman-67"/>
      <path d="M 9.421875 54.6875 
L 18.40625 54.6875 
L 18.40625 0 
L 9.421875 0 
z
M 9.421875 75.984375 
L 18.40625 75.984375 
L 18.40625 64.59375 
L 9.421875 64.59375 
z
" id="BitstreamVeraSans-Roman-69"/>
      <path d="M 44.28125 53.078125 
L 44.28125 44.578125 
Q 40.484375 46.53125 36.375 47.5 
Q 32.28125 48.484375 27.875 48.484375 
Q 21.1875 48.484375 17.84375 46.4375 
Q 14.5 44.390625 14.5 40.28125 
Q 14.5 37.15625 16.890625 35.375 
Q 19.28125 33.59375 26.515625 31.984375 
L 29.59375 31.296875 
Q 39.15625 29.25 43.1875 25.515625 
Q 47.21875 21.78125 47.21875 15.09375 
Q 47.21875 7.46875 41.1875 3.015625 
Q 35.15625 -1.421875 24.609375 -1.421875 
Q 20.21875 -1.421875 15.453125 -0.5625 
Q 10.6875 0.296875 5.421875 2 
L 5.421875 11.28125 
Q 10.40625 8.6875 15.234375 7.390625 
Q 20.0625 6.109375 24.8125 6.109375 
Q 31.15625 6.109375 34.5625 8.28125 
Q 37.984375 10.453125 37.984375 14.40625 
Q 37.984375 18.0625 35.515625 20.015625 
Q 33.0625 21.96875 24.703125 23.78125 
L 21.578125 24.515625 
Q 13.234375 26.265625 9.515625 29.90625 
Q 5.8125 33.546875 5.8125 39.890625 
Q 5.8125 47.609375 11.28125 51.796875 
Q 16.75 56 26.8125 56 
Q 31.78125 56 36.171875 55.265625 
Q 40.578125 54.546875 44.28125 53.078125 
" id="BitstreamVeraSans-Roman-73"/>
     </defs>
     <g transform="translate(483.5025 67.10175)scale(0.144 -0.144)">
      <use xlink:href="#BitstreamVeraSans-Roman-73"/>
      <use x="52.099609375" xlink:href="#BitstreamVeraSans-Roman-69"/>
      <use x="79.8828125" xlink:href="#BitstreamVeraSans-Roman-67"/>
     </g>
    </g>
    <g id="line2d_35">
     <path d="M 447.5025 83.19825 
L 467.6625 83.19825 
" style="fill:none;stroke:#008000;stroke-linecap:square;"/>
    </g>
    <g id="line2d_36"/>
    <g id="text_17">
     <!-- noi -->
     <defs>
      <path d="M 54.890625 33.015625 
L 54.890625 0 
L 45.90625 0 
L 45.90625 32.71875 
Q 45.90625 40.484375 42.875 44.328125 
Q 39.84375 48.1875 33.796875 48.1875 
Q 26.515625 48.1875 22.3125 43.546875 
Q 18.109375 38.921875 18.109375 30.90625 
L 18.109375 0 
L 9.078125 0 
L 9.078125 54.6875 
L 18.109375 54.6875 
L 18.109375 46.1875 
Q 21.34375 51.125 25.703125 53.5625 
Q 30.078125 56 35.796875 56 
Q 45.21875 56 50.046875 50.171875 
Q 54.890625 44.34375 54.890625 33.015625 
" id="BitstreamVeraSans-Roman-6e"/>
      <path d="M 30.609375 48.390625 
Q 23.390625 48.390625 19.1875 42.75 
Q 14.984375 37.109375 14.984375 27.296875 
Q 14.984375 17.484375 19.15625 11.84375 
Q 23.34375 6.203125 30.609375 6.203125 
Q 37.796875 6.203125 41.984375 11.859375 
Q 46.1875 17.53125 46.1875 27.296875 
Q 46.1875 37.015625 41.984375 42.703125 
Q 37.796875 48.390625 30.609375 48.390625 
M 30.609375 56 
Q 42.328125 56 49.015625 48.375 
Q 55.71875 40.765625 55.71875 27.296875 
Q 55.71875 13.875 49.015625 6.21875 
Q 42.328125 -1.421875 30.609375 -1.421875 
Q 18.84375 -1.421875 12.171875 6.21875 
Q 5.515625 13.875 5.515625 27.296875 
Q 5.515625 40.765625 12.171875 48.375 
Q 18.84375 56 30.609375 56 
" id="BitstreamVeraSans-Roman-6f"/>
     </defs>
     <g transform="translate(483.5025 88.23825)scale(0.144 -0.144)">
      <use xlink:href="#BitstreamVeraSans-Roman-6e"/>
      <use x="63.37890625" xlink:href="#BitstreamVeraSans-Roman-6f"/>
      <use x="124.560546875" xlink:href="#BitstreamVeraSans-Roman-69"/>
     </g>
    </g>
   </g>
  </g>
 </g>
 <defs>
  <clipPath id="p57334c7ab0">
   <rect height="345.6" width="446.4" x="72.0" y="43.2"/>
  </clipPath>
 </defs>
</svg>
