<?xml version="1.0" encoding="utf-8" standalone="no"?>
<!DOCTYPE svg PUBLIC "-//W3C//DTD SVG 1.1//EN"
  "http://www.w3.org/Graphics/SVG/1.1/DTD/svg11.dtd">
<!-- Created with matplotlib (http://matplotlib.org/) -->
<svg height="432pt" version="1.1" viewBox="0 0 576 432" width="576pt" xmlns="http://www.w3.org/2000/svg" xmlns:xlink="http://www.w3.org/1999/xlink">
 <defs>
  <style type="text/css">
*{stroke-linecap:butt;stroke-linejoin:round;stroke-miterlimit:100000;}
  </style>
 </defs>
 <g id="figure_1">
  <g id="patch_1">
   <path d="M 0 432 
L 576 432 
L 576 0 
L 0 0 
z
" style="fill:#ffffff;"/>
  </g>
  <g id="axes_1">
   <g id="patch_2">
    <path d="M 72 388.8 
L 518.4 388.8 
L 518.4 43.2 
L 72 43.2 
z
" style="fill:#ffffff;"/>
   </g>
   <g id="line2d_1">
    <path clip-path="url(#pf2fd6e863e)" d="M 72 108.13387 
L 72.8928 319.425773 
L 73.7856 310.447261 
L 74.6784 315.854055 
L 75.5712 319.433203 
L 76.464 316.761487 
L 77.3568 313.551371 
L 78.2496 331.703324 
L 79.1424 331.753582 
L 80.0352 331.424539 
L 80.928 334.446134 
L 81.8208 342.888045 
L 82.7136 342.756007 
L 83.6064 350.188799 
L 84.4992 350.835951 
L 85.392 358.740234 
L 87.1776 358.405163 
L 88.0704 350.997104 
L 88.9632 352.196023 
L 90.7488 359.125442 
L 91.6416 359.808908 
L 92.5344 362.158222 
L 93.4272 351.780869 
L 94.32 360.268182 
L 95.2128 356.092839 
L 96.9984 361.41914 
L 97.8912 353.624896 
L 98.784 360.248211 
L 99.6768 352.834855 
L 100.5696 349.465806 
L 101.4624 354.872676 
L 102.3552 352.150876 
L 103.248 355.589039 
L 104.1408 354.581514 
L 105.0336 345.418151 
L 105.9264 351.47847 
L 106.8192 359.125746 
L 107.712 357.048642 
L 108.6048 355.351608 
L 109.4976 357.209491 
L 110.3904 364.559585 
L 111.2832 351.441938 
L 112.176 357.639973 
L 113.0688 351.636466 
L 113.9616 361.426558 
L 114.8544 362.315855 
L 115.7472 362.289229 
L 116.64 357.884136 
L 117.5328 360.844905 
L 118.4256 354.082181 
L 119.3184 358.978805 
L 120.2112 356.912922 
L 121.104 361.411656 
L 121.9968 362.693047 
L 122.8896 360.150087 
L 123.7824 354.065007 
L 124.6752 359.888143 
L 125.568 357.066494 
L 126.4608 356.733446 
L 127.3536 361.489279 
L 128.2464 361.514924 
L 129.1392 364.121014 
L 130.032 359.17868 
L 130.9248 361.232936 
L 131.8176 362.967478 
L 132.7104 363.895356 
L 133.6032 362.71375 
L 134.496 361.966885 
L 135.3888 367.862862 
L 136.2816 358.696888 
L 137.1744 360.65202 
L 138.0672 360.340936 
L 138.96 357.691743 
L 139.8528 361.27684 
L 140.7456 360.32982 
L 141.6384 361.915806 
L 142.5312 360.43939 
L 143.424 362.061967 
L 144.3168 356.96204 
L 145.2096 361.571474 
L 146.1024 360.949272 
L 146.9952 363.949933 
L 147.888 361.985983 
L 148.7808 363.009948 
L 149.6736 366.079691 
L 150.5664 359.538708 
L 151.4592 363.039274 
L 152.352 359.75941 
L 153.2448 361.561495 
L 154.1376 362.209934 
L 155.0304 362.026843 
L 155.9232 357.842499 
L 156.816 361.705064 
L 157.7088 361.029231 
L 158.6016 361.696285 
L 159.4944 361.654641 
L 160.3872 362.97819 
L 161.28 361.15464 
L 162.1728 363.274413 
L 163.0656 361.425567 
L 163.9584 364.807693 
L 164.8512 360.560497 
L 165.744 356.999086 
L 166.6368 361.700005 
L 167.5296 356.454269 
L 168.4224 362.024269 
L 169.3152 361.121415 
L 170.208 365.682592 
L 171.1008 365.319269 
L 171.9936 363.465568 
L 172.8864 357.332429 
L 173.7792 361.975271 
L 174.672 356.602717 
L 175.5648 360.966173 
L 176.4576 362.895627 
L 177.3504 360.435943 
L 178.2432 367.259976 
L 179.136 361.234104 
L 180.0288 359.291727 
L 180.9216 361.770622 
L 181.8144 366.364574 
L 182.7072 359.733265 
L 183.6 362.417538 
L 184.4928 364.335841 
L 185.3856 361.176562 
L 186.2784 354.755495 
L 187.1712 366.666787 
L 188.064 363.432058 
L 188.9568 359.364169 
L 189.8496 365.39829 
L 190.7424 362.443543 
L 191.6352 363.8359 
L 192.528 357.407794 
L 193.4208 367.248591 
L 194.3136 366.72161 
L 195.2064 367.414989 
L 196.0992 362.695592 
L 196.992 362.025018 
L 197.8848 367.633474 
L 198.7776 363.483952 
L 199.6704 363.491483 
L 200.5632 362.181943 
L 201.456 365.656936 
L 202.3488 362.263714 
L 203.2416 366.584639 
L 204.1344 364.307722 
L 205.0272 362.949656 
L 205.92 363.84732 
L 206.8128 359.423459 
L 207.7056 358.547659 
L 209.4912 363.435917 
L 210.384 356.266187 
L 211.2768 360.916428 
L 212.1696 364.337418 
L 213.0624 362.383511 
L 213.9552 363.103617 
L 214.848 362.519278 
L 215.7408 362.79385 
L 216.6336 362.900496 
L 217.5264 366.142125 
L 218.4192 363.861872 
L 219.312 358.237084 
L 220.2048 360.372904 
L 221.0976 363.500954 
L 221.9904 365.579496 
L 222.8832 360.389596 
L 223.776 369.273233 
L 224.6688 363.655989 
L 225.5616 360.806117 
L 226.4544 360.643227 
L 227.3472 362.274143 
L 228.24 368.891187 
L 229.1328 362.617978 
L 230.0256 362.031424 
L 230.9184 359.04711 
L 231.8112 359.637792 
L 232.704 364.991597 
L 233.5968 363.333094 
L 234.4896 365.047218 
L 235.3824 358.967519 
L 236.2752 362.241048 
L 237.168 357.154671 
L 238.0608 362.883051 
L 238.9536 363.219807 
L 239.8464 361.983073 
L 241.632 364.888243 
L 242.5248 362.416248 
L 243.4176 365.672942 
L 244.3104 363.130079 
L 245.2032 367.029859 
L 246.096 362.893162 
L 246.9888 361.521652 
L 247.8816 366.303965 
L 248.7744 363.731072 
L 249.6672 368.490431 
L 250.56 358.641164 
L 251.4528 362.465385 
L 252.3456 357.687006 
L 253.2384 360.314645 
L 254.1312 357.730392 
L 255.024 359.523636 
L 255.9168 364.636994 
L 256.8096 366.925878 
L 257.7024 362.227801 
L 258.5952 361.06885 
L 259.488 366.369019 
L 260.3808 363.100924 
L 261.2736 361.04676 
L 262.1664 363.108345 
L 263.0592 364.488059 
L 263.952 365.557362 
L 264.8448 364.00695 
L 265.7376 365.08263 
L 266.6304 363.659092 
L 267.5232 359.820215 
L 268.416 363.40507 
L 269.3088 364.862332 
L 270.2016 362.055406 
L 271.0944 364.03008 
L 271.9872 365.259674 
L 272.88 365.251112 
L 273.7728 360.316916 
L 274.6656 365.168319 
L 275.5584 367.000949 
L 276.4512 365.378451 
L 277.344 359.17005 
L 278.2368 363.22795 
L 279.1296 366.18225 
L 280.0224 365.022885 
L 280.9152 366.197235 
L 281.808 363.492013 
L 282.7008 362.407509 
L 283.5936 362.859205 
L 284.4864 365.957651 
L 285.3792 364.155098 
L 286.272 359.282977 
L 287.1648 365.617013 
L 288.0576 365.429641 
L 288.9504 363.676383 
L 289.8432 366.046796 
L 290.736 362.326529 
L 291.6288 361.972733 
L 292.5216 365.984044 
L 293.4144 364.574662 
L 294.3072 362.552468 
L 295.2 366.321841 
L 296.0928 360.766183 
L 296.9856 358.74025 
L 297.8784 362.358184 
L 298.7712 364.917075 
L 299.664 366.474215 
L 300.5568 361.763844 
L 301.4496 366.834532 
L 302.3424 360.2471 
L 303.2352 365.302801 
L 304.128 365.684847 
L 305.0208 366.624527 
L 305.9136 363.065084 
L 306.8064 365.711101 
L 307.6992 365.892343 
L 309.4848 367.520703 
L 310.3776 363.553698 
L 311.2704 361.372442 
L 312.1632 361.417586 
L 313.056 364.402983 
L 313.9488 365.243317 
L 314.8416 362.594655 
L 315.7344 366.536726 
L 316.6272 366.323091 
L 317.52 364.016421 
L 318.4128 360.921243 
L 319.3056 361.499826 
L 320.1984 363.056834 
L 321.0912 362.826522 
L 321.984 362.290175 
L 322.8768 365.459822 
L 323.7696 367.405598 
L 324.6624 360.44765 
L 327.3408 366.699386 
L 328.2336 367.420976 
L 329.1264 363.665775 
L 330.0192 364.24526 
L 330.912 366.15383 
L 331.8048 362.617609 
L 332.6976 363.223473 
L 333.5904 358.088213 
L 334.4832 360.08025 
L 335.376 364.487527 
L 336.2688 362.818141 
L 337.1616 359.584019 
L 338.0544 363.031851 
L 338.9472 361.035495 
L 339.84 361.281007 
L 340.7328 365.597951 
L 341.6256 362.765736 
L 342.5184 360.766265 
L 343.4112 365.813964 
L 344.304 363.934777 
L 345.1968 362.52659 
L 346.0896 364.223283 
L 346.9824 367.095035 
L 347.8752 362.516566 
L 348.768 364.222229 
L 349.6608 364.517148 
L 350.5536 360.510574 
L 351.4464 367.144775 
L 352.3392 363.129603 
L 353.232 362.645134 
L 354.1248 366.328661 
L 355.0176 363.226293 
L 355.9104 363.816355 
L 356.8032 369.858574 
L 357.696 367.714097 
L 358.5888 362.123417 
L 359.4816 361.325906 
L 360.3744 366.147674 
L 361.2672 364.666445 
L 362.16 365.431666 
L 363.0528 364.074354 
L 363.9456 364.509855 
L 364.8384 361.891233 
L 365.7312 363.184308 
L 366.624 367.845106 
L 367.5168 361.179684 
L 368.4096 365.064013 
L 369.3024 364.980601 
L 370.1952 367.036486 
L 371.088 362.32652 
L 371.9808 364.910448 
L 372.8736 364.837034 
L 373.7664 361.642741 
L 374.6592 364.634595 
L 375.552 362.104404 
L 376.4448 362.728944 
L 377.3376 368.384748 
L 378.2304 359.219008 
L 379.1232 367.191198 
L 380.016 365.699269 
L 380.9088 365.508698 
L 381.8016 364.237307 
L 383.5872 368.712264 
L 384.48 365.134597 
L 385.3728 367.976888 
L 386.2656 361.760482 
L 387.1584 365.043628 
L 388.0512 356.850097 
L 388.944 363.372426 
L 389.8368 363.132075 
L 390.7296 364.605883 
L 391.6224 363.306461 
L 392.5152 363.09534 
L 393.408 370.386192 
L 394.3008 363.141878 
L 395.1936 364.765661 
L 396.0864 362.842613 
L 396.9792 363.326521 
L 397.872 363.988481 
L 398.7648 369.070845 
L 399.6576 365.749402 
L 400.5504 364.97339 
L 401.4432 368.113694 
L 402.336 367.611432 
L 403.2288 361.425475 
L 404.1216 362.025124 
L 405.0144 365.099138 
L 405.9072 364.422287 
L 406.8 364.14567 
L 407.6928 361.385967 
L 408.5856 367.577967 
L 409.4784 362.530545 
L 410.3712 371.323007 
L 411.264 364.555505 
L 412.1568 360.517966 
L 413.0496 360.8034 
L 413.9424 365.958661 
L 414.8352 365.431666 
L 415.728 365.471746 
L 416.6208 366.969132 
L 417.5136 361.252467 
L 418.4064 359.400442 
L 419.2992 368.000553 
L 420.192 365.496277 
L 421.0848 363.981492 
L 421.9776 360.987716 
L 422.8704 366.680811 
L 423.7632 366.929929 
L 424.656 370.491839 
L 425.5488 361.444989 
L 426.4416 358.288934 
L 427.3344 360.895629 
L 428.2272 364.070158 
L 429.12 358.729334 
L 430.0128 364.978091 
L 430.9056 369.506745 
L 431.7984 366.473316 
L 432.6912 361.174563 
L 433.584 363.245477 
L 434.4768 361.152328 
L 435.3696 361.927504 
L 436.2624 363.465076 
L 437.1552 365.860156 
L 438.9408 360.784454 
L 439.8336 364.805553 
L 440.7264 367.777557 
L 441.6192 360.841105 
L 442.512 363.940933 
L 443.4048 367.591929 
L 444.2976 365.113597 
L 445.1904 365.033542 
L 446.0832 366.101835 
L 446.976 365.803565 
L 447.8688 369.405714 
L 448.7616 359.229995 
L 449.6544 361.660685 
L 450.5472 366.617012 
L 452.3328 366.829941 
L 453.2256 366.729482 
L 454.1184 366.969734 
L 455.0112 362.838378 
L 455.904 361.584971 
L 456.7968 363.596062 
L 457.6896 364.462198 
L 458.5824 370.552435 
L 459.4752 362.605513 
L 460.368 362.456378 
L 461.2608 365.364199 
L 462.1536 363.333195 
L 463.0464 364.261862 
L 463.9392 361.826259 
L 464.832 363.744088 
L 465.7248 366.890977 
L 466.6176 364.439224 
L 467.5104 367.986514 
L 468.4032 361.663206 
L 470.1888 365.604764 
L 471.0816 360.231369 
L 471.9744 364.86996 
L 472.8672 362.365732 
L 473.76 365.968052 
L 474.6528 367.316484 
L 475.5456 361.330641 
L 476.4384 364.749594 
L 477.3312 363.840406 
L 478.224 364.825755 
L 479.1168 366.023397 
L 480.0096 363.29816 
L 480.9024 366.062204 
L 481.7952 364.056221 
L 482.688 367.30388 
L 483.5808 365.322983 
L 484.4736 367.417722 
L 485.3664 361.661064 
L 486.2592 360.124337 
L 487.152 368.796199 
L 488.0448 361.249517 
L 488.9376 363.346151 
L 489.8304 359.221317 
L 490.7232 367.864674 
L 491.616 367.71441 
L 492.5088 365.752133 
L 493.4016 364.923584 
L 494.2944 366.134664 
L 495.1872 362.539119 
L 496.08 365.236304 
L 497.8656 361.194814 
L 498.7584 367.536481 
L 499.6512 364.877816 
L 500.544 363.900907 
L 501.4368 363.14717 
L 502.3296 362.916248 
L 503.2224 365.525738 
L 504.1152 367.421484 
L 505.008 366.642007 
L 505.9008 364.246305 
L 506.7936 366.763635 
L 507.6864 363.638459 
L 508.5792 366.532392 
L 509.472 364.717831 
L 510.3648 365.123848 
L 511.2576 369.205933 
L 512.1504 361.699812 
L 513.0432 368.828965 
L 513.936 368.249162 
L 514.8288 363.904116 
L 515.7216 365.392115 
L 516.6144 364.928519 
L 517.5072 367.092688 
L 517.5072 367.092688 
" style="fill:none;stroke:#0000ff;stroke-linecap:square;"/>
   </g>
   <g id="line2d_2">
    <path clip-path="url(#pf2fd6e863e)" d="M 72 62.609226 
L 72.8928 320.38213 
L 73.7856 310.99317 
L 74.6784 316.603707 
L 75.5712 320.639154 
L 76.464 319.030129 
L 77.3568 316.938345 
L 78.2496 331.915331 
L 79.1424 332.633898 
L 80.0352 333.495286 
L 80.928 335.72788 
L 81.8208 342.814175 
L 82.7136 342.1277 
L 83.6064 349.30761 
L 84.4992 351.752185 
L 85.392 358.4954 
L 86.2848 357.066652 
L 87.1776 355.317041 
L 88.0704 346.19757 
L 88.9632 346.798153 
L 90.7488 353.66787 
L 91.6416 352.861924 
L 92.5344 353.808849 
L 93.4272 342.599941 
L 94.32 352.22097 
L 95.2128 348.462304 
L 96.1056 352.024975 
L 96.9984 354.625411 
L 97.8912 346.297789 
L 98.784 352.799332 
L 99.6768 346.52797 
L 100.5696 343.79842 
L 101.4624 348.657209 
L 102.3552 345.83851 
L 103.248 348.282833 
L 104.1408 347.8288 
L 105.0336 339.273146 
L 105.9264 344.223388 
L 106.8192 351.38902 
L 108.6048 346.754431 
L 109.4976 347.895989 
L 110.3904 355.529148 
L 111.2832 343.07287 
L 112.176 348.526758 
L 113.0688 342.850213 
L 113.9616 350.937806 
L 114.8544 351.303872 
L 115.7472 351.29233 
L 116.64 347.045251 
L 117.5328 350.543466 
L 118.4256 343.708352 
L 119.3184 347.593218 
L 120.2112 345.489022 
L 121.104 349.614357 
L 121.9968 350.490332 
L 122.8896 348.374134 
L 123.7824 342.397809 
L 124.6752 348.179229 
L 125.568 345.722518 
L 126.4608 344.791761 
L 127.3536 348.39979 
L 128.2464 349.086157 
L 129.1392 351.030711 
L 130.032 346.932108 
L 130.9248 348.806909 
L 131.8176 351.20222 
L 132.7104 351.794206 
L 133.6032 350.163258 
L 134.496 348.984605 
L 135.3888 355.379936 
L 136.2816 346.38658 
L 137.1744 348.982981 
L 138.0672 348.600134 
L 138.96 345.805768 
L 139.8528 348.585491 
L 140.7456 347.156907 
L 141.6384 349.074023 
L 142.5312 347.94586 
L 143.424 349.678316 
L 144.3168 344.408504 
L 145.2096 348.219491 
L 146.1024 348.109026 
L 146.9952 351.187734 
L 147.888 349.081359 
L 148.7808 349.552333 
L 149.6736 353.04102 
L 150.5664 346.399354 
L 151.4592 349.651945 
L 152.352 346.992169 
L 153.2448 348.455439 
L 154.1376 349.064272 
L 155.0304 348.751938 
L 155.9232 344.431811 
L 156.816 348.351185 
L 157.7088 348.30065 
L 158.6016 349.010021 
L 159.4944 348.415771 
L 160.3872 349.790062 
L 161.28 348.016176 
L 162.1728 349.688701 
L 163.0656 347.745281 
L 163.9584 351.145467 
L 164.8512 346.230807 
L 165.744 343.032406 
L 166.6368 347.326919 
L 167.5296 342.507779 
L 168.4224 348.217151 
L 169.3152 347.514037 
L 170.208 352.175753 
L 171.1008 351.143303 
L 171.9936 349.489768 
L 172.8864 342.389301 
L 173.7792 348.66463 
L 174.672 342.839007 
L 175.5648 346.905439 
L 176.4576 348.88473 
L 177.3504 346.916175 
L 178.2432 353.884276 
L 179.136 347.147486 
L 180.0288 345.038379 
L 180.9216 347.929475 
L 181.8144 353.073716 
L 182.7072 346.362308 
L 183.6 349.27892 
L 184.4928 350.618905 
L 185.3856 347.155367 
L 186.2784 340.295007 
L 187.1712 353.065144 
L 188.9568 346.05862 
L 189.8496 351.90697 
L 190.7424 348.183118 
L 191.6352 349.920268 
L 192.528 343.469795 
L 193.4208 353.327707 
L 194.3136 353.171832 
L 195.2064 353.675785 
L 196.0992 348.244652 
L 196.992 347.859701 
L 197.8848 354.017367 
L 198.7776 349.255321 
L 199.6704 348.766991 
L 200.5632 347.92964 
L 201.456 351.388224 
L 202.3488 348.288333 
L 203.2416 352.801764 
L 204.1344 350.40287 
L 205.0272 349.126338 
L 205.92 349.418157 
L 206.8128 344.909566 
L 207.7056 343.912316 
L 209.4912 349.128871 
L 210.384 341.932442 
L 212.1696 350.100344 
L 213.0624 347.786122 
L 213.9552 348.97686 
L 214.848 347.67216 
L 215.7408 348.171305 
L 216.6336 348.200026 
L 217.5264 351.812378 
L 218.4192 349.311864 
L 219.312 343.774835 
L 220.2048 345.49908 
L 221.9904 351.703206 
L 222.8832 345.592834 
L 223.776 355.413714 
L 224.6688 349.02005 
L 225.5616 345.899578 
L 226.4544 345.7849 
L 227.3472 347.622203 
L 228.24 355.062247 
L 229.1328 348.294303 
L 230.0256 347.081294 
L 230.9184 344.489536 
L 231.8112 345.451562 
L 232.704 350.674071 
L 233.5968 348.934931 
L 234.4896 350.915267 
L 235.3824 344.137346 
L 236.2752 347.995751 
L 237.168 342.321523 
L 238.0608 348.292674 
L 238.9536 348.453999 
L 239.8464 347.096366 
L 240.7392 349.271697 
L 241.632 350.383888 
L 242.5248 348.118245 
L 243.4176 350.775483 
L 244.3104 348.780664 
L 245.2032 352.441946 
L 246.096 348.342164 
L 246.9888 347.028113 
L 247.8816 351.808498 
L 248.7744 349.387917 
L 249.6672 354.279734 
L 250.56 343.838173 
L 251.4528 347.21815 
L 252.3456 342.962961 
L 253.2384 345.882901 
L 254.1312 342.967453 
L 255.024 344.439133 
L 255.9168 349.85291 
L 256.8096 352.54467 
L 257.7024 347.564953 
L 258.5952 346.132043 
L 259.488 351.638011 
L 260.3808 348.367815 
L 261.2736 346.385846 
L 262.1664 348.965385 
L 263.952 350.674511 
L 264.8448 348.965258 
L 265.7376 350.286859 
L 266.6304 349.169218 
L 267.5232 344.882017 
L 268.416 348.347357 
L 269.3088 350.124028 
L 270.2016 347.018362 
L 271.9872 350.551682 
L 272.88 350.378737 
L 273.7728 344.652999 
L 274.6656 350.064012 
L 275.5584 352.109837 
L 276.4512 350.237887 
L 277.344 343.59228 
L 278.2368 348.615615 
L 279.1296 351.308185 
L 280.0224 349.976694 
L 280.9152 351.48182 
L 281.808 348.694105 
L 282.7008 347.463666 
L 283.5936 347.123025 
L 284.4864 350.647996 
L 285.3792 348.678153 
L 286.272 343.775485 
L 287.1648 351.407288 
L 288.0576 350.659183 
L 288.9504 348.845495 
L 289.8432 351.018624 
L 290.736 346.917295 
L 291.6288 347.098428 
L 292.5216 351.284467 
L 293.4144 350.092611 
L 294.3072 347.759962 
L 295.2 351.365294 
L 296.0928 345.875904 
L 296.9856 343.721686 
L 297.8784 347.909648 
L 298.7712 350.656808 
L 299.664 351.427523 
L 300.5568 346.633019 
L 301.4496 352.012954 
L 302.3424 345.048196 
L 303.2352 350.54341 
L 305.0208 351.666593 
L 305.9136 348.301912 
L 306.8064 350.998863 
L 307.6992 351.142439 
L 308.592 352.322484 
L 309.4848 352.949133 
L 310.3776 348.745667 
L 311.2704 346.766098 
L 312.1632 347.024045 
L 313.056 349.468405 
L 313.9488 350.359546 
L 314.8416 347.063652 
L 315.7344 351.77109 
L 316.6272 351.599609 
L 317.52 349.149621 
L 318.4128 345.770426 
L 319.3056 345.826047 
L 320.1984 347.547584 
L 321.0912 347.732588 
L 321.984 347.491177 
L 322.8768 350.663788 
L 323.7696 352.805521 
L 324.6624 344.999911 
L 325.5552 347.470851 
L 326.448 349.160375 
L 327.3408 351.5115 
L 328.2336 352.210051 
L 329.1264 348.43969 
L 330.0192 348.787167 
L 330.912 351.267344 
L 331.8048 347.675813 
L 332.6976 348.370193 
L 333.5904 343.091511 
L 334.4832 344.93638 
L 335.376 349.587552 
L 336.2688 347.776437 
L 337.1616 343.978281 
L 338.0544 347.091535 
L 338.9472 346.157473 
L 339.84 346.415575 
L 340.7328 350.551927 
L 341.6256 346.930187 
L 342.5184 345.033369 
L 343.4112 350.582097 
L 344.304 349.195957 
L 345.1968 347.256076 
L 346.0896 348.938981 
L 346.9824 351.871812 
L 347.8752 346.680038 
L 348.768 348.939174 
L 349.6608 349.517903 
L 350.5536 345.532999 
L 351.4464 352.084833 
L 352.3392 347.249569 
L 353.232 348.104097 
L 354.1248 352.008371 
L 355.0176 347.759378 
L 355.9104 347.989267 
L 356.8032 355.298972 
L 357.696 352.942292 
L 358.5888 347.077923 
L 359.4816 346.25514 
L 360.3744 351.614146 
L 361.2672 349.948142 
L 362.16 350.829317 
L 363.0528 348.968531 
L 363.9456 349.552533 
L 364.8384 346.539011 
L 365.7312 347.393091 
L 366.624 352.920541 
L 367.5168 345.989538 
L 368.4096 349.897607 
L 369.3024 349.756076 
L 370.1952 352.405545 
L 371.088 347.024468 
L 371.9808 349.760123 
L 372.8736 349.695971 
L 373.7664 346.334962 
L 374.6592 349.146726 
L 375.552 346.686728 
L 376.4448 347.096027 
L 377.3376 353.371623 
L 378.2304 343.258471 
L 379.1232 352.20555 
L 380.016 350.798352 
L 380.9088 350.506774 
L 381.8016 349.433714 
L 382.6944 351.164491 
L 383.5872 353.79495 
L 384.48 349.877546 
L 385.3728 353.251358 
L 386.2656 346.56051 
L 387.1584 349.92517 
L 388.0512 341.141911 
L 388.944 348.022344 
L 389.8368 348.469061 
L 390.7296 349.459596 
L 392.5152 347.094045 
L 393.408 355.187646 
L 394.3008 348.077593 
L 395.1936 349.858814 
L 396.0864 347.654465 
L 396.9792 347.263007 
L 397.872 348.283582 
L 398.7648 354.328099 
L 399.6576 350.777487 
L 400.5504 349.919421 
L 401.4432 352.750619 
L 402.336 352.672586 
L 403.2288 345.239485 
L 404.1216 346.678964 
L 405.0144 349.588649 
L 405.9072 348.764858 
L 406.8 348.985467 
L 407.6928 346.430679 
L 408.5856 352.769846 
L 409.4784 346.876605 
L 410.3712 356.894653 
L 411.264 349.331244 
L 412.1568 345.086654 
L 413.0496 345.63649 
L 413.9424 350.724491 
L 414.8352 349.889084 
L 415.728 350.278622 
L 416.6208 351.647008 
L 417.5136 345.726628 
L 418.4064 344.145421 
L 419.2992 353.000841 
L 420.192 350.369007 
L 421.0848 348.282616 
L 421.9776 345.342298 
L 422.8704 351.500256 
L 423.7632 351.442757 
L 424.656 355.780305 
L 425.5488 345.940589 
L 426.4416 342.907566 
L 427.3344 345.290063 
L 428.2272 349.242156 
L 429.12 342.65842 
L 430.0128 349.163219 
L 430.9056 354.511992 
L 431.7984 351.103922 
L 432.6912 345.73234 
L 433.584 347.928015 
L 434.4768 345.224023 
L 436.2624 347.735196 
L 437.1552 350.574867 
L 438.048 347.499332 
L 438.9408 345.11329 
L 440.7264 352.936896 
L 441.6192 345.79782 
L 442.512 348.363272 
L 443.4048 352.393449 
L 444.2976 349.685017 
L 445.1904 350.060328 
L 446.0832 351.088015 
L 446.976 350.386657 
L 447.8688 354.500376 
L 448.7616 343.956787 
L 449.6544 346.195013 
L 450.5472 351.502064 
L 451.44 351.417715 
L 452.3328 351.498088 
L 453.2256 351.845417 
L 454.1184 352.366988 
L 455.0112 347.568998 
L 455.904 346.394236 
L 457.6896 349.439258 
L 458.5824 356.263623 
L 459.4752 347.286238 
L 460.368 347.228871 
L 461.2608 350.121337 
L 462.1536 347.941406 
L 463.0464 348.768526 
L 463.9392 346.592767 
L 464.832 348.366351 
L 465.7248 351.805221 
L 466.6176 348.655835 
L 467.5104 353.113721 
L 468.4032 346.851754 
L 469.296 347.743313 
L 470.1888 349.987213 
L 471.0816 344.900573 
L 471.9744 349.791648 
L 472.8672 346.525568 
L 473.76 350.332435 
L 474.6528 352.361554 
L 475.5456 345.481592 
L 476.4384 349.063933 
L 477.3312 348.116466 
L 478.224 349.184304 
L 479.1168 350.701834 
L 480.0096 348.552033 
L 480.9024 351.007392 
L 481.7952 348.718673 
L 482.688 352.412118 
L 483.5808 349.982742 
L 484.4736 352.644486 
L 485.3664 345.636462 
L 486.2592 344.28133 
L 487.152 353.507157 
L 488.0448 345.876874 
L 488.9376 348.181701 
L 489.8304 343.552578 
L 490.7232 352.654798 
L 491.616 352.677579 
L 492.5088 350.84239 
L 493.4016 349.476301 
L 494.2944 350.845288 
L 495.1872 347.173655 
L 496.08 349.478425 
L 497.8656 345.641538 
L 498.7584 352.158108 
L 499.6512 349.356274 
L 501.4368 347.689289 
L 502.3296 347.507544 
L 503.2224 349.956024 
L 504.1152 352.787175 
L 505.008 351.933182 
L 505.9008 349.320956 
L 506.7936 352.061404 
L 507.6864 348.217979 
L 508.5792 351.17832 
L 509.472 349.423598 
L 510.3648 349.915131 
L 511.2576 354.650368 
L 512.1504 345.759545 
L 513.0432 354.14141 
L 513.936 353.114316 
L 514.8288 348.710815 
L 515.7216 350.188771 
L 516.6144 349.577318 
L 517.5072 352.122369 
L 517.5072 352.122369 
" style="fill:none;stroke:#008000;stroke-linecap:square;"/>
   </g>
   <g id="patch_3">
    <path d="M 72 43.2 
L 518.4 43.2 
" style="fill:none;stroke:#000000;stroke-linecap:square;stroke-linejoin:miter;"/>
   </g>
   <g id="patch_4">
    <path d="M 518.4 388.8 
L 518.4 43.2 
" style="fill:none;stroke:#000000;stroke-linecap:square;stroke-linejoin:miter;"/>
   </g>
   <g id="patch_5">
    <path d="M 72 388.8 
L 518.4 388.8 
" style="fill:none;stroke:#000000;stroke-linecap:square;stroke-linejoin:miter;"/>
   </g>
   <g id="patch_6">
    <path d="M 72 388.8 
L 72 43.2 
" style="fill:none;stroke:#000000;stroke-linecap:square;stroke-linejoin:miter;"/>
   </g>
   <g id="matplotlib.axis_1">
    <g id="xtick_1">
     <g id="line2d_3">
      <defs>
       <path d="M 0 0 
L 0 -4 
" id="m985b1fa70b" style="stroke:#000000;stroke-width:0.5;"/>
      </defs>
      <g>
       <use style="stroke:#000000;stroke-width:0.5;" x="72.0" xlink:href="#m985b1fa70b" y="388.8"/>
      </g>
     </g>
     <g id="line2d_4">
      <defs>
       <path d="M 0 0 
L 0 4 
" id="mce0c0d2e07" style="stroke:#000000;stroke-width:0.5;"/>
      </defs>
      <g>
       <use style="stroke:#000000;stroke-width:0.5;" x="72.0" xlink:href="#mce0c0d2e07" y="43.2"/>
      </g>
     </g>
     <g id="text_1">
      <!-- 0 -->
      <defs>
       <path d="M 31.78125 66.40625 
Q 24.171875 66.40625 20.328125 58.90625 
Q 16.5 51.421875 16.5 36.375 
Q 16.5 21.390625 20.328125 13.890625 
Q 24.171875 6.390625 31.78125 6.390625 
Q 39.453125 6.390625 43.28125 13.890625 
Q 47.125 21.390625 47.125 36.375 
Q 47.125 51.421875 43.28125 58.90625 
Q 39.453125 66.40625 31.78125 66.40625 
M 31.78125 74.21875 
Q 44.046875 74.21875 50.515625 64.515625 
Q 56.984375 54.828125 56.984375 36.375 
Q 56.984375 17.96875 50.515625 8.265625 
Q 44.046875 -1.421875 31.78125 -1.421875 
Q 19.53125 -1.421875 13.0625 8.265625 
Q 6.59375 17.96875 6.59375 36.375 
Q 6.59375 54.828125 13.0625 64.515625 
Q 19.53125 74.21875 31.78125 74.21875 
" id="BitstreamVeraSans-Roman-30"/>
      </defs>
      <g transform="translate(68.1825 401.918125)scale(0.12 -0.12)">
       <use xlink:href="#BitstreamVeraSans-Roman-30"/>
      </g>
     </g>
    </g>
    <g id="xtick_2">
     <g id="line2d_5">
      <g>
       <use style="stroke:#000000;stroke-width:0.5;" x="161.28" xlink:href="#m985b1fa70b" y="388.8"/>
      </g>
     </g>
     <g id="line2d_6">
      <g>
       <use style="stroke:#000000;stroke-width:0.5;" x="161.28" xlink:href="#mce0c0d2e07" y="43.2"/>
      </g>
     </g>
     <g id="text_2">
      <!-- 100 -->
      <defs>
       <path d="M 12.40625 8.296875 
L 28.515625 8.296875 
L 28.515625 63.921875 
L 10.984375 60.40625 
L 10.984375 69.390625 
L 28.421875 72.90625 
L 38.28125 72.90625 
L 38.28125 8.296875 
L 54.390625 8.296875 
L 54.390625 0 
L 12.40625 0 
z
" id="BitstreamVeraSans-Roman-31"/>
      </defs>
      <g transform="translate(149.8275 401.918125)scale(0.12 -0.12)">
       <use xlink:href="#BitstreamVeraSans-Roman-31"/>
       <use x="63.623046875" xlink:href="#BitstreamVeraSans-Roman-30"/>
       <use x="127.24609375" xlink:href="#BitstreamVeraSans-Roman-30"/>
      </g>
     </g>
    </g>
    <g id="xtick_3">
     <g id="line2d_7">
      <g>
       <use style="stroke:#000000;stroke-width:0.5;" x="250.56" xlink:href="#m985b1fa70b" y="388.8"/>
      </g>
     </g>
     <g id="line2d_8">
      <g>
       <use style="stroke:#000000;stroke-width:0.5;" x="250.56" xlink:href="#mce0c0d2e07" y="43.2"/>
      </g>
     </g>
     <g id="text_3">
      <!-- 200 -->
      <defs>
       <path d="M 19.1875 8.296875 
L 53.609375 8.296875 
L 53.609375 0 
L 7.328125 0 
L 7.328125 8.296875 
Q 12.9375 14.109375 22.625 23.890625 
Q 32.328125 33.6875 34.8125 36.53125 
Q 39.546875 41.84375 41.421875 45.53125 
Q 43.3125 49.21875 43.3125 52.78125 
Q 43.3125 58.59375 39.234375 62.25 
Q 35.15625 65.921875 28.609375 65.921875 
Q 23.96875 65.921875 18.8125 64.3125 
Q 13.671875 62.703125 7.8125 59.421875 
L 7.8125 69.390625 
Q 13.765625 71.78125 18.9375 73 
Q 24.125 74.21875 28.421875 74.21875 
Q 39.75 74.21875 46.484375 68.546875 
Q 53.21875 62.890625 53.21875 53.421875 
Q 53.21875 48.921875 51.53125 44.890625 
Q 49.859375 40.875 45.40625 35.40625 
Q 44.1875 33.984375 37.640625 27.21875 
Q 31.109375 20.453125 19.1875 8.296875 
" id="BitstreamVeraSans-Roman-32"/>
      </defs>
      <g transform="translate(239.1075 401.918125)scale(0.12 -0.12)">
       <use xlink:href="#BitstreamVeraSans-Roman-32"/>
       <use x="63.623046875" xlink:href="#BitstreamVeraSans-Roman-30"/>
       <use x="127.24609375" xlink:href="#BitstreamVeraSans-Roman-30"/>
      </g>
     </g>
    </g>
    <g id="xtick_4">
     <g id="line2d_9">
      <g>
       <use style="stroke:#000000;stroke-width:0.5;" x="339.84" xlink:href="#m985b1fa70b" y="388.8"/>
      </g>
     </g>
     <g id="line2d_10">
      <g>
       <use style="stroke:#000000;stroke-width:0.5;" x="339.84" xlink:href="#mce0c0d2e07" y="43.2"/>
      </g>
     </g>
     <g id="text_4">
      <!-- 300 -->
      <defs>
       <path d="M 40.578125 39.3125 
Q 47.65625 37.796875 51.625 33 
Q 55.609375 28.21875 55.609375 21.1875 
Q 55.609375 10.40625 48.1875 4.484375 
Q 40.765625 -1.421875 27.09375 -1.421875 
Q 22.515625 -1.421875 17.65625 -0.515625 
Q 12.796875 0.390625 7.625 2.203125 
L 7.625 11.71875 
Q 11.71875 9.328125 16.59375 8.109375 
Q 21.484375 6.890625 26.8125 6.890625 
Q 36.078125 6.890625 40.9375 10.546875 
Q 45.796875 14.203125 45.796875 21.1875 
Q 45.796875 27.640625 41.28125 31.265625 
Q 36.765625 34.90625 28.71875 34.90625 
L 20.21875 34.90625 
L 20.21875 43.015625 
L 29.109375 43.015625 
Q 36.375 43.015625 40.234375 45.921875 
Q 44.09375 48.828125 44.09375 54.296875 
Q 44.09375 59.90625 40.109375 62.90625 
Q 36.140625 65.921875 28.71875 65.921875 
Q 24.65625 65.921875 20.015625 65.03125 
Q 15.375 64.15625 9.8125 62.3125 
L 9.8125 71.09375 
Q 15.4375 72.65625 20.34375 73.4375 
Q 25.25 74.21875 29.59375 74.21875 
Q 40.828125 74.21875 47.359375 69.109375 
Q 53.90625 64.015625 53.90625 55.328125 
Q 53.90625 49.265625 50.4375 45.09375 
Q 46.96875 40.921875 40.578125 39.3125 
" id="BitstreamVeraSans-Roman-33"/>
      </defs>
      <g transform="translate(328.3875 401.918125)scale(0.12 -0.12)">
       <use xlink:href="#BitstreamVeraSans-Roman-33"/>
       <use x="63.623046875" xlink:href="#BitstreamVeraSans-Roman-30"/>
       <use x="127.24609375" xlink:href="#BitstreamVeraSans-Roman-30"/>
      </g>
     </g>
    </g>
    <g id="xtick_5">
     <g id="line2d_11">
      <g>
       <use style="stroke:#000000;stroke-width:0.5;" x="429.12" xlink:href="#m985b1fa70b" y="388.8"/>
      </g>
     </g>
     <g id="line2d_12">
      <g>
       <use style="stroke:#000000;stroke-width:0.5;" x="429.12" xlink:href="#mce0c0d2e07" y="43.2"/>
      </g>
     </g>
     <g id="text_5">
      <!-- 400 -->
      <defs>
       <path d="M 37.796875 64.3125 
L 12.890625 25.390625 
L 37.796875 25.390625 
z
M 35.203125 72.90625 
L 47.609375 72.90625 
L 47.609375 25.390625 
L 58.015625 25.390625 
L 58.015625 17.1875 
L 47.609375 17.1875 
L 47.609375 0 
L 37.796875 0 
L 37.796875 17.1875 
L 4.890625 17.1875 
L 4.890625 26.703125 
z
" id="BitstreamVeraSans-Roman-34"/>
      </defs>
      <g transform="translate(417.6675 401.918125)scale(0.12 -0.12)">
       <use xlink:href="#BitstreamVeraSans-Roman-34"/>
       <use x="63.623046875" xlink:href="#BitstreamVeraSans-Roman-30"/>
       <use x="127.24609375" xlink:href="#BitstreamVeraSans-Roman-30"/>
      </g>
     </g>
    </g>
    <g id="xtick_6">
     <g id="line2d_13">
      <g>
       <use style="stroke:#000000;stroke-width:0.5;" x="518.4" xlink:href="#m985b1fa70b" y="388.8"/>
      </g>
     </g>
     <g id="line2d_14">
      <g>
       <use style="stroke:#000000;stroke-width:0.5;" x="518.4" xlink:href="#mce0c0d2e07" y="43.2"/>
      </g>
     </g>
     <g id="text_6">
      <!-- 500 -->
      <defs>
       <path d="M 10.796875 72.90625 
L 49.515625 72.90625 
L 49.515625 64.59375 
L 19.828125 64.59375 
L 19.828125 46.734375 
Q 21.96875 47.46875 24.109375 47.828125 
Q 26.265625 48.1875 28.421875 48.1875 
Q 40.625 48.1875 47.75 41.5 
Q 54.890625 34.8125 54.890625 23.390625 
Q 54.890625 11.625 47.5625 5.09375 
Q 40.234375 -1.421875 26.90625 -1.421875 
Q 22.3125 -1.421875 17.546875 -0.640625 
Q 12.796875 0.140625 7.71875 1.703125 
L 7.71875 11.625 
Q 12.109375 9.234375 16.796875 8.0625 
Q 21.484375 6.890625 26.703125 6.890625 
Q 35.15625 6.890625 40.078125 11.328125 
Q 45.015625 15.765625 45.015625 23.390625 
Q 45.015625 31 40.078125 35.4375 
Q 35.15625 39.890625 26.703125 39.890625 
Q 22.75 39.890625 18.8125 39.015625 
Q 14.890625 38.140625 10.796875 36.28125 
z
" id="BitstreamVeraSans-Roman-35"/>
      </defs>
      <g transform="translate(506.9475 401.918125)scale(0.12 -0.12)">
       <use xlink:href="#BitstreamVeraSans-Roman-35"/>
       <use x="63.623046875" xlink:href="#BitstreamVeraSans-Roman-30"/>
       <use x="127.24609375" xlink:href="#BitstreamVeraSans-Roman-30"/>
      </g>
     </g>
    </g>
   </g>
   <g id="matplotlib.axis_2">
    <g id="ytick_1">
     <g id="line2d_15">
      <defs>
       <path d="M 0 0 
L 4 0 
" id="m5b5308bef8" style="stroke:#000000;stroke-width:0.5;"/>
      </defs>
      <g>
       <use style="stroke:#000000;stroke-width:0.5;" x="72.0" xlink:href="#m5b5308bef8" y="388.8"/>
      </g>
     </g>
     <g id="line2d_16">
      <defs>
       <path d="M 0 0 
L -4 0 
" id="mfedc3e9975" style="stroke:#000000;stroke-width:0.5;"/>
      </defs>
      <g>
       <use style="stroke:#000000;stroke-width:0.5;" x="518.4" xlink:href="#mfedc3e9975" y="388.8"/>
      </g>
     </g>
     <g id="text_7">
      <!-- 0 -->
      <g transform="translate(60.365 392.11125)scale(0.12 -0.12)">
       <use xlink:href="#BitstreamVeraSans-Roman-30"/>
      </g>
     </g>
    </g>
    <g id="ytick_2">
     <g id="line2d_17">
      <g>
       <use style="stroke:#000000;stroke-width:0.5;" x="72.0" xlink:href="#m5b5308bef8" y="339.428571429"/>
      </g>
     </g>
     <g id="line2d_18">
      <g>
       <use style="stroke:#000000;stroke-width:0.5;" x="518.4" xlink:href="#mfedc3e9975" y="339.428571429"/>
      </g>
     </g>
     <g id="text_8">
      <!-- 20 -->
      <g transform="translate(52.73 342.739821429)scale(0.12 -0.12)">
       <use xlink:href="#BitstreamVeraSans-Roman-32"/>
       <use x="63.623046875" xlink:href="#BitstreamVeraSans-Roman-30"/>
      </g>
     </g>
    </g>
    <g id="ytick_3">
     <g id="line2d_19">
      <g>
       <use style="stroke:#000000;stroke-width:0.5;" x="72.0" xlink:href="#m5b5308bef8" y="290.057142857"/>
      </g>
     </g>
     <g id="line2d_20">
      <g>
       <use style="stroke:#000000;stroke-width:0.5;" x="518.4" xlink:href="#mfedc3e9975" y="290.057142857"/>
      </g>
     </g>
     <g id="text_9">
      <!-- 40 -->
      <g transform="translate(52.73 293.368392857)scale(0.12 -0.12)">
       <use xlink:href="#BitstreamVeraSans-Roman-34"/>
       <use x="63.623046875" xlink:href="#BitstreamVeraSans-Roman-30"/>
      </g>
     </g>
    </g>
    <g id="ytick_4">
     <g id="line2d_21">
      <g>
       <use style="stroke:#000000;stroke-width:0.5;" x="72.0" xlink:href="#m5b5308bef8" y="240.685714286"/>
      </g>
     </g>
     <g id="line2d_22">
      <g>
       <use style="stroke:#000000;stroke-width:0.5;" x="518.4" xlink:href="#mfedc3e9975" y="240.685714286"/>
      </g>
     </g>
     <g id="text_10">
      <!-- 60 -->
      <defs>
       <path d="M 33.015625 40.375 
Q 26.375 40.375 22.484375 35.828125 
Q 18.609375 31.296875 18.609375 23.390625 
Q 18.609375 15.53125 22.484375 10.953125 
Q 26.375 6.390625 33.015625 6.390625 
Q 39.65625 6.390625 43.53125 10.953125 
Q 47.40625 15.53125 47.40625 23.390625 
Q 47.40625 31.296875 43.53125 35.828125 
Q 39.65625 40.375 33.015625 40.375 
M 52.59375 71.296875 
L 52.59375 62.3125 
Q 48.875 64.0625 45.09375 64.984375 
Q 41.3125 65.921875 37.59375 65.921875 
Q 27.828125 65.921875 22.671875 59.328125 
Q 17.53125 52.734375 16.796875 39.40625 
Q 19.671875 43.65625 24.015625 45.921875 
Q 28.375 48.1875 33.59375 48.1875 
Q 44.578125 48.1875 50.953125 41.515625 
Q 57.328125 34.859375 57.328125 23.390625 
Q 57.328125 12.15625 50.6875 5.359375 
Q 44.046875 -1.421875 33.015625 -1.421875 
Q 20.359375 -1.421875 13.671875 8.265625 
Q 6.984375 17.96875 6.984375 36.375 
Q 6.984375 53.65625 15.1875 63.9375 
Q 23.390625 74.21875 37.203125 74.21875 
Q 40.921875 74.21875 44.703125 73.484375 
Q 48.484375 72.75 52.59375 71.296875 
" id="BitstreamVeraSans-Roman-36"/>
      </defs>
      <g transform="translate(52.73 243.996964286)scale(0.12 -0.12)">
       <use xlink:href="#BitstreamVeraSans-Roman-36"/>
       <use x="63.623046875" xlink:href="#BitstreamVeraSans-Roman-30"/>
      </g>
     </g>
    </g>
    <g id="ytick_5">
     <g id="line2d_23">
      <g>
       <use style="stroke:#000000;stroke-width:0.5;" x="72.0" xlink:href="#m5b5308bef8" y="191.314285714"/>
      </g>
     </g>
     <g id="line2d_24">
      <g>
       <use style="stroke:#000000;stroke-width:0.5;" x="518.4" xlink:href="#mfedc3e9975" y="191.314285714"/>
      </g>
     </g>
     <g id="text_11">
      <!-- 80 -->
      <defs>
       <path d="M 31.78125 34.625 
Q 24.75 34.625 20.71875 30.859375 
Q 16.703125 27.09375 16.703125 20.515625 
Q 16.703125 13.921875 20.71875 10.15625 
Q 24.75 6.390625 31.78125 6.390625 
Q 38.8125 6.390625 42.859375 10.171875 
Q 46.921875 13.96875 46.921875 20.515625 
Q 46.921875 27.09375 42.890625 30.859375 
Q 38.875 34.625 31.78125 34.625 
M 21.921875 38.8125 
Q 15.578125 40.375 12.03125 44.71875 
Q 8.5 49.078125 8.5 55.328125 
Q 8.5 64.0625 14.71875 69.140625 
Q 20.953125 74.21875 31.78125 74.21875 
Q 42.671875 74.21875 48.875 69.140625 
Q 55.078125 64.0625 55.078125 55.328125 
Q 55.078125 49.078125 51.53125 44.71875 
Q 48 40.375 41.703125 38.8125 
Q 48.828125 37.15625 52.796875 32.3125 
Q 56.78125 27.484375 56.78125 20.515625 
Q 56.78125 9.90625 50.3125 4.234375 
Q 43.84375 -1.421875 31.78125 -1.421875 
Q 19.734375 -1.421875 13.25 4.234375 
Q 6.78125 9.90625 6.78125 20.515625 
Q 6.78125 27.484375 10.78125 32.3125 
Q 14.796875 37.15625 21.921875 38.8125 
M 18.3125 54.390625 
Q 18.3125 48.734375 21.84375 45.5625 
Q 25.390625 42.390625 31.78125 42.390625 
Q 38.140625 42.390625 41.71875 45.5625 
Q 45.3125 48.734375 45.3125 54.390625 
Q 45.3125 60.0625 41.71875 63.234375 
Q 38.140625 66.40625 31.78125 66.40625 
Q 25.390625 66.40625 21.84375 63.234375 
Q 18.3125 60.0625 18.3125 54.390625 
" id="BitstreamVeraSans-Roman-38"/>
      </defs>
      <g transform="translate(52.73 194.625535714)scale(0.12 -0.12)">
       <use xlink:href="#BitstreamVeraSans-Roman-38"/>
       <use x="63.623046875" xlink:href="#BitstreamVeraSans-Roman-30"/>
      </g>
     </g>
    </g>
    <g id="ytick_6">
     <g id="line2d_25">
      <g>
       <use style="stroke:#000000;stroke-width:0.5;" x="72.0" xlink:href="#m5b5308bef8" y="141.942857143"/>
      </g>
     </g>
     <g id="line2d_26">
      <g>
       <use style="stroke:#000000;stroke-width:0.5;" x="518.4" xlink:href="#mfedc3e9975" y="141.942857143"/>
      </g>
     </g>
     <g id="text_12">
      <!-- 100 -->
      <g transform="translate(45.095 145.254107143)scale(0.12 -0.12)">
       <use xlink:href="#BitstreamVeraSans-Roman-31"/>
       <use x="63.623046875" xlink:href="#BitstreamVeraSans-Roman-30"/>
       <use x="127.24609375" xlink:href="#BitstreamVeraSans-Roman-30"/>
      </g>
     </g>
    </g>
    <g id="ytick_7">
     <g id="line2d_27">
      <g>
       <use style="stroke:#000000;stroke-width:0.5;" x="72.0" xlink:href="#m5b5308bef8" y="92.5714285714"/>
      </g>
     </g>
     <g id="line2d_28">
      <g>
       <use style="stroke:#000000;stroke-width:0.5;" x="518.4" xlink:href="#mfedc3e9975" y="92.5714285714"/>
      </g>
     </g>
     <g id="text_13">
      <!-- 120 -->
      <g transform="translate(45.095 95.8826785714)scale(0.12 -0.12)">
       <use xlink:href="#BitstreamVeraSans-Roman-31"/>
       <use x="63.623046875" xlink:href="#BitstreamVeraSans-Roman-32"/>
       <use x="127.24609375" xlink:href="#BitstreamVeraSans-Roman-30"/>
      </g>
     </g>
    </g>
    <g id="ytick_8">
     <g id="line2d_29">
      <g>
       <use style="stroke:#000000;stroke-width:0.5;" x="72.0" xlink:href="#m5b5308bef8" y="43.2"/>
      </g>
     </g>
     <g id="line2d_30">
      <g>
       <use style="stroke:#000000;stroke-width:0.5;" x="518.4" xlink:href="#mfedc3e9975" y="43.2"/>
      </g>
     </g>
     <g id="text_14">
      <!-- 140 -->
      <g transform="translate(45.095 46.51125)scale(0.12 -0.12)">
       <use xlink:href="#BitstreamVeraSans-Roman-31"/>
       <use x="63.623046875" xlink:href="#BitstreamVeraSans-Roman-34"/>
       <use x="127.24609375" xlink:href="#BitstreamVeraSans-Roman-30"/>
      </g>
     </g>
    </g>
   </g>
   <g id="legend_1">
    <g id="patch_7">
     <path d="M 437.4225 96.993 
L 511.2 96.993 
L 511.2 50.4 
L 437.4225 50.4 
z
" style="fill:#ffffff;stroke:#000000;stroke-linejoin:miter;"/>
    </g>
    <g id="line2d_31">
     <path d="M 447.5025 62.06175 
L 467.6625 62.06175 
" style="fill:none;stroke:#0000ff;stroke-linecap:square;"/>
    </g>
    <g id="line2d_32"/>
    <g id="text_15">
     <!-- sig -->
     <defs>
      <path d="M 45.40625 27.984375 
Q 45.40625 37.75 41.375 43.109375 
Q 37.359375 48.484375 30.078125 48.484375 
Q 22.859375 48.484375 18.828125 43.109375 
Q 14.796875 37.75 14.796875 27.984375 
Q 14.796875 18.265625 18.828125 12.890625 
Q 22.859375 7.515625 30.078125 7.515625 
Q 37.359375 7.515625 41.375 12.890625 
Q 45.40625 18.265625 45.40625 27.984375 
M 54.390625 6.78125 
Q 54.390625 -7.171875 48.1875 -13.984375 
Q 42 -20.796875 29.203125 -20.796875 
Q 24.46875 -20.796875 20.265625 -20.09375 
Q 16.0625 -19.390625 12.109375 -17.921875 
L 12.109375 -9.1875 
Q 16.0625 -11.328125 19.921875 -12.34375 
Q 23.78125 -13.375 27.78125 -13.375 
Q 36.625 -13.375 41.015625 -8.765625 
Q 45.40625 -4.15625 45.40625 5.171875 
L 45.40625 9.625 
Q 42.625 4.78125 38.28125 2.390625 
Q 33.9375 0 27.875 0 
Q 17.828125 0 11.671875 7.65625 
Q 5.515625 15.328125 5.515625 27.984375 
Q 5.515625 40.671875 11.671875 48.328125 
Q 17.828125 56 27.875 56 
Q 33.9375 56 38.28125 53.609375 
Q 42.625 51.21875 45.40625 46.390625 
L 45.40625 54.6875 
L 54.390625 54.6875 
z
" id="BitstreamVeraSans-Roman-67"/>
      <path d="M 9.421875 54.6875 
L 18.40625 54.6875 
L 18.40625 0 
L 9.421875 0 
z
M 9.421875 75.984375 
L 18.40625 75.984375 
L 18.40625 64.59375 
L 9.421875 64.59375 
z
" id="BitstreamVeraSans-Roman-69"/>
      <path d="M 44.28125 53.078125 
L 44.28125 44.578125 
Q 40.484375 46.53125 36.375 47.5 
Q 32.28125 48.484375 27.875 48.484375 
Q 21.1875 48.484375 17.84375 46.4375 
Q 14.5 44.390625 14.5 40.28125 
Q 14.5 37.15625 16.890625 35.375 
Q 19.28125 33.59375 26.515625 31.984375 
L 29.59375 31.296875 
Q 39.15625 29.25 43.1875 25.515625 
Q 47.21875 21.78125 47.21875 15.09375 
Q 47.21875 7.46875 41.1875 3.015625 
Q 35.15625 -1.421875 24.609375 -1.421875 
Q 20.21875 -1.421875 15.453125 -0.5625 
Q 10.6875 0.296875 5.421875 2 
L 5.421875 11.28125 
Q 10.40625 8.6875 15.234375 7.390625 
Q 20.0625 6.109375 24.8125 6.109375 
Q 31.15625 6.109375 34.5625 8.28125 
Q 37.984375 10.453125 37.984375 14.40625 
Q 37.984375 18.0625 35.515625 20.015625 
Q 33.0625 21.96875 24.703125 23.78125 
L 21.578125 24.515625 
Q 13.234375 26.265625 9.515625 29.90625 
Q 5.8125 33.546875 5.8125 39.890625 
Q 5.8125 47.609375 11.28125 51.796875 
Q 16.75 56 26.8125 56 
Q 31.78125 56 36.171875 55.265625 
Q 40.578125 54.546875 44.28125 53.078125 
" id="BitstreamVeraSans-Roman-73"/>
     </defs>
     <g transform="translate(483.5025 67.10175)scale(0.144 -0.144)">
      <use xlink:href="#BitstreamVeraSans-Roman-73"/>
      <use x="52.099609375" xlink:href="#BitstreamVeraSans-Roman-69"/>
      <use x="79.8828125" xlink:href="#BitstreamVeraSans-Roman-67"/>
     </g>
    </g>
    <g id="line2d_33">
     <path d="M 447.5025 83.19825 
L 467.6625 83.19825 
" style="fill:none;stroke:#008000;stroke-linecap:square;"/>
    </g>
    <g id="line2d_34"/>
    <g id="text_16">
     <!-- noi -->
     <defs>
      <path d="M 54.890625 33.015625 
L 54.890625 0 
L 45.90625 0 
L 45.90625 32.71875 
Q 45.90625 40.484375 42.875 44.328125 
Q 39.84375 48.1875 33.796875 48.1875 
Q 26.515625 48.1875 22.3125 43.546875 
Q 18.109375 38.921875 18.109375 30.90625 
L 18.109375 0 
L 9.078125 0 
L 9.078125 54.6875 
L 18.109375 54.6875 
L 18.109375 46.1875 
Q 21.34375 51.125 25.703125 53.5625 
Q 30.078125 56 35.796875 56 
Q 45.21875 56 50.046875 50.171875 
Q 54.890625 44.34375 54.890625 33.015625 
" id="BitstreamVeraSans-Roman-6e"/>
      <path d="M 30.609375 48.390625 
Q 23.390625 48.390625 19.1875 42.75 
Q 14.984375 37.109375 14.984375 27.296875 
Q 14.984375 17.484375 19.15625 11.84375 
Q 23.34375 6.203125 30.609375 6.203125 
Q 37.796875 6.203125 41.984375 11.859375 
Q 46.1875 17.53125 46.1875 27.296875 
Q 46.1875 37.015625 41.984375 42.703125 
Q 37.796875 48.390625 30.609375 48.390625 
M 30.609375 56 
Q 42.328125 56 49.015625 48.375 
Q 55.71875 40.765625 55.71875 27.296875 
Q 55.71875 13.875 49.015625 6.21875 
Q 42.328125 -1.421875 30.609375 -1.421875 
Q 18.84375 -1.421875 12.171875 6.21875 
Q 5.515625 13.875 5.515625 27.296875 
Q 5.515625 40.765625 12.171875 48.375 
Q 18.84375 56 30.609375 56 
" id="BitstreamVeraSans-Roman-6f"/>
     </defs>
     <g transform="translate(483.5025 88.23825)scale(0.144 -0.144)">
      <use xlink:href="#BitstreamVeraSans-Roman-6e"/>
      <use x="63.37890625" xlink:href="#BitstreamVeraSans-Roman-6f"/>
      <use x="124.560546875" xlink:href="#BitstreamVeraSans-Roman-69"/>
     </g>
    </g>
   </g>
  </g>
 </g>
 <defs>
  <clipPath id="pf2fd6e863e">
   <rect height="345.6" width="446.4" x="72.0" y="43.2"/>
  </clipPath>
 </defs>
</svg>
