<?xml version="1.0" encoding="utf-8" standalone="no"?>
<!DOCTYPE svg PUBLIC "-//W3C//DTD SVG 1.1//EN"
  "http://www.w3.org/Graphics/SVG/1.1/DTD/svg11.dtd">
<!-- Created with matplotlib (http://matplotlib.org/) -->
<svg height="432pt" version="1.1" viewBox="0 0 576 432" width="576pt" xmlns="http://www.w3.org/2000/svg" xmlns:xlink="http://www.w3.org/1999/xlink">
 <defs>
  <style type="text/css">
*{stroke-linecap:butt;stroke-linejoin:round;stroke-miterlimit:100000;}
  </style>
 </defs>
 <g id="figure_1">
  <g id="patch_1">
   <path d="M 0 432 
L 576 432 
L 576 0 
L 0 0 
z
" style="fill:#ffffff;"/>
  </g>
  <g id="axes_1">
   <g id="patch_2">
    <path d="M 72 388.8 
L 518.4 388.8 
L 518.4 43.2 
L 72 43.2 
z
" style="fill:#ffffff;"/>
   </g>
   <g id="line2d_1">
    <path clip-path="url(#p06346d084e)" d="M 72 44.985491 
L 72.8928 86.794343 
L 73.7856 98.882378 
L 74.6784 99.416678 
L 75.5712 100.594887 
L 76.464 103.467091 
L 78.2496 112.41294 
L 80.0352 123.462916 
L 80.928 126.910586 
L 81.8208 128.701522 
L 82.7136 129.807514 
L 83.6064 130.188337 
L 84.4992 131.621247 
L 85.392 129.598634 
L 86.2848 130.996842 
L 87.1776 129.015637 
L 88.0704 130.317861 
L 88.9632 130.447243 
L 89.856 130.899437 
L 90.7488 128.801864 
L 91.6416 129.528832 
L 92.5344 129.173068 
L 93.4272 129.049433 
L 94.32 127.783918 
L 95.2128 127.186463 
L 96.1056 127.185365 
L 96.9984 128.454723 
L 97.8912 128.931195 
L 98.784 130.550999 
L 99.6768 129.771344 
L 100.5696 130.436902 
L 101.4624 132.368295 
L 102.3552 133.539367 
L 103.248 132.717965 
L 104.1408 134.048805 
L 105.0336 133.83053 
L 105.9264 135.132491 
L 106.8192 135.388285 
L 107.712 134.206779 
L 108.6048 136.622101 
L 110.3904 137.826025 
L 111.2832 138.001135 
L 112.176 138.292917 
L 113.0688 139.410772 
L 113.9616 139.839395 
L 114.8544 140.842996 
L 115.7472 141.326994 
L 116.64 140.732981 
L 117.5328 143.191313 
L 118.4256 145.048591 
L 119.3184 144.500825 
L 120.2112 147.164008 
L 122.8896 149.790591 
L 123.7824 151.724533 
L 124.6752 152.82905 
L 125.568 153.655103 
L 126.4608 155.933432 
L 127.3536 156.399957 
L 128.2464 159.243141 
L 129.1392 159.500687 
L 130.032 164.002228 
L 130.9248 164.278734 
L 131.8176 167.62553 
L 132.7104 169.027791 
L 133.6032 170.035045 
L 135.3888 175.594962 
L 136.2816 176.934165 
L 137.1744 181.248898 
L 138.0672 179.716551 
L 138.96 182.171209 
L 139.8528 182.977905 
L 140.7456 185.012798 
L 141.6384 184.194179 
L 142.5312 187.966567 
L 143.424 192.384286 
L 144.3168 193.494284 
L 145.2096 190.785684 
L 146.1024 191.463089 
L 146.9952 193.696069 
L 147.888 197.062805 
L 148.7808 184.33511 
L 149.6736 189.745757 
L 150.5664 201.332906 
L 151.4592 202.552256 
L 152.352 206.968476 
L 153.2448 205.172162 
L 154.1376 203.003479 
L 155.0304 194.938749 
L 155.9232 191.810827 
L 156.816 196.17932 
L 157.7088 207.692335 
L 158.6016 208.350343 
L 159.4944 212.113033 
L 160.3872 217.249838 
L 161.28 210.183128 
L 163.0656 193.43954 
L 163.9584 192.037939 
L 164.8512 193.557495 
L 165.744 200.338321 
L 166.6368 216.061743 
L 167.5296 214.943362 
L 168.4224 213.404035 
L 169.3152 202.798601 
L 170.208 205.218351 
L 171.1008 219.324481 
L 171.9936 221.076642 
L 172.8864 227.441127 
L 173.7792 227.693303 
L 174.672 215.875946 
L 175.5648 197.369141 
L 176.4576 188.171517 
L 177.3504 187.740956 
L 178.2432 184.668639 
L 179.136 184.648709 
L 180.9216 206.362224 
L 181.8144 218.671167 
L 182.7072 209.579891 
L 183.6 193.56169 
L 184.4928 186.977734 
L 185.3856 185.831077 
L 186.2784 186.136762 
L 187.1712 187.759568 
L 188.9568 202.326055 
L 189.8496 195.536277 
L 190.7424 185.570151 
L 191.6352 185.043415 
L 192.528 195.602958 
L 193.4208 207.497866 
L 194.3136 210.148923 
L 195.2064 208.123813 
L 196.0992 202.774369 
L 196.992 194.974257 
L 197.8848 208.359062 
L 198.7776 218.740784 
L 199.6704 205.900451 
L 201.456 229.12969 
L 202.3488 207.082902 
L 203.2416 190.738293 
L 204.1344 180.426504 
L 205.0272 181.282934 
L 205.92 178.32902 
L 206.8128 177.619415 
L 207.7056 174.718293 
L 208.5984 177.709038 
L 209.4912 182.473998 
L 210.384 186.318642 
L 211.2768 192.003841 
L 212.1696 210.310215 
L 213.0624 231.403053 
L 213.9552 219.97077 
L 214.848 205.911245 
L 215.7408 221.557504 
L 216.6336 251.766719 
L 217.5264 230.756462 
L 218.4192 243.536107 
L 219.312 237.608986 
L 220.2048 201.130817 
L 221.0976 195.30596 
L 221.9904 185.507478 
L 222.8832 182.72779 
L 223.776 199.889237 
L 224.6688 224.061158 
L 225.5616 229.447267 
L 226.4544 220.66882 
L 227.3472 216.600034 
L 228.24 211.110124 
L 229.1328 209.208775 
L 230.0256 208.757791 
L 232.704 174.316626 
L 233.5968 174.379152 
L 235.3824 194.4342 
L 236.2752 219.510541 
L 237.168 237.189474 
L 238.0608 236.661641 
L 238.9536 242.873388 
L 239.8464 231.475189 
L 240.7392 205.56393 
L 241.632 197.116841 
L 242.5248 202.436523 
L 244.3104 233.5659 
L 245.2032 218.301185 
L 246.096 199.926074 
L 246.9888 201.667742 
L 247.8816 214.055003 
L 248.7744 216.287804 
L 249.6672 228.391764 
L 250.56 251.501791 
L 251.4528 253.679871 
L 253.2384 234.347472 
L 254.1312 206.40527 
L 255.024 187.896495 
L 255.9168 184.74592 
L 257.7024 197.520779 
L 258.5952 201.408138 
L 259.488 194.65288 
L 260.3808 201.455908 
L 261.2736 201.323948 
L 262.1664 200.954201 
L 265.7376 229.590792 
L 266.6304 195.344329 
L 267.5232 172.695936 
L 268.416 158.279042 
L 269.3088 182.259116 
L 270.2016 187.282848 
L 271.0944 200.757044 
L 271.9872 205.615458 
L 272.88 203.130242 
L 273.7728 222.706142 
L 274.6656 233.508397 
L 275.5584 229.651914 
L 276.4512 210.902319 
L 277.344 214.841916 
L 278.2368 255.98289 
L 279.1296 221.542025 
L 280.0224 222.438535 
L 280.9152 212.620169 
L 281.808 229.905607 
L 282.7008 255.936971 
L 283.5936 247.780941 
L 284.4864 251.533638 
L 285.3792 226.191634 
L 286.272 222.222622 
L 287.1648 222.674506 
L 288.0576 225.530562 
L 288.9504 207.053299 
L 289.8432 194.661117 
L 290.736 187.907633 
L 291.6288 177.743761 
L 292.5216 179.101759 
L 293.4144 177.35839 
L 294.3072 166.715175 
L 295.2 158.570906 
L 296.0928 186.569061 
L 296.9856 183.782647 
L 297.8784 189.72361 
L 298.7712 205.498087 
L 299.664 215.165511 
L 300.5568 211.226498 
L 301.4496 201.113336 
L 302.3424 196.316369 
L 303.2352 197.559258 
L 304.128 194.810678 
L 305.0208 203.653066 
L 305.9136 211.275369 
L 306.8064 216.457417 
L 307.6992 215.956913 
L 308.592 208.323157 
L 309.4848 192.993295 
L 311.2704 168.402028 
L 312.1632 191.119025 
L 313.056 189.652467 
L 314.8416 208.58843 
L 315.7344 200.989307 
L 317.52 206.154187 
L 318.4128 202.710758 
L 319.3056 212.61093 
L 320.1984 237.815869 
L 321.0912 213.650473 
L 321.984 208.954947 
L 322.8768 197.305788 
L 323.7696 189.710495 
L 324.6624 186.455968 
L 325.5552 198.169096 
L 326.448 219.484114 
L 327.3408 227.405013 
L 328.2336 229.159468 
L 329.1264 227.454351 
L 330.0192 227.573357 
L 330.912 233.19714 
L 331.8048 237.882194 
L 332.6976 227.847043 
L 333.5904 210.232852 
L 334.4832 213.152861 
L 335.376 211.884556 
L 336.2688 206.023486 
L 337.1616 219.893237 
L 338.0544 245.097926 
L 338.9472 247.146909 
L 339.84 247.877609 
L 340.7328 247.039468 
L 341.6256 228.522778 
L 342.5184 203.841762 
L 343.4112 192.90848 
L 344.304 186.399289 
L 345.1968 181.306123 
L 346.0896 185.362429 
L 346.9824 182.522494 
L 347.8752 176.180131 
L 348.768 182.22472 
L 349.6608 185.084141 
L 350.5536 196.549298 
L 351.4464 214.470975 
L 352.3392 215.389873 
L 353.232 199.717759 
L 354.1248 195.601633 
L 355.0176 192.594933 
L 355.9104 187.258428 
L 356.8032 186.207656 
L 357.696 182.280281 
L 358.5888 172.344422 
L 359.4816 172.410681 
L 360.3744 174.617612 
L 361.2672 171.273199 
L 362.16 166.248598 
L 363.0528 166.074228 
L 363.9456 162.135991 
L 364.8384 167.324739 
L 365.7312 164.741474 
L 366.624 172.502124 
L 367.5168 176.00376 
L 368.4096 184.11746 
L 369.3024 179.584527 
L 370.1952 178.455695 
L 371.088 174.632828 
L 371.9808 177.204898 
L 372.8736 177.484443 
L 373.7664 181.063673 
L 374.6592 191.333485 
L 375.552 212.67577 
L 376.4448 213.048268 
L 377.3376 225.409534 
L 378.2304 228.726531 
L 379.1232 209.815575 
L 380.016 213.546899 
L 380.9088 202.905403 
L 381.8016 206.443356 
L 382.6944 214.380456 
L 383.5872 221.160301 
L 384.48 247.710953 
L 385.3728 246.410738 
L 386.2656 250.058011 
L 387.1584 267.296508 
L 388.0512 238.079016 
L 388.944 238.054437 
L 389.8368 268.13171 
L 390.7296 234.198615 
L 391.6224 230.714321 
L 392.5152 223.131241 
L 393.408 218.23534 
L 394.3008 225.272685 
L 395.1936 218.425882 
L 396.0864 217.221596 
L 396.9792 222.21084 
L 397.872 232.582119 
L 398.7648 210.224529 
L 399.6576 192.939468 
L 400.5504 192.832281 
L 401.4432 194.526179 
L 402.336 192.903545 
L 403.2288 200.995146 
L 404.1216 205.543561 
L 405.0144 200.775131 
L 405.9072 186.314746 
L 406.8 182.984873 
L 407.6928 176.912274 
L 408.5856 175.995658 
L 409.4784 179.636858 
L 410.3712 184.585303 
L 411.264 180.281182 
L 412.1568 184.884668 
L 413.0496 183.93084 
L 413.9424 180.937151 
L 414.8352 175.171839 
L 415.728 176.771707 
L 416.6208 192.6914 
L 417.5136 228.514358 
L 418.4064 215.624604 
L 419.2992 213.651688 
L 420.192 227.898047 
L 421.0848 250.877628 
L 421.9776 220.082714 
L 422.8704 207.051696 
L 424.656 198.641085 
L 425.5488 202.109286 
L 426.4416 234.271578 
L 427.3344 257.814347 
L 428.2272 218.337191 
L 429.12 205.333298 
L 430.0128 223.105737 
L 430.9056 222.434397 
L 431.7984 212.364781 
L 432.6912 213.741792 
L 433.584 203.770835 
L 434.4768 205.556431 
L 435.3696 207.011317 
L 436.2624 213.775079 
L 437.1552 208.552337 
L 438.048 195.202001 
L 438.9408 199.016921 
L 439.8336 207.233078 
L 440.7264 206.16906 
L 441.6192 188.978313 
L 442.512 185.239402 
L 443.4048 177.987427 
L 444.2976 175.63401 
L 445.1904 175.640125 
L 446.0832 175.361931 
L 446.976 177.100213 
L 447.8688 186.56272 
L 448.7616 205.704809 
L 449.6544 250.353733 
L 452.3328 217.05425 
L 453.2256 222.646223 
L 454.1184 262.018565 
L 455.0112 230.014599 
L 455.904 220.47161 
L 456.7968 239.111501 
L 457.6896 212.276194 
L 458.5824 190.715934 
L 459.4752 195.047709 
L 460.368 196.391158 
L 461.2608 195.298027 
L 462.1536 200.897645 
L 463.0464 201.869238 
L 463.9392 192.804473 
L 464.832 188.313305 
L 465.7248 174.183772 
L 466.6176 166.768581 
L 467.5104 163.610923 
L 468.4032 181.169157 
L 469.296 190.884706 
L 470.1888 208.52862 
L 471.0816 222.70665 
L 471.9744 240.065979 
L 472.8672 238.080953 
L 473.76 200.931839 
L 474.6528 188.865795 
L 475.5456 180.718311 
L 476.4384 175.90156 
L 477.3312 188.781958 
L 478.224 191.265115 
L 479.1168 204.411891 
L 480.0096 213.980645 
L 481.7952 191.746331 
L 482.688 204.780561 
L 483.5808 224.150154 
L 484.4736 249.435297 
L 485.3664 266.737605 
L 486.2592 231.070236 
L 487.152 215.14573 
L 488.0448 201.813611 
L 488.9376 182.576804 
L 489.8304 175.644845 
L 490.7232 175.749003 
L 491.616 182.279512 
L 492.5088 175.559548 
L 493.4016 174.587891 
L 494.2944 172.613584 
L 496.9728 207.751702 
L 497.8656 205.207765 
L 498.7584 199.359506 
L 499.6512 194.615662 
L 500.544 202.879548 
L 501.4368 205.316684 
L 502.3296 212.067037 
L 503.2224 230.24264 
L 504.1152 230.602159 
L 505.008 209.476143 
L 505.9008 211.085947 
L 506.7936 207.848452 
L 508.5792 183.131696 
L 509.472 175.729566 
L 510.3648 174.710385 
L 511.2576 177.291704 
L 512.1504 181.528653 
L 513.0432 204.117056 
L 513.936 203.823363 
L 514.8288 198.04664 
L 515.7216 193.577224 
L 516.6144 208.042684 
L 517.5072 214.342409 
L 517.5072 214.342409 
" style="fill:none;stroke:#0000ff;stroke-linecap:square;"/>
   </g>
   <g id="line2d_2">
    <path clip-path="url(#p06346d084e)" d="M 72 98.737538 
L 72.8928 98.729495 
L 73.7856 100.814714 
L 74.6784 101.084484 
L 75.5712 103.081299 
L 76.464 107.19803 
L 79.1424 123.643051 
L 80.0352 126.834633 
L 80.928 128.639029 
L 81.8208 129.410303 
L 82.7136 130.355121 
L 83.6064 130.569016 
L 84.4992 131.919739 
L 85.392 129.774706 
L 86.2848 131.20922 
L 87.1776 129.255944 
L 88.0704 130.363292 
L 88.9632 130.337082 
L 89.856 130.561164 
L 90.7488 128.23936 
L 91.6416 128.983829 
L 92.5344 128.745713 
L 93.4272 128.858491 
L 94.32 127.704099 
L 95.2128 127.307224 
L 96.1056 127.437795 
L 96.9984 129.242543 
L 97.8912 129.694533 
L 98.784 131.271795 
L 99.6768 130.332386 
L 102.3552 134.101327 
L 103.248 133.230358 
L 104.1408 134.686692 
L 105.0336 134.439025 
L 105.9264 135.708227 
L 106.8192 135.902263 
L 107.712 134.916018 
L 108.6048 137.297283 
L 110.3904 138.489569 
L 112.176 139.025176 
L 113.0688 140.302305 
L 113.9616 140.597963 
L 114.8544 141.65141 
L 115.7472 142.268908 
L 116.64 141.915744 
L 117.5328 144.39325 
L 118.4256 146.072759 
L 119.3184 145.657667 
L 120.2112 148.348064 
L 121.9968 150.368975 
L 122.8896 151.410511 
L 123.7824 153.320199 
L 124.6752 154.655126 
L 125.568 155.636322 
L 126.4608 157.860168 
L 127.3536 158.457839 
L 128.2464 161.779802 
L 129.1392 163.325841 
L 130.032 166.188411 
L 130.9248 166.605331 
L 131.8176 169.831561 
L 132.7104 171.219747 
L 133.6032 172.394107 
L 134.496 175.74303 
L 135.3888 177.74083 
L 136.2816 179.144077 
L 137.1744 183.151756 
L 138.0672 182.064001 
L 138.96 184.43504 
L 139.8528 185.815394 
L 140.7456 186.80694 
L 141.6384 187.13507 
L 142.5312 189.994776 
L 143.424 194.812389 
L 144.3168 195.282727 
L 145.2096 192.559298 
L 146.1024 193.38284 
L 146.9952 198.486742 
L 147.888 197.108355 
L 148.7808 191.055167 
L 149.6736 194.027362 
L 150.5664 202.317892 
L 151.4592 206.032248 
L 152.352 208.917068 
L 153.2448 206.580463 
L 154.1376 201.113408 
L 155.0304 193.911351 
L 155.9232 195.019393 
L 156.816 201.35624 
L 157.7088 212.033764 
L 158.6016 212.225048 
L 159.4944 214.902118 
L 160.3872 219.783716 
L 161.28 211.175286 
L 162.1728 198.100849 
L 163.0656 193.029688 
L 163.9584 196.557148 
L 164.8512 198.405967 
L 165.744 204.772995 
L 166.6368 219.390469 
L 167.5296 219.015713 
L 168.4224 211.906826 
L 169.3152 199.823616 
L 170.208 208.08489 
L 171.1008 219.054349 
L 171.9936 223.162025 
L 172.8864 226.504576 
L 173.7792 228.649738 
L 174.672 214.193641 
L 175.5648 193.239929 
L 176.4576 189.299367 
L 177.3504 192.633325 
L 178.2432 189.12112 
L 179.136 190.185719 
L 180.0288 195.539347 
L 180.9216 209.913488 
L 181.8144 222.310133 
L 182.7072 211.557955 
L 183.6 194.504602 
L 185.3856 187.512977 
L 186.2784 192.223426 
L 187.1712 194.75554 
L 188.064 199.083916 
L 188.9568 208.546192 
L 190.7424 186.118303 
L 191.6352 190.055489 
L 192.528 199.700862 
L 193.4208 211.248981 
L 194.3136 214.98276 
L 195.2064 211.058544 
L 196.0992 204.597582 
L 196.992 196.527888 
L 197.8848 202.9302 
L 198.7776 223.385576 
L 199.6704 210.65258 
L 200.5632 220.027481 
L 201.456 233.475177 
L 202.3488 210.170835 
L 203.2416 190.88448 
L 204.1344 181.476774 
L 205.0272 185.648259 
L 205.92 186.51374 
L 206.8128 182.33933 
L 207.7056 180.316917 
L 208.5984 182.379191 
L 209.4912 190.460311 
L 210.384 190.682642 
L 211.2768 198.321434 
L 212.1696 213.224186 
L 213.0624 235.357145 
L 214.848 210.216322 
L 215.7408 223.86068 
L 216.6336 256.091426 
L 217.5264 233.668438 
L 218.4192 246.482469 
L 219.312 239.625601 
L 220.2048 199.091759 
L 221.0976 192.161898 
L 221.9904 188.540422 
L 222.8832 187.24001 
L 223.776 202.879319 
L 224.6688 228.134339 
L 225.5616 232.161048 
L 226.4544 223.458458 
L 228.24 213.764311 
L 229.1328 209.971762 
L 230.0256 209.435212 
L 231.8112 185.521546 
L 232.704 179.178109 
L 233.5968 180.357274 
L 234.4896 188.509675 
L 235.3824 201.511765 
L 236.2752 223.29086 
L 237.168 241.077806 
L 238.0608 239.961541 
L 238.9536 246.101543 
L 239.8464 234.062711 
L 240.7392 207.297114 
L 241.632 200.095498 
L 242.5248 202.711573 
L 243.4176 219.566823 
L 244.3104 234.254808 
L 245.2032 218.575015 
L 246.096 199.128256 
L 246.9888 198.296135 
L 247.8816 215.490462 
L 248.7744 217.590427 
L 249.6672 228.816947 
L 250.56 254.136932 
L 251.4528 254.925895 
L 252.3456 244.949515 
L 253.2384 232.710481 
L 254.1312 204.959597 
L 255.024 186.374741 
L 255.9168 186.447401 
L 256.8096 191.75609 
L 257.7024 200.423953 
L 258.5952 200.726994 
L 259.488 196.552558 
L 260.3808 199.146529 
L 261.2736 201.234721 
L 262.1664 198.600569 
L 263.0592 207.095026 
L 263.952 211.607819 
L 264.8448 221.253706 
L 265.7376 226.457546 
L 266.6304 193.67514 
L 267.5232 173.274075 
L 268.416 186.011073 
L 269.3088 185.639733 
L 270.2016 193.267745 
L 271.0944 202.66782 
L 271.9872 208.288793 
L 272.88 203.861459 
L 273.7728 225.97163 
L 274.6656 237.970554 
L 275.5584 230.994954 
L 276.4512 212.10119 
L 277.344 214.115616 
L 278.2368 262.545885 
L 279.1296 221.831117 
L 280.0224 221.444197 
L 280.9152 212.40674 
L 281.808 229.454384 
L 282.7008 258.584729 
L 283.5936 248.756553 
L 284.4864 254.257184 
L 285.3792 222.192607 
L 286.272 216.539676 
L 287.1648 219.067823 
L 288.0576 222.317253 
L 288.9504 202.355872 
L 289.8432 190.385964 
L 290.736 186.570548 
L 291.6288 179.906187 
L 292.5216 178.308934 
L 293.4144 180.13321 
L 294.3072 170.685429 
L 295.2 187.451282 
L 296.0928 192.849738 
L 296.9856 190.237473 
L 297.8784 192.594383 
L 298.7712 210.223939 
L 299.664 219.103093 
L 300.5568 214.596312 
L 301.4496 203.698373 
L 302.3424 200.602337 
L 303.2352 199.190166 
L 304.128 198.74149 
L 305.0208 203.880417 
L 305.9136 213.130261 
L 306.8064 216.8853 
L 307.6992 216.909098 
L 308.592 207.661446 
L 309.4848 192.255657 
L 310.3776 180.503867 
L 311.2704 191.270869 
L 312.1632 196.785277 
L 313.056 194.503965 
L 313.9488 201.718099 
L 314.8416 211.810969 
L 315.7344 203.117117 
L 316.6272 207.257077 
L 317.52 207.372717 
L 318.4128 203.735546 
L 319.3056 213.46429 
L 320.1984 239.561907 
L 321.0912 209.548818 
L 321.984 208.275472 
L 322.8768 195.407969 
L 323.7696 189.770211 
L 324.6624 189.609603 
L 325.5552 200.581495 
L 326.448 222.735857 
L 327.3408 230.730098 
L 328.2336 232.092142 
L 329.1264 228.69719 
L 330.0192 226.008548 
L 330.912 238.245053 
L 331.8048 234.293155 
L 333.5904 205.172231 
L 334.4832 203.795233 
L 335.376 213.58309 
L 336.2688 205.476318 
L 337.1616 219.70256 
L 338.0544 249.585299 
L 338.9472 250.282653 
L 340.7328 246.239545 
L 341.6256 237.130599 
L 342.5184 199.219917 
L 343.4112 189.080387 
L 344.304 183.217166 
L 345.1968 181.523435 
L 346.0896 184.476147 
L 346.9824 183.921221 
L 347.8752 180.695099 
L 348.768 182.634224 
L 350.5536 195.646507 
L 351.4464 216.297968 
L 352.3392 214.752006 
L 353.232 200.359165 
L 354.1248 193.215501 
L 355.0176 187.753796 
L 355.9104 186.978328 
L 356.8032 186.416527 
L 357.696 182.666698 
L 358.5888 175.90809 
L 359.4816 173.51879 
L 360.3744 179.343337 
L 361.2672 174.693251 
L 362.16 173.911188 
L 363.0528 171.150373 
L 363.9456 174.347178 
L 364.8384 172.647462 
L 365.7312 177.375455 
L 366.624 176.793753 
L 367.5168 186.96757 
L 368.4096 188.784434 
L 369.3024 188.814606 
L 370.1952 183.037574 
L 371.088 182.114078 
L 371.9808 181.910964 
L 372.8736 187.109606 
L 373.7664 186.294987 
L 375.552 217.957503 
L 376.4448 219.839245 
L 377.3376 229.658363 
L 378.2304 236.246652 
L 379.1232 216.869763 
L 380.016 218.585691 
L 380.9088 209.768818 
L 381.8016 209.904173 
L 382.6944 219.054044 
L 383.5872 225.136846 
L 384.48 252.547994 
L 385.3728 250.59628 
L 386.2656 254.141781 
L 387.1584 269.202786 
L 388.0512 241.637052 
L 388.944 240.43048 
L 389.8368 270.55002 
L 390.7296 235.528958 
L 391.6224 227.525511 
L 392.5152 226.702102 
L 393.408 222.672014 
L 394.3008 228.152544 
L 395.1936 222.174094 
L 396.0864 219.118951 
L 396.9792 222.959032 
L 397.872 234.116034 
L 398.7648 212.349151 
L 399.6576 194.113731 
L 400.5504 193.510074 
L 401.4432 197.397845 
L 402.336 198.895134 
L 403.2288 202.234316 
L 404.1216 209.69981 
L 405.0144 202.26124 
L 405.9072 190.853874 
L 406.8 184.380104 
L 407.6928 181.251076 
L 408.5856 178.990292 
L 409.4784 186.450389 
L 410.3712 187.188599 
L 411.264 187.521318 
L 412.1568 186.447177 
L 413.0496 190.063956 
L 413.9424 183.479706 
L 414.8352 181.396129 
L 415.728 179.927855 
L 416.6208 198.427313 
L 417.5136 236.656645 
L 418.4064 218.403869 
L 419.2992 217.681917 
L 420.192 229.770166 
L 421.0848 255.512795 
L 421.9776 222.555124 
L 422.8704 208.879736 
L 423.7632 207.36894 
L 424.656 200.798572 
L 425.5488 203.871014 
L 426.4416 239.186907 
L 427.3344 260.789565 
L 428.2272 219.385193 
L 429.12 205.461576 
L 430.0128 225.887475 
L 430.9056 223.205293 
L 431.7984 210.712826 
L 432.6912 213.776486 
L 433.584 202.834407 
L 434.4768 206.236252 
L 435.3696 205.538763 
L 436.2624 214.671224 
L 437.1552 207.969914 
L 438.048 196.855719 
L 438.9408 196.621929 
L 439.8336 208.43417 
L 440.7264 204.992366 
L 441.6192 190.802287 
L 442.512 183.661199 
L 444.2976 175.687246 
L 445.1904 179.864754 
L 446.0832 177.148932 
L 446.976 183.574506 
L 447.8688 187.081626 
L 448.7616 211.697221 
L 449.6544 256.422673 
L 451.44 226.742609 
L 452.3328 217.679685 
L 453.2256 221.178253 
L 454.1184 264.71526 
L 455.0112 229.745821 
L 455.904 218.549549 
L 456.7968 239.38918 
L 457.6896 212.322803 
L 458.5824 193.644658 
L 459.4752 192.676391 
L 460.368 197.908753 
L 461.2608 193.425834 
L 462.1536 202.514236 
L 463.0464 200.370645 
L 463.9392 194.705067 
L 464.832 187.632401 
L 465.7248 179.223181 
L 466.6176 169.26474 
L 467.5104 177.320281 
L 468.4032 183.327192 
L 471.0816 225.805634 
L 471.9744 245.320331 
L 472.8672 241.071258 
L 473.76 202.77852 
L 474.6528 193.3577 
L 475.5456 182.758684 
L 476.4384 184.099586 
L 477.3312 188.633688 
L 479.1168 203.596227 
L 480.0096 215.864757 
L 480.9024 203.942019 
L 481.7952 194.943918 
L 482.688 202.796332 
L 483.5808 225.128653 
L 484.4736 250.794575 
L 485.3664 268.077715 
L 486.2592 232.036773 
L 488.9376 186.339534 
L 489.8304 177.401701 
L 490.7232 181.440998 
L 491.616 183.274712 
L 492.5088 182.705739 
L 493.4016 176.345029 
L 495.1872 184.292935 
L 496.08 201.721467 
L 496.9728 208.417316 
L 497.8656 209.261286 
L 498.7584 200.89269 
L 499.6512 199.347502 
L 500.544 202.741898 
L 501.4368 208.680442 
L 502.3296 211.883839 
L 503.2224 232.767208 
L 504.1152 231.60765 
L 505.008 211.910851 
L 505.9008 210.45988 
L 506.7936 209.592573 
L 507.6864 196.541786 
L 509.472 178.07726 
L 510.3648 181.295419 
L 511.2576 180.280693 
L 512.1504 191.672507 
L 513.0432 205.146189 
L 513.936 207.832846 
L 514.8288 199.576818 
L 515.7216 198.852049 
L 517.5072 216.451505 
L 517.5072 216.451505 
" style="fill:none;stroke:#008000;stroke-linecap:square;"/>
   </g>
   <g id="line2d_3">
    <path clip-path="url(#p06346d084e)" d="M 72 98.450303 
L 72.8928 145.724895 
L 73.7856 174.526003 
L 74.6784 182.961268 
L 79.1424 205.171577 
L 83.6064 221.497154 
L 84.4992 223.635606 
L 85.392 227.70873 
L 86.2848 229.453901 
L 87.1776 233.384605 
L 88.0704 235.731937 
L 88.9632 238.460773 
L 89.856 240.217885 
L 90.7488 243.401457 
L 91.6416 244.860051 
L 92.5344 247.601949 
L 93.4272 249.372126 
L 94.32 253.83595 
L 95.2128 257.562651 
L 96.1056 256.008065 
L 96.9984 263.772818 
L 97.8912 267.513939 
L 98.784 269.04743 
L 99.6768 273.6362 
L 100.5696 277.362997 
L 102.3552 282.72836 
L 103.248 287.197734 
L 104.1408 290.279099 
L 105.0336 294.153222 
L 105.9264 298.574118 
L 106.8192 305.315059 
L 107.712 314.409366 
L 108.6048 318.672237 
L 109.4976 326.632302 
L 110.3904 336.698621 
L 111.2832 337.280045 
L 112.176 332.486629 
L 113.0688 332.402055 
L 113.9616 287.965812 
L 114.8544 328.703421 
L 115.7472 249.420594 
L 116.64 357.890004 
L 117.5328 294.165617 
L 118.4256 329.572174 
L 119.3184 320.172266 
L 120.2112 263.233345 
L 121.104 297.416052 
L 121.9968 221.478802 
L 122.8896 281.249614 
L 123.7824 252.658488 
L 124.6752 309.665601 
L 125.568 232.801936 
L 126.4608 273.411846 
L 127.3536 250.630608 
L 128.2464 204.073076 
L 129.1392 327.858327 
L 130.032 238.258529 
L 130.9248 236.955506 
L 131.8176 243.900791 
L 132.7104 297.155203 
L 133.6032 224.018104 
L 134.496 247.314064 
L 135.3888 274.148483 
L 136.2816 274.401515 
L 137.1744 232.902813 
L 138.0672 273.257368 
L 138.96 221.734456 
L 139.8528 356.898577 
L 140.7456 222.262586 
L 141.6384 316.956861 
L 142.5312 236.873428 
L 143.424 306.038157 
L 144.3168 228.751204 
L 145.2096 325.953866 
L 146.1024 226.727369 
L 146.9952 303.275465 
L 147.888 194.736351 
L 148.7808 362.903419 
L 149.6736 252.439766 
L 150.5664 339.321663 
L 151.4592 310.120984 
L 152.352 287.610459 
L 153.2448 347.430034 
L 154.1376 231.504409 
L 155.0304 353.22271 
L 155.9232 217.27058 
L 156.816 362.097172 
L 157.7088 362.061584 
L 158.6016 351.391243 
L 159.4944 258.848253 
L 160.3872 315.714976 
L 161.28 337.775594 
L 162.1728 217.788741 
L 163.0656 361.916437 
L 163.9584 215.454465 
L 164.8512 362.104839 
L 165.744 323.219398 
L 166.6368 361.809306 
L 167.5296 361.849145 
L 168.4224 236.449779 
L 169.3152 359.500866 
L 170.208 279.862097 
L 171.1008 358.32203 
L 171.9936 298.754514 
L 172.8864 324.123136 
L 173.7792 298.526231 
L 174.672 334.177818 
L 175.5648 210.300015 
L 176.4576 361.944239 
L 177.3504 242.127002 
L 178.2432 360.774719 
L 179.136 273.087033 
L 180.0288 361.754455 
L 181.8144 361.614757 
L 182.7072 228.905132 
L 183.6 350.572555 
L 184.4928 229.956201 
L 185.3856 361.81214 
L 186.2784 282.218459 
L 187.1712 361.840084 
L 188.064 361.630829 
L 188.9568 361.756717 
L 189.8496 244.273783 
L 190.7424 346.392566 
L 191.6352 296.042711 
L 192.528 361.621721 
L 193.4208 361.546808 
L 194.3136 361.633083 
L 195.2064 312.296961 
L 196.0992 352.995507 
L 196.992 288.491274 
L 197.8848 358.424915 
L 198.7776 361.240084 
L 199.6704 361.502312 
L 200.5632 361.363196 
L 201.456 327.744723 
L 202.3488 335.063325 
L 203.2416 235.448616 
L 204.1344 360.19635 
L 205.0272 333.942643 
L 205.92 340.901474 
L 206.8128 243.998677 
L 207.7056 360.114775 
L 208.5984 294.656382 
L 209.4912 361.510145 
L 210.384 346.483635 
L 211.2768 361.348392 
L 213.0624 361.178217 
L 213.9552 283.920935 
L 214.848 359.000648 
L 215.7408 361.191535 
L 216.6336 341.684048 
L 217.5264 360.497131 
L 218.4192 361.113885 
L 219.312 340.17907 
L 220.2048 241.070893 
L 221.0976 361.314765 
L 221.9904 219.651859 
L 222.8832 361.462497 
L 225.5616 361.147529 
L 226.4544 358.119182 
L 227.3472 361.067184 
L 228.24 357.020442 
L 229.1328 287.514244 
L 230.0256 359.891053 
L 230.9184 255.714052 
L 231.8112 357.325178 
L 232.704 226.422261 
L 233.5968 361.535589 
L 234.4896 361.225135 
L 236.2752 361.449184 
L 237.168 361.204484 
L 238.9536 361.161086 
L 239.8464 352.840756 
L 240.7392 281.238331 
L 241.632 353.023335 
L 242.5248 360.959251 
L 244.3104 361.001593 
L 245.2032 334.972143 
L 246.096 254.925788 
L 246.9888 361.118357 
L 249.6672 361.06413 
L 250.56 360.910816 
L 252.3456 361.068635 
L 253.2384 348.030285 
L 254.1312 337.38763 
L 255.024 220.56776 
L 255.9168 361.317511 
L 256.8096 360.996861 
L 257.7024 361.221048 
L 258.5952 360.868277 
L 259.488 360.639936 
L 261.2736 361.17986 
L 262.1664 354.254123 
L 263.0592 355.955642 
L 263.952 360.784404 
L 264.8448 360.232217 
L 265.7376 360.740129 
L 266.6304 350.945516 
L 267.5232 169.884224 
L 268.416 362.401876 
L 269.3088 356.924605 
L 270.2016 362.049449 
L 271.0944 361.829255 
L 271.9872 361.914473 
L 272.88 361.46916 
L 273.7728 359.707969 
L 275.5584 361.12135 
L 276.4512 361.480063 
L 277.344 361.231605 
L 278.2368 361.109507 
L 279.1296 361.295217 
L 280.0224 361.123618 
L 280.9152 361.383852 
L 281.808 354.754483 
L 282.7008 361.157922 
L 284.4864 361.319305 
L 285.3792 298.393273 
L 286.272 361.185604 
L 287.1648 361.044188 
L 288.0576 361.199913 
L 288.9504 241.212094 
L 289.8432 361.444599 
L 290.736 261.854997 
L 291.6288 361.792705 
L 292.5216 306.63715 
L 293.4144 361.74442 
L 294.3072 172.077472 
L 295.2 352.190877 
L 296.0928 362.383204 
L 296.9856 362.699181 
L 297.8784 362.202909 
L 298.7712 362.20602 
L 299.664 362.095951 
L 300.5568 362.211535 
L 301.4496 328.332393 
L 302.3424 362.044584 
L 303.2352 331.456787 
L 304.128 361.972211 
L 305.0208 350.993944 
L 305.9136 361.751129 
L 306.8064 341.777586 
L 307.6992 361.73783 
L 308.592 244.490592 
L 309.4848 362.097597 
L 310.3776 180.812735 
L 311.2704 363.059988 
L 312.1632 362.675561 
L 313.056 362.884402 
L 313.9488 362.667781 
L 314.8416 362.61191 
L 315.7344 342.322316 
L 316.6272 362.357191 
L 317.52 264.956649 
L 318.4128 362.481234 
L 319.3056 362.284383 
L 320.1984 275.965665 
L 321.0912 362.359061 
L 321.984 237.322531 
L 322.8768 362.730648 
L 323.7696 217.812951 
L 324.6624 363.147612 
L 326.448 362.866745 
L 327.3408 357.771533 
L 328.2336 362.805026 
L 329.1264 276.987309 
L 330.0192 362.883851 
L 330.912 346.812964 
L 331.8048 297.916341 
L 332.6976 362.926841 
L 333.5904 260.2534 
L 334.4832 362.986307 
L 335.376 318.945072 
L 336.2688 363.004548 
L 337.1616 363.08468 
L 338.0544 350.360694 
L 338.9472 362.817927 
L 339.84 362.855086 
L 340.7328 328.936327 
L 341.6256 259.624743 
L 342.5184 363.209482 
L 343.4112 233.628637 
L 344.304 363.497559 
L 345.1968 252.46588 
L 346.0896 363.375341 
L 346.9824 248.204755 
L 347.8752 363.613531 
L 348.768 359.268489 
L 349.6608 363.477315 
L 350.5536 363.214449 
L 351.4464 363.16818 
L 352.3392 286.396133 
L 353.232 363.365894 
L 354.1248 261.014349 
L 355.0176 363.347929 
L 355.9104 272.428036 
L 356.8032 363.457152 
L 357.696 265.016607 
L 358.5888 363.745609 
L 359.4816 253.855463 
L 360.3744 363.669353 
L 361.2672 240.596724 
L 362.16 363.756027 
L 363.0528 234.583028 
L 363.9456 363.893453 
L 364.8384 291.598882 
L 365.7312 363.759289 
L 366.624 332.784196 
L 367.5168 363.449274 
L 368.4096 356.587526 
L 369.3024 363.452136 
L 370.1952 248.837221 
L 371.088 363.557442 
L 371.9808 292.96768 
L 372.8736 363.458362 
L 373.7664 318.017129 
L 374.6592 363.185444 
L 375.552 362.964227 
L 376.4448 363.160225 
L 377.3376 363.028944 
L 378.2304 312.570257 
L 379.1232 362.995401 
L 380.016 362.763223 
L 380.9088 363.163049 
L 381.8016 362.774074 
L 382.6944 362.944959 
L 384.48 362.755345 
L 385.3728 354.634493 
L 386.2656 362.762853 
L 388.944 362.811034 
L 389.8368 362.714237 
L 390.7296 299.942116 
L 391.6224 362.775056 
L 392.5152 313.775564 
L 393.408 362.89862 
L 394.3008 362.724049 
L 395.1936 362.958553 
L 396.0864 353.031066 
L 396.9792 362.818241 
L 397.872 362.718974 
L 398.7648 363.118397 
L 399.6576 249.447791 
L 400.5504 363.238418 
L 401.4432 358.216343 
L 402.336 363.258552 
L 403.2288 362.808461 
L 404.1216 363.173787 
L 405.0144 263.899572 
L 405.9072 363.431616 
L 406.8 248.034609 
L 407.6928 363.651501 
L 408.5856 266.640291 
L 409.4784 363.53663 
L 410.3712 328.30046 
L 411.264 363.459578 
L 412.1568 320.115388 
L 413.0496 363.371489 
L 413.9424 238.49876 
L 414.8352 363.745424 
L 415.728 312.352673 
L 416.6208 363.158337 
L 417.5136 363.389604 
L 418.4064 362.929488 
L 419.2992 363.202143 
L 420.192 363.049128 
L 421.0848 362.733164 
L 421.9776 363.04464 
L 422.8704 355.866321 
L 423.7632 363.139362 
L 424.656 285.112186 
L 425.5488 363.022465 
L 426.4416 363.05426 
L 427.3344 362.879369 
L 428.2272 363.312434 
L 429.12 362.790238 
L 430.0128 362.905661 
L 430.9056 363.312163 
L 431.7984 362.896522 
L 432.6912 363.184123 
L 433.584 356.786147 
L 434.4768 363.07464 
L 435.3696 355.122976 
L 436.2624 362.919476 
L 437.1552 317.119745 
L 438.048 363.204442 
L 438.9408 362.466797 
L 439.8336 363.005153 
L 440.7264 352.059652 
L 441.6192 363.421997 
L 442.512 268.655248 
L 443.4048 363.648467 
L 444.2976 255.725797 
L 445.1904 363.58547 
L 446.0832 312.072099 
L 446.976 363.2825 
L 447.8688 362.344343 
L 448.7616 362.756294 
L 449.6544 362.739374 
L 450.5472 362.917198 
L 451.44 362.547131 
L 452.3328 362.953701 
L 453.2256 362.60062 
L 454.1184 362.574006 
L 455.0112 362.918575 
L 455.904 362.461749 
L 456.7968 362.635998 
L 457.6896 357.333552 
L 458.5824 363.16266 
L 459.4752 358.75857 
L 460.368 363.00022 
L 461.2608 361.804214 
L 462.1536 362.752426 
L 463.0464 358.615713 
L 463.9392 362.977959 
L 464.832 295.791822 
L 465.7248 363.542644 
L 466.6176 198.072925 
L 467.5104 363.845531 
L 468.4032 362.680531 
L 469.296 363.322173 
L 470.1888 362.836732 
L 471.0816 362.997679 
L 472.8672 363.069745 
L 473.76 362.120306 
L 474.6528 363.204781 
L 475.5456 316.121421 
L 476.4384 363.213922 
L 477.3312 362.105129 
L 478.224 363.069097 
L 479.1168 362.387467 
L 480.0096 362.772996 
L 480.9024 361.968723 
L 481.7952 363.000415 
L 482.688 362.342631 
L 483.5808 362.584578 
L 485.3664 362.437064 
L 486.2592 361.961417 
L 487.152 362.582212 
L 488.0448 351.490797 
L 488.9376 363.209242 
L 489.8304 260.400826 
L 490.7232 363.187143 
L 491.616 361.699453 
L 492.5088 363.39116 
L 493.4016 296.79374 
L 494.2944 363.23124 
L 495.1872 361.991986 
L 496.08 362.681461 
L 496.9728 362.003088 
L 497.8656 362.790126 
L 498.7584 361.789268 
L 499.6512 362.775824 
L 500.544 361.920983 
L 501.4368 362.672803 
L 502.3296 362.014649 
L 503.2224 362.273522 
L 504.1152 361.920161 
L 505.008 362.692854 
L 505.9008 362.002309 
L 506.7936 362.690588 
L 507.6864 361.553406 
L 508.5792 363.083381 
L 509.472 256.920888 
L 510.3648 363.135805 
L 511.2576 357.130926 
L 512.1504 362.776303 
L 513.0432 362.039037 
L 513.936 362.811491 
L 514.8288 361.700854 
L 515.7216 362.781021 
L 516.6144 362.084614 
L 517.5072 362.564796 
L 517.5072 362.564796 
" style="fill:none;stroke:#ff0000;stroke-linecap:square;"/>
   </g>
   <g id="patch_3">
    <path d="M 72 43.2 
L 518.4 43.2 
" style="fill:none;stroke:#000000;stroke-linecap:square;stroke-linejoin:miter;"/>
   </g>
   <g id="patch_4">
    <path d="M 518.4 388.8 
L 518.4 43.2 
" style="fill:none;stroke:#000000;stroke-linecap:square;stroke-linejoin:miter;"/>
   </g>
   <g id="patch_5">
    <path d="M 72 388.8 
L 518.4 388.8 
" style="fill:none;stroke:#000000;stroke-linecap:square;stroke-linejoin:miter;"/>
   </g>
   <g id="patch_6">
    <path d="M 72 388.8 
L 72 43.2 
" style="fill:none;stroke:#000000;stroke-linecap:square;stroke-linejoin:miter;"/>
   </g>
   <g id="matplotlib.axis_1">
    <g id="xtick_1">
     <g id="line2d_4">
      <defs>
       <path d="M 0 0 
L 0 -4 
" id="m5546e1ab9a" style="stroke:#000000;stroke-width:0.5;"/>
      </defs>
      <g>
       <use style="stroke:#000000;stroke-width:0.5;" x="72.0" xlink:href="#m5546e1ab9a" y="388.8"/>
      </g>
     </g>
     <g id="line2d_5">
      <defs>
       <path d="M 0 0 
L 0 4 
" id="m5b581aeb4f" style="stroke:#000000;stroke-width:0.5;"/>
      </defs>
      <g>
       <use style="stroke:#000000;stroke-width:0.5;" x="72.0" xlink:href="#m5b581aeb4f" y="43.2"/>
      </g>
     </g>
     <g id="text_1">
      <!-- 0 -->
      <defs>
       <path d="M 31.78125 66.40625 
Q 24.171875 66.40625 20.328125 58.90625 
Q 16.5 51.421875 16.5 36.375 
Q 16.5 21.390625 20.328125 13.890625 
Q 24.171875 6.390625 31.78125 6.390625 
Q 39.453125 6.390625 43.28125 13.890625 
Q 47.125 21.390625 47.125 36.375 
Q 47.125 51.421875 43.28125 58.90625 
Q 39.453125 66.40625 31.78125 66.40625 
M 31.78125 74.21875 
Q 44.046875 74.21875 50.515625 64.515625 
Q 56.984375 54.828125 56.984375 36.375 
Q 56.984375 17.96875 50.515625 8.265625 
Q 44.046875 -1.421875 31.78125 -1.421875 
Q 19.53125 -1.421875 13.0625 8.265625 
Q 6.59375 17.96875 6.59375 36.375 
Q 6.59375 54.828125 13.0625 64.515625 
Q 19.53125 74.21875 31.78125 74.21875 
" id="BitstreamVeraSans-Roman-30"/>
      </defs>
      <g transform="translate(68.1825 401.918125)scale(0.12 -0.12)">
       <use xlink:href="#BitstreamVeraSans-Roman-30"/>
      </g>
     </g>
    </g>
    <g id="xtick_2">
     <g id="line2d_6">
      <g>
       <use style="stroke:#000000;stroke-width:0.5;" x="161.28" xlink:href="#m5546e1ab9a" y="388.8"/>
      </g>
     </g>
     <g id="line2d_7">
      <g>
       <use style="stroke:#000000;stroke-width:0.5;" x="161.28" xlink:href="#m5b581aeb4f" y="43.2"/>
      </g>
     </g>
     <g id="text_2">
      <!-- 100 -->
      <defs>
       <path d="M 12.40625 8.296875 
L 28.515625 8.296875 
L 28.515625 63.921875 
L 10.984375 60.40625 
L 10.984375 69.390625 
L 28.421875 72.90625 
L 38.28125 72.90625 
L 38.28125 8.296875 
L 54.390625 8.296875 
L 54.390625 0 
L 12.40625 0 
z
" id="BitstreamVeraSans-Roman-31"/>
      </defs>
      <g transform="translate(149.8275 401.918125)scale(0.12 -0.12)">
       <use xlink:href="#BitstreamVeraSans-Roman-31"/>
       <use x="63.623046875" xlink:href="#BitstreamVeraSans-Roman-30"/>
       <use x="127.24609375" xlink:href="#BitstreamVeraSans-Roman-30"/>
      </g>
     </g>
    </g>
    <g id="xtick_3">
     <g id="line2d_8">
      <g>
       <use style="stroke:#000000;stroke-width:0.5;" x="250.56" xlink:href="#m5546e1ab9a" y="388.8"/>
      </g>
     </g>
     <g id="line2d_9">
      <g>
       <use style="stroke:#000000;stroke-width:0.5;" x="250.56" xlink:href="#m5b581aeb4f" y="43.2"/>
      </g>
     </g>
     <g id="text_3">
      <!-- 200 -->
      <defs>
       <path d="M 19.1875 8.296875 
L 53.609375 8.296875 
L 53.609375 0 
L 7.328125 0 
L 7.328125 8.296875 
Q 12.9375 14.109375 22.625 23.890625 
Q 32.328125 33.6875 34.8125 36.53125 
Q 39.546875 41.84375 41.421875 45.53125 
Q 43.3125 49.21875 43.3125 52.78125 
Q 43.3125 58.59375 39.234375 62.25 
Q 35.15625 65.921875 28.609375 65.921875 
Q 23.96875 65.921875 18.8125 64.3125 
Q 13.671875 62.703125 7.8125 59.421875 
L 7.8125 69.390625 
Q 13.765625 71.78125 18.9375 73 
Q 24.125 74.21875 28.421875 74.21875 
Q 39.75 74.21875 46.484375 68.546875 
Q 53.21875 62.890625 53.21875 53.421875 
Q 53.21875 48.921875 51.53125 44.890625 
Q 49.859375 40.875 45.40625 35.40625 
Q 44.1875 33.984375 37.640625 27.21875 
Q 31.109375 20.453125 19.1875 8.296875 
" id="BitstreamVeraSans-Roman-32"/>
      </defs>
      <g transform="translate(239.1075 401.918125)scale(0.12 -0.12)">
       <use xlink:href="#BitstreamVeraSans-Roman-32"/>
       <use x="63.623046875" xlink:href="#BitstreamVeraSans-Roman-30"/>
       <use x="127.24609375" xlink:href="#BitstreamVeraSans-Roman-30"/>
      </g>
     </g>
    </g>
    <g id="xtick_4">
     <g id="line2d_10">
      <g>
       <use style="stroke:#000000;stroke-width:0.5;" x="339.84" xlink:href="#m5546e1ab9a" y="388.8"/>
      </g>
     </g>
     <g id="line2d_11">
      <g>
       <use style="stroke:#000000;stroke-width:0.5;" x="339.84" xlink:href="#m5b581aeb4f" y="43.2"/>
      </g>
     </g>
     <g id="text_4">
      <!-- 300 -->
      <defs>
       <path d="M 40.578125 39.3125 
Q 47.65625 37.796875 51.625 33 
Q 55.609375 28.21875 55.609375 21.1875 
Q 55.609375 10.40625 48.1875 4.484375 
Q 40.765625 -1.421875 27.09375 -1.421875 
Q 22.515625 -1.421875 17.65625 -0.515625 
Q 12.796875 0.390625 7.625 2.203125 
L 7.625 11.71875 
Q 11.71875 9.328125 16.59375 8.109375 
Q 21.484375 6.890625 26.8125 6.890625 
Q 36.078125 6.890625 40.9375 10.546875 
Q 45.796875 14.203125 45.796875 21.1875 
Q 45.796875 27.640625 41.28125 31.265625 
Q 36.765625 34.90625 28.71875 34.90625 
L 20.21875 34.90625 
L 20.21875 43.015625 
L 29.109375 43.015625 
Q 36.375 43.015625 40.234375 45.921875 
Q 44.09375 48.828125 44.09375 54.296875 
Q 44.09375 59.90625 40.109375 62.90625 
Q 36.140625 65.921875 28.71875 65.921875 
Q 24.65625 65.921875 20.015625 65.03125 
Q 15.375 64.15625 9.8125 62.3125 
L 9.8125 71.09375 
Q 15.4375 72.65625 20.34375 73.4375 
Q 25.25 74.21875 29.59375 74.21875 
Q 40.828125 74.21875 47.359375 69.109375 
Q 53.90625 64.015625 53.90625 55.328125 
Q 53.90625 49.265625 50.4375 45.09375 
Q 46.96875 40.921875 40.578125 39.3125 
" id="BitstreamVeraSans-Roman-33"/>
      </defs>
      <g transform="translate(328.3875 401.918125)scale(0.12 -0.12)">
       <use xlink:href="#BitstreamVeraSans-Roman-33"/>
       <use x="63.623046875" xlink:href="#BitstreamVeraSans-Roman-30"/>
       <use x="127.24609375" xlink:href="#BitstreamVeraSans-Roman-30"/>
      </g>
     </g>
    </g>
    <g id="xtick_5">
     <g id="line2d_12">
      <g>
       <use style="stroke:#000000;stroke-width:0.5;" x="429.12" xlink:href="#m5546e1ab9a" y="388.8"/>
      </g>
     </g>
     <g id="line2d_13">
      <g>
       <use style="stroke:#000000;stroke-width:0.5;" x="429.12" xlink:href="#m5b581aeb4f" y="43.2"/>
      </g>
     </g>
     <g id="text_5">
      <!-- 400 -->
      <defs>
       <path d="M 37.796875 64.3125 
L 12.890625 25.390625 
L 37.796875 25.390625 
z
M 35.203125 72.90625 
L 47.609375 72.90625 
L 47.609375 25.390625 
L 58.015625 25.390625 
L 58.015625 17.1875 
L 47.609375 17.1875 
L 47.609375 0 
L 37.796875 0 
L 37.796875 17.1875 
L 4.890625 17.1875 
L 4.890625 26.703125 
z
" id="BitstreamVeraSans-Roman-34"/>
      </defs>
      <g transform="translate(417.6675 401.918125)scale(0.12 -0.12)">
       <use xlink:href="#BitstreamVeraSans-Roman-34"/>
       <use x="63.623046875" xlink:href="#BitstreamVeraSans-Roman-30"/>
       <use x="127.24609375" xlink:href="#BitstreamVeraSans-Roman-30"/>
      </g>
     </g>
    </g>
    <g id="xtick_6">
     <g id="line2d_14">
      <g>
       <use style="stroke:#000000;stroke-width:0.5;" x="518.4" xlink:href="#m5546e1ab9a" y="388.8"/>
      </g>
     </g>
     <g id="line2d_15">
      <g>
       <use style="stroke:#000000;stroke-width:0.5;" x="518.4" xlink:href="#m5b581aeb4f" y="43.2"/>
      </g>
     </g>
     <g id="text_6">
      <!-- 500 -->
      <defs>
       <path d="M 10.796875 72.90625 
L 49.515625 72.90625 
L 49.515625 64.59375 
L 19.828125 64.59375 
L 19.828125 46.734375 
Q 21.96875 47.46875 24.109375 47.828125 
Q 26.265625 48.1875 28.421875 48.1875 
Q 40.625 48.1875 47.75 41.5 
Q 54.890625 34.8125 54.890625 23.390625 
Q 54.890625 11.625 47.5625 5.09375 
Q 40.234375 -1.421875 26.90625 -1.421875 
Q 22.3125 -1.421875 17.546875 -0.640625 
Q 12.796875 0.140625 7.71875 1.703125 
L 7.71875 11.625 
Q 12.109375 9.234375 16.796875 8.0625 
Q 21.484375 6.890625 26.703125 6.890625 
Q 35.15625 6.890625 40.078125 11.328125 
Q 45.015625 15.765625 45.015625 23.390625 
Q 45.015625 31 40.078125 35.4375 
Q 35.15625 39.890625 26.703125 39.890625 
Q 22.75 39.890625 18.8125 39.015625 
Q 14.890625 38.140625 10.796875 36.28125 
z
" id="BitstreamVeraSans-Roman-35"/>
      </defs>
      <g transform="translate(506.9475 401.918125)scale(0.12 -0.12)">
       <use xlink:href="#BitstreamVeraSans-Roman-35"/>
       <use x="63.623046875" xlink:href="#BitstreamVeraSans-Roman-30"/>
       <use x="127.24609375" xlink:href="#BitstreamVeraSans-Roman-30"/>
      </g>
     </g>
    </g>
   </g>
   <g id="matplotlib.axis_2">
    <g id="ytick_1">
     <g id="line2d_16">
      <defs>
       <path d="M 0 0 
L 4 0 
" id="madb7715bf7" style="stroke:#000000;stroke-width:0.5;"/>
      </defs>
      <g>
       <use style="stroke:#000000;stroke-width:0.5;" x="72.0" xlink:href="#madb7715bf7" y="388.8"/>
      </g>
     </g>
     <g id="line2d_17">
      <defs>
       <path d="M 0 0 
L -4 0 
" id="mab371ac147" style="stroke:#000000;stroke-width:0.5;"/>
      </defs>
      <g>
       <use style="stroke:#000000;stroke-width:0.5;" x="518.4" xlink:href="#mab371ac147" y="388.8"/>
      </g>
     </g>
     <g id="text_7">
      <!-- $\mathdefault{10^{-6}}$ -->
      <defs>
       <path d="M 33.015625 40.375 
Q 26.375 40.375 22.484375 35.828125 
Q 18.609375 31.296875 18.609375 23.390625 
Q 18.609375 15.53125 22.484375 10.953125 
Q 26.375 6.390625 33.015625 6.390625 
Q 39.65625 6.390625 43.53125 10.953125 
Q 47.40625 15.53125 47.40625 23.390625 
Q 47.40625 31.296875 43.53125 35.828125 
Q 39.65625 40.375 33.015625 40.375 
M 52.59375 71.296875 
L 52.59375 62.3125 
Q 48.875 64.0625 45.09375 64.984375 
Q 41.3125 65.921875 37.59375 65.921875 
Q 27.828125 65.921875 22.671875 59.328125 
Q 17.53125 52.734375 16.796875 39.40625 
Q 19.671875 43.65625 24.015625 45.921875 
Q 28.375 48.1875 33.59375 48.1875 
Q 44.578125 48.1875 50.953125 41.515625 
Q 57.328125 34.859375 57.328125 23.390625 
Q 57.328125 12.15625 50.6875 5.359375 
Q 44.046875 -1.421875 33.015625 -1.421875 
Q 20.359375 -1.421875 13.671875 8.265625 
Q 6.984375 17.96875 6.984375 36.375 
Q 6.984375 53.65625 15.1875 63.9375 
Q 23.390625 74.21875 37.203125 74.21875 
Q 40.921875 74.21875 44.703125 73.484375 
Q 48.484375 72.75 52.59375 71.296875 
" id="BitstreamVeraSans-Roman-36"/>
       <path d="M 4.890625 31.390625 
L 31.203125 31.390625 
L 31.203125 23.390625 
L 4.890625 23.390625 
z
" id="BitstreamVeraSans-Roman-2d"/>
      </defs>
      <g transform="translate(42.68 392.424375)scale(0.12 -0.12)">
       <use transform="translate(0.0 0.796875)" xlink:href="#BitstreamVeraSans-Roman-31"/>
       <use transform="translate(63.623046875 0.796875)" xlink:href="#BitstreamVeraSans-Roman-30"/>
       <use transform="translate(132.75859375 48.046875)scale(0.7)" xlink:href="#BitstreamVeraSans-Roman-2d"/>
       <use transform="translate(158.017382812 48.046875)scale(0.7)" xlink:href="#BitstreamVeraSans-Roman-36"/>
      </g>
     </g>
    </g>
    <g id="ytick_2">
     <g id="line2d_18">
      <g>
       <use style="stroke:#000000;stroke-width:0.5;" x="72.0" xlink:href="#madb7715bf7" y="350.4"/>
      </g>
     </g>
     <g id="line2d_19">
      <g>
       <use style="stroke:#000000;stroke-width:0.5;" x="518.4" xlink:href="#mab371ac147" y="350.4"/>
      </g>
     </g>
     <g id="text_8">
      <!-- $\mathdefault{10^{-5}}$ -->
      <g transform="translate(42.68 353.964375)scale(0.12 -0.12)">
       <use transform="translate(0.0 0.715625)" xlink:href="#BitstreamVeraSans-Roman-31"/>
       <use transform="translate(63.623046875 0.715625)" xlink:href="#BitstreamVeraSans-Roman-30"/>
       <use transform="translate(132.75859375 47.965625)scale(0.7)" xlink:href="#BitstreamVeraSans-Roman-2d"/>
       <use transform="translate(158.017382812 47.965625)scale(0.7)" xlink:href="#BitstreamVeraSans-Roman-35"/>
      </g>
     </g>
    </g>
    <g id="ytick_3">
     <g id="line2d_20">
      <g>
       <use style="stroke:#000000;stroke-width:0.5;" x="72.0" xlink:href="#madb7715bf7" y="312.0"/>
      </g>
     </g>
     <g id="line2d_21">
      <g>
       <use style="stroke:#000000;stroke-width:0.5;" x="518.4" xlink:href="#mab371ac147" y="312.0"/>
      </g>
     </g>
     <g id="text_9">
      <!-- $\mathdefault{10^{-4}}$ -->
      <g transform="translate(42.68 315.564375)scale(0.12 -0.12)">
       <use transform="translate(0.0 0.715625)" xlink:href="#BitstreamVeraSans-Roman-31"/>
       <use transform="translate(63.623046875 0.715625)" xlink:href="#BitstreamVeraSans-Roman-30"/>
       <use transform="translate(132.75859375 47.965625)scale(0.7)" xlink:href="#BitstreamVeraSans-Roman-2d"/>
       <use transform="translate(158.017382812 47.965625)scale(0.7)" xlink:href="#BitstreamVeraSans-Roman-34"/>
      </g>
     </g>
    </g>
    <g id="ytick_4">
     <g id="line2d_22">
      <g>
       <use style="stroke:#000000;stroke-width:0.5;" x="72.0" xlink:href="#madb7715bf7" y="273.6"/>
      </g>
     </g>
     <g id="line2d_23">
      <g>
       <use style="stroke:#000000;stroke-width:0.5;" x="518.4" xlink:href="#mab371ac147" y="273.6"/>
      </g>
     </g>
     <g id="text_10">
      <!-- $\mathdefault{10^{-3}}$ -->
      <g transform="translate(42.68 277.224375)scale(0.12 -0.12)">
       <use transform="translate(0.0 0.796875)" xlink:href="#BitstreamVeraSans-Roman-31"/>
       <use transform="translate(63.623046875 0.796875)" xlink:href="#BitstreamVeraSans-Roman-30"/>
       <use transform="translate(132.75859375 48.046875)scale(0.7)" xlink:href="#BitstreamVeraSans-Roman-2d"/>
       <use transform="translate(158.017382812 48.046875)scale(0.7)" xlink:href="#BitstreamVeraSans-Roman-33"/>
      </g>
     </g>
    </g>
    <g id="ytick_5">
     <g id="line2d_24">
      <g>
       <use style="stroke:#000000;stroke-width:0.5;" x="72.0" xlink:href="#madb7715bf7" y="235.2"/>
      </g>
     </g>
     <g id="line2d_25">
      <g>
       <use style="stroke:#000000;stroke-width:0.5;" x="518.4" xlink:href="#mab371ac147" y="235.2"/>
      </g>
     </g>
     <g id="text_11">
      <!-- $\mathdefault{10^{-2}}$ -->
      <g transform="translate(42.68 238.824375)scale(0.12 -0.12)">
       <use transform="translate(0.0 0.796875)" xlink:href="#BitstreamVeraSans-Roman-31"/>
       <use transform="translate(63.623046875 0.796875)" xlink:href="#BitstreamVeraSans-Roman-30"/>
       <use transform="translate(132.75859375 48.046875)scale(0.7)" xlink:href="#BitstreamVeraSans-Roman-2d"/>
       <use transform="translate(158.017382812 48.046875)scale(0.7)" xlink:href="#BitstreamVeraSans-Roman-32"/>
      </g>
     </g>
    </g>
    <g id="ytick_6">
     <g id="line2d_26">
      <g>
       <use style="stroke:#000000;stroke-width:0.5;" x="72.0" xlink:href="#madb7715bf7" y="196.8"/>
      </g>
     </g>
     <g id="line2d_27">
      <g>
       <use style="stroke:#000000;stroke-width:0.5;" x="518.4" xlink:href="#mab371ac147" y="196.8"/>
      </g>
     </g>
     <g id="text_12">
      <!-- $\mathdefault{10^{-1}}$ -->
      <g transform="translate(42.68 200.364375)scale(0.12 -0.12)">
       <use transform="translate(0.0 0.715625)" xlink:href="#BitstreamVeraSans-Roman-31"/>
       <use transform="translate(63.623046875 0.715625)" xlink:href="#BitstreamVeraSans-Roman-30"/>
       <use transform="translate(132.75859375 47.965625)scale(0.7)" xlink:href="#BitstreamVeraSans-Roman-2d"/>
       <use transform="translate(158.017382812 47.965625)scale(0.7)" xlink:href="#BitstreamVeraSans-Roman-31"/>
      </g>
     </g>
    </g>
    <g id="ytick_7">
     <g id="line2d_28">
      <g>
       <use style="stroke:#000000;stroke-width:0.5;" x="72.0" xlink:href="#madb7715bf7" y="158.4"/>
      </g>
     </g>
     <g id="line2d_29">
      <g>
       <use style="stroke:#000000;stroke-width:0.5;" x="518.4" xlink:href="#mab371ac147" y="158.4"/>
      </g>
     </g>
     <g id="text_13">
      <!-- $\mathdefault{10^{0}}$ -->
      <g transform="translate(45.68 162.024375)scale(0.12 -0.12)">
       <use transform="translate(0.0 0.796875)" xlink:href="#BitstreamVeraSans-Roman-31"/>
       <use transform="translate(63.623046875 0.796875)" xlink:href="#BitstreamVeraSans-Roman-30"/>
       <use transform="translate(132.75859375 48.046875)scale(0.7)" xlink:href="#BitstreamVeraSans-Roman-30"/>
      </g>
     </g>
    </g>
    <g id="ytick_8">
     <g id="line2d_30">
      <g>
       <use style="stroke:#000000;stroke-width:0.5;" x="72.0" xlink:href="#madb7715bf7" y="120.0"/>
      </g>
     </g>
     <g id="line2d_31">
      <g>
       <use style="stroke:#000000;stroke-width:0.5;" x="518.4" xlink:href="#mab371ac147" y="120.0"/>
      </g>
     </g>
     <g id="text_14">
      <!-- $\mathdefault{10^{1}}$ -->
      <g transform="translate(45.68 123.564375)scale(0.12 -0.12)">
       <use transform="translate(0.0 0.715625)" xlink:href="#BitstreamVeraSans-Roman-31"/>
       <use transform="translate(63.623046875 0.715625)" xlink:href="#BitstreamVeraSans-Roman-30"/>
       <use transform="translate(132.75859375 47.965625)scale(0.7)" xlink:href="#BitstreamVeraSans-Roman-31"/>
      </g>
     </g>
    </g>
    <g id="ytick_9">
     <g id="line2d_32">
      <g>
       <use style="stroke:#000000;stroke-width:0.5;" x="72.0" xlink:href="#madb7715bf7" y="81.6"/>
      </g>
     </g>
     <g id="line2d_33">
      <g>
       <use style="stroke:#000000;stroke-width:0.5;" x="518.4" xlink:href="#mab371ac147" y="81.6"/>
      </g>
     </g>
     <g id="text_15">
      <!-- $\mathdefault{10^{2}}$ -->
      <g transform="translate(45.68 85.224375)scale(0.12 -0.12)">
       <use transform="translate(0.0 0.796875)" xlink:href="#BitstreamVeraSans-Roman-31"/>
       <use transform="translate(63.623046875 0.796875)" xlink:href="#BitstreamVeraSans-Roman-30"/>
       <use transform="translate(132.75859375 48.046875)scale(0.7)" xlink:href="#BitstreamVeraSans-Roman-32"/>
      </g>
     </g>
    </g>
    <g id="ytick_10">
     <g id="line2d_34">
      <g>
       <use style="stroke:#000000;stroke-width:0.5;" x="72.0" xlink:href="#madb7715bf7" y="43.2"/>
      </g>
     </g>
     <g id="line2d_35">
      <g>
       <use style="stroke:#000000;stroke-width:0.5;" x="518.4" xlink:href="#mab371ac147" y="43.2"/>
      </g>
     </g>
     <g id="text_16">
      <!-- $\mathdefault{10^{3}}$ -->
      <g transform="translate(45.68 46.824375)scale(0.12 -0.12)">
       <use transform="translate(0.0 0.796875)" xlink:href="#BitstreamVeraSans-Roman-31"/>
       <use transform="translate(63.623046875 0.796875)" xlink:href="#BitstreamVeraSans-Roman-30"/>
       <use transform="translate(132.75859375 48.046875)scale(0.7)" xlink:href="#BitstreamVeraSans-Roman-33"/>
      </g>
     </g>
    </g>
    <g id="ytick_11">
     <g id="line2d_36">
      <defs>
       <path d="M 0 0 
L 2 0 
" id="mf976221ded" style="stroke:#000000;stroke-width:0.5;"/>
      </defs>
      <g>
       <use style="stroke:#000000;stroke-width:0.5;" x="72.0" xlink:href="#mf976221ded" y="377.240448167"/>
      </g>
     </g>
     <g id="line2d_37">
      <defs>
       <path d="M 0 0 
L -2 0 
" id="m7fcf5fa7b3" style="stroke:#000000;stroke-width:0.5;"/>
      </defs>
      <g>
       <use style="stroke:#000000;stroke-width:0.5;" x="518.4" xlink:href="#m7fcf5fa7b3" y="377.240448167"/>
      </g>
     </g>
    </g>
    <g id="ytick_12">
     <g id="line2d_38">
      <g>
       <use style="stroke:#000000;stroke-width:0.5;" x="72.0" xlink:href="#mf976221ded" y="365.680896333"/>
      </g>
     </g>
     <g id="line2d_39">
      <g>
       <use style="stroke:#000000;stroke-width:0.5;" x="518.4" xlink:href="#m7fcf5fa7b3" y="365.680896333"/>
      </g>
     </g>
    </g>
    <g id="ytick_13">
     <g id="line2d_40">
      <g>
       <use style="stroke:#000000;stroke-width:0.5;" x="72.0" xlink:href="#mf976221ded" y="358.918991985"/>
      </g>
     </g>
     <g id="line2d_41">
      <g>
       <use style="stroke:#000000;stroke-width:0.5;" x="518.4" xlink:href="#m7fcf5fa7b3" y="358.918991985"/>
      </g>
     </g>
    </g>
    <g id="ytick_14">
     <g id="line2d_42">
      <g>
       <use style="stroke:#000000;stroke-width:0.5;" x="72.0" xlink:href="#mf976221ded" y="354.1213445"/>
      </g>
     </g>
     <g id="line2d_43">
      <g>
       <use style="stroke:#000000;stroke-width:0.5;" x="518.4" xlink:href="#m7fcf5fa7b3" y="354.1213445"/>
      </g>
     </g>
    </g>
    <g id="ytick_15">
     <g id="line2d_44">
      <g>
       <use style="stroke:#000000;stroke-width:0.5;" x="72.0" xlink:href="#mf976221ded" y="338.840448167"/>
      </g>
     </g>
     <g id="line2d_45">
      <g>
       <use style="stroke:#000000;stroke-width:0.5;" x="518.4" xlink:href="#m7fcf5fa7b3" y="338.840448167"/>
      </g>
     </g>
    </g>
    <g id="ytick_16">
     <g id="line2d_46">
      <g>
       <use style="stroke:#000000;stroke-width:0.5;" x="72.0" xlink:href="#mf976221ded" y="327.280896333"/>
      </g>
     </g>
     <g id="line2d_47">
      <g>
       <use style="stroke:#000000;stroke-width:0.5;" x="518.4" xlink:href="#m7fcf5fa7b3" y="327.280896333"/>
      </g>
     </g>
    </g>
    <g id="ytick_17">
     <g id="line2d_48">
      <g>
       <use style="stroke:#000000;stroke-width:0.5;" x="72.0" xlink:href="#mf976221ded" y="320.518991985"/>
      </g>
     </g>
     <g id="line2d_49">
      <g>
       <use style="stroke:#000000;stroke-width:0.5;" x="518.4" xlink:href="#m7fcf5fa7b3" y="320.518991985"/>
      </g>
     </g>
    </g>
    <g id="ytick_18">
     <g id="line2d_50">
      <g>
       <use style="stroke:#000000;stroke-width:0.5;" x="72.0" xlink:href="#mf976221ded" y="315.7213445"/>
      </g>
     </g>
     <g id="line2d_51">
      <g>
       <use style="stroke:#000000;stroke-width:0.5;" x="518.4" xlink:href="#m7fcf5fa7b3" y="315.7213445"/>
      </g>
     </g>
    </g>
    <g id="ytick_19">
     <g id="line2d_52">
      <g>
       <use style="stroke:#000000;stroke-width:0.5;" x="72.0" xlink:href="#mf976221ded" y="300.440448167"/>
      </g>
     </g>
     <g id="line2d_53">
      <g>
       <use style="stroke:#000000;stroke-width:0.5;" x="518.4" xlink:href="#m7fcf5fa7b3" y="300.440448167"/>
      </g>
     </g>
    </g>
    <g id="ytick_20">
     <g id="line2d_54">
      <g>
       <use style="stroke:#000000;stroke-width:0.5;" x="72.0" xlink:href="#mf976221ded" y="288.880896333"/>
      </g>
     </g>
     <g id="line2d_55">
      <g>
       <use style="stroke:#000000;stroke-width:0.5;" x="518.4" xlink:href="#m7fcf5fa7b3" y="288.880896333"/>
      </g>
     </g>
    </g>
    <g id="ytick_21">
     <g id="line2d_56">
      <g>
       <use style="stroke:#000000;stroke-width:0.5;" x="72.0" xlink:href="#mf976221ded" y="282.118991985"/>
      </g>
     </g>
     <g id="line2d_57">
      <g>
       <use style="stroke:#000000;stroke-width:0.5;" x="518.4" xlink:href="#m7fcf5fa7b3" y="282.118991985"/>
      </g>
     </g>
    </g>
    <g id="ytick_22">
     <g id="line2d_58">
      <g>
       <use style="stroke:#000000;stroke-width:0.5;" x="72.0" xlink:href="#mf976221ded" y="277.3213445"/>
      </g>
     </g>
     <g id="line2d_59">
      <g>
       <use style="stroke:#000000;stroke-width:0.5;" x="518.4" xlink:href="#m7fcf5fa7b3" y="277.3213445"/>
      </g>
     </g>
    </g>
    <g id="ytick_23">
     <g id="line2d_60">
      <g>
       <use style="stroke:#000000;stroke-width:0.5;" x="72.0" xlink:href="#mf976221ded" y="262.040448167"/>
      </g>
     </g>
     <g id="line2d_61">
      <g>
       <use style="stroke:#000000;stroke-width:0.5;" x="518.4" xlink:href="#m7fcf5fa7b3" y="262.040448167"/>
      </g>
     </g>
    </g>
    <g id="ytick_24">
     <g id="line2d_62">
      <g>
       <use style="stroke:#000000;stroke-width:0.5;" x="72.0" xlink:href="#mf976221ded" y="250.480896333"/>
      </g>
     </g>
     <g id="line2d_63">
      <g>
       <use style="stroke:#000000;stroke-width:0.5;" x="518.4" xlink:href="#m7fcf5fa7b3" y="250.480896333"/>
      </g>
     </g>
    </g>
    <g id="ytick_25">
     <g id="line2d_64">
      <g>
       <use style="stroke:#000000;stroke-width:0.5;" x="72.0" xlink:href="#mf976221ded" y="243.718991985"/>
      </g>
     </g>
     <g id="line2d_65">
      <g>
       <use style="stroke:#000000;stroke-width:0.5;" x="518.4" xlink:href="#m7fcf5fa7b3" y="243.718991985"/>
      </g>
     </g>
    </g>
    <g id="ytick_26">
     <g id="line2d_66">
      <g>
       <use style="stroke:#000000;stroke-width:0.5;" x="72.0" xlink:href="#mf976221ded" y="238.9213445"/>
      </g>
     </g>
     <g id="line2d_67">
      <g>
       <use style="stroke:#000000;stroke-width:0.5;" x="518.4" xlink:href="#m7fcf5fa7b3" y="238.9213445"/>
      </g>
     </g>
    </g>
    <g id="ytick_27">
     <g id="line2d_68">
      <g>
       <use style="stroke:#000000;stroke-width:0.5;" x="72.0" xlink:href="#mf976221ded" y="223.640448167"/>
      </g>
     </g>
     <g id="line2d_69">
      <g>
       <use style="stroke:#000000;stroke-width:0.5;" x="518.4" xlink:href="#m7fcf5fa7b3" y="223.640448167"/>
      </g>
     </g>
    </g>
    <g id="ytick_28">
     <g id="line2d_70">
      <g>
       <use style="stroke:#000000;stroke-width:0.5;" x="72.0" xlink:href="#mf976221ded" y="212.080896333"/>
      </g>
     </g>
     <g id="line2d_71">
      <g>
       <use style="stroke:#000000;stroke-width:0.5;" x="518.4" xlink:href="#m7fcf5fa7b3" y="212.080896333"/>
      </g>
     </g>
    </g>
    <g id="ytick_29">
     <g id="line2d_72">
      <g>
       <use style="stroke:#000000;stroke-width:0.5;" x="72.0" xlink:href="#mf976221ded" y="205.318991985"/>
      </g>
     </g>
     <g id="line2d_73">
      <g>
       <use style="stroke:#000000;stroke-width:0.5;" x="518.4" xlink:href="#m7fcf5fa7b3" y="205.318991985"/>
      </g>
     </g>
    </g>
    <g id="ytick_30">
     <g id="line2d_74">
      <g>
       <use style="stroke:#000000;stroke-width:0.5;" x="72.0" xlink:href="#mf976221ded" y="200.5213445"/>
      </g>
     </g>
     <g id="line2d_75">
      <g>
       <use style="stroke:#000000;stroke-width:0.5;" x="518.4" xlink:href="#m7fcf5fa7b3" y="200.5213445"/>
      </g>
     </g>
    </g>
    <g id="ytick_31">
     <g id="line2d_76">
      <g>
       <use style="stroke:#000000;stroke-width:0.5;" x="72.0" xlink:href="#mf976221ded" y="185.240448167"/>
      </g>
     </g>
     <g id="line2d_77">
      <g>
       <use style="stroke:#000000;stroke-width:0.5;" x="518.4" xlink:href="#m7fcf5fa7b3" y="185.240448167"/>
      </g>
     </g>
    </g>
    <g id="ytick_32">
     <g id="line2d_78">
      <g>
       <use style="stroke:#000000;stroke-width:0.5;" x="72.0" xlink:href="#mf976221ded" y="173.680896333"/>
      </g>
     </g>
     <g id="line2d_79">
      <g>
       <use style="stroke:#000000;stroke-width:0.5;" x="518.4" xlink:href="#m7fcf5fa7b3" y="173.680896333"/>
      </g>
     </g>
    </g>
    <g id="ytick_33">
     <g id="line2d_80">
      <g>
       <use style="stroke:#000000;stroke-width:0.5;" x="72.0" xlink:href="#mf976221ded" y="166.918991985"/>
      </g>
     </g>
     <g id="line2d_81">
      <g>
       <use style="stroke:#000000;stroke-width:0.5;" x="518.4" xlink:href="#m7fcf5fa7b3" y="166.918991985"/>
      </g>
     </g>
    </g>
    <g id="ytick_34">
     <g id="line2d_82">
      <g>
       <use style="stroke:#000000;stroke-width:0.5;" x="72.0" xlink:href="#mf976221ded" y="162.1213445"/>
      </g>
     </g>
     <g id="line2d_83">
      <g>
       <use style="stroke:#000000;stroke-width:0.5;" x="518.4" xlink:href="#m7fcf5fa7b3" y="162.1213445"/>
      </g>
     </g>
    </g>
    <g id="ytick_35">
     <g id="line2d_84">
      <g>
       <use style="stroke:#000000;stroke-width:0.5;" x="72.0" xlink:href="#mf976221ded" y="146.840448167"/>
      </g>
     </g>
     <g id="line2d_85">
      <g>
       <use style="stroke:#000000;stroke-width:0.5;" x="518.4" xlink:href="#m7fcf5fa7b3" y="146.840448167"/>
      </g>
     </g>
    </g>
    <g id="ytick_36">
     <g id="line2d_86">
      <g>
       <use style="stroke:#000000;stroke-width:0.5;" x="72.0" xlink:href="#mf976221ded" y="135.280896333"/>
      </g>
     </g>
     <g id="line2d_87">
      <g>
       <use style="stroke:#000000;stroke-width:0.5;" x="518.4" xlink:href="#m7fcf5fa7b3" y="135.280896333"/>
      </g>
     </g>
    </g>
    <g id="ytick_37">
     <g id="line2d_88">
      <g>
       <use style="stroke:#000000;stroke-width:0.5;" x="72.0" xlink:href="#mf976221ded" y="128.518991985"/>
      </g>
     </g>
     <g id="line2d_89">
      <g>
       <use style="stroke:#000000;stroke-width:0.5;" x="518.4" xlink:href="#m7fcf5fa7b3" y="128.518991985"/>
      </g>
     </g>
    </g>
    <g id="ytick_38">
     <g id="line2d_90">
      <g>
       <use style="stroke:#000000;stroke-width:0.5;" x="72.0" xlink:href="#mf976221ded" y="123.7213445"/>
      </g>
     </g>
     <g id="line2d_91">
      <g>
       <use style="stroke:#000000;stroke-width:0.5;" x="518.4" xlink:href="#m7fcf5fa7b3" y="123.7213445"/>
      </g>
     </g>
    </g>
    <g id="ytick_39">
     <g id="line2d_92">
      <g>
       <use style="stroke:#000000;stroke-width:0.5;" x="72.0" xlink:href="#mf976221ded" y="108.440448167"/>
      </g>
     </g>
     <g id="line2d_93">
      <g>
       <use style="stroke:#000000;stroke-width:0.5;" x="518.4" xlink:href="#m7fcf5fa7b3" y="108.440448167"/>
      </g>
     </g>
    </g>
    <g id="ytick_40">
     <g id="line2d_94">
      <g>
       <use style="stroke:#000000;stroke-width:0.5;" x="72.0" xlink:href="#mf976221ded" y="96.880896333"/>
      </g>
     </g>
     <g id="line2d_95">
      <g>
       <use style="stroke:#000000;stroke-width:0.5;" x="518.4" xlink:href="#m7fcf5fa7b3" y="96.880896333"/>
      </g>
     </g>
    </g>
    <g id="ytick_41">
     <g id="line2d_96">
      <g>
       <use style="stroke:#000000;stroke-width:0.5;" x="72.0" xlink:href="#mf976221ded" y="90.1189919853"/>
      </g>
     </g>
     <g id="line2d_97">
      <g>
       <use style="stroke:#000000;stroke-width:0.5;" x="518.4" xlink:href="#m7fcf5fa7b3" y="90.1189919853"/>
      </g>
     </g>
    </g>
    <g id="ytick_42">
     <g id="line2d_98">
      <g>
       <use style="stroke:#000000;stroke-width:0.5;" x="72.0" xlink:href="#mf976221ded" y="85.3213444995"/>
      </g>
     </g>
     <g id="line2d_99">
      <g>
       <use style="stroke:#000000;stroke-width:0.5;" x="518.4" xlink:href="#m7fcf5fa7b3" y="85.3213444995"/>
      </g>
     </g>
    </g>
    <g id="ytick_43">
     <g id="line2d_100">
      <g>
       <use style="stroke:#000000;stroke-width:0.5;" x="72.0" xlink:href="#mf976221ded" y="70.0404481665"/>
      </g>
     </g>
     <g id="line2d_101">
      <g>
       <use style="stroke:#000000;stroke-width:0.5;" x="518.4" xlink:href="#m7fcf5fa7b3" y="70.0404481665"/>
      </g>
     </g>
    </g>
    <g id="ytick_44">
     <g id="line2d_102">
      <g>
       <use style="stroke:#000000;stroke-width:0.5;" x="72.0" xlink:href="#mf976221ded" y="58.480896333"/>
      </g>
     </g>
     <g id="line2d_103">
      <g>
       <use style="stroke:#000000;stroke-width:0.5;" x="518.4" xlink:href="#m7fcf5fa7b3" y="58.480896333"/>
      </g>
     </g>
    </g>
    <g id="ytick_45">
     <g id="line2d_104">
      <g>
       <use style="stroke:#000000;stroke-width:0.5;" x="72.0" xlink:href="#mf976221ded" y="51.7189919853"/>
      </g>
     </g>
     <g id="line2d_105">
      <g>
       <use style="stroke:#000000;stroke-width:0.5;" x="518.4" xlink:href="#m7fcf5fa7b3" y="51.7189919853"/>
      </g>
     </g>
    </g>
    <g id="ytick_46">
     <g id="line2d_106">
      <g>
       <use style="stroke:#000000;stroke-width:0.5;" x="72.0" xlink:href="#mf976221ded" y="46.9213444995"/>
      </g>
     </g>
     <g id="line2d_107">
      <g>
       <use style="stroke:#000000;stroke-width:0.5;" x="518.4" xlink:href="#m7fcf5fa7b3" y="46.9213444995"/>
      </g>
     </g>
    </g>
   </g>
   <g id="legend_1">
    <g id="patch_7">
     <path d="M 327.21525 118.1295 
L 511.2 118.1295 
L 511.2 50.4 
L 327.21525 50.4 
z
" style="fill:#ffffff;stroke:#000000;stroke-linejoin:miter;"/>
    </g>
    <g id="line2d_108">
     <path d="M 337.29525 62.06175 
L 357.45525 62.06175 
" style="fill:none;stroke:#0000ff;stroke-linecap:square;"/>
    </g>
    <g id="line2d_109"/>
    <g id="text_17">
     <!-- overall loss -->
     <defs>
      <path id="BitstreamVeraSans-Roman-20"/>
      <path d="M 41.109375 46.296875 
Q 39.59375 47.171875 37.8125 47.578125 
Q 36.03125 48 33.890625 48 
Q 26.265625 48 22.1875 43.046875 
Q 18.109375 38.09375 18.109375 28.8125 
L 18.109375 0 
L 9.078125 0 
L 9.078125 54.6875 
L 18.109375 54.6875 
L 18.109375 46.1875 
Q 20.953125 51.171875 25.484375 53.578125 
Q 30.03125 56 36.53125 56 
Q 37.453125 56 38.578125 55.875 
Q 39.703125 55.765625 41.0625 55.515625 
z
" id="BitstreamVeraSans-Roman-72"/>
      <path d="M 30.609375 48.390625 
Q 23.390625 48.390625 19.1875 42.75 
Q 14.984375 37.109375 14.984375 27.296875 
Q 14.984375 17.484375 19.15625 11.84375 
Q 23.34375 6.203125 30.609375 6.203125 
Q 37.796875 6.203125 41.984375 11.859375 
Q 46.1875 17.53125 46.1875 27.296875 
Q 46.1875 37.015625 41.984375 42.703125 
Q 37.796875 48.390625 30.609375 48.390625 
M 30.609375 56 
Q 42.328125 56 49.015625 48.375 
Q 55.71875 40.765625 55.71875 27.296875 
Q 55.71875 13.875 49.015625 6.21875 
Q 42.328125 -1.421875 30.609375 -1.421875 
Q 18.84375 -1.421875 12.171875 6.21875 
Q 5.515625 13.875 5.515625 27.296875 
Q 5.515625 40.765625 12.171875 48.375 
Q 18.84375 56 30.609375 56 
" id="BitstreamVeraSans-Roman-6f"/>
      <path d="M 9.421875 75.984375 
L 18.40625 75.984375 
L 18.40625 0 
L 9.421875 0 
z
" id="BitstreamVeraSans-Roman-6c"/>
      <path d="M 56.203125 29.59375 
L 56.203125 25.203125 
L 14.890625 25.203125 
Q 15.484375 15.921875 20.484375 11.0625 
Q 25.484375 6.203125 34.421875 6.203125 
Q 39.59375 6.203125 44.453125 7.46875 
Q 49.3125 8.734375 54.109375 11.28125 
L 54.109375 2.78125 
Q 49.265625 0.734375 44.1875 -0.34375 
Q 39.109375 -1.421875 33.890625 -1.421875 
Q 20.796875 -1.421875 13.15625 6.1875 
Q 5.515625 13.8125 5.515625 26.8125 
Q 5.515625 40.234375 12.765625 48.109375 
Q 20.015625 56 32.328125 56 
Q 43.359375 56 49.78125 48.890625 
Q 56.203125 41.796875 56.203125 29.59375 
M 47.21875 32.234375 
Q 47.125 39.59375 43.09375 43.984375 
Q 39.0625 48.390625 32.421875 48.390625 
Q 24.90625 48.390625 20.390625 44.140625 
Q 15.875 39.890625 15.1875 32.171875 
z
" id="BitstreamVeraSans-Roman-65"/>
      <path d="M 2.984375 54.6875 
L 12.5 54.6875 
L 29.59375 8.796875 
L 46.6875 54.6875 
L 56.203125 54.6875 
L 35.6875 0 
L 23.484375 0 
z
" id="BitstreamVeraSans-Roman-76"/>
      <path d="M 34.28125 27.484375 
Q 23.390625 27.484375 19.1875 25 
Q 14.984375 22.515625 14.984375 16.5 
Q 14.984375 11.71875 18.140625 8.90625 
Q 21.296875 6.109375 26.703125 6.109375 
Q 34.1875 6.109375 38.703125 11.40625 
Q 43.21875 16.703125 43.21875 25.484375 
L 43.21875 27.484375 
z
M 52.203125 31.203125 
L 52.203125 0 
L 43.21875 0 
L 43.21875 8.296875 
Q 40.140625 3.328125 35.546875 0.953125 
Q 30.953125 -1.421875 24.3125 -1.421875 
Q 15.921875 -1.421875 10.953125 3.296875 
Q 6 8.015625 6 15.921875 
Q 6 25.140625 12.171875 29.828125 
Q 18.359375 34.515625 30.609375 34.515625 
L 43.21875 34.515625 
L 43.21875 35.40625 
Q 43.21875 41.609375 39.140625 45 
Q 35.0625 48.390625 27.6875 48.390625 
Q 23 48.390625 18.546875 47.265625 
Q 14.109375 46.140625 10.015625 43.890625 
L 10.015625 52.203125 
Q 14.9375 54.109375 19.578125 55.046875 
Q 24.21875 56 28.609375 56 
Q 40.484375 56 46.34375 49.84375 
Q 52.203125 43.703125 52.203125 31.203125 
" id="BitstreamVeraSans-Roman-61"/>
      <path d="M 44.28125 53.078125 
L 44.28125 44.578125 
Q 40.484375 46.53125 36.375 47.5 
Q 32.28125 48.484375 27.875 48.484375 
Q 21.1875 48.484375 17.84375 46.4375 
Q 14.5 44.390625 14.5 40.28125 
Q 14.5 37.15625 16.890625 35.375 
Q 19.28125 33.59375 26.515625 31.984375 
L 29.59375 31.296875 
Q 39.15625 29.25 43.1875 25.515625 
Q 47.21875 21.78125 47.21875 15.09375 
Q 47.21875 7.46875 41.1875 3.015625 
Q 35.15625 -1.421875 24.609375 -1.421875 
Q 20.21875 -1.421875 15.453125 -0.5625 
Q 10.6875 0.296875 5.421875 2 
L 5.421875 11.28125 
Q 10.40625 8.6875 15.234375 7.390625 
Q 20.0625 6.109375 24.8125 6.109375 
Q 31.15625 6.109375 34.5625 8.28125 
Q 37.984375 10.453125 37.984375 14.40625 
Q 37.984375 18.0625 35.515625 20.015625 
Q 33.0625 21.96875 24.703125 23.78125 
L 21.578125 24.515625 
Q 13.234375 26.265625 9.515625 29.90625 
Q 5.8125 33.546875 5.8125 39.890625 
Q 5.8125 47.609375 11.28125 51.796875 
Q 16.75 56 26.8125 56 
Q 31.78125 56 36.171875 55.265625 
Q 40.578125 54.546875 44.28125 53.078125 
" id="BitstreamVeraSans-Roman-73"/>
     </defs>
     <g transform="translate(373.29525 67.10175)scale(0.144 -0.144)">
      <use xlink:href="#BitstreamVeraSans-Roman-6f"/>
      <use x="61.181640625" xlink:href="#BitstreamVeraSans-Roman-76"/>
      <use x="120.361328125" xlink:href="#BitstreamVeraSans-Roman-65"/>
      <use x="181.884765625" xlink:href="#BitstreamVeraSans-Roman-72"/>
      <use x="222.998046875" xlink:href="#BitstreamVeraSans-Roman-61"/>
      <use x="284.27734375" xlink:href="#BitstreamVeraSans-Roman-6c"/>
      <use x="312.060546875" xlink:href="#BitstreamVeraSans-Roman-6c"/>
      <use x="339.84375" xlink:href="#BitstreamVeraSans-Roman-20"/>
      <use x="371.630859375" xlink:href="#BitstreamVeraSans-Roman-6c"/>
      <use x="399.4140625" xlink:href="#BitstreamVeraSans-Roman-6f"/>
      <use x="460.595703125" xlink:href="#BitstreamVeraSans-Roman-73"/>
      <use x="512.6953125" xlink:href="#BitstreamVeraSans-Roman-73"/>
     </g>
    </g>
    <g id="line2d_110">
     <path d="M 337.29525 83.19825 
L 357.45525 83.19825 
" style="fill:none;stroke:#008000;stroke-linecap:square;"/>
    </g>
    <g id="line2d_111"/>
    <g id="text_18">
     <!-- squared error loss -->
     <defs>
      <path d="M 45.40625 46.390625 
L 45.40625 75.984375 
L 54.390625 75.984375 
L 54.390625 0 
L 45.40625 0 
L 45.40625 8.203125 
Q 42.578125 3.328125 38.25 0.953125 
Q 33.9375 -1.421875 27.875 -1.421875 
Q 17.96875 -1.421875 11.734375 6.484375 
Q 5.515625 14.40625 5.515625 27.296875 
Q 5.515625 40.1875 11.734375 48.09375 
Q 17.96875 56 27.875 56 
Q 33.9375 56 38.25 53.625 
Q 42.578125 51.265625 45.40625 46.390625 
M 14.796875 27.296875 
Q 14.796875 17.390625 18.875 11.75 
Q 22.953125 6.109375 30.078125 6.109375 
Q 37.203125 6.109375 41.296875 11.75 
Q 45.40625 17.390625 45.40625 27.296875 
Q 45.40625 37.203125 41.296875 42.84375 
Q 37.203125 48.484375 30.078125 48.484375 
Q 22.953125 48.484375 18.875 42.84375 
Q 14.796875 37.203125 14.796875 27.296875 
" id="BitstreamVeraSans-Roman-64"/>
      <path d="M 8.5 21.578125 
L 8.5 54.6875 
L 17.484375 54.6875 
L 17.484375 21.921875 
Q 17.484375 14.15625 20.5 10.265625 
Q 23.53125 6.390625 29.59375 6.390625 
Q 36.859375 6.390625 41.078125 11.03125 
Q 45.3125 15.671875 45.3125 23.6875 
L 45.3125 54.6875 
L 54.296875 54.6875 
L 54.296875 0 
L 45.3125 0 
L 45.3125 8.40625 
Q 42.046875 3.421875 37.71875 1 
Q 33.40625 -1.421875 27.6875 -1.421875 
Q 18.265625 -1.421875 13.375 4.4375 
Q 8.5 10.296875 8.5 21.578125 
" id="BitstreamVeraSans-Roman-75"/>
      <path d="M 14.796875 27.296875 
Q 14.796875 17.390625 18.875 11.75 
Q 22.953125 6.109375 30.078125 6.109375 
Q 37.203125 6.109375 41.296875 11.75 
Q 45.40625 17.390625 45.40625 27.296875 
Q 45.40625 37.203125 41.296875 42.84375 
Q 37.203125 48.484375 30.078125 48.484375 
Q 22.953125 48.484375 18.875 42.84375 
Q 14.796875 37.203125 14.796875 27.296875 
M 45.40625 8.203125 
Q 42.578125 3.328125 38.25 0.953125 
Q 33.9375 -1.421875 27.875 -1.421875 
Q 17.96875 -1.421875 11.734375 6.484375 
Q 5.515625 14.40625 5.515625 27.296875 
Q 5.515625 40.1875 11.734375 48.09375 
Q 17.96875 56 27.875 56 
Q 33.9375 56 38.25 53.625 
Q 42.578125 51.265625 45.40625 46.390625 
L 45.40625 54.6875 
L 54.390625 54.6875 
L 54.390625 -20.796875 
L 45.40625 -20.796875 
z
" id="BitstreamVeraSans-Roman-71"/>
     </defs>
     <g transform="translate(373.29525 88.23825)scale(0.144 -0.144)">
      <use xlink:href="#BitstreamVeraSans-Roman-73"/>
      <use x="52.099609375" xlink:href="#BitstreamVeraSans-Roman-71"/>
      <use x="115.576171875" xlink:href="#BitstreamVeraSans-Roman-75"/>
      <use x="178.955078125" xlink:href="#BitstreamVeraSans-Roman-61"/>
      <use x="240.234375" xlink:href="#BitstreamVeraSans-Roman-72"/>
      <use x="281.31640625" xlink:href="#BitstreamVeraSans-Roman-65"/>
      <use x="342.83984375" xlink:href="#BitstreamVeraSans-Roman-64"/>
      <use x="406.31640625" xlink:href="#BitstreamVeraSans-Roman-20"/>
      <use x="438.103515625" xlink:href="#BitstreamVeraSans-Roman-65"/>
      <use x="499.626953125" xlink:href="#BitstreamVeraSans-Roman-72"/>
      <use x="540.724609375" xlink:href="#BitstreamVeraSans-Roman-72"/>
      <use x="581.806640625" xlink:href="#BitstreamVeraSans-Roman-6f"/>
      <use x="642.98828125" xlink:href="#BitstreamVeraSans-Roman-72"/>
      <use x="684.1015625" xlink:href="#BitstreamVeraSans-Roman-20"/>
      <use x="715.888671875" xlink:href="#BitstreamVeraSans-Roman-6c"/>
      <use x="743.671875" xlink:href="#BitstreamVeraSans-Roman-6f"/>
      <use x="804.853515625" xlink:href="#BitstreamVeraSans-Roman-73"/>
      <use x="856.953125" xlink:href="#BitstreamVeraSans-Roman-73"/>
     </g>
    </g>
    <g id="line2d_112">
     <path d="M 337.29525 104.33475 
L 357.45525 104.33475 
" style="fill:none;stroke:#ff0000;stroke-linecap:square;"/>
    </g>
    <g id="line2d_113"/>
    <g id="text_19">
     <!-- regularization loss -->
     <defs>
      <path d="M 54.890625 33.015625 
L 54.890625 0 
L 45.90625 0 
L 45.90625 32.71875 
Q 45.90625 40.484375 42.875 44.328125 
Q 39.84375 48.1875 33.796875 48.1875 
Q 26.515625 48.1875 22.3125 43.546875 
Q 18.109375 38.921875 18.109375 30.90625 
L 18.109375 0 
L 9.078125 0 
L 9.078125 54.6875 
L 18.109375 54.6875 
L 18.109375 46.1875 
Q 21.34375 51.125 25.703125 53.5625 
Q 30.078125 56 35.796875 56 
Q 45.21875 56 50.046875 50.171875 
Q 54.890625 44.34375 54.890625 33.015625 
" id="BitstreamVeraSans-Roman-6e"/>
      <path d="M 45.40625 27.984375 
Q 45.40625 37.75 41.375 43.109375 
Q 37.359375 48.484375 30.078125 48.484375 
Q 22.859375 48.484375 18.828125 43.109375 
Q 14.796875 37.75 14.796875 27.984375 
Q 14.796875 18.265625 18.828125 12.890625 
Q 22.859375 7.515625 30.078125 7.515625 
Q 37.359375 7.515625 41.375 12.890625 
Q 45.40625 18.265625 45.40625 27.984375 
M 54.390625 6.78125 
Q 54.390625 -7.171875 48.1875 -13.984375 
Q 42 -20.796875 29.203125 -20.796875 
Q 24.46875 -20.796875 20.265625 -20.09375 
Q 16.0625 -19.390625 12.109375 -17.921875 
L 12.109375 -9.1875 
Q 16.0625 -11.328125 19.921875 -12.34375 
Q 23.78125 -13.375 27.78125 -13.375 
Q 36.625 -13.375 41.015625 -8.765625 
Q 45.40625 -4.15625 45.40625 5.171875 
L 45.40625 9.625 
Q 42.625 4.78125 38.28125 2.390625 
Q 33.9375 0 27.875 0 
Q 17.828125 0 11.671875 7.65625 
Q 5.515625 15.328125 5.515625 27.984375 
Q 5.515625 40.671875 11.671875 48.328125 
Q 17.828125 56 27.875 56 
Q 33.9375 56 38.28125 53.609375 
Q 42.625 51.21875 45.40625 46.390625 
L 45.40625 54.6875 
L 54.390625 54.6875 
z
" id="BitstreamVeraSans-Roman-67"/>
      <path d="M 9.421875 54.6875 
L 18.40625 54.6875 
L 18.40625 0 
L 9.421875 0 
z
M 9.421875 75.984375 
L 18.40625 75.984375 
L 18.40625 64.59375 
L 9.421875 64.59375 
z
" id="BitstreamVeraSans-Roman-69"/>
      <path d="M 18.3125 70.21875 
L 18.3125 54.6875 
L 36.8125 54.6875 
L 36.8125 47.703125 
L 18.3125 47.703125 
L 18.3125 18.015625 
Q 18.3125 11.328125 20.140625 9.421875 
Q 21.96875 7.515625 27.59375 7.515625 
L 36.8125 7.515625 
L 36.8125 0 
L 27.59375 0 
Q 17.1875 0 13.234375 3.875 
Q 9.28125 7.765625 9.28125 18.015625 
L 9.28125 47.703125 
L 2.6875 47.703125 
L 2.6875 54.6875 
L 9.28125 54.6875 
L 9.28125 70.21875 
z
" id="BitstreamVeraSans-Roman-74"/>
      <path d="M 5.515625 54.6875 
L 48.1875 54.6875 
L 48.1875 46.484375 
L 14.40625 7.171875 
L 48.1875 7.171875 
L 48.1875 0 
L 4.296875 0 
L 4.296875 8.203125 
L 38.09375 47.515625 
L 5.515625 47.515625 
z
" id="BitstreamVeraSans-Roman-7a"/>
     </defs>
     <g transform="translate(373.29525 109.37475)scale(0.144 -0.144)">
      <use xlink:href="#BitstreamVeraSans-Roman-72"/>
      <use x="41.08203125" xlink:href="#BitstreamVeraSans-Roman-65"/>
      <use x="102.60546875" xlink:href="#BitstreamVeraSans-Roman-67"/>
      <use x="166.08203125" xlink:href="#BitstreamVeraSans-Roman-75"/>
      <use x="229.4609375" xlink:href="#BitstreamVeraSans-Roman-6c"/>
      <use x="257.244140625" xlink:href="#BitstreamVeraSans-Roman-61"/>
      <use x="318.5234375" xlink:href="#BitstreamVeraSans-Roman-72"/>
      <use x="359.63671875" xlink:href="#BitstreamVeraSans-Roman-69"/>
      <use x="387.419921875" xlink:href="#BitstreamVeraSans-Roman-7a"/>
      <use x="439.91015625" xlink:href="#BitstreamVeraSans-Roman-61"/>
      <use x="501.189453125" xlink:href="#BitstreamVeraSans-Roman-74"/>
      <use x="540.3984375" xlink:href="#BitstreamVeraSans-Roman-69"/>
      <use x="568.181640625" xlink:href="#BitstreamVeraSans-Roman-6f"/>
      <use x="629.36328125" xlink:href="#BitstreamVeraSans-Roman-6e"/>
      <use x="692.7421875" xlink:href="#BitstreamVeraSans-Roman-20"/>
      <use x="724.529296875" xlink:href="#BitstreamVeraSans-Roman-6c"/>
      <use x="752.3125" xlink:href="#BitstreamVeraSans-Roman-6f"/>
      <use x="813.494140625" xlink:href="#BitstreamVeraSans-Roman-73"/>
      <use x="865.59375" xlink:href="#BitstreamVeraSans-Roman-73"/>
     </g>
    </g>
   </g>
  </g>
 </g>
 <defs>
  <clipPath id="p06346d084e">
   <rect height="345.6" width="446.4" x="72.0" y="43.2"/>
  </clipPath>
 </defs>
</svg>
